<svg width="156" height="137" viewBox="0 0 156 137" fill="none" xmlns="http://www.w3.org/2000/svg">
<g opacity="0.2">
<path d="M57.5574 130.868C58.2749 130.77 58.9699 130.548 59.6115 130.212L146.838 85.5031C148.392 84.6736 149.563 83.2736 150.106 81.5978C150.648 79.922 150.518 78.1012 149.745 76.5189L125.816 26.8696C125.434 26.0643 124.892 25.3447 124.224 24.7543C123.556 24.164 122.775 23.715 121.929 23.4345C121.123 23.1613 120.271 23.0527 119.422 23.1151C118.574 23.1775 117.746 23.4097 116.989 23.7979L29.7624 68.5063C28.2123 69.3388 27.0453 70.7397 26.5067 72.4146C25.968 74.0896 26.0997 75.9082 26.8739 77.4881L50.8026 127.137C51.1819 127.942 51.7204 128.661 52.3855 129.252C53.0506 129.843 53.8284 130.293 54.6721 130.575C55.598 130.896 56.5859 130.996 57.5574 130.868ZM57.9913 127.027C57.6599 127.203 57.2958 127.309 56.9217 127.338C56.5476 127.367 56.1715 127.319 55.817 127.196C55.4282 127.071 55.0688 126.868 54.7602 126.601C54.4516 126.333 54.2001 126.006 54.0211 125.639L30.0924 75.9893C29.7119 75.25 29.6366 74.391 29.8825 73.5967C30.1283 72.8024 30.6758 72.1362 31.4074 71.7411L118.634 27.0327C118.966 26.8567 119.33 26.7508 119.704 26.7218C120.078 26.6928 120.454 26.7412 120.809 26.864C121.583 27.1307 122.222 27.6909 122.587 28.4239L146.533 78.0707C146.905 78.8117 146.975 79.6675 146.73 80.4592C146.485 81.2509 145.943 81.9173 145.218 82.3191L57.9913 127.027Z" fill="white"/>
<path d="M89.3334 82.1882C90.0851 82.1248 90.8204 81.9337 91.5079 81.6232C97.5201 78.4131 118.936 35.2597 123.17 26.6357C123.375 26.2131 123.405 25.7266 123.254 25.2819C123.103 24.8371 122.782 24.4699 122.362 24.26C122.152 24.1558 121.923 24.0941 121.689 24.0785C121.454 24.0628 121.219 24.0935 120.997 24.1688C120.775 24.2441 120.569 24.3625 120.393 24.5173C120.216 24.6721 120.072 24.8601 119.969 25.0707C109.649 46.0634 93.4828 76.5291 89.8218 78.4841C86.4599 80.2545 56.411 76.7278 29.1926 72.2952C28.7291 72.2228 28.2556 72.3359 27.8749 72.61C27.4941 72.884 27.2365 73.297 27.1579 73.7596C27.0805 74.2262 27.1916 74.7045 27.4667 75.0893C27.7417 75.4741 28.1582 75.734 28.6248 75.8119C37.3241 77.28 78.2277 83.6936 89.3334 82.1882Z" fill="white"/>
<path d="M148.055 83.3421C148.391 83.2874 148.707 83.1451 148.971 82.9297C149.33 82.6227 149.553 82.1858 149.591 81.7149C149.628 81.2439 149.477 80.7773 149.171 80.4174C148.786 79.9654 147.8 78.8024 102.059 63.0134C101.624 62.8977 101.161 62.9509 100.763 63.1624C100.365 63.374 100.062 63.7283 99.9144 64.1541C99.7669 64.5799 99.786 65.0457 99.9678 65.458C100.15 65.8703 100.481 66.1986 100.894 66.377C117.407 72.0806 144.264 81.5508 146.667 82.9359C146.857 83.0967 147.079 83.2159 147.318 83.2859C147.557 83.3558 147.808 83.375 148.055 83.3421Z" fill="white"/>
<path d="M56.0776 130.06C56.4108 130.014 56.7242 129.875 56.9816 129.658C57.239 129.442 57.43 129.157 57.5326 128.837L72.9017 81.4605C72.982 81.2359 73.0165 80.9974 73.0031 80.7592C72.9896 80.5211 72.9286 80.2881 72.8235 80.0739C72.7185 79.8597 72.5716 79.6688 72.3915 79.5123C72.2114 79.3559 72.0018 79.2372 71.775 79.1632C71.5483 79.0892 71.3089 79.0614 71.0712 79.0814C70.8335 79.1015 70.6023 79.169 70.3911 79.28C70.18 79.3909 69.9932 79.5431 69.8419 79.7275C69.6905 79.9119 69.5777 80.1247 69.51 80.3534L54.1529 127.818C54.0097 128.268 54.0502 128.755 54.2657 129.175C54.4812 129.595 54.8541 129.912 55.3028 130.057C55.5573 130.119 55.8226 130.12 56.0776 130.06Z" fill="white"/>
<path d="M143.289 79.769C143.379 79.7738 143.469 79.7616 143.554 79.733C143.661 79.6836 143.758 79.6134 143.837 79.5265C143.917 79.4396 143.979 79.3377 144.019 79.2267C144.06 79.1157 144.077 78.9979 144.072 78.88C144.066 78.7621 144.037 78.6465 143.987 78.5398L121.383 31.3583C121.28 31.1455 121.097 30.9823 120.873 30.9045C120.65 30.8267 120.405 30.8407 120.192 30.9435C120.085 30.9926 119.989 31.0628 119.91 31.15C119.831 31.2371 119.77 31.3393 119.731 31.4505C119.692 31.5617 119.676 31.6796 119.684 31.7971C119.692 31.9146 119.724 32.0293 119.777 32.1343L142.381 79.3158C142.47 79.4729 142.604 79.5999 142.766 79.6806C142.927 79.7613 143.11 79.7921 143.289 79.769Z" fill="white"/>
<path d="M137.453 77.5211C137.549 77.5253 137.645 77.5124 137.736 77.4828C137.945 77.3766 138.104 77.1924 138.178 76.97C138.252 76.7476 138.236 76.5049 138.133 76.2943L129.024 57.7191C128.918 57.51 128.733 57.3511 128.511 57.2767C128.289 57.2024 128.046 57.2187 127.835 57.3219C127.623 57.4249 127.459 57.6082 127.382 57.8314C127.304 58.0547 127.318 58.2997 127.42 58.5127L136.547 77.0855C136.637 77.2407 136.771 77.3652 136.933 77.4429C137.095 77.5206 137.276 77.5479 137.453 77.5211Z" fill="white"/>
<path d="M58.159 125.319C58.2549 125.323 58.3508 125.31 58.4421 125.281L142.481 82.4274C142.693 82.3198 142.854 82.1323 142.928 81.9061C143.002 81.6799 142.983 81.4336 142.876 81.2213C142.768 81.009 142.58 80.8481 142.354 80.7741C142.128 80.7001 141.882 80.7189 141.669 80.8265L57.6331 123.698C57.5197 123.733 57.4143 123.791 57.3231 123.867C57.2319 123.943 57.1565 124.036 57.1014 124.142C57.0463 124.247 57.0124 124.362 57.0018 124.481C56.9912 124.599 57.004 124.718 57.0395 124.832C57.075 124.945 57.1324 125.05 57.2086 125.142C57.2848 125.233 57.3782 125.308 57.4835 125.363C57.5888 125.418 57.7039 125.452 57.8223 125.463C57.9407 125.474 58.06 125.461 58.1734 125.425L58.159 125.319Z" fill="white"/>
<path d="M59.5466 120.55L59.8472 120.51L82.113 108.865C82.2184 108.813 82.3122 108.739 82.3887 108.65C82.4651 108.56 82.5227 108.456 82.5579 108.343C82.5931 108.231 82.6053 108.113 82.5936 107.995C82.5819 107.878 82.5467 107.765 82.49 107.661C82.3804 107.452 82.1919 107.294 81.9662 107.224C81.7405 107.153 81.496 107.175 81.2863 107.284L59.0207 118.929C58.8111 119.038 58.6537 119.227 58.583 119.452C58.5123 119.678 58.5341 119.923 58.6436 120.132C58.7319 120.287 58.8663 120.411 59.0282 120.486C59.1901 120.561 59.3713 120.583 59.5466 120.55Z" fill="white"/>
<path d="M85.3863 74.6922C86.9739 74.6462 88.5035 74.0849 89.7439 73.093C93.7092 68.4674 110.053 36.9152 110.683 35.5871C110.737 35.4827 110.771 35.3687 110.781 35.2515C110.792 35.1343 110.779 35.0161 110.744 34.9038C110.708 34.7915 110.651 34.6873 110.576 34.5971C110.5 34.5069 110.407 34.4324 110.303 34.378C110.199 34.3236 110.085 34.2902 109.967 34.2798C109.85 34.2695 109.732 34.2823 109.62 34.3175C109.508 34.3528 109.403 34.4099 109.313 34.4855C109.223 34.561 109.148 34.6536 109.094 34.758C108.923 35.0874 92.2223 67.4624 88.3969 71.9249C85.7526 75.0027 60.5424 72.0988 45.2742 69.468C45.04 69.4316 44.8009 69.4879 44.6076 69.6251C44.4143 69.7623 44.2821 69.9695 44.2392 70.2026C44.203 70.4344 44.2596 70.6711 44.3966 70.8615C44.5337 71.0519 44.7401 71.1806 44.9714 71.2199C50.5928 72.1688 74.9526 76.1065 85.3863 74.6922Z" fill="white"/>
<path d="M133.264 23.4502C133.533 23.4148 133.791 23.3183 134.018 23.1679C134.409 22.9022 134.679 22.4919 134.768 22.0274C134.857 21.5628 134.758 21.0819 134.492 20.6904C129.997 14.0961 122.206 8.43475 113.806 12.3648C113.594 12.4645 113.403 12.6051 113.245 12.7785C113.087 12.9519 112.965 13.1547 112.885 13.3754C112.805 13.596 112.77 13.8302 112.781 14.0646C112.792 14.2989 112.849 14.5288 112.948 14.7412C113.048 14.9535 113.189 15.1441 113.362 15.3021C113.535 15.4601 113.738 15.5825 113.959 15.6621C114.18 15.7417 114.414 15.7771 114.648 15.7662C114.882 15.7553 115.112 15.6984 115.325 15.5986C123.337 11.8652 129.764 20.0886 131.54 22.6933C131.728 22.9676 131.989 23.1838 132.294 23.3175C132.599 23.4512 132.934 23.4972 133.264 23.4502Z" fill="white"/>
<path d="M20.0076 82.6328L20.2198 82.6041C20.4474 82.5464 20.6614 82.4443 20.8496 82.3038C21.0377 82.1632 21.1962 81.9869 21.3161 81.7849C21.4359 81.583 21.5147 81.3594 21.548 81.1269C21.5812 80.8944 21.5683 80.6576 21.5099 80.4302C19.2335 71.6081 27.8449 61.4003 27.9213 61.2999C28.0882 61.1242 28.2175 60.9165 28.3015 60.6893C28.3854 60.4621 28.4223 60.2201 28.4097 59.9782C28.3972 59.7363 28.3356 59.4995 28.2285 59.2822C28.1215 59.0648 27.9713 58.8716 27.7872 58.7142C27.6031 58.5568 27.3888 58.4385 27.1575 58.3666C26.9262 58.2946 26.6827 58.2705 26.4418 58.2957C26.2008 58.321 25.9676 58.395 25.7562 58.5133C25.5448 58.6315 25.3597 58.7916 25.2121 58.9837C24.8075 59.4528 15.308 70.6815 18.0459 81.3139C18.1557 81.7352 18.4157 82.1018 18.777 82.3448C19.1383 82.5877 19.576 82.6901 20.0076 82.6328Z" fill="white"/>
<path d="M137.527 15.0725L137.952 15.015C138.391 14.8405 138.744 14.4987 138.931 14.0647C139.119 13.6307 139.127 13.14 138.953 12.7002C136.826 7.36975 126.983 -0.408694 115.78 3.70314C115.325 3.86756 114.953 4.20617 114.748 4.6444C114.542 5.08264 114.519 5.58465 114.683 6.03999C114.848 6.49534 115.186 6.86672 115.624 7.07244C116.063 7.27816 116.565 7.30132 117.02 7.13691C120.447 5.92595 124.19 5.95839 127.595 7.22852C131 8.49866 133.85 10.9256 135.647 14.0848C135.813 14.4293 136.085 14.7112 136.424 14.8891C136.763 15.0669 137.15 15.1312 137.527 15.0725Z" fill="white"/>
<path d="M11.241 84.419L11.63 84.3663C12.0732 84.2028 12.4335 83.8703 12.6319 83.4417C12.8304 83.0131 12.8508 82.5233 12.6888 82.0797C6.52792 65.1938 23.6494 50.8069 23.8271 50.6567C24.1695 50.3495 24.38 49.9221 24.4148 49.4635C24.4496 49.0049 24.306 48.5505 24.014 48.1952C23.7219 47.8399 23.3039 47.6111 22.8472 47.5565C22.3905 47.5019 21.9304 47.6257 21.5628 47.9021C20.7682 48.5501 2.29876 64.0202 9.34102 83.2899C9.48482 83.6641 9.75045 83.9791 10.0951 84.1839C10.4398 84.3888 10.8435 84.4716 11.241 84.419Z" fill="white"/>
</g>
</svg>
