<svg width="30" height="30" viewBox="0 0 30 30" fill="none" xmlns="http://www.w3.org/2000/svg">
<path d="M30 15.0049C30 22.5831 24.3843 28.8481 17.089 29.8648C16.4068 29.9594 15.7089 30.0088 15.0005 30.0088C14.1828 30.0088 13.3798 29.9437 12.5978 29.8175C5.45493 28.6673 0 22.4727 0 15.0049C0 6.71816 6.71618 0 14.9995 0C23.2828 0 30 6.71816 30 15.0049Z" fill="#FFA500"/>
<path d="M17.0942 12.0445V15.3132H21.1365L20.4964 19.7162H17.0942V29.8608C16.412 29.9554 15.7142 30.0048 15.0058 30.0048C14.188 30.0048 13.385 29.9396 12.6031 29.8135V19.7162H8.875V15.3132H12.6031V11.3138C12.6031 8.83261 14.6137 6.82031 17.0952 6.82031V6.82241C17.1026 6.82241 17.1089 6.82031 17.1163 6.82031H21.1376V10.6283H18.5099C17.729 10.6283 17.0952 11.2623 17.0952 12.0434L17.0942 12.0445Z" fill="#333F4D"/>
</svg>
