<svg width="31" height="31" viewBox="0 0 31 31" fill="none" xmlns="http://www.w3.org/2000/svg">
<path d="M15.5732 0.210938H15.5049C7.2395 0.210938 0.539062 6.91335 0.539062 15.1812V15.2495C0.539062 23.5174 7.2395 30.2198 15.5049 30.2198H15.5732C23.8386 30.2198 30.5391 23.5174 30.5391 15.2495V15.1812C30.5391 6.91335 23.8386 0.210938 15.5732 0.210938Z" fill="#FFA500"/>
<path d="M20.1837 6.3125H10.9009C8.33633 6.3125 6.25 8.39944 6.25 10.9647V19.4597C6.25 22.025 8.33633 24.1119 10.9009 24.1119H20.1837C22.7483 24.1119 24.8346 22.025 24.8346 19.4597V10.9647C24.8346 8.39944 22.7483 6.3125 20.1837 6.3125ZM7.89068 10.9647C7.89068 9.30466 9.24128 7.95367 10.9009 7.95367H20.1837C21.8433 7.95367 23.1939 9.30466 23.1939 10.9647V19.4597C23.1939 21.1198 21.8433 22.4708 20.1837 22.4708H10.9009C9.24128 22.4708 7.89068 21.1198 7.89068 19.4597V10.9647Z" fill="#393536"/>
<path d="M15.5449 19.5376C17.9297 19.5376 19.871 17.5968 19.871 15.2102C19.871 12.8236 17.9307 10.8828 15.5449 10.8828C13.159 10.8828 11.2188 12.8236 11.2188 15.2102C11.2188 17.5968 13.159 19.5376 15.5449 19.5376ZM15.5449 12.525C17.0258 12.525 18.2303 13.7299 18.2303 15.2112C18.2303 16.6926 17.0258 17.8975 15.5449 17.8975C14.0639 17.8975 12.8594 16.6926 12.8594 15.2112C12.8594 13.7299 14.0639 12.525 15.5449 12.525Z" fill="#393536"/>
<path d="M20.275 11.5819C20.9172 11.5819 21.4406 11.0594 21.4406 10.416C21.4406 9.77252 20.9182 9.25 20.275 9.25C19.6317 9.25 19.1094 9.77252 19.1094 10.416C19.1094 11.0594 19.6317 11.5819 20.275 11.5819Z" fill="#393536"/>
</svg>
