<svg width="31" height="31" viewBox="0 0 31 31" fill="none" xmlns="http://www.w3.org/2000/svg">
<path d="M15.5732 0.210938H15.5049C7.23951 0.210938 0.539062 6.91334 0.539062 15.1812V15.2495C0.539062 23.5173 7.23951 30.2198 15.5049 30.2198H15.5732C23.8386 30.2198 30.5391 23.5173 30.5391 15.2495V15.1812C30.5391 6.91334 23.8386 0.210938 15.5732 0.210938Z" fill="#FFA500"/>
<path d="M7.69329 10.1856C7.2981 9.81865 7.10156 9.36446 7.10156 8.82406C7.10156 8.28367 7.29915 7.80951 7.69329 7.44153C8.08848 7.07461 8.59719 6.89062 9.22046 6.89062C9.84373 6.89062 10.3325 7.07461 10.7266 7.44153C11.1218 7.80846 11.3183 8.27 11.3183 8.82406C11.3183 9.37813 11.1208 9.81865 10.7266 10.1856C10.3314 10.5525 9.83007 10.7365 9.22046 10.7365C8.61085 10.7365 8.08848 10.5525 7.69329 10.1856ZM10.9862 12.2904V23.5399H7.43263V12.2904H10.9862Z" fill="#393536"/>
<path d="M22.8176 13.4023C23.5922 14.2433 23.979 15.3977 23.979 16.8675V23.3418H20.6041V17.3238C20.6041 16.5826 20.4118 16.0065 20.0282 15.5964C19.6445 15.1864 19.1274 14.9803 18.48 14.9803C17.8325 14.9803 17.3154 15.1854 16.9318 15.5964C16.5481 16.0065 16.3558 16.5826 16.3558 17.3238V23.3418H12.9609V12.2594H16.3558V13.7292C16.6995 13.2393 17.163 12.8524 17.7453 12.5675C18.3276 12.2826 18.9824 12.1406 19.7107 12.1406C21.0077 12.1406 22.044 12.5612 22.8176 13.4023Z" fill="#393536"/>
</svg>
