<svg width="31" height="31" viewBox="0 0 31 31" fill="none" xmlns="http://www.w3.org/2000/svg">
<path d="M15.5732 0.210938H15.5049C7.2395 0.210938 0.539062 6.91335 0.539062 15.1812V15.2495C0.539062 23.5174 7.2395 30.2198 15.5049 30.2198H15.5732C23.8386 30.2198 30.5391 23.5174 30.5391 15.2495V15.1812C30.5391 6.91335 23.8386 0.210938 15.5732 0.210938Z" fill="#FFA500"/>
<path d="M18.4642 19.6065C14.6248 19.6065 11.5011 16.4808 11.5 12.6402C11.5011 11.6667 12.2935 10.875 13.2647 10.875C13.3646 10.875 13.4633 10.8834 13.5579 10.9002C13.766 10.9349 13.9637 11.0054 14.1455 11.1116C14.1718 11.1273 14.1896 11.1526 14.1938 11.182L14.5995 13.7399C14.6048 13.7704 14.5953 13.7999 14.5754 13.8219C14.3515 14.0701 14.0656 14.2488 13.7471 14.3382L13.5937 14.3813L13.6515 14.5295C14.1749 15.8626 15.2407 16.9277 16.5745 17.4533L16.7227 17.5122L16.7657 17.3587C16.8551 17.0401 17.0338 16.7542 17.2818 16.5302C17.2997 16.5134 17.3238 16.505 17.348 16.505C17.3533 16.505 17.3585 16.505 17.3648 16.5061L19.922 16.9119C19.9525 16.9171 19.9777 16.934 19.9935 16.9602C20.0986 17.1421 20.169 17.3408 20.2048 17.549C20.2216 17.6415 20.2289 17.7393 20.2289 17.8413C20.2289 18.8138 19.4375 19.6055 18.4642 19.6065Z" fill="#393536"/>
<path d="M25.2709 14.3762C25.0639 12.0359 23.9918 9.86486 22.2523 8.26364C20.5023 6.65297 18.2321 5.76562 15.8578 5.76562C10.6467 5.76562 6.40677 10.0068 6.40677 15.2194C6.40677 16.9689 6.88919 18.6731 7.80255 20.1576L5.76562 24.6679L12.2874 23.973C13.4214 24.4377 14.6217 24.6732 15.8567 24.6732C16.1815 24.6732 16.5147 24.6564 16.8489 24.6217C17.1432 24.5901 17.4407 24.5439 17.7328 24.485C22.0968 23.6029 25.2825 19.7287 25.3077 15.2699V15.2194C25.3077 14.9355 25.2951 14.6517 25.2699 14.3762H25.2709ZM12.5386 21.9933L8.93033 22.3781L10.0077 19.9905L9.79219 19.7013C9.77642 19.6803 9.76066 19.6593 9.74279 19.6351C8.80736 18.343 8.31336 16.8164 8.31336 15.2205C8.31336 11.0592 11.6977 7.67383 15.8578 7.67383C19.755 7.67383 23.0585 10.7154 23.377 14.5981C23.3938 14.8062 23.4032 15.0154 23.4032 15.2215C23.4032 15.2804 23.4022 15.3382 23.4011 15.4002C23.3212 18.8813 20.8902 21.8377 17.489 22.5905C17.2294 22.6483 16.9635 22.6924 16.6986 22.7208C16.4232 22.7524 16.1405 22.7681 15.8599 22.7681C14.8603 22.7681 13.8892 22.5747 12.9716 22.192C12.8696 22.151 12.7698 22.1068 12.6762 22.0616L12.5396 21.9954L12.5386 21.9933Z" fill="#393536"/>
</svg>
