<svg width="40" height="40" viewBox="0 0 40 40" fill="none" xmlns="http://www.w3.org/2000/svg">
<path d="M20 40C8.95385 40 0 31.0462 0 20C0 8.95385 8.95385 0 20 0C31.0462 0 40 8.95385 40 20C40 31.0462 31.0462 40 20 40ZM29.1708 14.1677C29.5462 13.7923 29.5462 13.1815 29.1708 12.8062L27.1277 10.7646C26.7523 10.3892 26.1415 10.3892 25.7662 10.7646L19.98 16.5508L14.1938 10.7646C13.8185 10.3892 13.2077 10.3892 12.8323 10.7646L10.7892 12.8062C10.4138 13.1815 10.4138 13.7923 10.7892 14.1677L16.5769 19.9554L10.7892 25.74C10.4138 26.1154 10.4138 26.7262 10.7892 27.1015L12.8323 29.1446C13.2077 29.52 13.8185 29.52 14.1938 29.1446L19.98 23.3569L25.7662 29.1446C26.1415 29.52 26.7523 29.52 27.1277 29.1446L29.1708 27.1015C29.5462 26.7262 29.5462 26.1154 29.1708 25.74L23.3831 19.9554L29.1708 14.1677Z" fill="#FFA500"/>
</svg>
