<svg width="40" height="80" viewBox="0 0 40 80" fill="none" xmlns="http://www.w3.org/2000/svg">
<path d="M28.2805 16.444H22.2578V10.9766H28.2805V16.444Z" fill="#FFA500"/>
<path d="M26.8602 27.3604H22.2578V23.1875H26.8602V27.3604Z" fill="#FFA500"/>
<path d="M9.34916 20.6112V16.4384H13.9516V20.6112H9.34916ZM21.0527 40.1191C19.8983 39.3134 19.0401 37.9844 18.4781 36.1252C18.1667 35.0717 17.9844 33.061 17.9237 30.0863H13.9516V24.6257H17.8325C17.7338 22.5186 17.5363 20.8798 17.2249 19.7023C16.7768 17.9946 15.9262 16.5554 14.6655 15.3779C13.4124 14.2004 11.8554 13.3741 10.0099 12.8852C8.16438 12.3963 5.50621 12.1484 2.04299 12.1484H0V20.4873C2.9012 20.4873 4.76951 20.6457 5.60494 20.9624C6.43277 21.2723 7.00997 21.7199 7.33655 22.3052C7.65553 22.8836 7.83021 24.0473 7.85299 25.7963C7.9821 31.3326 8.18716 34.9133 8.46817 36.5384C8.90867 38.914 9.7289 40.8696 10.9365 42.4052C11.8023 43.4725 13.1921 44.5674 15.0908 45.6829C13.625 46.4472 12.425 47.3424 11.4909 48.3546C10.5567 49.3669 9.80485 50.5994 9.24283 52.0524C8.67323 53.5053 8.33146 55.4402 8.20235 57.8641C7.99729 61.8648 7.88337 64.571 7.87578 65.9895C7.86059 67.408 7.65553 68.4133 7.2606 69.0124C6.85808 69.6046 6.23531 70.0591 5.39229 70.3689C4.54167 70.6857 2.74931 70.8441 0 70.8441V79.2173H2.04299C5.39988 79.2173 7.86818 79.0039 9.4327 78.5907C11.7643 77.9572 13.5339 77.1034 14.7414 76.0223C15.949 74.9412 16.7768 73.502 17.2249 71.7117C17.673 69.9213 17.9009 66.7676 17.9009 62.2573C17.9009 59.5098 17.9996 57.5818 18.2047 56.4663C18.4857 54.9789 18.9717 53.7394 19.6477 52.7478C20.3312 51.7632 21.1438 51.0539 22.0932 50.6408C23.0425 50.2207 24.4552 49.9659 26.3311 49.8695V41.4962C23.9691 41.3792 22.2071 40.9178 21.0527 40.1191Z" fill="#FFA500"/>
<mask id="mask0_1994_5199" style="mask-type:luminance" maskUnits="userSpaceOnUse" x="34" y="0" width="6" height="8">
<path d="M35.0729 0.666667H39.2078V6.38452H35.0729V0.666667Z" fill="white" stroke="white" stroke-width="1.33333"/>
</mask>
<g mask="url(#mask0_1994_5199)">
<path d="M40.0477 5.82912H35.4453V1.65625H40.0477V5.82912Z" fill="#FFA500"/>
</g>
<path d="M16.9491 10.9755H8.35938V3.1875H16.9491V10.9755Z" fill="#FFA500"/>
</svg>
