<svg width="250" height="41" viewBox="0 0 250 41" fill="none" xmlns="http://www.w3.org/2000/svg">
<mask id="mask0_1994_6417" style="mask-type:luminance" maskUnits="userSpaceOnUse" x="0" y="0" width="14" height="35">
<path d="M0 0H13.8408V34.0813H0V0Z" fill="white"/>
</mask>
<g mask="url(#mask0_1994_6417)">
<path d="M0.015625 18.9428V14.7379C0.95308 14.693 1.66189 14.5651 2.13824 14.3544C2.61459 14.1436 3.02615 13.7912 3.37293 13.2936C3.72353 12.7996 3.9598 12.1776 4.08936 11.4313C4.19225 10.8682 4.24179 9.89381 4.24179 8.50485C4.24179 6.24175 4.35993 4.66276 4.59239 3.77134C4.82104 2.87646 5.24022 2.1578 5.84614 1.61535C6.45205 1.07289 7.33235 0.644457 8.49083 0.330041C9.27585 0.119279 10.5144 0.015625 12.1987 0.015625H13.2238V4.19977C11.7948 4.19977 10.8764 4.27233 10.4724 4.41745C10.0647 4.56256 9.76744 4.78369 9.57309 5.08428C9.37874 5.38142 9.28347 5.89278 9.28347 6.6149C9.28347 7.35084 9.22631 8.74671 9.10818 10.7991C9.04339 11.9565 8.87953 12.8929 8.60896 13.6081C8.3384 14.3267 7.99161 14.921 7.57624 15.3874C7.15705 15.8539 6.51684 16.3376 5.65179 16.8386C6.41395 17.2359 7.03511 17.7024 7.51527 18.231C7.99924 18.7631 8.36888 19.4092 8.62802 20.1659C8.88334 20.926 9.05102 21.9418 9.12723 23.2133C9.21869 25.1516 9.26442 26.3885 9.26442 26.9241C9.26442 27.6946 9.36731 28.2301 9.57309 28.5342C9.77888 28.8382 10.0914 29.0697 10.5105 29.2287C10.9297 29.3841 11.8329 29.4636 13.2238 29.4636V33.665H12.1987C10.461 33.665 9.12723 33.5406 8.20121 33.2884C7.27519 33.0397 6.49397 32.6216 5.85757 32.0377C5.21736 31.4538 4.79055 30.7316 4.57333 29.8748C4.35231 29.0179 4.24179 27.6669 4.24179 25.8219C4.24179 23.6728 4.1389 22.2804 3.93312 21.6378C3.65112 20.7049 3.22431 20.0346 2.64888 19.6338C2.07726 19.2295 1.19697 18.998 0.015625 18.9428Z" fill="#FDFDFD"/>
</g>
<path d="M29.311 8.71993H26.2891V5.97656H29.311V8.71993Z" fill="#FFA500"/>
<path d="M28.5984 14.2032H26.2891V12.1094H28.5984V14.2032Z" fill="#FFA500"/>
<path d="M19.8005 10.8167V8.72285H22.1098V10.8167H19.8005ZM25.6729 20.605C25.0937 20.2008 24.663 19.5339 24.381 18.601C24.2248 18.0724 24.1333 17.0635 24.1028 15.5709H22.1098V12.831H24.0571C24.0076 11.7737 23.9085 10.9514 23.7523 10.3606C23.5274 9.50371 23.1006 8.78159 22.468 8.19076C21.8392 7.59994 21.058 7.18532 20.132 6.94001C19.206 6.6947 17.8722 6.57031 16.1345 6.57031H15.1094V10.7545C16.5651 10.7545 17.5026 10.8339 17.9217 10.9929C18.3371 11.1483 18.6267 11.3729 18.7906 11.6666C18.9507 11.9568 19.0383 12.5408 19.0497 13.4184C19.1145 16.1963 19.2174 17.9929 19.3584 18.8083C19.5794 20.0004 19.991 20.9816 20.5969 21.7521C21.0313 22.2876 21.7287 22.837 22.6814 23.3967C21.9459 23.7803 21.3438 24.2294 20.8751 24.7373C20.4064 25.2452 20.0291 25.8637 19.7471 26.5927C19.4613 27.3218 19.2898 28.2926 19.225 29.5088C19.1221 31.5163 19.065 32.8741 19.0612 33.5859C19.0535 34.2976 18.9507 34.8021 18.7525 35.1027C18.5505 35.3998 18.238 35.6279 17.815 35.7833C17.3882 35.9423 16.4889 36.0217 15.1094 36.0217V40.2232H16.1345C17.8188 40.2232 19.0574 40.1161 19.8424 39.9088C21.0123 39.5909 21.9002 39.1624 22.5061 38.62C23.112 38.0775 23.5274 37.3554 23.7523 36.4571C23.9771 35.5588 24.0914 33.9763 24.0914 31.7132C24.0914 30.3346 24.141 29.3672 24.2438 28.8075C24.3848 28.0612 24.6287 27.4392 24.9679 26.9417C25.3109 26.4476 25.7186 26.0917 26.195 25.8844C26.6713 25.6737 27.3801 25.5458 28.3214 25.4975V21.296C27.1362 21.2373 26.2521 21.0058 25.6729 20.605Z" fill="#FFA500"/>
<mask id="mask1_1994_6417" style="mask-type:luminance" maskUnits="userSpaceOnUse" x="32" y="0" width="4" height="5">
<path d="M32.3828 0.46875H35.1266V4.00679H32.3828V0.46875Z" fill="white"/>
</mask>
<g mask="url(#mask1_1994_6417)">
<path d="M35.2156 3.39068H32.9062V1.29688H35.2156V3.39068Z" fill="#FFA500"/>
</g>
<path d="M23.6225 5.97805H19.3125V2.07031H23.6225V5.97805Z" fill="#FFA500"/>
<path d="M51.6515 29.8195C49.9214 29.8195 48.3208 29.543 46.8499 28.9902C45.3865 28.4305 44.1099 27.6496 43.0238 26.6546C41.9454 25.6526 41.107 24.4813 40.5087 23.1442C39.9066 21.8001 39.6094 20.3317 39.6094 18.7354C39.6094 17.1046 39.918 15.5982 40.5392 14.2161C41.168 12.8341 42.0369 11.6386 43.1458 10.6228C44.2624 9.61046 45.5733 8.81924 47.0785 8.24569C48.58 7.66523 50.211 7.375 51.9716 7.375C53.8389 7.375 55.5728 7.70324 57.1695 8.35625C58.7739 9.01273 60.1419 9.92833 61.2699 11.1065L57.6573 14.3267C56.8951 13.5804 56.0415 12.9999 55.0964 12.5853C54.1514 12.1638 53.1453 11.9496 52.0783 11.9496C51.0608 11.9496 50.1272 12.1154 49.2735 12.4471C48.4199 12.7788 47.6768 13.2452 47.048 13.843C46.4155 14.4442 45.9277 15.1525 45.5847 15.9713C45.2493 16.7937 45.0817 17.6816 45.0817 18.6387C45.0817 19.6061 45.2493 20.501 45.5847 21.3199C45.9277 22.1318 46.4231 22.8263 47.0633 23.4068C47.7035 23.9872 48.458 24.4398 49.3345 24.7612C50.2186 25.0859 51.1866 25.2449 52.246 25.2449C53.1491 25.2449 53.9875 25.1412 54.7611 24.927C55.5309 24.7162 56.2473 24.3604 56.9104 23.8628V20.9329H52.3527V17.0632H62.0931V25.7286C60.8431 27.0381 59.3074 28.047 57.4896 28.7553C55.6795 29.4636 53.7322 29.8195 51.6515 29.8195Z" fill="white"/>
<path d="M84.036 29.8609C82.2868 29.8609 80.6673 29.5707 79.1734 28.9902C77.6796 28.4098 76.3763 27.6185 75.2712 26.6131C74.1737 25.6008 73.3086 24.4122 72.6798 23.0474C72.0587 21.6861 71.75 20.2073 71.75 18.611C71.75 17.0286 72.0587 15.5498 72.6798 14.1747C73.3086 12.7926 74.1737 11.6006 75.2712 10.5952C76.3763 9.58282 77.6796 8.79505 79.1734 8.23187C80.6673 7.66178 82.2868 7.375 84.036 7.375C85.7623 7.375 87.3781 7.66178 88.8833 8.23187C90.3848 8.79505 91.6881 9.58282 92.7856 10.5952C93.8907 11.6006 94.7596 12.7926 95.3922 14.1747C96.0209 15.5498 96.3372 17.0286 96.3372 18.611C96.3372 20.2073 96.0209 21.6861 95.3922 23.0474C94.7596 24.4122 93.8907 25.6008 92.7856 26.6131C91.6881 27.6185 90.3848 28.4098 88.8833 28.9902C87.3781 29.5707 85.7623 29.8609 84.036 29.8609ZM84.036 25.2863C85.0306 25.2863 85.9414 25.1205 86.7645 24.7888C87.5953 24.4502 88.3117 23.9803 88.9138 23.3791C89.5235 22.7814 89.9999 22.0765 90.3467 21.2646C90.6896 20.4457 90.8649 19.5612 90.8649 18.611C90.8649 17.6713 90.6896 16.7937 90.3467 15.9713C89.9999 15.1525 89.5235 14.4476 88.9138 13.8568C88.3117 13.2694 87.5953 12.803 86.7645 12.4609C85.9414 12.1223 85.0306 11.9496 84.036 11.9496C83.0376 11.9496 82.123 12.1223 81.2922 12.4609C80.4691 12.803 79.7527 13.2694 79.1429 13.8568C78.5408 14.4476 78.0683 15.1525 77.7253 15.9713C77.39 16.7937 77.2223 17.6713 77.2223 18.611C77.2223 19.5612 77.39 20.4457 77.7253 21.2646C78.0683 22.0765 78.5408 22.7779 79.1429 23.3653C79.7527 23.9561 80.4691 24.426 81.2922 24.775C82.123 25.117 83.0376 25.2863 84.036 25.2863Z" fill="white"/>
<path d="M111.807 16.559V29.4121H106.898V7.4375H109.596L122.889 20.6775V7.82447H127.782V29.799H125.084L111.807 16.559Z" fill="#FFA500"/>
<path d="M150.729 29.8609C148.95 29.8609 147.303 29.5776 145.791 29.0179C144.274 28.4581 142.963 27.6773 141.858 26.6822C140.76 25.6871 139.899 24.5055 139.282 23.1303C138.672 21.7483 138.367 20.2522 138.367 18.6387C138.367 17.0355 138.676 15.5498 139.297 14.1747C139.926 12.7926 140.791 11.6006 141.888 10.5952C142.993 9.58282 144.301 8.79505 145.806 8.23187C147.307 7.66178 148.935 7.375 150.684 7.375C152.532 7.375 154.251 7.69978 155.836 8.34243C157.429 8.97818 158.808 9.90069 159.967 11.1065L156.339 14.2991C155.645 13.5735 154.834 12.9999 153.9 12.5853C152.963 12.1638 151.941 11.9496 150.836 11.9496C149.819 11.9496 148.885 12.1154 148.031 12.4471C147.178 12.7788 146.435 13.2418 145.806 13.8292C145.173 14.42 144.685 15.1248 144.343 15.9437C144.007 16.7556 143.839 17.6367 143.839 18.5834C143.839 19.5508 144.011 20.4457 144.358 21.2646C144.712 22.0765 145.204 22.7814 145.836 23.3791C146.465 23.9803 147.216 24.4502 148.092 24.7888C148.976 25.1205 149.937 25.2863 150.973 25.2863C152.109 25.2863 153.153 25.0721 154.098 24.6368C155.043 24.2049 155.851 23.6244 156.522 22.8954L160.134 26.0188C159.006 27.2454 157.638 28.1955 156.034 28.8658C154.437 29.5292 152.669 29.8609 150.729 29.8609Z" fill="white"/>
<path d="M181.036 29.8609C179.287 29.8609 177.667 29.5707 176.173 28.9902C174.68 28.4098 173.376 27.6185 172.271 26.6131C171.174 25.6008 170.309 24.4122 169.68 23.0474C169.059 21.6861 168.75 20.2073 168.75 18.611C168.75 17.0286 169.059 15.5498 169.68 14.1747C170.309 12.7926 171.174 11.6006 172.271 10.5952C173.376 9.58282 174.68 8.79505 176.173 8.23187C177.667 7.66178 179.287 7.375 181.036 7.375C182.762 7.375 184.378 7.66178 185.883 8.23187C187.385 8.79505 188.688 9.58282 189.786 10.5952C190.891 11.6006 191.76 12.7926 192.392 14.1747C193.021 15.5498 193.337 17.0286 193.337 18.611C193.337 20.2073 193.021 21.6861 192.392 23.0474C191.76 24.4122 190.891 25.6008 189.786 26.6131C188.688 27.6185 187.385 28.4098 185.883 28.9902C184.378 29.5707 182.762 29.8609 181.036 29.8609ZM181.036 25.2863C182.031 25.2863 182.941 25.1205 183.765 24.7888C184.595 24.4502 185.312 23.9803 185.914 23.3791C186.524 22.7814 187 22.0765 187.347 21.2646C187.69 20.4457 187.865 19.5612 187.865 18.611C187.865 17.6713 187.69 16.7937 187.347 15.9713C187 15.1525 186.524 14.4476 185.914 13.8568C185.312 13.2694 184.595 12.803 183.765 12.4609C182.941 12.1223 182.031 11.9496 181.036 11.9496C180.038 11.9496 179.123 12.1223 178.292 12.4609C177.469 12.803 176.753 13.2694 176.143 13.8568C175.541 14.4476 175.068 15.1525 174.725 15.9713C174.39 16.7937 174.222 17.6713 174.222 18.611C174.222 19.5612 174.39 20.4457 174.725 21.2646C175.068 22.0765 175.541 22.7779 176.143 23.3653C176.753 23.9561 177.469 24.426 178.292 24.775C179.123 25.117 180.038 25.2863 181.036 25.2863Z" fill="#FDFDFD"/>
<path d="M203.891 7.82812H213.311C215.079 7.82812 216.714 8.10453 218.219 8.65735C219.721 9.20326 221.024 9.95302 222.121 10.9101C223.227 11.8706 224.095 13.0073 224.728 14.3237C225.357 15.6436 225.673 17.074 225.673 18.6219C225.673 20.1698 225.357 21.6002 224.728 22.9063C224.095 24.2158 223.227 25.3525 222.121 26.3199C221.024 27.2874 219.721 28.0475 218.219 28.6003C216.714 29.1462 215.079 29.4157 213.311 29.4157H203.891V7.82812ZM213.341 25.007C214.336 25.007 215.247 24.848 216.07 24.5233C216.901 24.2019 217.625 23.7562 218.234 23.1827C218.852 22.6126 219.336 21.9388 219.683 21.1649C220.026 20.3909 220.201 19.5444 220.201 18.6219C220.201 17.7029 220.026 16.8529 219.683 16.0789C219.336 15.305 218.852 14.6382 218.234 14.075C217.625 13.5049 216.901 13.0592 216.07 12.7344C215.247 12.4131 214.336 12.2507 213.341 12.2507H209.073V25.007H213.341Z" fill="#FDFDFD"/>
<path d="M236.219 7.82812H249.831V12.2507H241.401V16.2033H247.544V20.6259H241.401V25.007H249.999V29.4157H236.219V7.82812Z" fill="#FDFDFD"/>
</svg>
