<svg width="199" height="32" viewBox="0 0 199 32" fill="none" xmlns="http://www.w3.org/2000/svg">
<mask id="mask0_1994_5103" style="mask-type:luminance" maskUnits="userSpaceOnUse" x="0" y="0" width="12" height="28">
<path d="M0.666667 0.666667H10.3454V26.4491H0.666667V0.666667Z" fill="white" stroke="white" stroke-width="1.33333"/>
</mask>
<g mask="url(#mask0_1994_5103)">
<path d="M0.0078125 15.0667V11.7212C0.753672 11.6854 1.31761 11.5837 1.69661 11.416C2.0756 11.2483 2.40305 10.9679 2.67896 10.5721C2.9579 10.179 3.14588 9.68418 3.24897 9.0904C3.33083 8.64232 3.37024 7.86711 3.37024 6.76202C3.37024 4.96145 3.46424 3.70517 3.64918 2.99594C3.8311 2.28396 4.16462 1.71217 4.6467 1.28058C5.12877 0.848997 5.82916 0.508125 6.75087 0.257969C7.37545 0.0902817 8.36083 0.0078125 9.70096 0.0078125H10.5165V3.33681C9.37957 3.33681 8.64887 3.39454 8.32748 3.51C8.00306 3.62545 7.76657 3.80139 7.61194 4.04055C7.45731 4.27696 7.38151 4.68381 7.38151 5.25834C7.38151 5.84387 7.33603 6.95445 7.24204 8.58734C7.1905 9.50824 7.06013 10.2532 6.84486 10.8222C6.62959 11.394 6.35368 11.8669 6.0232 12.238C5.68969 12.6091 5.18032 12.9939 4.49207 13.3925C5.09846 13.7087 5.59266 14.0798 5.97469 14.5004C6.35975 14.9237 6.65385 15.4378 6.86002 16.0398C7.06316 16.6446 7.19656 17.4528 7.2572 18.4644C7.32997 20.0065 7.36635 20.9907 7.36635 21.4168C7.36635 22.0298 7.44822 22.4559 7.61194 22.6978C7.77567 22.9397 8.02429 23.1239 8.3578 23.2503C8.69132 23.374 9.40989 23.4373 10.5165 23.4373V26.78H9.70096C8.31839 26.78 7.2572 26.681 6.52044 26.4804C5.78368 26.2824 5.16213 25.9498 4.65579 25.4852C4.14642 25.0207 3.80684 24.4461 3.63402 23.7644C3.45817 23.0826 3.37024 22.0078 3.37024 20.5398C3.37024 18.83 3.28838 17.7222 3.12466 17.2108C2.90029 16.4686 2.56071 15.9353 2.10289 15.6164C1.6481 15.2948 0.947716 15.1106 0.0078125 15.0667Z" fill="#393536"/>
</g>
<path d="M23.3184 6.94049H20.9141V4.75781H23.3184V6.94049Z" fill="#FFA500"/>
<path d="M22.7514 11.2987H20.9141V9.63281H22.7514V11.2987Z" fill="#FFA500"/>
<path d="M15.7558 8.60504V6.93917H17.5931V8.60504H15.7558ZM20.428 16.3929C19.9671 16.0712 19.6245 15.5407 19.4002 14.7985C19.2759 14.3779 19.2031 13.5752 19.1788 12.3876H17.5931V10.2077H19.1425C19.103 9.36651 19.0242 8.71225 18.8999 8.24218C18.721 7.56044 18.3814 6.9859 17.8781 6.51583C17.3779 6.04576 16.7563 5.71588 16.0195 5.5207C15.2828 5.32553 14.2216 5.22656 12.839 5.22656H12.0234V8.55556C13.1816 8.55556 13.9275 8.61879 14.261 8.74524C14.5915 8.86894 14.8219 9.04763 14.9523 9.28129C15.0796 9.5122 15.1494 9.97678 15.1585 10.675C15.21 12.8852 15.2919 14.3146 15.4041 14.9634C15.5799 15.9118 15.9074 16.6925 16.3894 17.3055C16.7351 17.7316 17.2899 18.1687 18.0479 18.614C17.4628 18.9192 16.9837 19.2765 16.6108 19.6806C16.2378 20.0847 15.9377 20.5768 15.7133 21.1568C15.4859 21.7369 15.3495 22.5093 15.2979 23.477C15.2161 25.0741 15.1706 26.1544 15.1676 26.7207C15.1615 27.287 15.0796 27.6884 14.922 27.9275C14.7613 28.1639 14.5127 28.3454 14.1761 28.4691C13.8365 28.5955 13.121 28.6588 12.0234 28.6588V32.0015H12.839C14.1792 32.0015 15.1645 31.9163 15.7891 31.7513C16.7199 31.4984 17.4264 31.1576 17.9085 30.726C18.3905 30.2944 18.721 29.7199 18.8999 29.0051C19.0788 28.2904 19.1697 27.0314 19.1697 25.2308C19.1697 24.134 19.2092 23.3642 19.291 22.9189C19.4032 22.3251 19.5972 21.8303 19.8671 21.4345C20.14 21.0414 20.4644 20.7582 20.8434 20.5933C21.2224 20.4256 21.7863 20.3239 22.5352 20.2854V16.9427C21.5923 16.8959 20.8889 16.7117 20.428 16.3929Z" fill="#FFA500"/>
<mask id="mask1_1994_5103" style="mask-type:luminance" maskUnits="userSpaceOnUse" x="25" y="0" width="3" height="4">
<path d="M26.4245 1.04167H27.2741V2.52328H26.4245V1.04167Z" fill="white" stroke="white" stroke-width="1.33333"/>
</mask>
<g mask="url(#mask1_1994_5103)">
<path d="M28.0092 2.70494H26.1719V1.03906H28.0092V2.70494Z" fill="#FFA500"/>
</g>
<path d="M18.7963 4.75752H15.3672V1.64844H18.7963V4.75752Z" fill="#FFA500"/>
<path d="M41.0966 23.7245C39.7201 23.7245 38.4467 23.5046 37.2763 23.0647C36.1121 22.6194 35.0964 21.9981 34.2323 21.2064C33.3742 20.4092 32.7072 19.4773 32.2312 18.4135C31.7521 17.3441 31.5156 16.1758 31.5156 14.9058C31.5156 13.6083 31.7612 12.4097 32.2554 11.3101C32.7557 10.2106 33.447 9.25941 34.3293 8.45122C35.2176 7.64577 36.2606 7.01626 37.4582 6.55993C38.6528 6.0981 39.9505 5.86719 41.3513 5.86719C42.8369 5.86719 44.2165 6.12834 45.4868 6.64789C46.7633 7.1702 47.8518 7.89867 48.7492 8.83607L45.8749 11.3981C45.2685 10.8043 44.5894 10.3425 43.8375 10.0126C43.0855 9.67726 42.2851 9.50682 41.4362 9.50682C40.6266 9.50682 39.8838 9.63877 39.2046 9.90267C38.5255 10.1666 37.9343 10.5377 37.434 11.0133C36.9307 11.4916 36.5426 12.0551 36.2697 12.7066C36.0029 13.3609 35.8695 14.0674 35.8695 14.8288C35.8695 15.5985 36.0029 16.3105 36.2697 16.962C36.5426 17.608 36.9368 18.1606 37.4461 18.6224C37.9555 19.0842 38.5558 19.4443 39.2532 19.7C39.9566 19.9584 40.7267 20.0848 41.5696 20.0848C42.2881 20.0848 42.9552 20.0024 43.5707 19.8319C44.1831 19.6643 44.7531 19.3811 45.2807 18.9853V16.6541H41.6545V13.5753H49.4041V20.4697C48.4096 21.5116 47.1878 22.3143 45.7415 22.8778C44.3014 23.4413 42.752 23.7245 41.0966 23.7245Z" fill="#393536"/>
<path d="M66.8688 23.7575C65.4771 23.7575 64.1885 23.5266 63 23.0647C61.8115 22.6029 60.7745 21.9734 59.8953 21.1734C59.0221 20.368 58.3338 19.4223 57.8335 18.3365C57.3393 17.2534 57.0938 16.0769 57.0938 14.8068C57.0938 13.5478 57.3393 12.3712 57.8335 11.2772C58.3338 10.1776 59.0221 9.22917 59.8953 8.42923C60.7745 7.62378 61.8115 6.99701 63 6.54893C64.1885 6.09535 65.4771 5.86719 66.8688 5.86719C68.2422 5.86719 69.5278 6.09535 70.7254 6.54893C71.92 6.99701 72.9569 7.62378 73.8301 8.42923C74.7094 9.22917 75.4007 10.1776 75.904 11.2772C76.4042 12.3712 76.6559 13.5478 76.6559 14.8068C76.6559 16.0769 76.4042 17.2534 75.904 18.3365C75.4007 19.4223 74.7094 20.368 73.8301 21.1734C72.9569 21.9734 71.92 22.6029 70.7254 23.0647C69.5278 23.5266 68.2422 23.7575 66.8688 23.7575ZM66.8688 20.1178C67.6601 20.1178 68.3847 19.9859 69.0396 19.722C69.7006 19.4526 70.2706 19.0787 70.7497 18.6004C71.2348 18.1248 71.6138 17.564 71.8897 16.918C72.1625 16.2665 72.302 15.5628 72.302 14.8068C72.302 14.0591 72.1625 13.3609 71.8897 12.7066C71.6138 12.0551 71.2348 11.4943 70.7497 11.0243C70.2706 10.5569 69.7006 10.1858 69.0396 9.91367C68.3847 9.64427 67.6601 9.50682 66.8688 9.50682C66.0744 9.50682 65.3467 9.64427 64.6858 9.91367C64.0309 10.1858 63.4608 10.5569 62.9757 11.0243C62.4967 11.4943 62.1207 12.0551 61.8478 12.7066C61.581 13.3609 61.4476 14.0591 61.4476 14.8068C61.4476 15.5628 61.581 16.2665 61.8478 16.918C62.1207 17.564 62.4967 18.1221 62.9757 18.5894C63.4608 19.0595 64.0309 19.4333 64.6858 19.711C65.3467 19.9831 66.0744 20.1178 66.8688 20.1178Z" fill="#393536"/>
<path d="M88.9598 13.1713V23.3975H85.0547V5.91406H87.2013L97.7767 16.4481V6.22195H101.67V23.7054H99.5231L88.9598 13.1713Z" fill="#FFA500"/>
<path d="M119.929 23.7575C118.513 23.7575 117.204 23.5321 116 23.0867C114.793 22.6414 113.75 22.0201 112.871 21.2284C111.998 20.4367 111.313 19.4966 110.821 18.4025C110.336 17.3029 110.094 16.1126 110.094 14.8288C110.094 13.5533 110.339 12.3712 110.834 11.2772C111.334 10.1776 112.022 9.22917 112.895 8.42923C113.775 7.62378 114.814 6.99701 116.012 6.54893C117.207 6.09535 118.501 5.86719 119.893 5.86719C121.364 5.86719 122.731 6.12559 123.992 6.6369C125.26 7.14271 126.357 7.87668 127.279 8.83607L124.392 11.3761C123.841 10.7988 123.195 10.3425 122.452 10.0126C121.706 9.67726 120.894 9.50682 120.014 9.50682C119.205 9.50682 118.462 9.63877 117.783 9.90267C117.104 10.1666 116.512 10.5349 116.012 11.0023C115.509 11.4723 115.121 12.0331 114.848 12.6846C114.581 13.3306 114.448 14.0316 114.448 14.7848C114.448 15.5545 114.584 16.2665 114.86 16.918C115.142 17.564 115.533 18.1248 116.036 18.6004C116.537 19.0787 117.134 19.4526 117.831 19.722C118.535 19.9859 119.299 20.1178 120.123 20.1178C121.027 20.1178 121.858 19.9474 122.61 19.601C123.362 19.2574 124.004 18.7956 124.538 18.2155L127.412 20.7006C126.515 21.6765 125.426 22.4325 124.15 22.9658C122.879 23.4936 121.473 23.7575 119.929 23.7575Z" fill="#393536"/>
<path d="M144.041 23.7575C142.649 23.7575 141.36 23.5266 140.172 23.0647C138.983 22.6029 137.946 21.9734 137.067 21.1734C136.194 20.368 135.506 19.4223 135.005 18.3365C134.511 17.2534 134.266 16.0769 134.266 14.8068C134.266 13.5478 134.511 12.3712 135.005 11.2772C135.506 10.1776 136.194 9.22917 137.067 8.42923C137.946 7.62378 138.983 6.99701 140.172 6.54893C141.36 6.09535 142.649 5.86719 144.041 5.86719C145.414 5.86719 146.7 6.09535 147.897 6.54893C149.092 6.99701 150.129 7.62378 151.002 8.42923C151.881 9.22917 152.573 10.1776 153.076 11.2772C153.576 12.3712 153.828 13.5478 153.828 14.8068C153.828 16.0769 153.576 17.2534 153.076 18.3365C152.573 19.4223 151.881 20.368 151.002 21.1734C150.129 21.9734 149.092 22.6029 147.897 23.0647C146.7 23.5266 145.414 23.7575 144.041 23.7575ZM144.041 20.1178C144.832 20.1178 145.557 19.9859 146.212 19.722C146.872 19.4526 147.442 19.0787 147.922 18.6004C148.407 18.1248 148.786 17.564 149.062 16.918C149.334 16.2665 149.474 15.5628 149.474 14.8068C149.474 14.0591 149.334 13.3609 149.062 12.7066C148.786 12.0551 148.407 11.4943 147.922 11.0243C147.442 10.5569 146.872 10.1858 146.212 9.91367C145.557 9.64427 144.832 9.50682 144.041 9.50682C143.246 9.50682 142.519 9.64427 141.858 9.91367C141.203 10.1858 140.633 10.5569 140.148 11.0243C139.669 11.4943 139.293 12.0551 139.02 12.7066C138.753 13.3609 138.62 14.0591 138.62 14.8068C138.62 15.5628 138.753 16.2665 139.02 16.918C139.293 17.564 139.669 18.1221 140.148 18.5894C140.633 19.0595 141.203 19.4333 141.858 19.711C142.519 19.9831 143.246 20.1178 144.041 20.1178Z" fill="#393536"/>
<path d="M162.219 6.21875H169.714C171.121 6.21875 172.421 6.43867 173.619 6.8785C174.813 7.31284 175.85 7.90937 176.724 8.67083C177.603 9.43504 178.294 10.3395 178.797 11.3868C179.298 12.4369 179.549 13.575 179.549 14.8065C179.549 16.0381 179.298 17.1761 178.797 18.2152C178.294 19.2571 177.603 20.1615 176.724 20.9312C175.85 21.7009 174.813 22.3057 173.619 22.7455C172.421 23.1799 171.121 23.3943 169.714 23.3943H162.219V6.21875ZM169.738 19.8866C170.529 19.8866 171.254 19.7602 171.909 19.5018C172.57 19.2461 173.146 18.8915 173.631 18.4352C174.122 17.9816 174.507 17.4455 174.783 16.8298C175.056 16.214 175.195 15.5405 175.195 14.8065C175.195 14.0753 175.056 13.3991 174.783 12.7833C174.507 12.1675 174.122 11.637 173.631 11.1889C173.146 10.7353 172.57 10.3807 171.909 10.1223C171.254 9.86663 170.529 9.73743 169.738 9.73743H166.342V19.8866H169.738Z" fill="#393536"/>
<path d="M187.953 6.21875H198.783V9.73743H192.077V12.8822H196.964V16.4009H192.077V19.8866H198.917V23.3943H187.953V6.21875Z" fill="#393536"/>
</svg>
