<svg width="28" height="68" viewBox="0 0 28 68" fill="none" xmlns="http://www.w3.org/2000/svg">
<mask id="mask0_1994_5192" style="mask-type:luminance" maskUnits="userSpaceOnUse" x="0" y="0" width="28" height="68">
<path d="M0.666667 0.666667H26.9175V67.2561H0.666667V0.666667Z" fill="white" stroke="white" stroke-width="1.33333"/>
</mask>
<g mask="url(#mask0_1994_5192)">
<path d="M0.03125 37.7367V29.3565C1.89956 29.267 3.31219 29.0123 4.26154 28.5922C5.21088 28.1722 6.03112 27.4698 6.72224 26.4782C7.42096 25.4935 7.89184 24.2541 8.15006 22.7667C8.35512 21.6443 8.45385 19.7025 8.45385 16.9343C8.45385 12.4241 8.68929 9.27719 9.15257 7.50062C9.60825 5.71717 10.4437 4.2849 11.6512 3.20381C12.8588 2.12272 14.6132 1.26886 16.922 0.642244C18.4865 0.222203 20.9548 0.015625 24.3117 0.015625H26.3547V8.35448C23.5067 8.35448 21.6763 8.49908 20.8713 8.78829C20.0587 9.0775 19.4663 9.5182 19.0789 10.1173C18.6916 10.7095 18.5017 11.7286 18.5017 13.1677C18.5017 14.6344 18.3878 17.4164 18.1524 21.5066C18.0233 23.8134 17.6967 25.6795 17.1575 27.1049C16.6182 28.5371 15.9271 29.7215 15.0993 30.6511C14.2638 31.5807 12.9879 32.5447 11.2639 33.5432C12.7829 34.3351 14.0208 35.2647 14.9778 36.3182C15.9423 37.3787 16.679 38.6663 17.1954 40.1743C17.7043 41.6892 18.0384 43.7137 18.1903 46.2477C18.3726 50.1107 18.4638 52.5759 18.4638 53.6432C18.4638 55.1788 18.6688 56.2461 19.0789 56.852C19.489 57.458 20.1118 57.9194 20.9472 58.2361C21.7827 58.546 23.5826 58.7044 26.3547 58.7044V67.0776H24.3117C20.8485 67.0776 18.1903 66.8298 16.3448 66.3271C14.4993 65.8313 12.9424 64.9981 11.674 63.8344C10.3981 62.6707 9.5475 61.2315 9.11459 59.5238C8.6741 57.8161 8.45385 55.1237 8.45385 51.4466C8.45385 47.1635 8.24879 44.3885 7.83867 43.1077C7.27666 41.2485 6.42605 39.9127 5.27924 39.1139C4.14002 38.3083 2.38563 37.8469 0.03125 37.7367Z" fill="#1B6C86"/>
</g>
</svg>
