<svg width="410" height="273" viewBox="0 0 410 273" fill="none" xmlns="http://www.w3.org/2000/svg">
<path d="M348.637 258.929L348.637 210.011L317.867 192.71L317.867 164.672" stroke="#1B6C86" stroke-opacity="0.5" stroke-miterlimit="10"/>
<path d="M312.65 199.008L312.65 212.024C312.65 212.024 298.76 219.833 289.5 225.04L289.5 256.766" stroke="#1B6C86" stroke-opacity="0.5" stroke-miterlimit="10"/>
<path d="M326.055 209.906L326.055 264.031" stroke="#1B6C86" stroke-opacity="0.5" stroke-miterlimit="10"/>
<path d="M337.828 217.227L337.828 260.288" stroke="#1B6C86" stroke-opacity="0.5" stroke-miterlimit="10"/>
<path d="M294.807 182.625L294.807 213.321C294.807 213.321 286.222 218.148 278.313 222.595L278.313 256.057" stroke="#1B6C86" stroke-opacity="0.5" stroke-miterlimit="10"/>
<path d="M270.402 258.228L270.402 202.423L259.695 196.403L259.695 185.719" stroke="#1B6C86" stroke-opacity="0.5" stroke-miterlimit="10"/>
<path d="M256.514 209.906L256.514 217.77L250.727 220.97L250.727 263.326" stroke="#1B6C86" stroke-opacity="0.5" stroke-miterlimit="10"/>
<path d="M218.703 207.578L218.703 212.622L232.593 220.486L232.593 262.787" stroke="#1B6C86" stroke-opacity="0.5" stroke-miterlimit="10"/>
<path d="M218.703 260.394L218.703 220.75" stroke="#1B6C86" stroke-opacity="0.5" stroke-miterlimit="10"/>
<path d="M207.039 261.7L207.039 214.68" stroke="#1B6C86" stroke-opacity="0.5" stroke-miterlimit="10"/>
<path d="M322.786 161.907C322.786 163.425 320.568 164.619 317.964 164.619C315.263 164.619 313.141 163.371 313.141 161.907C313.141 160.443 315.359 159.195 317.964 159.195C320.568 159.195 322.786 160.443 322.786 161.907Z" stroke="#1B6C86" stroke-opacity="0.5" stroke-miterlimit="10"/>
<path d="M362.911 20.7993C362.911 22.3178 360.693 23.5109 358.089 23.5109C355.388 23.5109 353.266 22.2636 353.266 20.7993C353.266 19.2808 355.484 18.0876 358.089 18.0876C360.789 18.0334 362.911 19.2808 362.911 20.7993Z" stroke="#1B6C86" stroke-opacity="0.5" stroke-miterlimit="10"/>
<path d="M409.31 99.6509C409.31 101.169 407.091 102.363 404.487 102.363C401.786 102.363 399.664 101.115 399.664 99.6509C399.664 98.1323 401.883 96.9392 404.487 96.9392C407.091 96.885 409.31 98.1323 409.31 99.6509Z" stroke="#1B6C86" stroke-opacity="0.5" stroke-miterlimit="10"/>
<path d="M317.482 135.604C317.482 137.123 315.263 138.316 312.659 138.316C309.958 138.316 307.836 137.068 307.836 135.604C307.836 134.085 310.054 132.892 312.659 132.892C315.36 132.838 317.482 134.085 317.482 135.604Z" stroke="#1B6C86" stroke-opacity="0.5" stroke-miterlimit="10"/>
<path d="M115.88 174.979C115.88 176.498 113.662 177.691 111.057 177.691C108.356 177.691 106.234 176.443 106.234 174.979C106.234 173.515 108.453 172.267 111.057 172.267C113.662 172.213 115.88 173.46 115.88 174.979Z" stroke="#1B6C86" stroke-opacity="0.5" stroke-miterlimit="10"/>
<path d="M157.068 198.079C157.068 199.597 154.849 200.79 152.245 200.79C149.544 200.79 147.422 199.543 147.422 198.079C147.422 196.615 149.64 195.367 152.245 195.367C154.849 195.367 157.068 196.56 157.068 198.079Z" stroke="#1B6C86" stroke-opacity="0.5" stroke-miterlimit="10"/>
<path d="M309.661 188.487C309.661 190.005 307.443 191.198 304.839 191.198C302.138 191.198 300.016 189.951 300.016 188.487C300.016 186.968 302.234 185.775 304.839 185.775C307.443 185.721 309.661 186.968 309.661 188.487Z" stroke="#1B6C86" stroke-opacity="0.5" stroke-miterlimit="10"/>
<path d="M261.341 207.19C261.341 208.708 259.123 209.902 256.518 209.902C253.817 209.902 251.695 208.654 251.695 207.19C251.695 205.671 253.914 204.478 256.518 204.478C259.219 204.424 261.341 205.671 261.341 207.19Z" stroke="#1B6C86" stroke-opacity="0.5" stroke-miterlimit="10"/>
<path d="M218.706 207.572C221.369 207.572 223.529 206.358 223.529 204.86C223.529 203.362 221.369 202.148 218.706 202.148C216.042 202.148 213.883 203.362 213.883 204.86C213.883 206.358 216.042 207.572 218.706 207.572Z" stroke="#1B6C86" stroke-opacity="0.5" stroke-miterlimit="10"/>
<path d="M70.0676 226.065C70.0676 227.583 67.8491 228.777 65.2448 228.777C62.5439 228.777 60.4219 227.529 60.4219 226.065C60.4219 224.546 62.6404 223.353 65.2448 223.353C67.9456 223.299 70.0676 224.546 70.0676 226.065Z" stroke="#1B6C86" stroke-opacity="0.5" stroke-miterlimit="10"/>
<path d="M342.075 89.2351C342.075 90.7536 339.857 91.9467 337.253 91.9467C334.552 91.9467 332.43 90.6994 332.43 89.2351C332.43 87.7708 334.648 86.5234 337.253 86.5234C339.953 86.5234 342.075 87.7166 342.075 89.2351Z" stroke="#1B6C86" stroke-opacity="0.5" stroke-miterlimit="10"/>
<path d="M342.075 100.956C342.075 102.474 339.857 103.667 337.253 103.667C334.552 103.667 332.43 102.42 332.43 100.956C332.43 99.437 334.648 98.2439 337.253 98.2439C339.953 98.1897 342.075 99.437 342.075 100.956Z" stroke="#1B6C86" stroke-opacity="0.5" stroke-miterlimit="10"/>
<path d="M312.661 56.2117C312.661 57.7302 310.443 58.9233 307.839 58.9233C305.138 58.9233 303.016 57.6759 303.016 56.2117C303.016 54.6931 305.234 53.5 307.839 53.5C310.443 53.5 312.661 54.6931 312.661 56.2117Z" stroke="#1B6C86" stroke-opacity="0.5" stroke-miterlimit="10"/>
<path d="M409.31 78.6101C409.31 80.1286 407.091 81.3217 404.487 81.3217C401.786 81.3217 399.664 80.0744 399.664 78.6101C399.664 77.1458 401.883 75.8984 404.487 75.8984C407.091 75.8984 409.31 77.1458 409.31 78.6101Z" stroke="#1B6C86" stroke-opacity="0.5" stroke-miterlimit="10"/>
<path d="M243.88 212.344C243.88 213.863 241.662 215.056 239.057 215.056C236.356 215.056 234.234 213.809 234.234 212.344C234.234 210.88 236.453 209.633 239.057 209.633C241.662 209.633 243.88 210.826 243.88 212.344Z" stroke="#1B6C86" stroke-opacity="0.5" stroke-miterlimit="10"/>
<path d="M243.88 201.337C243.88 202.855 241.662 204.048 239.057 204.048C236.356 204.048 234.234 202.801 234.234 201.337C234.234 199.818 236.453 198.625 239.057 198.625C241.662 198.625 243.88 199.818 243.88 201.337Z" stroke="#1B6C86" stroke-opacity="0.5" stroke-miterlimit="10"/>
<path d="M202.021 218.963C202.021 220.482 199.802 221.675 197.198 221.675C194.497 221.675 192.375 220.428 192.375 218.963C192.375 217.445 194.594 216.252 197.198 216.252C199.802 216.197 202.021 217.445 202.021 218.963Z" stroke="#1B6C86" stroke-opacity="0.5" stroke-miterlimit="10"/>
<path d="M114.536 208.065C114.536 209.583 112.318 210.777 109.714 210.777C107.013 210.777 104.891 209.529 104.891 208.065C104.891 206.546 107.109 205.353 109.714 205.353C112.414 205.299 114.536 206.546 114.536 208.065Z" stroke="#1B6C86" stroke-opacity="0.5" stroke-miterlimit="10"/>
<path d="M197.193 159.198C197.193 160.716 194.974 161.909 192.37 161.909C189.669 161.909 187.547 160.662 187.547 159.198C187.547 157.679 189.765 156.486 192.37 156.486C194.974 156.432 197.193 157.679 197.193 159.198Z" stroke="#1B6C86" stroke-opacity="0.5" stroke-miterlimit="10"/>
<path d="M286.411 197.055C286.411 198.574 284.193 199.767 281.589 199.767C278.984 199.767 276.766 198.52 276.766 197.055C276.766 195.537 278.984 194.344 281.589 194.344C284.193 194.344 286.411 195.537 286.411 197.055Z" stroke="#1B6C86" stroke-opacity="0.5" stroke-miterlimit="10"/>
<path d="M386.927 139.727C386.927 141.246 384.708 142.439 382.104 142.439C379.5 142.439 377.281 141.192 377.281 139.727C377.281 138.209 379.5 137.016 382.104 137.016C384.708 137.016 386.927 138.209 386.927 139.727Z" stroke="#1B6C86" stroke-opacity="0.5" stroke-miterlimit="10"/>
<path d="M264.622 183.009C264.622 184.527 262.404 185.72 259.799 185.72C257.195 185.72 254.977 184.473 254.977 183.009C254.977 181.49 257.195 180.297 259.799 180.297C262.404 180.297 264.622 181.49 264.622 183.009Z" stroke="#1B6C86" stroke-opacity="0.5" stroke-miterlimit="10"/>
<path d="M330.982 207.19C330.982 208.708 328.763 209.902 326.159 209.902C323.458 209.902 321.336 208.654 321.336 207.19C321.336 205.671 323.554 204.478 326.159 204.478C328.763 204.424 330.982 205.671 330.982 207.19Z" stroke="#1B6C86" stroke-opacity="0.5" stroke-miterlimit="10"/>
<path d="M338.12 174.981C338.12 175.74 337.059 176.337 335.708 176.337C334.358 176.337 333.297 175.74 333.297 174.981C333.297 174.222 334.358 173.625 335.708 173.625C337.059 173.625 338.12 174.222 338.12 174.981Z" stroke="#1B6C86" stroke-opacity="0.5" stroke-miterlimit="10"/>
<path d="M360.503 11.1996C360.503 11.9588 359.442 12.5554 358.091 12.5554C356.741 12.5554 355.68 11.9588 355.68 11.1996C355.68 10.4403 356.741 9.84375 358.091 9.84375C359.442 9.84375 360.503 10.4403 360.503 11.1996Z" stroke="#1B6C86" stroke-opacity="0.5" stroke-miterlimit="10"/>
<path d="M396.19 93.3558C396.19 94.1151 395.129 94.7117 393.779 94.7117C392.428 94.7117 391.367 94.1151 391.367 93.3558C391.367 92.5966 392.428 92 393.779 92C395.129 92 396.19 92.5966 396.19 93.3558Z" stroke="#1B6C86" stroke-opacity="0.5" stroke-miterlimit="10"/>
<path d="M315.073 128.661C315.073 129.42 314.012 130.016 312.661 130.016C311.311 130.016 310.25 129.42 310.25 128.661C310.25 127.901 311.311 127.305 312.661 127.305C314.012 127.305 315.073 127.901 315.073 128.661Z" stroke="#1B6C86" stroke-opacity="0.5" stroke-miterlimit="10"/>
<path d="M315.073 114.239C315.073 114.998 314.012 115.594 312.661 115.594C311.311 115.594 310.25 114.998 310.25 114.239C310.25 113.479 311.311 112.883 312.661 112.883C314.012 112.883 315.073 113.479 315.073 114.239Z" stroke="#1B6C86" stroke-opacity="0.5" stroke-miterlimit="10"/>
<path d="M221.112 166.786C221.112 167.545 220.051 168.141 218.701 168.141C217.35 168.141 216.289 167.545 216.289 166.786C216.289 166.026 217.35 165.43 218.701 165.43C220.051 165.43 221.112 166.026 221.112 166.786Z" stroke="#1B6C86" stroke-opacity="0.5" stroke-miterlimit="10"/>
<path d="M38.8073 213.7C38.8073 214.459 37.7462 215.055 36.3958 215.055C35.0454 215.055 33.9844 214.459 33.9844 213.7C33.9844 212.94 35.0454 212.344 36.3958 212.344C37.7462 212.344 38.8073 212.94 38.8073 213.7Z" stroke="#1B6C86" stroke-opacity="0.5" stroke-miterlimit="10"/>
<path d="M87.1354 178.231C87.1354 178.99 86.0743 179.587 84.7239 179.587C83.3735 179.587 82.3125 178.99 82.3125 178.231C82.3125 177.472 83.3735 176.875 84.7239 176.875C86.0743 176.875 87.1354 177.472 87.1354 178.231Z" stroke="#1B6C86" stroke-opacity="0.5" stroke-miterlimit="10"/>
<path d="M238.956 121.293C238.956 122.053 237.895 122.649 236.544 122.649C235.194 122.649 234.133 122.053 234.133 121.293C234.133 120.534 235.194 119.937 236.544 119.937C237.895 119.937 238.956 120.534 238.956 121.293Z" stroke="#1B6C86" stroke-opacity="0.5" stroke-miterlimit="10"/>
<path d="M378.049 106.429C378.049 107.189 376.988 107.785 375.638 107.785C374.288 107.785 373.227 107.189 373.227 106.429C373.227 105.67 374.288 105.073 375.638 105.073C376.988 105.019 378.049 105.67 378.049 106.429Z" stroke="#1B6C86" stroke-opacity="0.5" stroke-miterlimit="10"/>
<path d="M373.909 153.453C373.909 154.212 372.848 154.809 371.497 154.809C370.147 154.809 369.086 154.212 369.086 153.453C369.086 152.693 370.147 152.097 371.497 152.097C372.848 152.043 373.909 152.693 373.909 153.453Z" stroke="#1B6C86" stroke-opacity="0.5" stroke-miterlimit="10"/>
<path d="M367.057 153.453C367.057 154.212 365.996 154.809 364.646 154.809C363.295 154.809 362.234 154.212 362.234 153.453C362.234 152.693 363.295 152.097 364.646 152.097C365.996 152.043 367.057 152.693 367.057 153.453Z" stroke="#1B6C86" stroke-opacity="0.5" stroke-miterlimit="10"/>
<path d="M384.518 153.453C384.518 154.212 383.457 154.809 382.107 154.809C380.756 154.809 379.695 154.212 379.695 153.453C379.695 152.693 380.756 152.097 382.107 152.097C383.361 152.043 384.518 152.693 384.518 153.453Z" stroke="#1B6C86" stroke-opacity="0.5" stroke-miterlimit="10"/>
<path d="M297.221 181.215C297.221 181.974 296.16 182.571 294.81 182.571C293.459 182.571 292.398 181.974 292.398 181.215C292.398 180.456 293.459 179.859 294.81 179.859C296.16 179.859 297.221 180.456 297.221 181.215Z" stroke="#1B6C86" stroke-opacity="0.5" stroke-miterlimit="10"/>
<path d="M209.448 213.325C209.448 214.084 208.387 214.68 207.036 214.68C205.686 214.68 204.625 214.084 204.625 213.325C204.625 212.565 205.686 211.969 207.036 211.969C208.387 211.969 209.448 212.565 209.448 213.325Z" stroke="#1B6C86" stroke-opacity="0.5" stroke-miterlimit="10"/>
<path d="M175.104 217.551C175.104 218.31 174.043 218.907 172.693 218.907C171.342 218.907 170.281 218.31 170.281 217.551C170.281 216.792 171.342 216.195 172.693 216.195C174.043 216.195 175.104 216.792 175.104 217.551Z" stroke="#1B6C86" stroke-opacity="0.5" stroke-miterlimit="10"/>
<path d="M143.182 221.676C143.182 222.435 142.121 223.032 140.771 223.032C139.42 223.032 138.359 222.435 138.359 221.676C138.359 220.917 139.42 220.32 140.771 220.32C142.121 220.32 143.182 220.917 143.182 221.676Z" stroke="#1B6C86" stroke-opacity="0.5" stroke-miterlimit="10"/>
<path d="M77.9713 235.778C77.9713 236.537 76.9103 237.134 75.5599 237.134C74.2095 237.134 73.1484 236.537 73.1484 235.778C73.1484 235.018 74.2095 234.422 75.5599 234.422C76.9103 234.422 77.9713 235.018 77.9713 235.778Z" stroke="#1B6C86" stroke-opacity="0.5" stroke-miterlimit="10"/>
<path d="M50.776 234.421C50.776 235.181 49.715 235.777 48.3646 235.777C47.0142 235.777 45.9531 235.181 45.9531 234.421C45.9531 233.662 47.0142 233.066 48.3646 233.066C49.715 233.011 50.776 233.662 50.776 234.421Z" stroke="#1B6C86" stroke-opacity="0.5" stroke-miterlimit="10"/>
<path d="M15.9479 238.809C15.9479 239.568 14.8868 240.165 13.5364 240.165C12.186 240.165 11.125 239.568 11.125 238.809C11.125 238.05 12.186 237.453 13.5364 237.453C14.8868 237.453 15.9479 238.104 15.9479 238.809Z" stroke="#1B6C86" stroke-opacity="0.5" stroke-miterlimit="10"/>
<path d="M15.9557 234.421C15.9557 235.181 14.8947 235.777 13.5443 235.777C12.1938 235.777 11.1328 235.181 11.1328 234.421C11.1328 233.662 12.1938 233.066 13.5443 233.066C14.8947 233.011 15.9557 233.662 15.9557 234.421Z" stroke="#1B6C86" stroke-opacity="0.5" stroke-miterlimit="10"/>
<path d="M5.82288 243.856C5.82288 244.615 4.76185 245.212 3.41144 245.212C2.06103 245.212 1 244.615 1 243.856C1 243.097 2.06103 242.5 3.41144 242.5C4.76185 242.5 5.82288 243.097 5.82288 243.856Z" stroke="#1B6C86" stroke-opacity="0.5" stroke-miterlimit="10"/>
<path d="M158.229 230.731C158.229 231.49 157.168 232.087 155.818 232.087C154.467 232.087 153.406 231.49 153.406 230.731C153.406 229.972 154.467 229.375 155.818 229.375C157.072 229.375 158.229 229.972 158.229 230.731Z" stroke="#1B6C86" stroke-opacity="0.5" stroke-miterlimit="10"/>
<path d="M163.24 207.196C164.571 207.196 165.651 206.589 165.651 205.84C165.651 205.091 164.571 204.484 163.24 204.484C161.908 204.484 160.828 205.091 160.828 205.84C160.828 206.589 161.908 207.196 163.24 207.196Z" stroke="#1B6C86" stroke-opacity="0.5" stroke-miterlimit="10"/>
<path d="M101.799 218.262C101.799 219.021 100.738 219.618 99.388 219.618C98.0376 219.618 96.9766 219.021 96.9766 218.262C96.9766 217.503 98.0376 216.906 99.388 216.906C100.738 216.906 101.799 217.503 101.799 218.262Z" stroke="#1B6C86" stroke-opacity="0.5" stroke-miterlimit="10"/>
<path d="M183.69 228.512C183.69 229.271 182.629 229.868 181.279 229.868C179.928 229.868 178.867 229.271 178.867 228.512C178.867 227.753 179.928 227.156 181.279 227.156C182.629 227.156 183.69 227.753 183.69 228.512Z" stroke="#1B6C86" stroke-opacity="0.5" stroke-miterlimit="10"/>
<path d="M110.378 229.379C110.378 230.139 109.317 230.735 107.966 230.735C106.616 230.735 105.555 230.139 105.555 229.379C105.555 228.62 106.616 228.023 107.966 228.023C109.317 228.023 110.378 228.62 110.378 229.379Z" stroke="#1B6C86" stroke-opacity="0.5" stroke-miterlimit="10"/>
<path d="M23.5729 227.426C23.5729 228.185 22.5118 228.782 21.1614 228.782C19.811 228.782 18.75 228.185 18.75 227.426C18.75 226.667 19.811 226.07 21.1614 226.07C22.5118 226.07 23.5729 226.667 23.5729 227.426Z" stroke="#1B6C86" stroke-opacity="0.5" stroke-miterlimit="10"/>
<path d="M45.1744 244.395C45.1744 245.154 44.1134 245.751 42.763 245.751C41.4126 245.751 40.3516 245.154 40.3516 244.395C40.3516 243.636 41.4126 243.039 42.763 243.039C44.0169 243.039 45.1744 243.636 45.1744 244.395Z" stroke="#1B6C86" stroke-opacity="0.5" stroke-miterlimit="10"/>
<path d="M110.378 233.661C110.378 234.42 109.317 235.016 107.966 235.016C106.616 235.016 105.555 234.42 105.555 233.661C105.555 232.901 106.616 232.305 107.966 232.305C109.317 232.305 110.378 232.901 110.378 233.661Z" stroke="#1B6C86" stroke-opacity="0.5" stroke-miterlimit="10"/>
<path d="M110.378 237.996C110.378 238.756 109.317 239.352 107.966 239.352C106.616 239.352 105.555 238.756 105.555 237.996C105.555 237.237 106.616 236.641 107.966 236.641C109.317 236.641 110.378 237.237 110.378 237.996Z" stroke="#1B6C86" stroke-opacity="0.5" stroke-miterlimit="10"/>
<path d="M154.18 249.661C154.18 248.901 155.241 248.305 156.591 248.305C157.942 248.305 159.003 248.901 159.003 249.661C159.003 250.42 157.942 251.016 156.591 251.016C155.241 251.016 154.18 250.42 154.18 249.661Z" stroke="#1B6C86" stroke-opacity="0.5" stroke-miterlimit="10"/>
<path d="M154.18 245.371C154.18 244.612 155.241 244.016 156.591 244.016C157.942 244.016 159.003 244.612 159.003 245.371C159.003 246.131 157.942 246.727 156.591 246.727C155.241 246.727 154.18 246.131 154.18 245.371Z" stroke="#1B6C86" stroke-opacity="0.5" stroke-miterlimit="10"/>
<path d="M154.18 241.09C154.18 240.331 155.241 239.734 156.591 239.734C157.942 239.734 159.003 240.331 159.003 241.09C159.003 241.849 157.942 242.446 156.591 242.446C155.241 242.446 154.18 241.849 154.18 241.09Z" stroke="#1B6C86" stroke-opacity="0.5" stroke-miterlimit="10"/>
<path d="M241.471 192.934C241.471 193.693 240.41 194.29 239.06 194.29C237.709 194.29 236.648 193.693 236.648 192.934C236.648 192.175 237.709 191.578 239.06 191.578C240.41 191.578 241.471 192.175 241.471 192.934Z" stroke="#1B6C86" stroke-opacity="0.5" stroke-miterlimit="10"/>
<path d="M238.388 225.469C239.72 225.469 240.799 224.862 240.799 224.114C240.799 223.365 239.72 222.758 238.388 222.758C237.056 222.758 235.977 223.365 235.977 224.114C235.977 224.862 237.056 225.469 238.388 225.469Z" stroke="#1B6C86" stroke-opacity="0.5" stroke-miterlimit="10"/>
<path d="M238.388 231.657C239.72 231.657 240.799 231.05 240.799 230.301C240.799 229.552 239.72 228.945 238.388 228.945C237.056 228.945 235.977 229.552 235.977 230.301C235.977 231.05 237.056 231.657 238.388 231.657Z" stroke="#1B6C86" stroke-opacity="0.5" stroke-miterlimit="10"/>
<path d="M240.799 240.606C240.799 241.365 239.738 241.962 238.388 241.962C237.038 241.962 235.977 241.365 235.977 240.606C235.977 239.847 237.038 239.25 238.388 239.25C239.738 239.25 240.799 239.847 240.799 240.606Z" stroke="#1B6C86" stroke-opacity="0.5" stroke-miterlimit="10"/>
<path d="M265.096 228.887C265.096 229.646 264.035 230.243 262.685 230.243C261.334 230.243 260.273 229.646 260.273 228.887C260.273 228.128 261.334 227.531 262.685 227.531C264.035 227.531 265.096 228.182 265.096 228.887Z" stroke="#1B6C86" stroke-opacity="0.5" stroke-miterlimit="10"/>
<path d="M265.096 246.731C265.096 247.49 264.035 248.087 262.685 248.087C261.334 248.087 260.273 247.49 260.273 246.731C260.273 245.972 261.334 245.375 262.685 245.375C264.035 245.375 265.096 245.972 265.096 246.731Z" stroke="#1B6C86" stroke-opacity="0.5" stroke-miterlimit="10"/>
<path d="M288.542 169.39C288.542 170.15 287.481 170.746 286.13 170.746C284.78 170.746 283.719 170.15 283.719 169.39C283.719 168.631 284.78 168.034 286.13 168.034C287.481 167.98 288.542 168.631 288.542 169.39Z" stroke="#1B6C86" stroke-opacity="0.5" stroke-miterlimit="10"/>
<path d="M282.464 160.551C282.464 161.31 281.402 161.907 280.052 161.907C278.702 161.907 277.641 161.31 277.641 160.551C277.641 159.792 278.702 159.195 280.052 159.195C281.402 159.195 282.464 159.792 282.464 160.551Z" stroke="#1B6C86" stroke-opacity="0.5" stroke-miterlimit="10"/>
<path d="M267.221 119.934C267.221 120.693 266.16 121.29 264.81 121.29C263.459 121.29 262.398 120.693 262.398 119.934C262.398 119.175 263.459 118.578 264.81 118.578C266.16 118.578 267.221 119.175 267.221 119.934Z" stroke="#1B6C86" stroke-opacity="0.5" stroke-miterlimit="10"/>
<path d="M269.635 173.625C269.635 174.384 268.574 174.98 267.224 174.98C265.874 174.98 264.813 174.384 264.813 173.625C264.813 172.865 265.874 172.269 267.224 172.269C268.574 172.215 269.635 172.865 269.635 173.625Z" stroke="#1B6C86" stroke-opacity="0.5" stroke-miterlimit="10"/>
<path d="M194.69 183.981C194.69 184.74 193.629 185.337 192.279 185.337C190.928 185.337 189.867 184.74 189.867 183.981C189.867 183.222 190.928 182.625 192.279 182.625C193.629 182.625 194.69 183.222 194.69 183.981Z" stroke="#1B6C86" stroke-opacity="0.5" stroke-miterlimit="10"/>
<path d="M186.198 218.262C186.198 219.021 185.137 219.618 183.786 219.618C182.436 219.618 181.375 219.021 181.375 218.262C181.375 217.503 182.436 216.906 183.786 216.906C185.137 216.906 186.198 217.503 186.198 218.262Z" stroke="#1B6C86" stroke-opacity="0.5" stroke-miterlimit="10"/>
<path d="M340.237 215.875C340.237 216.634 339.176 217.23 337.826 217.23C336.475 217.23 335.414 216.634 335.414 215.875C335.414 215.115 336.475 214.519 337.826 214.519C339.079 214.465 340.237 215.115 340.237 215.875Z" stroke="#1B6C86" stroke-opacity="0.5" stroke-miterlimit="10"/>
<path d="M315.065 197.648C315.065 198.407 314.004 199.004 312.654 199.004C311.303 199.004 310.242 198.407 310.242 197.648C310.242 196.889 311.303 196.292 312.654 196.292C314.004 196.238 315.065 196.889 315.065 197.648Z" stroke="#1B6C86" stroke-opacity="0.5" stroke-miterlimit="10"/>
<path d="M307.253 206.325C307.253 207.084 306.192 207.68 304.841 207.68C303.491 207.68 302.43 207.084 302.43 206.325C302.43 205.565 303.491 204.969 304.841 204.969C306.095 204.969 307.253 205.565 307.253 206.325Z" stroke="#1B6C86" stroke-opacity="0.5" stroke-miterlimit="10"/>
<path d="M338.12 181.489C338.12 182.248 337.059 182.844 335.708 182.844C334.358 182.844 333.297 182.248 333.297 181.489C333.297 180.729 334.358 180.133 335.708 180.133C337.059 180.133 338.12 180.729 338.12 181.489Z" stroke="#1B6C86" stroke-opacity="0.5" stroke-miterlimit="10"/>
<path d="M338.12 188.046C338.12 188.806 337.059 189.402 335.708 189.402C334.358 189.402 333.297 188.806 333.297 188.046C333.297 187.287 334.358 186.691 335.708 186.691C337.059 186.636 338.12 187.287 338.12 188.046Z" stroke="#1B6C86" stroke-opacity="0.5" stroke-miterlimit="10"/>
<path d="M331.174 188.046C331.174 188.806 330.113 189.402 328.763 189.402C327.413 189.402 326.352 188.806 326.352 188.046C326.352 187.287 327.413 186.691 328.763 186.691C330.113 186.636 331.174 187.287 331.174 188.046Z" stroke="#1B6C86" stroke-opacity="0.5" stroke-miterlimit="10"/>
<path d="M304.742 191.195L304.742 204.971" stroke="#1B6C86" stroke-opacity="0.5" stroke-miterlimit="10"/>
<path d="M369.469 258.176L369.469 169.18" stroke="#1B6C86" stroke-opacity="0.5" stroke-miterlimit="10"/>
<path d="M374.388 166.463C374.388 167.982 372.169 169.175 369.565 169.175C366.864 169.175 364.742 167.928 364.742 166.463C364.742 164.945 366.961 163.752 369.565 163.752C372.169 163.697 374.388 164.945 374.388 166.463Z" stroke="#1B6C86" stroke-opacity="0.5" stroke-miterlimit="10"/>
<path d="M377.086 257.682L377.086 187.125L387.021 181.484" stroke="#1B6C86" stroke-opacity="0.5" stroke-miterlimit="10"/>
<path d="M348.633 155.344L348.633 191.3L359.243 197.266L359.243 259.851" stroke="#1B6C86" stroke-opacity="0.5" stroke-miterlimit="10"/>
<path d="M353.552 152.635C353.552 154.154 351.333 155.347 348.729 155.347C346.028 155.347 343.906 154.1 343.906 152.635C343.906 151.117 346.125 149.924 348.729 149.924C351.333 149.869 353.552 151.117 353.552 152.635Z" stroke="#1B6C86" stroke-opacity="0.5" stroke-miterlimit="10"/>
<path d="M388.378 196.236C391.041 196.236 393.2 195.022 393.2 193.524C393.2 192.027 391.041 190.812 388.378 190.812C385.714 190.812 383.555 192.027 383.555 193.524C383.555 195.022 385.714 196.236 388.378 196.236Z" stroke="#1B6C86" stroke-opacity="0.5" stroke-miterlimit="10"/>
<path d="M391.549 180.403C391.549 181.162 390.488 181.759 389.138 181.759C387.788 181.759 386.727 181.162 386.727 180.403C386.727 179.643 387.788 179.047 389.138 179.047C390.488 179.047 391.549 179.643 391.549 180.403Z" stroke="#1B6C86" stroke-opacity="0.5" stroke-miterlimit="10"/>
<path d="M388.375 196.242L388.375 259.044" stroke="#1B6C86" stroke-opacity="0.5" stroke-miterlimit="10"/>
<path d="M358.086 31.9062L358.086 122.909L364.838 126.706L364.838 152.032" stroke="#1B6C86" stroke-opacity="0.5" stroke-miterlimit="10"/>
<path d="M362.911 29.1413C362.911 30.6599 360.693 31.853 358.089 31.853C355.388 31.853 353.266 30.6056 353.266 29.1413C353.266 27.6228 355.484 26.4297 358.089 26.4297C360.789 26.4297 362.911 27.6228 362.911 29.1413Z" stroke="#1B6C86" stroke-opacity="0.5" stroke-miterlimit="10"/>
<path d="M375.641 44.1641L365.609 49.8043L365.609 120.362L371.59 123.67L371.59 152.196" stroke="#1B6C86" stroke-opacity="0.5" stroke-miterlimit="10"/>
<path d="M337.254 18.0234L337.254 53.98L347.864 59.9456L347.864 122.531L328.766 133.269L328.766 186.688" stroke="#1B6C86" stroke-opacity="0.5" stroke-miterlimit="10"/>
<path d="M342.083 15.3149C342.083 16.8334 339.865 18.0266 337.26 18.0266C334.56 18.0266 332.438 16.7792 332.438 15.3149C332.438 13.7964 334.656 12.6033 337.26 12.6033C339.961 12.549 342.083 13.7964 342.083 15.3149Z" stroke="#1B6C86" stroke-opacity="0.5" stroke-miterlimit="10"/>
<path d="M381.818 56.2038C381.818 57.7224 379.599 58.9155 376.995 58.9155C374.39 58.9155 372.172 57.6681 372.172 56.2038C372.172 54.6853 374.39 53.4922 376.995 53.4922C379.599 53.4922 381.818 54.6853 381.818 56.2038Z" stroke="#1B6C86" stroke-opacity="0.5" stroke-miterlimit="10"/>
<path d="M380.174 43.0824C380.174 43.8417 379.113 44.4382 377.763 44.4382C376.413 44.4382 375.352 43.8417 375.352 43.0824C375.352 42.3231 376.413 41.7266 377.763 41.7266C379.017 41.7266 380.174 42.3231 380.174 43.0824Z" stroke="#1B6C86" stroke-opacity="0.5" stroke-miterlimit="10"/>
<path d="M377 58.9688L377 95.088L399.089 107.507L399.089 166.784" stroke="#1B6C86" stroke-opacity="0.5" stroke-miterlimit="10"/>
<path d="M382.008 142.438L382.008 152.037" stroke="#1B6C86" stroke-opacity="0.5" stroke-miterlimit="10"/>
<path d="M199.034 193.962C201.697 193.962 203.857 192.748 203.857 191.251C203.857 189.753 201.697 188.539 199.034 188.539C196.37 188.539 194.211 189.753 194.211 191.251C194.211 192.748 196.37 193.962 199.034 193.962Z" stroke="#1B6C86" stroke-opacity="0.5" stroke-miterlimit="10"/>
<path d="M199.029 178.884C200.36 178.884 201.44 178.277 201.44 177.528C201.44 176.779 200.36 176.172 199.029 176.172C197.697 176.172 196.617 176.779 196.617 177.528C196.617 178.277 197.697 178.884 199.029 178.884Z" stroke="#1B6C86" stroke-opacity="0.5" stroke-miterlimit="10"/>
<path d="M283.719 187.129C283.719 186.37 284.78 185.773 286.13 185.773C287.481 185.773 288.542 186.37 288.542 187.129C288.542 187.889 287.481 188.485 286.13 188.485C284.78 188.485 283.719 187.889 283.719 187.129Z" stroke="#1B6C86" stroke-opacity="0.5" stroke-miterlimit="10"/>
<path d="M269.445 146.34C269.445 145.581 270.506 144.984 271.857 144.984C273.207 144.984 274.268 145.581 274.268 146.34C274.268 147.099 273.207 147.696 271.857 147.696C270.506 147.696 269.445 147.099 269.445 146.34Z" stroke="#1B6C86" stroke-opacity="0.5" stroke-miterlimit="10"/>
<path d="M262.211 114.239C262.211 113.479 263.272 112.883 264.622 112.883C265.973 112.883 267.034 113.479 267.034 114.239C267.034 114.998 265.973 115.594 264.622 115.594C263.272 115.594 262.211 114.998 262.211 114.239Z" stroke="#1B6C86" stroke-opacity="0.5" stroke-miterlimit="10"/>
<path d="M386.453 132.567C386.453 131.808 387.514 131.211 388.865 131.211C390.215 131.211 391.276 131.808 391.276 132.567C391.276 133.326 390.215 133.923 388.865 133.923C387.514 133.923 386.453 133.326 386.453 132.567Z" stroke="#1B6C86" stroke-opacity="0.5" stroke-miterlimit="10"/>
<path d="M199.031 188.482L199.031 178.883" stroke="#1B6C86" stroke-opacity="0.5" stroke-miterlimit="10"/>
<path d="M197.195 221.672L197.195 256.869" stroke="#1B6C86" stroke-opacity="0.5" stroke-miterlimit="10"/>
<path d="M279.089 107.242C279.089 108.001 278.027 108.598 276.677 108.598C275.327 108.598 274.266 108.001 274.266 107.242C274.266 106.483 275.327 105.886 276.677 105.886C278.027 105.832 279.089 106.483 279.089 107.242Z" stroke="#1B6C86" stroke-opacity="0.5" stroke-miterlimit="10"/>
<path d="M288.542 163.973C288.542 164.732 287.481 165.329 286.13 165.329C284.78 165.329 283.719 164.732 283.719 163.973C283.719 163.214 284.78 162.617 286.13 162.617C287.481 162.617 288.542 163.214 288.542 163.973Z" stroke="#1B6C86" stroke-opacity="0.5" stroke-miterlimit="10"/>
<path d="M276.68 108.594L276.68 121.176L286.133 126.491L286.133 162.61" stroke="#1B6C86" stroke-opacity="0.5" stroke-miterlimit="10"/>
<path d="M133.813 217.77C133.813 217.011 134.874 216.414 136.224 216.414C137.574 216.414 138.635 217.011 138.635 217.77C138.635 218.529 137.574 219.126 136.224 219.126C134.874 219.126 133.813 218.529 133.813 217.77Z" stroke="#1B6C86" stroke-opacity="0.5" stroke-miterlimit="10"/>
<path d="M124.266 161.043C124.266 160.284 125.327 159.687 126.677 159.687C128.027 159.687 129.089 160.284 129.089 161.043C129.089 161.803 128.027 162.399 126.677 162.399C125.423 162.399 124.266 161.803 124.266 161.043Z" stroke="#1B6C86" stroke-opacity="0.5" stroke-miterlimit="10"/>
<path d="M136.226 216.415L136.226 203.832L126.773 198.463L126.773 162.398" stroke="#1B6C86" stroke-opacity="0.5" stroke-miterlimit="10"/>
<path d="M384.62 20.5199C384.62 21.2792 383.559 21.8757 382.208 21.8757C380.858 21.8757 379.797 21.2792 379.797 20.5199C379.797 19.7606 380.858 19.1641 382.208 19.1641C383.559 19.1641 384.62 19.7606 384.62 20.5199Z" stroke="#1B6C86" stroke-opacity="0.5" stroke-miterlimit="10"/>
<path d="M394.073 77.2465C394.073 78.0057 393.012 78.6023 391.661 78.6023C390.311 78.6023 389.25 78.0057 389.25 77.2465C389.25 76.4872 390.311 75.8906 391.661 75.8906C393.012 75.8906 394.073 76.4872 394.073 77.2465Z" stroke="#1B6C86" stroke-opacity="0.5" stroke-miterlimit="10"/>
<path d="M382.211 21.875L382.211 34.4571L391.664 39.8261L391.664 75.8911" stroke="#1B6C86" stroke-opacity="0.5" stroke-miterlimit="10"/>
<path d="M386.544 3.71165C387.876 3.71165 388.956 3.10463 388.956 2.35583C388.956 1.60702 387.876 1 386.544 1C385.212 1 384.133 1.60702 384.133 2.35583C384.133 3.10463 385.212 3.71165 386.544 3.71165Z" stroke="#1B6C86" stroke-opacity="0.5" stroke-miterlimit="10"/>
<path d="M398.503 59.1402C398.503 59.8995 397.442 60.4961 396.091 60.4961C394.741 60.4961 393.68 59.8995 393.68 59.1402C393.68 58.381 394.741 57.7844 396.091 57.7844C397.442 57.7302 398.503 58.381 398.503 59.1402Z" stroke="#1B6C86" stroke-opacity="0.5" stroke-miterlimit="10"/>
<path d="M386.547 3.71094L386.547 16.3472L396.096 21.6621L396.096 57.7271" stroke="#1B6C86" stroke-opacity="0.5" stroke-miterlimit="10"/>
<path d="M286.133 170.75L286.133 185.718" stroke="#1B6C86" stroke-opacity="0.5" stroke-miterlimit="10"/>
<path d="M266.648 121.016L280.056 128.5L280.056 159.196" stroke="#1B6C86" stroke-opacity="0.5" stroke-miterlimit="10"/>
<path d="M271.857 147.703L271.857 152.91L267.227 155.513L267.227 171.945" stroke="#1B6C86" stroke-opacity="0.5" stroke-miterlimit="10"/>
<path d="M90.4166 205.293C90.4166 206.053 89.3556 206.649 88.0052 206.649C86.6548 206.649 85.5938 206.053 85.5938 205.293C85.5938 204.534 86.6548 203.937 88.0052 203.937C89.3556 203.937 90.4166 204.534 90.4166 205.293Z" stroke="#1B6C86" stroke-opacity="0.5" stroke-miterlimit="10"/>
<path d="M78.5573 218.043C78.5573 218.803 77.4962 219.399 76.1458 219.399C74.7954 219.399 73.7344 218.803 73.7344 218.043C73.7344 217.284 74.7954 216.687 76.1458 216.687C77.4962 216.687 78.5573 217.284 78.5573 218.043Z" stroke="#1B6C86" stroke-opacity="0.5" stroke-miterlimit="10"/>
<path d="M80.7656 244.395C80.7656 243.636 81.8267 243.039 83.1771 243.039C84.5275 243.039 85.5885 243.636 85.5885 244.395C85.5885 245.154 84.5275 245.751 83.1771 245.751C81.8267 245.751 80.7656 245.154 80.7656 244.395Z" stroke="#1B6C86" stroke-opacity="0.5" stroke-miterlimit="10"/>
<path d="M73.5391 212.348C73.5391 211.589 74.6001 210.992 75.9505 210.992C77.3009 210.992 78.3619 211.589 78.3619 212.348C78.3619 213.107 77.3009 213.704 75.9505 213.704C74.6001 213.704 73.5391 213.107 73.5391 212.348Z" stroke="#1B6C86" stroke-opacity="0.5" stroke-miterlimit="10"/>
<path d="M88.0078 206.648L88.0078 219.285L97.5571 224.6L97.5571 260.665" stroke="#1B6C86" stroke-opacity="0.5" stroke-miterlimit="10"/>
<path d="M77.9766 219.07L91.3842 226.609L91.3842 257.305" stroke="#1B6C86" stroke-opacity="0.5" stroke-miterlimit="10"/>
<path d="M83.2733 245.805L83.2733 251.011L78.5469 253.614L78.5469 270.047" stroke="#1B6C86" stroke-opacity="0.5" stroke-miterlimit="10"/>
<path d="M190.543 185.016C186.299 187.402 179.836 191.035 179.836 191.035L179.836 208.932L183.694 211.102L183.694 216.905" stroke="#1B6C86" stroke-opacity="0.5" stroke-miterlimit="10"/>
<path d="M376.992 107.242L384.805 111.581L384.805 125.139L388.856 127.417L388.856 131.213" stroke="#1B6C86" stroke-opacity="0.5" stroke-miterlimit="10"/>
<path d="M261.345 229.859L255.172 233.33L255.172 256.867" stroke="#1B6C86" stroke-opacity="0.5" stroke-miterlimit="10"/>
<path d="M172.699 218.695L172.699 226.505L167.008 229.759L167.008 272.061" stroke="#1B6C86" stroke-opacity="0.5" stroke-miterlimit="10"/>
<path d="M181.276 237.676C181.276 238.435 180.215 239.032 178.865 239.032C177.514 239.032 176.453 238.435 176.453 237.676C176.453 236.917 177.514 236.32 178.865 236.32C180.215 236.32 181.276 236.917 181.276 237.676Z" stroke="#1B6C86" stroke-opacity="0.5" stroke-miterlimit="10"/>
<path d="M177.621 238.648L171.352 242.119L171.352 265.602" stroke="#1B6C86" stroke-opacity="0.5" stroke-miterlimit="10"/>
<path d="M240.023 225.148L245.618 228.294L245.618 256.766" stroke="#1B6C86" stroke-opacity="0.5" stroke-miterlimit="10"/>
<path d="M318.538 230.297L299.922 230.297L299.922 236.642L318.538 236.642L318.538 230.297Z" stroke="#1B6C86" stroke-opacity="0.5" stroke-miterlimit="10"/>
<path d="M317.578 230.298L317.578 228.617" stroke="#1B6C86" stroke-opacity="0.5" stroke-miterlimit="10"/>
<path d="M314.781 230.298L314.781 228.617" stroke="#1B6C86" stroke-opacity="0.5" stroke-miterlimit="10"/>
<path d="M311.984 230.298L311.984 228.617" stroke="#1B6C86" stroke-opacity="0.5" stroke-miterlimit="10"/>
<path d="M309.281 230.298L309.281 228.617" stroke="#1B6C86" stroke-opacity="0.5" stroke-miterlimit="10"/>
<path d="M306.484 230.298L306.484 228.617" stroke="#1B6C86" stroke-opacity="0.5" stroke-miterlimit="10"/>
<path d="M303.781 230.298L303.781 228.617" stroke="#1B6C86" stroke-opacity="0.5" stroke-miterlimit="10"/>
<path d="M300.984 230.298L300.984 228.617" stroke="#1B6C86" stroke-opacity="0.5" stroke-miterlimit="10"/>
<path d="M317.578 238.267L317.578 236.586" stroke="#1B6C86" stroke-opacity="0.5" stroke-miterlimit="10"/>
<path d="M314.781 238.267L314.781 236.586" stroke="#1B6C86" stroke-opacity="0.5" stroke-miterlimit="10"/>
<path d="M311.984 238.267L311.984 236.586" stroke="#1B6C86" stroke-opacity="0.5" stroke-miterlimit="10"/>
<path d="M309.281 238.267L309.281 236.586" stroke="#1B6C86" stroke-opacity="0.5" stroke-miterlimit="10"/>
<path d="M306.484 238.267L306.484 236.586" stroke="#1B6C86" stroke-opacity="0.5" stroke-miterlimit="10"/>
<path d="M303.781 238.267L303.781 236.586" stroke="#1B6C86" stroke-opacity="0.5" stroke-miterlimit="10"/>
<path d="M300.984 238.267L300.984 236.586" stroke="#1B6C86" stroke-opacity="0.5" stroke-miterlimit="10"/>
<path d="M182.727 229.375L189.575 233.226L189.575 255.461" stroke="#1B6C86" stroke-opacity="0.5" stroke-miterlimit="10"/>
<path d="M163.242 207.195L163.242 217.228L139.031 230.787L139.031 256.873" stroke="#1B6C86" stroke-opacity="0.5" stroke-miterlimit="10"/>
<path d="M154.175 231.656L146.266 236.103L146.266 261.701" stroke="#1B6C86" stroke-opacity="0.5" stroke-miterlimit="10"/>
<path d="M139.029 222.758L133.82 225.741L133.82 261.697" stroke="#1B6C86" stroke-opacity="0.5" stroke-miterlimit="10"/>
<path d="M113.953 209.906L122.731 214.896L122.731 257.306" stroke="#1B6C86" stroke-opacity="0.5" stroke-miterlimit="10"/>
<path d="M101.312 219.398L114.527 226.828L114.527 243.369L107.775 247.166L107.775 256.006" stroke="#1B6C86" stroke-opacity="0.5" stroke-miterlimit="10"/>
<path d="M73.7265 236.641L66.4922 240.654L66.4922 255.46" stroke="#1B6C86" stroke-opacity="0.5" stroke-miterlimit="10"/>
<path d="M22.8047 228.508L29.3638 232.196L29.3638 254.431" stroke="#1B6C86" stroke-opacity="0.5" stroke-miterlimit="10"/>
<path d="M46.8237 235.07L36.4063 240.927L36.4063 254.432" stroke="#1B6C86" stroke-opacity="0.5" stroke-miterlimit="10"/>
<path d="M42.6641 246.023L42.6641 253.453" stroke="#1B6C86" stroke-opacity="0.5" stroke-miterlimit="10"/>
<path d="M5.33594 244.727L9.86944 247.33L9.86944 252.102" stroke="#1B6C86" stroke-opacity="0.5" stroke-miterlimit="10"/>
<path d="M13.5391 240.219L13.5391 254.428" stroke="#1B6C86" stroke-opacity="0.5" stroke-miterlimit="10"/>
</svg>
