<svg width="172" height="131" viewBox="0 0 172 131" fill="none" xmlns="http://www.w3.org/2000/svg">
<path d="M33.5044 65.0587C45.7993 53.2498 57.1692 40.514 67.5136 26.9638C68.6809 25.4258 66.0703 23.9114 64.9267 25.4415C54.8857 38.9216 43.7876 51.5809 31.7377 63.2997C30.5861 64.4118 32.3213 66.1707 33.5044 65.0587Z" fill="#FFA500"/>
<path d="M47.3494 58.5413C39.1783 67.1067 31.9143 76.6816 24.2322 85.736C23.2227 86.9191 24.9105 88.6386 25.9516 87.4555C33.752 78.5588 42.1912 69.9855 49.4868 60.6393C50.6541 59.2117 48.7296 57.09 47.3494 58.5413Z" fill="#FFA500"/>
<path d="M59.8048 54.3303C66.849 45.9949 74.6425 38.3228 83.0875 31.4102C84.6018 30.172 82.4092 27.932 80.9186 29.2413C72.6791 36.3932 65.0569 44.2265 58.1326 52.6581C57.1783 53.8175 58.811 55.4976 59.8048 54.3303Z" fill="#FFA500"/>
<path d="M61.9624 67.1362C55.0848 75.0234 48.223 83.2338 42.0158 91.6652C41.4085 92.4539 42.7178 93.4398 43.404 92.7457C50.6759 85.3712 57.6008 77.3736 64.2575 69.4234C65.5747 67.8854 63.3427 65.5194 61.9624 67.1362Z" fill="#FFA500"/>
<path d="M92.0711 55.0237C99.1695 45.7011 106.473 36.5285 113.516 27.1664C114.873 25.3682 111.844 23.6488 110.503 25.4076C103.405 34.6908 96.5352 44.179 89.4763 53.5095C88.3247 55.0475 90.9117 56.5381 92.0711 55.0237Z" fill="#FFA500"/>
<path d="M81.3035 77.355C72.3753 85.0212 65.1349 94.9906 59.3379 105.157C59.2048 105.412 59.175 105.709 59.2548 105.985C59.3346 106.262 59.5178 106.497 59.7663 106.642C60.0149 106.787 60.3098 106.831 60.5898 106.765C60.8698 106.698 61.1135 106.526 61.2703 106.285C67.3433 96.079 75.049 87.7817 83.7249 79.7842C85.3654 78.2541 82.9598 75.9195 81.3035 77.355Z" fill="#FFA500"/>
<path d="M68.0221 79.8021C72.2811 74.5809 76.5717 69.399 80.9569 64.296C81.1013 64.1401 81.2116 63.9558 81.2808 63.7548C81.35 63.5539 81.3766 63.3408 81.3588 63.129C81.3411 62.9173 81.2795 62.7115 81.1778 62.5249C81.0762 62.3383 80.9368 62.1748 80.7685 62.045C80.6002 61.9153 80.4067 61.822 80.2004 61.7711C79.9941 61.7202 79.7795 61.7128 79.5701 61.7495C79.3608 61.7861 79.1614 61.866 78.9847 61.984C78.8079 62.102 78.6576 62.2554 78.5435 62.4347C74.521 67.6954 70.4119 72.8773 66.2633 78.0354C65.2695 79.2737 67.0283 81.0483 68.0221 79.8021Z" fill="#FFA500"/>
<path d="M113.48 40.593C106.003 51.0198 98.8571 61.5807 92.2634 72.6226C91.2933 74.2474 93.8409 75.7302 94.8031 74.1054C101.283 63.2084 108.457 52.739 116.28 42.762C116.455 42.5822 116.591 42.3674 116.677 42.1316C116.764 41.8957 116.8 41.6443 116.782 41.3937C116.765 41.1431 116.695 40.8989 116.577 40.6773C116.458 40.4557 116.294 40.2616 116.096 40.1078C115.897 39.9539 115.668 39.8438 115.424 39.7846C115.18 39.7254 114.926 39.7184 114.679 39.7643C114.432 39.8101 114.198 39.9077 113.991 40.0505C113.784 40.1933 113.61 40.3782 113.48 40.593Z" fill="#FFA500"/>
<path d="M51.7793 95.5306C45.2856 105.405 38.7341 115.238 32.1246 125.028C31.3359 126.227 33.2446 127.331 34.057 126.156C40.7926 116.424 47.5782 106.728 54.4137 97.0685C55.5652 95.4911 52.8757 93.9137 51.7793 95.5306Z" fill="#FFA500"/>
<path d="M78.7792 100.22C71.9016 108.896 64.8426 117.398 57.7284 125.877C56.8214 126.949 58.3673 128.511 59.3059 127.454C66.4043 119.015 73.5973 110.631 80.956 102.397C82.2573 100.867 79.978 98.6819 78.7792 100.22Z" fill="#FFA500"/>
<path d="M109.323 71.8333C102.387 80.1058 96.1003 88.9025 90.5205 98.1447C89.7318 99.4776 91.7903 100.7 92.6185 99.3673C98.2781 90.4571 104.57 81.9644 111.445 73.9549C112.675 72.5036 110.585 70.3742 109.323 71.8333Z" fill="#FFA500"/>
<path d="M98.6151 105.303C92.9364 111.455 87.8571 118.278 82.5017 124.729C81.429 126.023 83.2904 127.884 84.3709 126.599C89.8367 120.289 95.7126 114.129 100.831 107.52C102.03 105.974 100.027 103.781 98.6151 105.303Z" fill="#FFA500"/>
<path d="M129.162 75.9546C125.013 79.9691 121.464 85.1352 118.435 90.0331C117.646 91.366 119.697 92.5806 120.533 91.2635C123.641 86.334 127.347 82.2958 131.275 78.0605C131.555 77.7802 131.711 77.4004 131.71 77.0048C131.71 76.6091 131.552 76.2299 131.271 75.9506C130.991 75.6714 130.611 75.5149 130.216 75.5156C129.82 75.5164 129.441 75.6743 129.162 75.9546Z" fill="#FFA500"/>
<path d="M123.955 62.1152C127.717 58.4319 131.471 54.7328 135.351 51.1757C136.929 49.7245 134.444 47.2322 132.985 48.8096C129.436 52.6979 125.729 56.4443 122.054 60.2143C121.835 60.4726 121.722 60.8035 121.736 61.1416C121.75 61.4797 121.89 61.8001 122.129 62.0394C122.369 62.2786 122.689 62.4192 123.027 62.4333C123.365 62.4473 123.696 62.3338 123.955 62.1152Z" fill="#FFA500"/>
<path d="M38.9326 43.1139C42.0689 38.0877 45.8324 33.4814 50.1323 29.406C51.7098 27.9233 49.2095 25.4625 47.7662 27.0399C43.6261 31.6067 39.8993 36.5318 36.6296 41.7573C35.7226 43.2243 38.0256 44.5651 38.9326 43.1139Z" fill="#FFA500"/>
<path d="M6.29803 63.2034C3.66575 65.5773 1.56404 68.4798 0.130295 71.7215C-0.563772 73.2516 1.70773 74.6003 2.40969 73.0544C3.84497 70.0826 5.89321 67.4484 8.41967 65.325C9.84724 64.0552 7.71771 61.9336 6.29803 63.2034Z" fill="#FFA500"/>
<path d="M34.6205 16.4461C38.564 11.911 42.547 7.45478 46.4985 2.94334C47.9339 1.30282 45.4889 -1.11853 44.1323 0.577205C40.2992 5.19906 36.5292 9.87613 32.6645 14.4822C31.4814 15.8309 33.4295 17.8263 34.6205 16.4461Z" fill="#FFA500"/>
<path d="M156.664 17.7044C158.811 13.4573 161.723 9.64196 165.253 6.4495C166.712 5.1639 164.464 2.86878 163.107 4.31212C159.66 7.91302 156.739 11.9837 154.432 16.403C153.69 17.8779 155.891 19.1793 156.664 17.7044Z" fill="#FFA500"/>
<path d="M168.427 41.5327C161.977 46.1828 155.963 51.4099 150.46 57.1492C149.151 58.4821 151.194 60.5249 152.511 59.1919C157.97 53.7945 163.843 48.8316 170.075 44.3484C171.732 43.1259 170.162 40.318 168.427 41.5327Z" fill="#FFA500"/>
<path d="M147.19 87.8895C142.079 92.7401 137.197 97.8746 132.157 102.804C130.863 104.058 132.835 106.03 134.128 104.776C139.192 99.8622 144.461 95.1299 149.445 90.1452C150.904 88.694 148.68 86.4777 147.19 87.8895Z" fill="#FFA500"/>
<path d="M118.919 121.037C116.135 123.3 113.532 125.769 110.851 128.198C109.431 129.468 111.505 131.495 112.933 130.273C115.662 127.907 118.454 125.682 121.104 123.222C122.579 121.834 120.434 119.806 118.919 121.037Z" fill="#FFA500"/>
<path d="M123.647 17.698C125.224 15.0243 126.928 12.4136 128.379 9.69258C129.31 7.99685 126.762 6.53779 125.784 8.17832C124.207 10.8599 122.889 13.6993 121.422 16.4124C121.252 16.7074 121.206 17.0579 121.294 17.3871C121.382 17.7162 121.597 17.9968 121.892 18.1673C122.187 18.3378 122.537 18.3841 122.866 18.2961C123.195 18.2081 123.476 17.993 123.647 17.698Z" fill="#FFA500"/>
<path d="M93.9339 23.4676C95.4719 22.1268 97.002 20.7702 98.5716 19.4767C99.802 18.4593 97.98 16.5585 96.7891 17.6942C95.3221 19.0981 93.7999 20.4547 92.2934 21.8192C91.1814 22.8366 92.814 24.4378 93.9339 23.4676Z" fill="#FFA500"/>
<path d="M173.965 6.60974C167.623 15.8063 160.121 24.1461 151.644 31.4226C150.493 32.4321 152.173 34.0884 153.316 33.0947C161.753 25.621 169.518 17.421 176.52 8.58931C176.677 8.42473 176.798 8.22911 176.874 8.01501C176.951 7.80092 176.981 7.57316 176.964 7.34646C176.947 7.11975 176.883 6.89912 176.775 6.69889C176.667 6.49866 176.519 6.32332 176.339 6.18409C176.159 6.04486 175.952 5.94486 175.732 5.89063C175.511 5.8364 175.281 5.82914 175.057 5.86926C174.834 5.90937 174.621 5.99598 174.432 6.12353C174.244 6.25108 174.085 6.41674 173.965 6.60974Z" fill="#FFA500"/>
</svg>
