<svg width="336" height="654" viewBox="0 0 336 654" fill="none" xmlns="http://www.w3.org/2000/svg">
<path d="M-0.587024 663.493L-0.587011 519.775L12.75 504.272L12.75 476.758" stroke="#1B6C86" stroke-opacity="0.5" stroke-miterlimit="10"/>
<path d="M16.7127 539.055L16.7127 559.306L23.9219 567.547L23.9219 676.627" stroke="#1B6C86" stroke-opacity="0.5" stroke-miterlimit="10"/>
<path d="M63.8125 533.047L63.8125 546.036L46.5104 566.288L46.5104 675.228" stroke="#1B6C86" stroke-opacity="0.5" stroke-miterlimit="10"/>
<path d="M63.8125 669.081L63.8125 566.984" stroke="#1B6C86" stroke-opacity="0.5" stroke-miterlimit="10"/>
<path d="M78.3516 672.435L78.3516 551.344" stroke="#1B6C86" stroke-opacity="0.5" stroke-miterlimit="10"/>
<path d="M191.891 449.113C191.891 453.023 194.654 456.096 197.899 456.096C201.263 456.096 203.906 452.884 203.906 449.113C203.906 445.342 201.143 442.129 197.899 442.129C194.654 441.99 191.891 445.202 191.891 449.113Z" fill="white" stroke="#1B6C86" stroke-opacity="0.5" stroke-miterlimit="10"/>
<path d="M140.586 508.608C140.586 512.519 143.35 515.592 146.594 515.592C149.958 515.592 152.602 512.379 152.602 508.608C152.602 504.837 149.838 501.625 146.594 501.625C143.35 501.625 140.586 504.698 140.586 508.608Z" fill="white" stroke="#1B6C86" stroke-opacity="0.5" stroke-miterlimit="10"/>
<path d="M10.7034 532.074C10.7034 535.984 13.4669 539.057 16.7111 539.057C20.0754 539.057 22.7187 535.845 22.7187 532.074C22.7187 528.163 19.9552 525.09 16.7111 525.09C13.3468 524.951 10.7034 528.163 10.7034 532.074Z" stroke="#1B6C86" stroke-opacity="0.5" stroke-miterlimit="10"/>
<path d="M63.8126 533.053C60.4947 533.053 57.805 529.926 57.805 526.069C57.805 522.212 60.4947 519.086 63.8126 519.086C67.1306 519.086 69.8203 522.213 69.8203 526.069C69.8203 529.926 67.1306 533.053 63.8126 533.053Z" stroke="#1B6C86" stroke-opacity="0.5" stroke-miterlimit="10"/>
<path d="M248.969 580.675C248.969 584.586 251.733 587.659 254.977 587.659C258.341 587.659 260.984 584.446 260.984 580.675C260.984 576.765 258.221 573.692 254.977 573.692C251.612 573.552 248.969 576.765 248.969 580.675Z" stroke="#1B6C86" stroke-opacity="0.5" stroke-miterlimit="10"/>
<path d="M32.4534 545.343C32.4534 549.253 35.2169 552.326 38.4611 552.326C41.8254 552.326 44.4687 549.114 44.4687 545.343C44.4687 541.572 41.7052 538.359 38.4611 538.359C35.2169 538.359 32.4534 541.432 32.4534 545.343Z" stroke="#1B6C86" stroke-opacity="0.5" stroke-miterlimit="10"/>
<path d="M32.4534 516.991C32.4534 520.902 35.2169 523.975 38.4611 523.975C41.8254 523.975 44.4687 520.762 44.4687 516.991C44.4687 513.08 41.7052 510.008 38.4611 510.008C35.2169 510.008 32.4534 513.08 32.4534 516.991Z" fill="white" stroke="#1B6C86" stroke-opacity="0.5" stroke-miterlimit="10"/>
<path d="M84.6018 562.378C84.6018 566.289 87.3654 569.362 90.6095 569.362C93.9738 569.362 96.6172 566.149 96.6172 562.378C96.6172 558.468 93.8537 555.395 90.6095 555.395C87.3654 555.255 84.6018 558.468 84.6018 562.378Z" stroke="#1B6C86" stroke-opacity="0.5" stroke-miterlimit="10"/>
<path d="M193.578 534.3C193.578 538.211 196.342 541.284 199.586 541.284C202.95 541.284 205.594 538.071 205.594 534.3C205.594 530.39 202.83 527.317 199.586 527.317C196.222 527.177 193.578 530.39 193.578 534.3Z" stroke="#1B6C86" stroke-opacity="0.5" stroke-miterlimit="10"/>
<path d="M90.6097 408.464C90.6097 412.375 93.3732 415.448 96.6173 415.448C99.9816 415.448 102.625 412.235 102.625 408.464C102.625 404.554 99.8615 401.481 96.6173 401.481C93.3732 401.341 90.6097 404.554 90.6097 408.464Z" stroke="#1B6C86" stroke-opacity="0.5" stroke-miterlimit="10"/>
<path d="M6.61746 469.78C6.61746 473.691 9.38099 476.764 12.6251 476.764C15.8693 476.764 18.6328 473.551 18.6328 469.78C18.6328 465.87 15.8693 462.797 12.6251 462.797C9.38099 462.797 6.61746 465.87 6.61746 469.78Z" stroke="#1B6C86" stroke-opacity="0.5" stroke-miterlimit="10"/>
<path d="M60.8126 428.015C60.8126 429.97 62.1343 431.507 63.8165 431.507C65.4986 431.507 66.8203 429.97 66.8203 428.015C66.8203 426.06 65.4986 424.523 63.8165 424.523C62.1343 424.523 60.8126 426.06 60.8126 428.015Z" stroke="#1B6C86" stroke-opacity="0.5" stroke-miterlimit="10"/>
<path d="M287.899 548.828C287.899 550.783 289.22 552.319 290.902 552.319C292.585 552.319 293.906 550.783 293.906 548.828C293.906 546.872 292.585 545.336 290.902 545.336C289.22 545.336 287.899 546.872 287.899 548.828Z" stroke="#1B6C86" stroke-opacity="0.5" stroke-miterlimit="10"/>
<path d="M227.703 457.492C227.703 459.447 229.025 460.983 230.707 460.983C232.389 460.983 233.711 459.447 233.711 457.492C233.711 455.536 232.389 454 230.707 454C229.025 454 227.703 455.536 227.703 457.492Z" stroke="#1B6C86" stroke-opacity="0.5" stroke-miterlimit="10"/>
<path d="M38.5861 310.843C38.5861 312.799 39.9078 314.335 41.5899 314.335C43.2721 314.335 44.5937 312.799 44.5937 310.843C44.5937 308.888 43.2721 307.352 41.5899 307.352C39.9078 307.352 38.5861 308.888 38.5861 310.843Z" stroke="#1B6C86" stroke-opacity="0.5" stroke-miterlimit="10"/>
<path d="M75.3439 547.859C75.3439 549.814 76.6656 551.351 78.3477 551.351C80.0299 551.351 81.3516 549.814 81.3516 547.859C81.3516 545.904 80.0299 544.367 78.3477 544.367C76.6656 544.367 75.3439 545.904 75.3439 547.859Z" stroke="#1B6C86" stroke-opacity="0.5" stroke-miterlimit="10"/>
<path d="M118.125 558.749C118.125 560.705 119.447 562.241 121.129 562.241C122.811 562.241 124.133 560.705 124.133 558.749C124.133 556.794 122.811 555.258 121.129 555.258C119.447 555.258 118.125 556.794 118.125 558.749Z" stroke="#1B6C86" stroke-opacity="0.5" stroke-miterlimit="10"/>
<path d="M157.899 569.359C157.899 571.314 159.22 572.851 160.902 572.851C162.585 572.851 163.906 571.314 163.906 569.359C163.906 567.404 162.585 565.867 160.902 565.867C159.22 565.867 157.899 567.404 157.899 569.359Z" stroke="#1B6C86" stroke-opacity="0.5" stroke-miterlimit="10"/>
<path d="M239.117 605.679C239.117 607.635 240.439 609.171 242.121 609.171C243.803 609.171 245.125 607.635 245.125 605.679C245.125 603.724 243.803 602.187 242.121 602.187C240.439 602.187 239.117 603.724 239.117 605.679Z" stroke="#1B6C86" stroke-opacity="0.5" stroke-miterlimit="10"/>
<path d="M273 602.187C273 604.143 274.322 605.679 276.004 605.679C277.686 605.679 279.008 604.143 279.008 602.187C279.008 600.232 277.686 598.696 276.004 598.696C274.322 598.556 273 600.232 273 602.187Z" stroke="#1B6C86" stroke-opacity="0.5" stroke-miterlimit="10"/>
<path d="M316.375 613.492C316.375 615.447 317.697 616.983 319.379 616.983C321.061 616.983 322.383 615.447 322.383 613.492C322.383 611.536 321.061 610 319.379 610C317.697 610 316.375 611.676 316.375 613.492Z" stroke="#1B6C86" stroke-opacity="0.5" stroke-miterlimit="10"/>
<path d="M316.375 602.187C316.375 604.143 317.697 605.679 319.379 605.679C321.061 605.679 322.383 604.143 322.383 602.187C322.383 600.232 321.061 598.696 319.379 598.696C317.697 598.556 316.375 600.232 316.375 602.187Z" stroke="#1B6C86" stroke-opacity="0.5" stroke-miterlimit="10"/>
<path d="M328.992 626.492C328.992 628.447 330.314 629.983 331.996 629.983C333.678 629.983 335 628.447 335 626.492C335 624.536 333.678 623 331.996 623C330.314 623 328.992 624.536 328.992 626.492Z" stroke="#1B6C86" stroke-opacity="0.5" stroke-miterlimit="10"/>
<path d="M139.149 592.687C139.149 594.642 140.47 596.179 142.152 596.179C143.835 596.179 145.156 594.642 145.156 592.687C145.156 590.732 143.835 589.195 142.152 589.195C140.59 589.195 139.149 590.732 139.149 592.687Z" stroke="#1B6C86" stroke-opacity="0.5" stroke-miterlimit="10"/>
<path d="M132.902 532.069C131.243 532.069 129.899 530.506 129.899 528.578C129.899 526.649 131.243 525.086 132.902 525.086C134.561 525.086 135.906 526.649 135.906 528.578C135.906 530.506 134.561 532.069 132.902 532.069Z" stroke="#1B6C86" stroke-opacity="0.5" stroke-miterlimit="10"/>
<path d="M209.438 560.562C209.438 562.517 210.759 564.054 212.441 564.054C214.124 564.054 215.445 562.517 215.445 560.562C215.445 558.607 214.124 557.07 212.441 557.07C210.759 557.07 209.438 558.607 209.438 560.562Z" stroke="#1B6C86" stroke-opacity="0.5" stroke-miterlimit="10"/>
<path d="M107.43 586.96C107.43 588.916 108.752 590.452 110.434 590.452C112.116 590.452 113.437 588.916 113.437 586.96C113.437 585.005 112.116 583.469 110.434 583.469C108.752 583.469 107.43 585.005 107.43 586.96Z" stroke="#1B6C86" stroke-opacity="0.5" stroke-miterlimit="10"/>
<path d="M198.75 589.195C198.75 591.15 200.072 592.686 201.754 592.686C203.436 592.686 204.758 591.15 204.758 589.195C204.758 587.239 203.436 585.703 201.754 585.703C200.072 585.703 198.75 587.239 198.75 589.195Z" fill="white" stroke="#1B6C86" stroke-opacity="0.5" stroke-miterlimit="10"/>
<path d="M306.883 584.164C306.883 586.119 308.205 587.655 309.887 587.655C311.569 587.655 312.891 586.119 312.891 584.164C312.891 582.208 311.569 580.672 309.887 580.672C308.205 580.672 306.883 582.208 306.883 584.164Z" fill="white" stroke="#1B6C86" stroke-opacity="0.5" stroke-miterlimit="10"/>
<path d="M279.969 627.882C279.969 629.838 281.291 631.374 282.973 631.374C284.655 631.374 285.977 629.838 285.977 627.882C285.977 625.927 284.655 624.391 282.973 624.391C281.411 624.391 279.969 625.927 279.969 627.882Z" fill="white" stroke="#1B6C86" stroke-opacity="0.5" stroke-miterlimit="10"/>
<path d="M198.75 600.226C198.75 602.181 200.072 603.718 201.754 603.718C203.436 603.718 204.758 602.181 204.758 600.226C204.758 598.271 203.436 596.734 201.754 596.734C200.072 596.734 198.75 598.271 198.75 600.226Z" stroke="#1B6C86" stroke-opacity="0.5" stroke-miterlimit="10"/>
<path d="M198.75 611.398C198.75 613.353 200.072 614.89 201.754 614.89C203.436 614.89 204.758 613.353 204.758 611.398C204.758 609.443 203.436 607.906 201.754 607.906C200.072 607.906 198.75 609.443 198.75 611.398Z" stroke="#1B6C86" stroke-opacity="0.5" stroke-miterlimit="10"/>
<path d="M144.195 641.429C144.195 639.474 142.874 637.937 141.191 637.937C139.509 637.937 138.188 639.474 138.188 641.429C138.188 643.385 139.509 644.921 141.191 644.921C142.874 644.921 144.195 643.385 144.195 641.429Z" fill="white" stroke="#1B6C86" stroke-opacity="0.5" stroke-miterlimit="10"/>
<path d="M144.195 630.398C144.195 628.443 142.874 626.906 141.191 626.906C139.509 626.906 138.188 628.443 138.188 630.398C138.188 632.353 139.509 633.89 141.191 633.89C142.874 633.89 144.195 632.353 144.195 630.398Z" stroke="#1B6C86" stroke-opacity="0.5" stroke-miterlimit="10"/>
<path d="M144.195 619.367C144.195 617.411 142.874 615.875 141.191 615.875C139.509 615.875 138.188 617.411 138.188 619.367C138.188 621.322 139.509 622.858 141.191 622.858C142.874 622.858 144.195 621.322 144.195 619.367Z" stroke="#1B6C86" stroke-opacity="0.5" stroke-miterlimit="10"/>
<path d="M35.4533 495.343C35.4533 497.299 36.775 498.835 38.4571 498.835C40.1392 498.835 41.4609 497.299 41.4609 495.343C41.4609 493.388 40.1392 491.852 38.4571 491.852C36.775 491.852 35.4533 493.388 35.4533 495.343Z" stroke="#1B6C86" stroke-opacity="0.5" stroke-miterlimit="10"/>
<path d="M39.3009 579.14C37.6419 579.14 36.297 577.576 36.297 575.648C36.297 573.72 37.6419 572.156 39.3009 572.156C40.9598 572.156 42.3047 573.72 42.3047 575.648C42.3047 577.576 40.9598 579.14 39.3009 579.14Z" stroke="#1B6C86" stroke-opacity="0.5" stroke-miterlimit="10"/>
<path d="M39.3009 595.061C37.6419 595.061 36.297 593.498 36.297 591.57C36.297 589.641 37.6419 588.078 39.3009 588.078C40.9598 588.078 42.3047 589.641 42.3047 591.57C42.3047 593.498 40.9598 595.061 39.3009 595.061Z" stroke="#1B6C86" stroke-opacity="0.5" stroke-miterlimit="10"/>
<path d="M36.297 618.109C36.297 620.064 37.6187 621.601 39.3009 621.601C40.983 621.601 42.3047 620.064 42.3047 618.109C42.3047 616.154 40.983 614.617 39.3009 614.617C37.6187 614.617 36.297 616.154 36.297 618.109Z" fill="white" stroke="#1B6C86" stroke-opacity="0.5" stroke-miterlimit="10"/>
<path d="M6.01576 587.937C6.01576 589.892 7.33745 591.429 9.0196 591.429C10.7017 591.429 12.0234 589.892 12.0234 587.937C12.0234 585.982 10.7017 584.445 9.0196 584.445C7.33745 584.445 6.01576 586.121 6.01576 587.937Z" fill="white" stroke="#1B6C86" stroke-opacity="0.5" stroke-miterlimit="10"/>
<path d="M6.01576 633.89C6.01576 635.845 7.33745 637.382 9.0196 637.382C10.7017 637.382 12.0234 635.845 12.0234 633.89C12.0234 631.935 10.7017 630.398 9.0196 630.398C7.33745 630.398 6.01576 631.935 6.01576 633.89Z" stroke="#1B6C86" stroke-opacity="0.5" stroke-miterlimit="10"/>
<path d="M3.37514 307.351C3.37514 309.306 4.69683 310.843 6.37898 310.843C8.06112 310.843 9.38281 309.306 9.38281 307.351C9.38281 305.396 8.06112 303.859 6.37898 303.859C4.69683 303.859 3.37514 305.396 3.37514 307.351Z" stroke="#1B6C86" stroke-opacity="0.5" stroke-miterlimit="10"/>
<path d="M0.375138 445.617C0.375138 447.572 1.69683 449.109 3.37898 449.109C5.06112 449.109 6.38281 447.572 6.38281 445.617C6.38281 443.662 5.06112 442.125 3.37898 442.125C1.69683 441.986 0.375139 443.662 0.375138 445.617Z" stroke="#1B6C86" stroke-opacity="0.5" stroke-miterlimit="10"/>
<path d="M93.7345 472.296C93.7345 474.252 95.0562 475.788 96.7384 475.788C98.4205 475.788 99.7422 474.252 99.7422 472.296C99.7422 470.341 98.4205 468.805 96.7384 468.805C95.0562 468.805 93.7345 470.341 93.7345 472.296Z" stroke="#1B6C86" stroke-opacity="0.5" stroke-miterlimit="10"/>
<path d="M104.305 560.562C104.305 562.517 105.627 564.054 107.309 564.054C108.991 564.054 110.312 562.517 110.312 560.562C110.312 558.607 108.991 557.07 107.309 557.07C105.627 557.07 104.305 558.607 104.305 560.562Z" stroke="#1B6C86" stroke-opacity="0.5" stroke-miterlimit="10"/>
<path d="M88.3283 497.99C85.0103 497.99 82.3206 494.864 82.3206 491.007C82.3206 487.15 85.0103 484.023 88.3283 484.023C91.6462 484.023 94.3359 487.15 94.3359 491.007C94.3359 494.864 91.6462 497.99 88.3283 497.99Z" stroke="#1B6C86" stroke-opacity="0.5" stroke-miterlimit="10"/>
<path d="M88.3243 459.163C86.6653 459.163 85.3205 457.6 85.3205 455.671C85.3205 453.743 86.6653 452.18 88.3243 452.18C89.9833 452.18 91.3281 453.743 91.3281 455.671C91.3281 457.6 89.9833 459.163 88.3243 459.163Z" fill="white" stroke="#1B6C86" stroke-opacity="0.5" stroke-miterlimit="10"/>
<path d="M0.609375 375.367C0.609375 373.411 -0.712313 371.875 -2.39446 371.875C-4.07661 371.875 -5.3983 373.411 -5.3983 375.367C-5.3983 377.322 -4.07661 378.858 -2.39446 378.858C-0.712314 378.858 0.609375 377.322 0.609375 375.367Z" fill="white" stroke="#1B6C86" stroke-opacity="0.5" stroke-miterlimit="10"/>
<path d="M9.625 292.687C9.625 290.732 8.30331 289.195 6.62116 289.195C4.93901 289.195 3.61733 290.732 3.61733 292.687C3.61733 294.642 4.93901 296.179 6.62116 296.179C8.30331 296.179 9.625 294.642 9.625 292.687Z" fill="white" stroke="#1B6C86" stroke-opacity="0.5" stroke-miterlimit="10"/>
<path d="M88.3203 483.885L88.3203 459.164" stroke="#1B6C86" stroke-opacity="0.5" stroke-miterlimit="10"/>
<path d="M90.6094 569.359L90.6094 660.004" stroke="#1B6C86" stroke-opacity="0.5" stroke-miterlimit="10"/>
<path d="M169.555 559.312C169.555 557.357 168.233 555.82 166.551 555.82C164.869 555.82 163.547 557.357 163.547 559.312C163.547 561.267 164.869 562.804 166.551 562.804C168.233 562.804 169.555 561.267 169.555 559.312Z" stroke="#1B6C86" stroke-opacity="0.5" stroke-miterlimit="10"/>
<path d="M181.445 413.218C181.445 411.263 180.124 409.727 178.441 409.727C176.759 409.727 175.438 411.263 175.438 413.218C175.438 415.174 176.759 416.71 178.441 416.71C180.003 416.71 181.445 415.174 181.445 413.218Z" stroke="#1B6C86" stroke-opacity="0.5" stroke-miterlimit="10"/>
<path d="M166.545 555.82L166.545 523.417L178.32 509.59L178.32 416.711" stroke="#1B6C86" stroke-opacity="0.5" stroke-miterlimit="10"/>
<path d="M4.10156 310.141L-12.5998 329.415L-12.5998 408.467" stroke="#1B6C86" stroke-opacity="0.5" stroke-miterlimit="10"/>
<path d="M-2.39235 378.859L-2.39235 392.267L3.375 398.971L3.37499 441.291" stroke="#1B6C86" stroke-opacity="0.5" stroke-miterlimit="10"/>
<path d="M223.617 527.179C223.617 529.135 224.939 530.671 226.621 530.671C228.303 530.671 229.625 529.135 229.625 527.179C229.625 525.224 228.303 523.687 226.621 523.687C224.939 523.687 223.617 525.224 223.617 527.179Z" stroke="#1B6C86" stroke-opacity="0.5" stroke-miterlimit="10"/>
<path d="M238.399 559.999C238.399 561.955 239.72 563.491 241.402 563.491C243.085 563.491 244.406 561.955 244.406 559.999C244.406 558.044 243.085 556.508 241.402 556.508C239.72 556.508 238.399 558.044 238.399 559.999Z" stroke="#1B6C86" stroke-opacity="0.5" stroke-miterlimit="10"/>
<path d="M235.633 627.882C235.633 625.927 234.311 624.391 232.629 624.391C230.947 624.391 229.625 625.927 229.625 627.882C229.625 629.838 230.947 631.374 232.629 631.374C234.311 631.374 235.633 629.838 235.633 627.882Z" fill="white" stroke="#1B6C86" stroke-opacity="0.5" stroke-miterlimit="10"/>
<path d="M244.648 545.335C244.648 543.38 243.327 541.844 241.645 541.844C239.962 541.844 238.641 543.38 238.641 545.335C238.641 547.291 239.962 548.827 241.645 548.827C243.327 548.827 244.648 547.291 244.648 545.335Z" fill="white" stroke="#1B6C86" stroke-opacity="0.5" stroke-miterlimit="10"/>
<path d="M226.625 530.672L226.625 563.214L214.73 576.902L214.73 669.781" stroke="#1B6C86" stroke-opacity="0.5" stroke-miterlimit="10"/>
<path d="M239.117 562.656L222.416 582.07L222.416 661.122" stroke="#1B6C86" stroke-opacity="0.5" stroke-miterlimit="10"/>
<path d="M232.511 631.516L232.511 644.924L238.398 651.628L238.398 693.947" stroke="#1B6C86" stroke-opacity="0.5" stroke-miterlimit="10"/>
<path d="M98.8973 474.945C104.184 481.091 112.234 490.448 112.234 490.448L112.234 536.539L107.428 542.125L107.428 557.07" stroke="#1B6C86" stroke-opacity="0.5" stroke-miterlimit="10"/>
<path d="M10.7008 590.453L18.3906 599.392L18.3906 660.008" stroke="#1B6C86" stroke-opacity="0.5" stroke-miterlimit="10"/>
<path d="M121.122 561.68L121.122 581.792L128.211 590.172L128.211 699.112" stroke="#1B6C86" stroke-opacity="0.5" stroke-miterlimit="10"/>
<path d="M110.438 610.57C110.438 612.525 111.759 614.061 113.441 614.061C115.124 614.061 116.445 612.525 116.445 610.57C116.445 608.614 115.124 607.078 113.441 607.078C111.759 607.078 110.438 608.614 110.438 610.57Z" fill="white" stroke="#1B6C86" stroke-opacity="0.5" stroke-miterlimit="10"/>
<path d="M114.995 613.078L122.805 622.017L122.805 682.493" stroke="#1B6C86" stroke-opacity="0.5" stroke-miterlimit="10"/>
<path d="M37.2578 578.305L30.2889 586.405L30.2889 659.731" stroke="#1B6C86" stroke-opacity="0.5" stroke-miterlimit="10"/>
<path d="M108.633 589.195L100.102 599.112L100.102 656.375" stroke="#1B6C86" stroke-opacity="0.5" stroke-miterlimit="10"/>
<path d="M132.896 532.07L132.896 557.909L163.055 592.826L163.055 660.006" stroke="#1B6C86" stroke-opacity="0.5" stroke-miterlimit="10"/>
<path d="M144.194 595.062L154.047 606.515L154.047 672.438" stroke="#1B6C86" stroke-opacity="0.5" stroke-miterlimit="10"/>
<path d="M163.059 572.156L169.547 579.838L169.547 672.438" stroke="#1B6C86" stroke-opacity="0.5" stroke-miterlimit="10"/>
<path d="M194.297 539.055L183.363 551.904L183.363 661.124" stroke="#1B6C86" stroke-opacity="0.5" stroke-miterlimit="10"/>
<path d="M210.039 563.492L193.578 582.627L193.578 625.225L201.989 635.002L201.989 657.768" stroke="#1B6C86" stroke-opacity="0.5" stroke-miterlimit="10"/>
<path d="M244.41 607.906L253.422 618.242L253.422 656.371" stroke="#1B6C86" stroke-opacity="0.5" stroke-miterlimit="10"/>
<path d="M307.844 586.961L299.673 596.458L299.673 653.722" stroke="#1B6C86" stroke-opacity="0.5" stroke-miterlimit="10"/>
<path d="M277.93 603.859L290.906 618.943L290.906 653.721" stroke="#1B6C86" stroke-opacity="0.5" stroke-miterlimit="10"/>
<path d="M283.094 632.07L283.094 651.205" stroke="#1B6C86" stroke-opacity="0.5" stroke-miterlimit="10"/>
<path d="M329.594 628.719L323.947 635.423L323.947 647.714" stroke="#1B6C86" stroke-opacity="0.5" stroke-miterlimit="10"/>
<path d="M319.383 617.125L319.383 653.718" stroke="#1B6C86" stroke-opacity="0.5" stroke-miterlimit="10"/>
</svg>
