<svg width="24" height="24" viewBox="0 0 24 24" fill="none" xmlns="http://www.w3.org/2000/svg">
<g clip-path="url(#clip0_4010_7)">
<path d="M18.9657 14.8696C18.4744 14.358 17.8817 14.0844 17.2536 14.0844C16.6306 14.0844 16.0329 14.3529 15.5213 14.8645L13.9206 16.4601C13.7889 16.3892 13.6572 16.3233 13.5306 16.2575C13.3482 16.1663 13.176 16.0802 13.0291 15.989C11.5298 15.0367 10.1672 13.7957 8.86033 12.19C8.22716 11.3897 7.80167 10.716 7.49268 10.0321C7.90804 9.65223 8.29301 9.25714 8.66785 8.87723C8.80968 8.7354 8.95151 8.58851 9.09334 8.44668C10.1571 7.38295 10.1571 6.00517 9.09334 4.94145L7.71049 3.5586C7.55347 3.40157 7.39138 3.23948 7.23942 3.07739C6.93549 2.76334 6.61638 2.43916 6.28713 2.13523C5.79579 1.64896 5.20821 1.39062 4.59023 1.39062C3.97226 1.39062 3.37454 1.64896 2.86801 2.13523C2.86294 2.1403 2.86294 2.1403 2.85788 2.14536L1.13565 3.88278C0.487286 4.53115 0.117514 5.32135 0.0364682 6.23818C-0.0851005 7.71727 0.350521 9.09504 0.684835 9.99668C1.50542 12.2102 2.73124 14.2617 4.55984 16.4601C6.77847 19.1093 9.44792 21.2013 12.4973 22.6753C13.6623 23.2274 15.2174 23.8808 16.9548 23.9923C17.0612 23.9973 17.1726 24.0024 17.2739 24.0024C18.444 24.0024 19.4267 23.582 20.1966 22.7462C20.2017 22.7361 20.2118 22.731 20.2169 22.7209C20.4803 22.4018 20.7842 22.113 21.1033 21.804C21.3211 21.5964 21.544 21.3786 21.7618 21.1506C22.2633 20.6289 22.5267 20.021 22.5267 19.398C22.5267 18.7699 22.2582 18.1671 21.7466 17.6606L18.9657 14.8696ZM20.7791 20.2034C20.7741 20.2034 20.7741 20.2085 20.7791 20.2034C20.5816 20.4161 20.379 20.6086 20.1612 20.8214C19.8319 21.1354 19.4976 21.4647 19.1835 21.8344C18.6719 22.3815 18.0692 22.6398 17.279 22.6398C17.203 22.6398 17.1219 22.6398 17.046 22.6348C15.5415 22.5385 14.1435 21.9509 13.095 21.4495C10.228 20.0616 7.7105 18.0911 5.6185 15.5939C3.89121 13.512 2.73631 11.5872 1.97144 9.52053C1.50036 8.25926 1.32814 7.27658 1.40412 6.34962C1.45477 5.75697 1.68271 5.26563 2.10314 4.8452L3.83043 3.11791C4.07863 2.88491 4.34203 2.75827 4.60036 2.75827C4.91948 2.75827 5.17781 2.95076 5.3399 3.11285C5.34497 3.11791 5.35004 3.12298 5.3551 3.12805C5.66409 3.41677 5.95788 3.71563 6.26687 4.03475C6.42389 4.19684 6.58598 4.35893 6.74808 4.52609L8.13092 5.90893C8.66785 6.44586 8.66785 6.94226 8.13092 7.47919C7.98403 7.62609 7.84219 7.77298 7.6953 7.91481C7.26981 8.35044 6.86458 8.75566 6.42389 9.15076C6.41376 9.16089 6.40363 9.16596 6.39857 9.17609C5.96294 9.61171 6.04399 10.0372 6.13517 10.3259C6.14023 10.3411 6.1453 10.3563 6.15036 10.3715C6.51 11.2428 7.01654 12.0633 7.78648 13.041L7.79154 13.046C9.18958 14.7683 10.6636 16.1106 12.2896 17.1388C12.4973 17.2705 12.71 17.3769 12.9126 17.4782C13.095 17.5694 13.2672 17.6555 13.4141 17.7467C13.4344 17.7568 13.4546 17.772 13.4749 17.7821C13.6471 17.8683 13.8092 17.9088 13.9764 17.9088C14.3968 17.9088 14.6602 17.6454 14.7463 17.5593L16.4786 15.8269C16.6509 15.6547 16.9244 15.447 17.2435 15.447C17.5576 15.447 17.8159 15.6446 17.9729 15.8168C17.978 15.8218 17.978 15.8218 17.9831 15.8269L20.7741 18.6179C21.2958 19.1346 21.2958 19.6665 20.7791 20.2034Z" fill="white"/>
<path d="M12.9691 5.7081C14.2963 5.93098 15.5018 6.55909 16.4642 7.52151C17.4267 8.48392 18.0497 9.68948 18.2776 11.0166C18.3334 11.3509 18.6221 11.5839 18.9513 11.5839C18.9919 11.5839 19.0273 11.5789 19.0678 11.5738C19.4427 11.513 19.6909 11.1584 19.6301 10.7836C19.3566 9.17788 18.5968 7.71399 17.4368 6.55402C16.2768 5.39405 14.8129 4.63425 13.2072 4.36072C12.8324 4.29993 12.4829 4.54814 12.417 4.91791C12.3512 5.28768 12.5943 5.64732 12.9691 5.7081Z" fill="white"/>
<path d="M23.9723 10.5869C23.5215 7.94279 22.2754 5.53674 20.3607 3.62203C18.446 1.70732 16.04 0.461243 13.3958 0.0104253C13.0261 -0.0554245 12.6766 0.197844 12.6107 0.567615C12.5499 0.942452 12.7981 1.29196 13.173 1.35781C15.5334 1.75798 17.6862 2.87742 19.3983 4.58445C21.1104 6.29654 22.2248 8.44932 22.6249 10.8098C22.6807 11.1441 22.9694 11.3771 23.2986 11.3771C23.3392 11.3771 23.3746 11.372 23.4151 11.367C23.7849 11.3113 24.0382 10.9567 23.9723 10.5869Z" fill="white"/>
</g>
<defs>
<clipPath id="clip0_4010_7">
<rect width="24" height="24" fill="white"/>
</clipPath>
</defs>
</svg>
