<svg width="64" height="50" viewBox="0 0 64 50" fill="none" xmlns="http://www.w3.org/2000/svg">
<path opacity="0.1" d="M0 10C0 4.47715 4.47715 0 10 0H30C41.0457 0 50 8.95431 50 20V28.5714C50 40.4061 40.4061 50 28.5714 50C12.7919 50 0 37.2081 0 21.4286V10Z" fill="#FFA500"/>
<path d="M63.7915 43.3717C63.8472 43.4719 63.875 43.5888 63.875 43.7029C63.8722 45.4173 63.2043 47.0316 61.9908 48.2423C60.7745 49.4585 59.1603 50.1265 57.4402 50.1265H27.6099C25.8926 50.1265 24.2338 49.4613 23.0176 48.2506C21.7985 47.0372 21.1278 45.4201 21.125 43.7029C21.125 43.586 21.1528 43.4719 21.2085 43.3717C21.331 43.1546 21.5536 43.0266 21.793 43.0266H23.2681V20.8138C23.2681 19.9983 23.9305 19.3359 24.7459 19.3359H60.2541C61.0695 19.3359 61.7319 19.9983 61.7319 20.8138V43.0266H63.207C63.4464 43.0266 63.6718 43.1546 63.7915 43.3717ZM22.5055 44.3625C22.8339 46.859 24.9742 48.7934 27.5598 48.7934H57.443C58.804 48.7934 60.0843 48.2618 61.0473 47.2988C61.8516 46.4944 62.3526 45.4702 62.4973 44.3625H47.7964L47.7937 44.3709L47.3094 46.3998C47.237 46.7004 46.9698 46.9119 46.6609 46.9119H38.3419C38.033 46.9119 37.763 46.7004 37.6934 46.3998L37.2091 44.3709L37.2063 44.3625H22.5055ZM60.396 43.0266V20.8138C60.396 20.7359 60.332 20.6719 60.2541 20.6719H24.7459C24.668 20.6719 24.604 20.7359 24.604 20.8138V43.0266H37.7324C38.0051 43.0266 38.1554 43.1546 38.2723 43.3411C38.3419 43.4496 38.3892 43.5693 38.4198 43.6945L38.8707 45.576H46.1321L46.583 43.6945C46.6136 43.5693 46.6609 43.4496 46.7305 43.3411C46.8474 43.1574 46.9977 43.0266 47.2704 43.0266H60.396Z" fill="#FFA500"/>
<path d="M50.4941 29.2981C50.7557 29.5569 50.7557 29.98 50.4969 30.2416C50.366 30.3724 50.1963 30.4392 50.0237 30.4392C49.8539 30.4392 49.6814 30.3752 49.5534 30.2444C45.6624 26.3757 39.3279 26.3702 35.4342 30.236C35.1725 30.4949 34.7495 30.4949 34.4907 30.2333C34.2318 29.9716 34.2318 29.5486 34.4934 29.2897C35.5761 28.2182 36.8369 27.386 38.2396 26.821C39.5923 26.2755 41.0228 26 42.4896 26H42.4979C43.9675 26 45.398 26.2783 46.7534 26.8266C48.1534 27.3916 49.4142 28.2238 50.4941 29.2981Z" fill="#FFA500"/>
<path d="M48.282 32.8199C48.5436 33.0816 48.5436 33.5046 48.2847 33.7662C48.1539 33.897 47.9814 33.9638 47.8116 33.9638C47.6418 33.9638 47.4721 33.8998 47.3412 33.769C44.6722 31.1138 40.3248 31.111 37.6529 33.7634C37.3913 34.0223 36.9682 34.0223 36.7094 33.7607C36.4506 33.499 36.4506 33.076 36.7122 32.8171C38.2597 31.2836 40.3109 30.4375 42.4957 30.4375H42.5013C44.6833 30.4347 46.7373 31.2836 48.282 32.8199Z" fill="#FFA500"/>
<path d="M46.0726 36.3317C46.3343 36.5905 46.3343 37.0136 46.0754 37.2752C45.9446 37.406 45.7748 37.4728 45.6023 37.4728C45.4325 37.4728 45.2627 37.4088 45.1319 37.278C43.6819 35.8363 41.3217 35.8335 39.8717 37.2752C39.61 37.534 39.187 37.534 38.9282 37.2724C38.6693 37.0108 38.6693 36.5878 38.9309 36.3289C39.8856 35.3826 41.1519 34.8594 42.499 34.8594H42.5018C43.8489 34.8566 45.118 35.3826 46.0726 36.3317Z" fill="#FFA500"/>
<path d="M42.5 38.8125C43.104 38.8125 43.5938 39.3023 43.5938 39.9063C43.5938 40.5103 43.104 41.0001 42.5 41.0001C41.8961 41.0001 41.4062 40.5103 41.4062 39.9063C41.4062 39.3023 41.8961 38.8125 42.5 38.8125Z" fill="#FFA500"/>
</svg>
