<svg width="63" height="50" viewBox="0 0 63 50" fill="none" xmlns="http://www.w3.org/2000/svg">
<path opacity="0.1" d="M0 10C0 4.47715 4.47715 0 10 0H30C41.0457 0 50 8.95431 50 20V28.5714C50 40.4061 40.4061 50 28.5714 50C12.7919 50 0 37.2081 0 21.4286V10Z" fill="#FFA500"/>
<path d="M59.4096 15.8219C60.563 15.8219 61.5 16.7588 61.5 17.9122C61.5 19.0656 60.563 20.0026 59.4096 20.0026C58.5191 20.0026 57.7553 19.4429 57.4553 18.6544H54.6012L52.3717 20.8839C52.2294 21.0261 52.0408 21.1003 51.8429 21.1034H50.5163V25.0058H56.1968C56.4967 24.2173 57.2605 23.6576 58.1511 23.6576C59.3045 23.6576 60.2415 24.5946 60.2415 25.748C60.2415 26.9014 59.3045 27.8383 58.1511 27.8383C57.2605 27.8383 56.4967 27.2786 56.1968 26.4901H50.5163V30.3925H51.8429C52.0408 30.3925 52.2294 30.4729 52.3717 30.6121L54.6012 32.8416H57.4553C57.7553 32.0531 58.5191 31.4934 59.4096 31.4934C60.563 31.4934 61.5 32.4303 61.5 33.5837C61.5 34.7371 60.563 35.6741 59.4096 35.6741C58.5191 35.6741 57.7553 35.1144 57.4553 34.3259H54.292C54.0941 34.3259 53.9054 34.2486 53.7663 34.1094L51.5337 31.8768H50.5163V46.1321C50.5163 46.3362 50.4854 46.5341 50.4267 46.7196C50.1762 47.5236 49.4248 48.1111 48.5373 48.1111H26.9658C25.9763 48.1111 25.1537 47.3813 25.0084 46.432C24.9929 46.3331 24.9868 46.2341 24.9868 46.1321V31.8768H23.9694L21.7368 34.1094C21.5977 34.2486 21.409 34.3259 21.2111 34.3259H18.0478C17.7478 35.1144 16.984 35.6741 16.0935 35.6741C14.94 35.6741 14.0031 34.7371 14.0031 33.5837C14.0031 32.4303 14.94 31.4934 16.0935 31.4934C16.984 31.4934 17.7478 32.0531 18.0478 32.8416H20.905L23.1345 30.6121C23.2736 30.4729 23.4654 30.3925 23.6633 30.3925H24.9898V26.4901H19.3032C19.0033 27.2786 18.2395 27.8383 17.3489 27.8383C16.1955 27.8383 15.2585 26.9014 15.2585 25.748C15.2585 24.5946 16.1955 23.6576 17.3489 23.6576C18.2395 23.6576 19.0033 24.2173 19.3032 25.0058H24.9837V21.1034H23.6571C23.4592 21.1003 23.2675 21.0261 23.1314 20.8839L20.9019 18.6544H18.0447C17.7447 19.4429 16.9809 20.0026 16.0904 20.0026C14.937 20.0026 14 19.0656 14 17.9122C14 16.7588 14.937 15.8219 16.0904 15.8219C16.9809 15.8219 17.7447 16.3816 18.0447 17.1701H21.208C21.4059 17.1701 21.5946 17.2474 21.7337 17.3865L23.9663 19.6191H24.9837V4.22904C24.9837 4.09298 24.9991 3.96001 25.0239 3.83014C25.2094 2.93029 26.0072 2.25 26.9627 2.25H48.5373C49.3568 2.25 50.0587 2.74785 50.3617 3.45907C50.4638 3.69717 50.5163 3.95692 50.5163 4.22904V19.6191H51.5337L53.7663 17.3865C53.9054 17.2474 54.0941 17.1701 54.292 17.1701H57.4553C57.7553 16.3847 58.5191 15.8219 59.4096 15.8219ZM60.0157 17.9122C60.0157 17.5783 59.7436 17.3061 59.4096 17.3061C59.0757 17.3061 58.8036 17.5783 58.8036 17.9122C58.8036 18.2462 59.0757 18.5183 59.4096 18.5183C59.7436 18.5183 60.0157 18.2493 60.0157 17.9122ZM60.0157 33.5868C60.0157 33.2529 59.7436 32.9807 59.4096 32.9807C59.0757 32.9807 58.8036 33.2529 58.8036 33.5868C58.8036 33.9208 59.0757 34.1929 59.4096 34.1929C59.7436 34.1929 60.0157 33.9208 60.0157 33.5868ZM58.7572 25.748C58.7572 25.414 58.4851 25.1419 58.1511 25.1419C57.8171 25.1419 57.545 25.414 57.545 25.748C57.545 26.0819 57.8171 26.3541 58.1511 26.3541C58.4882 26.3541 58.7572 26.085 58.7572 25.748ZM49.0321 46.1352V41.6421H26.471V46.1352C26.471 46.3856 26.7153 46.6299 26.9658 46.6299H48.5404C48.794 46.6299 49.0321 46.3856 49.0321 46.1352ZM49.0321 40.1579V31.1378V25.7542V20.3644V8.76846H26.471V40.1609L49.0321 40.1579ZM49.0321 7.28109V4.22904C49.0321 3.97547 48.794 3.73428 48.5373 3.73428H26.9658C26.7153 3.73428 26.471 3.97857 26.471 4.22904V7.28109H49.0321ZM17.9581 25.748C17.9581 25.414 17.686 25.1419 17.352 25.1419C17.018 25.1419 16.7459 25.414 16.7459 25.748C16.7459 26.0819 17.018 26.3541 17.352 26.3541C17.686 26.3541 17.9581 26.085 17.9581 25.748ZM16.6995 17.9122C16.6995 17.5783 16.4274 17.3061 16.0935 17.3061C15.7595 17.3061 15.4874 17.5783 15.4874 17.9122C15.4874 18.2462 15.7595 18.5183 16.0935 18.5183C16.4274 18.5183 16.6995 18.2493 16.6995 17.9122ZM16.6995 33.5868C16.6995 33.2529 16.4274 32.9807 16.0935 32.9807C15.7595 32.9807 15.4874 33.2529 15.4874 33.5868C15.4874 33.9208 15.7595 34.1929 16.0935 34.1929C16.4274 34.1929 16.6995 33.9208 16.6995 33.5868Z" fill="#FFA500"/>
</svg>
