<svg width="50" height="50" viewBox="0 0 50 50" fill="none" xmlns="http://www.w3.org/2000/svg">
<path d="M46.4096 15.8219C47.563 15.8219 48.5 16.7588 48.5 17.9122C48.5 19.0656 47.563 20.0026 46.4096 20.0026C45.5191 20.0026 44.7553 19.4429 44.4553 18.6544H41.6012L39.3717 20.8839C39.2294 21.0261 39.0408 21.1003 38.8429 21.1034H37.5163V25.0058H43.1968C43.4967 24.2173 44.2605 23.6576 45.1511 23.6576C46.3045 23.6576 47.2415 24.5946 47.2415 25.748C47.2415 26.9014 46.3045 27.8383 45.1511 27.8383C44.2605 27.8383 43.4967 27.2786 43.1968 26.4901H37.5163V30.3925H38.8429C39.0408 30.3925 39.2294 30.4729 39.3717 30.6121L41.6012 32.8416H44.4553C44.7553 32.0531 45.5191 31.4934 46.4096 31.4934C47.563 31.4934 48.5 32.4303 48.5 33.5837C48.5 34.7371 47.563 35.6741 46.4096 35.6741C45.5191 35.6741 44.7553 35.1144 44.4553 34.3259H41.292C41.0941 34.3259 40.9054 34.2486 40.7663 34.1094L38.5337 31.8768H37.5163V46.1321C37.5163 46.3362 37.4854 46.5341 37.4267 46.7196C37.1762 47.5236 36.4248 48.1111 35.5373 48.1111H13.9658C12.9763 48.1111 12.1537 47.3813 12.0084 46.432C11.9929 46.3331 11.9868 46.2341 11.9868 46.1321V31.8768H10.9694L8.7368 34.1094C8.59765 34.2486 8.40902 34.3259 8.21112 34.3259H5.04775C4.7478 35.1144 3.98402 35.6741 3.09345 35.6741C1.94004 35.6741 1.00309 34.7371 1.00309 33.5837C1.00309 32.4303 1.94004 31.4934 3.09345 31.4934C3.98402 31.4934 4.7478 32.0531 5.04775 32.8416H7.90499L10.1345 30.6121C10.2736 30.4729 10.4654 30.3925 10.6633 30.3925H11.9898V26.4901H6.3032C6.00326 27.2786 5.23947 27.8383 4.3489 27.8383C3.1955 27.8383 2.25854 26.9014 2.25854 25.748C2.25854 24.5946 3.1955 23.6576 4.3489 23.6576C5.23947 23.6576 6.00326 24.2173 6.3032 25.0058H11.9837V21.1034H10.6571C10.4592 21.1003 10.2675 21.0261 10.1314 20.8839L7.9019 18.6544H5.04466C4.74471 19.4429 3.98093 20.0026 3.09036 20.0026C1.93695 20.0026 1 19.0656 1 17.9122C1 16.7588 1.93695 15.8219 3.09036 15.8219C3.98093 15.8219 4.74471 16.3816 5.04466 17.1701H8.20803C8.40593 17.1701 8.59456 17.2474 8.73371 17.3865L10.9663 19.6191H11.9837V4.22904C11.9837 4.09298 11.9991 3.96001 12.0239 3.83014C12.2094 2.93029 13.0072 2.25 13.9627 2.25H35.5373C36.3568 2.25 37.0587 2.74785 37.3617 3.45907C37.4638 3.69717 37.5163 3.95692 37.5163 4.22904V19.6191H38.5337L40.7663 17.3865C40.9054 17.2474 41.0941 17.1701 41.292 17.1701H44.4553C44.7553 16.3847 45.5191 15.8219 46.4096 15.8219ZM47.0157 17.9122C47.0157 17.5783 46.7436 17.3061 46.4096 17.3061C46.0757 17.3061 45.8036 17.5783 45.8036 17.9122C45.8036 18.2462 46.0757 18.5183 46.4096 18.5183C46.7436 18.5183 47.0157 18.2493 47.0157 17.9122ZM47.0157 33.5868C47.0157 33.2529 46.7436 32.9807 46.4096 32.9807C46.0757 32.9807 45.8036 33.2529 45.8036 33.5868C45.8036 33.9208 46.0757 34.1929 46.4096 34.1929C46.7436 34.1929 47.0157 33.9208 47.0157 33.5868ZM45.7572 25.748C45.7572 25.414 45.4851 25.1419 45.1511 25.1419C44.8171 25.1419 44.545 25.414 44.545 25.748C44.545 26.0819 44.8171 26.3541 45.1511 26.3541C45.4882 26.3541 45.7572 26.085 45.7572 25.748ZM36.0321 46.1352V41.6421H13.471V46.1352C13.471 46.3856 13.7153 46.6299 13.9658 46.6299H35.5404C35.794 46.6299 36.0321 46.3856 36.0321 46.1352ZM36.0321 40.1579V31.1378V25.7542V20.3644V8.76846H13.471V40.1609L36.0321 40.1579ZM36.0321 7.28109V4.22904C36.0321 3.97547 35.794 3.73428 35.5373 3.73428H13.9658C13.7153 3.73428 13.471 3.97857 13.471 4.22904V7.28109H36.0321ZM4.95808 25.748C4.95808 25.414 4.68596 25.1419 4.352 25.1419C4.01803 25.1419 3.74591 25.414 3.74591 25.748C3.74591 26.0819 4.01803 26.3541 4.352 26.3541C4.68596 26.3541 4.95808 26.085 4.95808 25.748ZM3.69953 17.9122C3.69953 17.5783 3.42741 17.3061 3.09345 17.3061C2.75949 17.3061 2.48737 17.5783 2.48737 17.9122C2.48737 18.2462 2.75949 18.5183 3.09345 18.5183C3.42741 18.5183 3.69953 18.2493 3.69953 17.9122ZM3.69953 33.5868C3.69953 33.2529 3.42741 32.9807 3.09345 32.9807C2.75949 32.9807 2.48737 33.2529 2.48737 33.5868C2.48737 33.9208 2.75949 34.1929 3.09345 34.1929C3.42741 34.1929 3.69953 33.9208 3.69953 33.5868Z" fill="#FFA500"/>
</svg>
