<svg width="58" height="51" viewBox="0 0 58 51" fill="none" xmlns="http://www.w3.org/2000/svg">
<path opacity="0.1" d="M0 11C0 5.47715 4.47715 1 10 1H30C41.0457 1 50 9.95431 50 21V29.5714C50 41.4061 40.4061 51 28.5714 51C12.7919 51 0 38.2081 0 22.4286V11Z" fill="#FFA500"/>
<path d="M46.5308 41.8906C46.0049 41.8906 45.5781 42.3283 45.5781 42.8675C45.5781 43.4067 46.0049 43.8444 46.5308 43.8444C47.0567 43.8444 47.4835 43.4067 47.4835 42.8675C47.4835 42.3283 47.0567 41.8906 46.5308 41.8906Z" fill="#FFA500"/>
<path d="M27.4839 41.8906C26.9581 41.8906 26.5312 42.3283 26.5312 42.8675C26.5312 43.4067 26.9581 43.8444 27.4839 43.8444C28.0098 43.8444 28.4366 43.4067 28.4366 42.8675C28.4366 42.3283 28.0098 41.8906 27.4839 41.8906Z" fill="#FFA500"/>
<path d="M55.2641 36.8369C54.1916 35.1353 52.7179 33.7833 50.9916 32.9102C50.846 32.7716 50.6588 32.6787 50.4506 32.655C49.2019 32.1116 47.8857 31.8359 46.5332 31.8359H43.6751V29.2595C45.3291 27.8048 46.5181 25.878 47.0947 23.7305H47.4859C49.5871 23.7305 51.2966 21.9781 51.2966 19.8242C51.2966 18.8035 50.9123 17.8734 50.2847 17.1768C50.3446 17.1246 50.4031 17.0703 50.4593 17.0128C50.9993 16.4593 51.2966 15.7236 51.2966 14.9414C51.2966 13.656 50.4844 12.5619 49.3586 12.1684C49.022 7.67773 45.9474 3.84023 41.7141 2.6375C41.4633 1.29453 40.3821 0 38.9117 0H35.101C33.6306 0 32.5494 1.29453 32.2986 2.6375C28.0657 3.84014 24.9914 7.67695 24.6542 12.167C24.2444 12.3095 23.8686 12.5471 23.5534 12.87C23.0134 13.4235 22.7161 14.1592 22.7161 14.9414C22.7161 15.8362 23.1099 16.6382 23.7288 17.176C23.1008 17.8727 22.7161 18.8031 22.7161 19.8242C22.7161 21.9781 24.4256 23.7305 26.5268 23.7305H26.9153C27.3966 25.5231 28.3092 27.1689 29.5823 28.5284C29.8215 28.7841 30.0751 29.0276 30.3376 29.2587V31.8359H27.4795C26.1269 31.8359 24.8107 32.1116 23.5621 32.6549C23.354 32.6787 23.1667 32.7715 23.0212 32.9101C21.2947 33.7833 19.8211 35.1354 18.7487 36.8368C17.6047 38.652 17 40.7386 17 42.8711V49.0234C17 49.5627 17.4265 50 17.9527 50H56.06C56.5862 50 57.0127 49.5627 57.0127 49.0234V42.8711C57.0127 40.7386 56.408 38.652 55.2641 36.8369ZM22.7161 48.0469H18.9054V42.8711C18.9054 39.9007 20.3898 37.0536 22.7161 35.3635V48.0469ZM47.4859 21.7773H47.4424C47.4708 21.4524 47.4859 21.1264 47.4859 20.8008V17.8711C48.5365 17.8711 49.3912 18.7473 49.3912 19.8242C49.3912 20.9012 48.5365 21.7773 47.4859 21.7773ZM32.2429 4.70107V9.08203C32.2429 9.62139 32.6695 10.0586 33.1956 10.0586C33.7218 10.0586 34.1483 9.62139 34.1483 9.08203V3.42412C34.1483 3.42158 34.1483 3.41904 34.1483 3.4165V3.22266C34.1483 2.61758 34.6469 1.95312 35.101 1.95312H38.9117C39.3658 1.95312 39.8644 2.61758 39.8644 3.22266V3.4165C39.8644 3.41904 39.8644 3.42158 39.8644 3.42412V9.08203C39.8644 9.62139 40.2909 10.0586 40.8171 10.0586C41.3433 10.0586 41.7698 9.62139 41.7698 9.08203V4.70107C44.846 5.81699 47.0667 8.67051 47.4326 12.0117H26.5801C26.946 8.67051 29.1667 5.81699 32.2429 4.70107ZM26.5268 21.7773C25.4762 21.7773 24.6215 20.9012 24.6215 19.8242C24.6215 18.7473 25.4762 17.8711 26.5268 17.8711V20.8008C26.5268 21.1264 26.5419 21.4525 26.5703 21.7773H26.5268ZM26.5268 15.918H25.5742C25.0488 15.918 24.6215 15.4799 24.6215 14.9414C24.6215 14.6809 24.7206 14.4356 24.9007 14.2512C25.0809 14.0665 25.32 13.9648 25.5742 13.9648H48.4386C48.9639 13.9648 49.3912 14.4029 49.3912 14.9414C49.3912 15.202 49.2921 15.4472 49.112 15.6316C48.932 15.8163 48.6927 15.918 48.4386 15.918H47.4859H46.5332H27.4795H26.5268ZM28.6053 22.5765C28.6034 22.5658 28.6016 22.5553 28.5993 22.5448C28.4887 21.9717 28.4322 21.3851 28.4322 20.8008V17.8711H45.5805V20.8008C45.5805 21.3846 45.524 21.9708 45.4134 22.5444C45.4111 22.555 45.4093 22.5656 45.4074 22.5763C44.9817 24.7547 43.8034 26.7047 42.0876 28.0686C40.597 29.2555 38.84 29.8828 37.0064 29.8828C35.1727 29.8828 33.4157 29.2555 31.9237 28.0675C31.5822 27.7966 31.2571 27.4969 30.9572 27.1763C29.7554 25.8929 28.9426 24.3029 28.6053 22.5765ZM36.0537 48.0469H28.4322V45.8008C28.4322 45.2614 28.0057 44.8242 27.4795 44.8242C26.9534 44.8242 26.5268 45.2614 26.5268 45.8008V48.0469H24.6215V34.3236C25.2398 34.0847 25.8767 33.9254 26.5268 33.8469V39.9414C26.5268 40.4808 26.9534 40.918 27.4795 40.918C28.0057 40.918 28.4322 40.4808 28.4322 39.9414V33.7891H30.882L36.0537 39.3555V48.0469ZM32.2429 32.4219V30.6029C33.713 31.413 35.3322 31.8359 37.0064 31.8359C38.6806 31.8359 40.2999 31.4129 41.7698 30.603V32.4219L37.0064 37.5488L32.2429 32.4219ZM49.3912 48.0469H47.4859V45.8008C47.4859 45.2614 47.0594 44.8242 46.5332 44.8242C46.007 44.8242 45.5805 45.2614 45.5805 45.8008V48.0469H37.959V39.3555L43.1307 33.7891H45.5805V39.9414C45.5805 40.4808 46.007 40.918 46.5332 40.918C47.0594 40.918 47.4859 40.4808 47.4859 39.9414V33.8469C48.136 33.9254 48.7729 34.0848 49.3912 34.3237V48.0469ZM55.1073 48.0469H51.2966V35.3634C53.6229 37.0535 55.1073 39.9006 55.1073 42.8711V48.0469Z" fill="#FFA500"/>
</svg>
