<svg width="587" height="609" viewBox="0 0 587 609" fill="none" xmlns="http://www.w3.org/2000/svg">
<g opacity="0.2" clip-path="url(#clip0_1994_5950)">
<path d="M496.598 684.665L496.598 579.277L450.961 542.006L450.961 481.602" stroke="#1B6C86" stroke-opacity="0.7" stroke-miterlimit="10"/>
<path d="M443.241 555.555L443.241 583.596C443.241 583.596 422.64 600.42 408.906 611.637L408.906 679.986" stroke="#1B6C86" stroke-opacity="0.7" stroke-miterlimit="10"/>
<path d="M463.117 579.039L463.117 695.643" stroke="#1B6C86" stroke-opacity="0.7" stroke-miterlimit="10"/>
<path d="M480.57 594.812L480.57 687.581" stroke="#1B6C86" stroke-opacity="0.7" stroke-miterlimit="10"/>
<path d="M416.768 520.273L416.768 586.403C416.768 586.403 404.036 596.802 392.305 606.382L392.305 678.471" stroke="#1B6C86" stroke-opacity="0.7" stroke-miterlimit="10"/>
<path d="M380.575 683.141L380.575 562.916L364.695 549.947L364.695 526.93" stroke="#1B6C86" stroke-opacity="0.7" stroke-miterlimit="10"/>
<path d="M359.967 579.039L359.967 595.98L351.383 602.874L351.383 694.124" stroke="#1B6C86" stroke-opacity="0.7" stroke-miterlimit="10"/>
<path d="M303.891 574.016L303.891 584.882L324.492 601.823L324.492 692.956" stroke="#1B6C86" stroke-opacity="0.7" stroke-miterlimit="10"/>
<path d="M303.891 687.814L303.891 602.406" stroke="#1B6C86" stroke-opacity="0.7" stroke-miterlimit="10"/>
<path d="M286.586 690.626L286.586 589.328" stroke="#1B6C86" stroke-opacity="0.7" stroke-miterlimit="10"/>
<path d="M458.259 475.639C458.259 478.91 454.969 481.481 451.106 481.481C447.101 481.481 443.953 478.793 443.953 475.639C443.953 472.484 447.244 469.797 451.106 469.797C454.969 469.797 458.259 472.484 458.259 475.639Z" stroke="#1B6C86" stroke-opacity="0.7" stroke-miterlimit="10"/>
<path d="M517.775 171.627C517.775 174.898 514.485 177.469 510.622 177.469C506.616 177.469 503.469 174.781 503.469 171.627C503.469 168.355 506.759 165.785 510.622 165.785C514.628 165.668 517.775 168.355 517.775 171.627Z" fill="#1B6C86" fill-opacity="0.7" stroke="#1B6C86" stroke-opacity="0.7" stroke-miterlimit="10"/>
<path d="M586.588 341.51C586.588 344.781 583.297 347.351 579.434 347.351C575.429 347.351 572.281 344.664 572.281 341.51C572.281 338.238 575.572 335.668 579.434 335.668C583.297 335.551 586.588 338.238 586.588 341.51Z" fill="#1B6C86" fill-opacity="0.7" stroke="#1B6C86" stroke-opacity="0.7" stroke-miterlimit="10"/>
<path d="M450.392 418.978C450.392 422.25 447.102 424.82 443.239 424.82C439.233 424.82 436.086 422.133 436.086 418.978C436.086 415.707 439.376 413.136 443.239 413.136C447.245 413.02 450.392 415.707 450.392 418.978Z" fill="#1B6C86" fill-opacity="0.7" stroke="#1B6C86" stroke-opacity="0.7" stroke-miterlimit="10"/>
<path d="M151.392 503.799C151.392 507.07 148.102 509.641 144.239 509.641C140.233 509.641 137.086 506.953 137.086 503.799C137.086 500.644 140.376 497.957 144.239 497.957C148.102 497.84 151.392 500.527 151.392 503.799Z" fill="#1B6C86" fill-opacity="0.7" stroke="#1B6C86" stroke-opacity="0.7" stroke-miterlimit="10"/>
<path d="M212.478 553.568C212.478 556.84 209.188 559.41 205.325 559.41C201.319 559.41 198.172 556.723 198.172 553.568C198.172 550.414 201.462 547.727 205.325 547.727C209.188 547.727 212.478 550.297 212.478 553.568Z" fill="#1B6C86" fill-opacity="0.7" stroke="#1B6C86" stroke-opacity="0.7" stroke-miterlimit="10"/>
<path d="M438.798 532.892C438.798 536.164 435.508 538.734 431.645 538.734C427.64 538.734 424.492 536.047 424.492 532.892C424.492 529.621 427.783 527.051 431.645 527.051C435.508 526.934 438.798 529.621 438.798 532.892Z" stroke="#1B6C86" stroke-opacity="0.7" stroke-miterlimit="10"/>
<path d="M367.127 573.197C367.127 576.469 363.836 579.039 359.973 579.039C355.968 579.039 352.82 576.352 352.82 573.197C352.82 569.926 356.111 567.355 359.973 567.355C363.979 567.238 367.127 569.926 367.127 573.197Z" stroke="#1B6C86" stroke-opacity="0.7" stroke-miterlimit="10"/>
<path d="M303.888 574.02C307.838 574.02 311.041 571.404 311.041 568.178C311.041 564.951 307.838 562.336 303.888 562.336C299.937 562.336 296.734 564.951 296.734 568.178C296.734 571.404 299.937 574.02 303.888 574.02Z" stroke="#1B6C86" stroke-opacity="0.7" stroke-miterlimit="10"/>
<path d="M83.4313 613.861C83.4313 617.133 80.1409 619.703 76.2782 619.703C72.2724 619.703 69.125 617.016 69.125 613.861C69.125 610.59 72.4155 608.019 76.2782 608.019C80.2839 607.902 83.4313 610.59 83.4313 613.861Z" stroke="#1B6C86" stroke-opacity="0.7" stroke-miterlimit="10"/>
<path d="M486.869 319.076C486.869 322.348 483.578 324.918 479.716 324.918C475.71 324.918 472.563 322.231 472.563 319.076C472.563 315.922 475.853 313.234 479.716 313.234C483.721 313.234 486.869 315.805 486.869 319.076Z" stroke="#1B6C86" stroke-opacity="0.7" stroke-miterlimit="10"/>
<path d="M486.869 344.314C486.869 347.586 483.578 350.156 479.716 350.156C475.71 350.156 472.563 347.469 472.563 344.314C472.563 341.043 475.853 338.472 479.716 338.472C483.721 338.356 486.869 341.043 486.869 344.314Z" stroke="#1B6C86" stroke-opacity="0.7" stroke-miterlimit="10"/>
<path d="M443.244 247.928C443.244 251.199 439.953 253.77 436.091 253.77C432.085 253.77 428.938 251.082 428.938 247.928C428.938 244.656 432.228 242.086 436.091 242.086C439.953 242.086 443.244 244.656 443.244 247.928Z" stroke="#1B6C86" stroke-opacity="0.7" stroke-miterlimit="10"/>
<path d="M586.588 296.178C586.588 299.449 583.297 302.02 579.434 302.02C575.429 302.02 572.281 299.332 572.281 296.178C572.281 293.023 575.572 290.336 579.434 290.336C583.297 290.336 586.588 293.023 586.588 296.178Z" stroke="#1B6C86" stroke-opacity="0.7" stroke-miterlimit="10"/>
<path d="M341.236 584.303C341.236 587.574 337.946 590.145 334.083 590.145C330.077 590.145 326.93 587.457 326.93 584.303C326.93 581.148 330.22 578.461 334.083 578.461C337.946 578.461 341.236 581.031 341.236 584.303Z" stroke="#1B6C86" stroke-opacity="0.7" stroke-miterlimit="10"/>
<path d="M341.236 560.584C341.236 563.855 337.946 566.426 334.083 566.426C330.077 566.426 326.93 563.739 326.93 560.584C326.93 557.313 330.22 554.742 334.083 554.742C337.946 554.742 341.236 557.313 341.236 560.584Z" fill="#1B6C86" fill-opacity="0.7" stroke="#1B6C86" stroke-opacity="0.7" stroke-miterlimit="10"/>
<path d="M279.142 598.556C279.142 601.828 275.852 604.398 271.989 604.398C267.983 604.398 264.836 601.711 264.836 598.556C264.836 595.285 268.126 592.715 271.989 592.715C275.852 592.598 279.142 595.285 279.142 598.556Z" stroke="#1B6C86" stroke-opacity="0.7" stroke-miterlimit="10"/>
<path d="M149.384 575.064C149.384 578.336 146.094 580.906 142.231 580.906C138.226 580.906 135.078 578.219 135.078 575.064C135.078 571.793 138.369 569.222 142.231 569.222C146.237 569.106 149.384 571.793 149.384 575.064Z" stroke="#1B6C86" stroke-opacity="0.7" stroke-miterlimit="10"/>
<path d="M271.986 469.799C271.986 473.07 268.696 475.641 264.833 475.641C260.827 475.641 257.68 472.953 257.68 469.799C257.68 466.527 260.97 463.957 264.833 463.957C268.696 463.84 271.986 466.527 271.986 469.799Z" stroke="#1B6C86" stroke-opacity="0.7" stroke-miterlimit="10"/>
<path d="M404.322 551.35C404.322 554.621 401.031 557.192 397.169 557.192C393.306 557.192 390.016 554.504 390.016 551.35C390.016 548.078 393.306 545.508 397.169 545.508C401.031 545.508 404.322 548.078 404.322 551.35Z" stroke="#1B6C86" stroke-opacity="0.7" stroke-miterlimit="10"/>
<path d="M553.392 427.857C553.392 431.129 550.102 433.699 546.239 433.699C542.376 433.699 539.086 431.012 539.086 427.857C539.086 424.586 542.376 422.016 546.239 422.016C550.102 422.016 553.392 424.586 553.392 427.857Z" stroke="#1B6C86" stroke-opacity="0.7" stroke-miterlimit="10"/>
<path d="M371.994 521.092C371.994 524.363 368.703 526.934 364.841 526.934C360.978 526.934 357.688 524.246 357.688 521.092C357.688 517.82 360.978 515.25 364.841 515.25C368.703 515.25 371.994 517.82 371.994 521.092Z" stroke="#1B6C86" stroke-opacity="0.7" stroke-miterlimit="10"/>
<path d="M470.416 573.197C470.416 576.469 467.125 579.039 463.263 579.039C459.257 579.039 456.109 576.352 456.109 573.197C456.109 569.926 459.4 567.355 463.263 567.355C467.125 567.238 470.416 569.926 470.416 573.197Z" stroke="#1B6C86" stroke-opacity="0.7" stroke-miterlimit="10"/>
<path d="M481.005 503.796C481.005 505.432 479.431 506.717 477.428 506.717C475.425 506.717 473.852 505.432 473.852 503.796C473.852 502.16 475.425 500.875 477.428 500.875C479.431 500.875 481.005 502.16 481.005 503.796Z" stroke="#1B6C86" stroke-opacity="0.7" stroke-miterlimit="10"/>
<path d="M514.2 150.952C514.2 152.588 512.626 153.873 510.623 153.873C508.621 153.873 507.047 152.588 507.047 150.952C507.047 149.316 508.621 148.031 510.623 148.031C512.626 148.031 514.2 149.316 514.2 150.952Z" stroke="#1B6C86" stroke-opacity="0.7" stroke-miterlimit="10"/>
<path d="M567.13 327.96C567.13 329.596 565.556 330.881 563.553 330.881C561.55 330.881 559.977 329.596 559.977 327.96C559.977 326.324 561.55 325.039 563.553 325.039C565.556 325.039 567.13 326.324 567.13 327.96Z" stroke="#1B6C86" stroke-opacity="0.7" stroke-miterlimit="10"/>
<path d="M446.817 404.022C446.817 405.658 445.244 406.943 443.241 406.943C441.238 406.943 439.664 405.658 439.664 404.022C439.664 402.387 441.238 401.102 443.241 401.102C445.244 401.102 446.817 402.387 446.817 404.022Z" stroke="#1B6C86" stroke-opacity="0.7" stroke-miterlimit="10"/>
<path d="M446.817 372.944C446.817 374.58 445.244 375.865 443.241 375.865C441.238 375.865 439.664 374.58 439.664 372.944C439.664 371.309 441.238 370.023 443.241 370.023C445.244 370.023 446.817 371.309 446.817 372.944Z" stroke="#1B6C86" stroke-opacity="0.7" stroke-miterlimit="10"/>
<path d="M307.466 486.155C307.466 487.791 305.892 489.076 303.889 489.076C301.886 489.076 300.313 487.791 300.313 486.155C300.313 484.52 301.886 483.234 303.889 483.234C305.892 483.234 307.466 484.52 307.466 486.155Z" stroke="#1B6C86" stroke-opacity="0.7" stroke-miterlimit="10"/>
<path d="M37.075 587.218C37.075 588.854 35.5013 590.139 33.4985 590.139C31.4956 590.139 29.9219 588.854 29.9219 587.218C29.9219 585.582 31.4956 584.297 33.4985 584.297C35.5013 584.297 37.075 585.582 37.075 587.218Z" stroke="#1B6C86" stroke-opacity="0.7" stroke-miterlimit="10"/>
<path d="M108.755 510.812C108.755 512.447 107.181 513.732 105.178 513.732C103.175 513.732 101.602 512.447 101.602 510.812C101.602 509.176 103.175 507.891 105.178 507.891C107.181 507.891 108.755 509.176 108.755 510.812Z" stroke="#1B6C86" stroke-opacity="0.7" stroke-miterlimit="10"/>
<path d="M333.934 388.132C333.934 389.768 332.361 391.053 330.358 391.053C328.355 391.053 326.781 389.768 326.781 388.132C326.781 386.496 328.355 385.211 330.358 385.211C332.361 385.211 333.934 386.496 333.934 388.132Z" stroke="#1B6C86" stroke-opacity="0.7" stroke-miterlimit="10"/>
<path d="M540.231 356.115C540.231 357.751 538.658 359.036 536.655 359.036C534.652 359.036 533.078 357.751 533.078 356.115C533.078 354.48 534.652 353.194 536.655 353.194C538.658 353.077 540.231 354.48 540.231 356.115Z" stroke="#1B6C86" stroke-opacity="0.7" stroke-miterlimit="10"/>
<path d="M534.083 457.412C534.083 459.048 532.509 460.333 530.506 460.333C528.503 460.333 526.93 459.048 526.93 457.412C526.93 455.776 528.503 454.491 530.506 454.491C532.509 454.374 534.083 455.776 534.083 457.412Z" stroke="#1B6C86" stroke-opacity="0.7" stroke-miterlimit="10"/>
<path d="M523.919 457.412C523.919 459.048 522.345 460.333 520.342 460.333C518.339 460.333 516.766 459.048 516.766 457.412C516.766 455.776 518.339 454.491 520.342 454.491C522.345 454.374 523.919 455.776 523.919 457.412Z" stroke="#1B6C86" stroke-opacity="0.7" stroke-miterlimit="10"/>
<path d="M549.817 457.412C549.817 459.048 548.244 460.333 546.241 460.333C544.238 460.333 542.664 459.048 542.664 457.412C542.664 455.776 544.238 454.491 546.241 454.491C548.1 454.374 549.817 455.776 549.817 457.412Z" fill="#1B6C86" fill-opacity="0.7" stroke="#1B6C86" stroke-opacity="0.7" stroke-miterlimit="10"/>
<path d="M420.348 517.233C420.348 518.869 418.775 520.154 416.772 520.154C414.769 520.154 413.195 518.869 413.195 517.233C413.195 515.598 414.769 514.312 416.772 514.312C418.775 514.312 420.348 515.598 420.348 517.233Z" fill="#1B6C86" fill-opacity="0.7" stroke="#1B6C86" stroke-opacity="0.7" stroke-miterlimit="10"/>
<path d="M290.161 586.405C290.161 588.041 288.587 589.326 286.584 589.326C284.582 589.326 283.008 588.041 283.008 586.405C283.008 584.77 284.582 583.484 286.584 583.484C288.587 583.484 290.161 584.77 290.161 586.405Z" stroke="#1B6C86" stroke-opacity="0.7" stroke-miterlimit="10"/>
<path d="M239.223 595.515C239.223 597.15 237.65 598.436 235.647 598.436C233.644 598.436 232.07 597.15 232.07 595.515C232.07 593.879 233.644 592.594 235.647 592.594C237.65 592.594 239.223 593.879 239.223 595.515Z" stroke="#1B6C86" stroke-opacity="0.7" stroke-miterlimit="10"/>
<path d="M191.872 604.397C191.872 606.033 190.298 607.318 188.295 607.318C186.292 607.318 184.719 606.033 184.719 604.397C184.719 602.762 186.292 601.477 188.295 601.477C190.298 601.477 191.872 602.762 191.872 604.397Z" stroke="#1B6C86" stroke-opacity="0.7" stroke-miterlimit="10"/>
<path d="M221.631 573.201C223.607 573.201 225.208 571.893 225.208 570.28C225.208 568.667 223.607 567.359 221.631 567.359C219.656 567.359 218.055 568.667 218.055 570.28C218.055 571.893 219.656 573.201 221.631 573.201Z" stroke="#1B6C86" stroke-opacity="0.7" stroke-miterlimit="10"/>
<path d="M130.497 597.03C130.497 598.666 128.923 599.951 126.92 599.951C124.917 599.951 123.344 598.666 123.344 597.03C123.344 595.395 124.917 594.109 126.92 594.109C128.923 594.109 130.497 595.395 130.497 597.03Z" stroke="#1B6C86" stroke-opacity="0.7" stroke-miterlimit="10"/>
<path d="M337.661 542.476C337.661 544.111 336.087 545.397 334.084 545.397C332.082 545.397 330.508 544.111 330.508 542.476C330.508 540.84 332.082 539.555 334.084 539.555C336.087 539.555 337.661 540.84 337.661 542.476Z" stroke="#1B6C86" stroke-opacity="0.7" stroke-miterlimit="10"/>
<path d="M333.077 612.576C335.052 612.576 336.653 611.268 336.653 609.655C336.653 608.042 335.052 606.734 333.077 606.734C331.101 606.734 329.5 608.042 329.5 609.655C329.5 611.268 331.101 612.576 333.077 612.576Z" stroke="#1B6C86" stroke-opacity="0.7" stroke-miterlimit="10"/>
<path d="M407.473 491.764C407.473 493.399 405.9 494.685 403.897 494.685C401.894 494.685 400.32 493.399 400.32 491.764C400.32 490.128 401.894 488.843 403.897 488.843C405.9 488.726 407.473 490.128 407.473 491.764Z" stroke="#1B6C86" stroke-opacity="0.7" stroke-miterlimit="10"/>
<path d="M398.458 472.718C398.458 474.354 396.884 475.639 394.881 475.639C392.878 475.639 391.305 474.354 391.305 472.718C391.305 471.082 392.878 469.797 394.881 469.797C396.884 469.797 398.458 471.082 398.458 472.718Z" stroke="#1B6C86" stroke-opacity="0.7" stroke-miterlimit="10"/>
<path d="M375.848 385.21C375.848 386.846 374.275 388.131 372.272 388.131C370.269 388.131 368.695 386.846 368.695 385.21C368.695 383.574 370.269 382.289 372.272 382.289C374.275 382.289 375.848 383.574 375.848 385.21Z" stroke="#1B6C86" stroke-opacity="0.7" stroke-miterlimit="10"/>
<path d="M379.427 500.881C379.427 502.517 377.853 503.802 375.85 503.802C373.847 503.802 372.273 502.517 372.273 500.881C372.273 499.245 373.847 497.96 375.85 497.96C377.853 497.843 379.427 499.245 379.427 500.881Z" stroke="#1B6C86" stroke-opacity="0.7" stroke-miterlimit="10"/>
<path d="M268.27 523.194C268.27 524.83 266.697 526.115 264.694 526.115C262.691 526.115 261.117 524.83 261.117 523.194C261.117 521.559 262.691 520.273 264.694 520.273C266.697 520.273 268.27 521.559 268.27 523.194Z" stroke="#1B6C86" stroke-opacity="0.7" stroke-miterlimit="10"/>
<path d="M255.677 597.038C255.677 598.674 254.103 599.959 252.1 599.959C250.097 599.959 248.523 598.674 248.523 597.038C248.523 595.402 250.097 594.117 252.1 594.117C254.103 594.117 255.677 595.402 255.677 597.038Z" stroke="#1B6C86" stroke-opacity="0.7" stroke-miterlimit="10"/>
<path d="M484.153 591.889C484.153 593.524 482.579 594.81 480.577 594.81C478.574 594.81 477 593.524 477 591.889C477 590.253 478.574 588.968 480.577 588.968C482.436 588.851 484.153 590.253 484.153 591.889Z" stroke="#1B6C86" stroke-opacity="0.7" stroke-miterlimit="10"/>
<path d="M446.817 552.639C446.817 554.274 445.244 555.56 443.241 555.56C441.238 555.56 439.664 554.274 439.664 552.639C439.664 551.003 441.238 549.718 443.241 549.718C445.244 549.601 446.817 551.003 446.817 552.639Z" stroke="#1B6C86" stroke-opacity="0.7" stroke-miterlimit="10"/>
<path d="M435.223 571.327C435.223 572.963 433.65 574.248 431.647 574.248C429.644 574.248 428.07 572.963 428.07 571.327C428.07 569.691 429.644 568.406 431.647 568.406C433.507 568.406 435.223 569.691 435.223 571.327Z" stroke="#1B6C86" stroke-opacity="0.7" stroke-miterlimit="10"/>
<path d="M481.005 517.819C481.005 519.455 479.431 520.74 477.428 520.74C475.425 520.74 473.852 519.455 473.852 517.819C473.852 516.184 475.425 514.898 477.428 514.898C479.431 514.898 481.005 516.184 481.005 517.819Z" fill="#1B6C86" fill-opacity="0.7" stroke="#1B6C86" stroke-opacity="0.7" stroke-miterlimit="10"/>
<path d="M481.005 531.959C481.005 533.595 479.431 534.88 477.428 534.88C475.425 534.88 473.852 533.595 473.852 531.959C473.852 530.323 475.425 529.038 477.428 529.038C479.431 528.921 481.005 530.323 481.005 531.959Z" stroke="#1B6C86" stroke-opacity="0.7" stroke-miterlimit="10"/>
<path d="M470.708 531.959C470.708 533.595 469.134 534.88 467.131 534.88C465.128 534.88 463.555 533.595 463.555 531.959C463.555 530.323 465.128 529.038 467.131 529.038C469.134 528.921 470.708 530.323 470.708 531.959Z" stroke="#1B6C86" stroke-opacity="0.7" stroke-miterlimit="10"/>
<path d="M431.508 538.734L431.508 568.411" stroke="#1B6C86" stroke-opacity="0.7" stroke-miterlimit="10"/>
<path d="M527.492 683.035L527.492 491.305" stroke="#1B6C86" stroke-opacity="0.7" stroke-miterlimit="10"/>
<path d="M534.791 485.463C534.791 488.734 531.5 491.305 527.638 491.305C523.632 491.305 520.484 488.617 520.484 485.463C520.484 482.191 523.775 479.621 527.638 479.621C531.5 479.504 534.791 482.191 534.791 485.463Z" stroke="#1B6C86" stroke-opacity="0.7" stroke-miterlimit="10"/>
<path d="M538.797 681.977L538.797 529.971L553.532 517.82" stroke="#1B6C86" stroke-opacity="0.7" stroke-miterlimit="10"/>
<path d="M496.594 461.508L496.594 538.971L512.331 551.823L512.331 686.653" stroke="#1B6C86" stroke-opacity="0.7" stroke-miterlimit="10"/>
<path d="M503.892 455.666C503.892 458.937 500.602 461.508 496.739 461.508C492.733 461.508 489.586 458.82 489.586 455.666C489.586 452.394 492.876 449.824 496.739 449.824C500.602 449.707 503.892 452.394 503.892 455.666Z" stroke="#1B6C86" stroke-opacity="0.7" stroke-miterlimit="10"/>
<path d="M555.544 549.606C559.494 549.606 562.697 546.99 562.697 543.764C562.697 540.537 559.494 537.922 555.544 537.922C551.593 537.922 548.391 540.537 548.391 543.764C548.391 546.99 551.593 549.606 555.544 549.606Z" stroke="#1B6C86" stroke-opacity="0.7" stroke-miterlimit="10"/>
<path d="M560.255 515.483C560.255 517.119 558.681 518.404 556.678 518.404C554.675 518.404 553.102 517.119 553.102 515.483C553.102 513.848 554.675 512.562 556.678 512.562C558.681 512.562 560.255 513.848 560.255 515.483Z" stroke="#1B6C86" stroke-opacity="0.7" stroke-miterlimit="10"/>
<path d="M555.539 549.602L555.539 684.899" stroke="#1B6C86" stroke-opacity="0.7" stroke-miterlimit="10"/>
<path d="M510.617 195.586L510.617 391.639L520.632 399.817L520.632 454.38" stroke="#1B6C86" stroke-opacity="0.7" stroke-miterlimit="10"/>
<path d="M517.775 189.623C517.775 192.895 514.485 195.465 510.622 195.465C506.616 195.465 503.469 192.778 503.469 189.623C503.469 186.352 506.759 183.781 510.622 183.781C514.628 183.781 517.775 186.352 517.775 189.623Z" stroke="#1B6C86" stroke-opacity="0.7" stroke-miterlimit="10"/>
<path d="M536.66 221.984L521.781 234.135L521.781 386.141L530.651 393.268L530.651 454.724" stroke="#1B6C86" stroke-opacity="0.7" stroke-miterlimit="10"/>
<path d="M479.722 165.672L479.722 243.135L495.459 255.987L495.459 390.817L467.133 413.951L467.133 529.036" stroke="#1B6C86" stroke-opacity="0.7" stroke-miterlimit="10"/>
<path d="M486.877 159.83C486.877 163.101 483.586 165.672 479.723 165.672C475.718 165.672 472.57 162.985 472.57 159.83C472.57 156.558 475.861 153.988 479.723 153.988C483.729 153.871 486.877 156.558 486.877 159.83Z" stroke="#1B6C86" stroke-opacity="0.7" stroke-miterlimit="10"/>
<path d="M545.822 247.928C545.822 251.199 542.531 253.77 538.669 253.77C534.806 253.77 531.516 251.082 531.516 247.928C531.516 244.656 534.806 242.086 538.669 242.086C542.531 242.086 545.822 244.656 545.822 247.928Z" stroke="#1B6C86" stroke-opacity="0.7" stroke-miterlimit="10"/>
<path d="M543.388 219.647C543.388 221.283 541.814 222.568 539.811 222.568C537.808 222.568 536.234 221.283 536.234 219.647C536.234 218.012 537.808 216.727 539.811 216.727C541.671 216.727 543.388 218.012 543.388 219.647Z" stroke="#1B6C86" stroke-opacity="0.7" stroke-miterlimit="10"/>
<path d="M538.664 253.883L538.664 331.696L571.426 358.452L571.426 486.155" stroke="#1B6C86" stroke-opacity="0.7" stroke-miterlimit="10"/>
<path d="M546.094 433.695L546.094 454.376" stroke="#1B6C86" stroke-opacity="0.7" stroke-miterlimit="10"/>
<path d="M274.708 544.692C278.658 544.692 281.861 542.076 281.861 538.85C281.861 535.623 278.658 533.008 274.708 533.008C270.757 533.008 267.555 535.623 267.555 538.85C267.555 542.076 270.757 544.692 274.708 544.692Z" stroke="#1B6C86" stroke-opacity="0.7" stroke-miterlimit="10"/>
<path d="M274.709 512.209C276.685 512.209 278.286 510.901 278.286 509.288C278.286 507.675 276.685 506.367 274.709 506.367C272.734 506.367 271.133 507.675 271.133 509.288C271.133 510.901 272.734 512.209 274.709 512.209Z" fill="#1B6C86" fill-opacity="0.7" stroke="#1B6C86" stroke-opacity="0.7" stroke-miterlimit="10"/>
<path d="M400.32 529.968C400.32 528.332 401.894 527.047 403.897 527.047C405.9 527.047 407.473 528.332 407.473 529.968C407.473 531.604 405.9 532.889 403.897 532.889C401.894 532.889 400.32 531.604 400.32 529.968Z" fill="#1B6C86" fill-opacity="0.7" stroke="#1B6C86" stroke-opacity="0.7" stroke-miterlimit="10"/>
<path d="M379.141 442.108C379.141 440.473 380.714 439.187 382.717 439.187C384.72 439.187 386.294 440.473 386.294 442.108C386.294 443.744 384.72 445.029 382.717 445.029C380.714 445.029 379.141 443.744 379.141 442.108Z" fill="#1B6C86" fill-opacity="0.7" stroke="#1B6C86" stroke-opacity="0.7" stroke-miterlimit="10"/>
<path d="M368.414 372.944C368.414 371.309 369.988 370.023 371.991 370.023C373.994 370.023 375.567 371.309 375.567 372.944C375.567 374.58 373.994 375.865 371.991 375.865C369.988 375.865 368.414 374.58 368.414 372.944Z" fill="#1B6C86" fill-opacity="0.7" stroke="#1B6C86" stroke-opacity="0.7" stroke-miterlimit="10"/>
<path d="M552.68 412.429C552.68 410.793 554.253 409.508 556.256 409.508C558.259 409.508 559.833 410.793 559.833 412.429C559.833 414.064 558.259 415.35 556.256 415.35C554.253 415.35 552.68 414.064 552.68 412.429Z" fill="#1B6C86" fill-opacity="0.7" stroke="#1B6C86" stroke-opacity="0.7" stroke-miterlimit="10"/>
<path d="M274.711 532.891L274.711 512.211" stroke="#1B6C86" stroke-opacity="0.7" stroke-miterlimit="10"/>
<path d="M271.984 604.398L271.984 680.226" stroke="#1B6C86" stroke-opacity="0.7" stroke-miterlimit="10"/>
<path d="M393.45 357.873C393.45 359.509 391.876 360.794 389.873 360.794C387.871 360.794 386.297 359.509 386.297 357.873C386.297 356.237 387.871 354.952 389.873 354.952C391.876 354.835 393.45 356.237 393.45 357.873Z" stroke="#1B6C86" stroke-opacity="0.7" stroke-miterlimit="10"/>
<path d="M407.466 480.085C407.466 481.721 405.892 483.006 403.889 483.006C401.886 483.006 400.313 481.721 400.313 480.085C400.313 478.449 401.886 477.164 403.889 477.164C405.892 477.164 407.466 478.449 407.466 480.085Z" stroke="#1B6C86" stroke-opacity="0.7" stroke-miterlimit="10"/>
<path d="M389.875 360.797L389.875 387.903L403.895 399.353L403.895 477.167" stroke="#1B6C86" stroke-opacity="0.7" stroke-miterlimit="10"/>
<path d="M177.992 595.983C177.992 594.348 179.566 593.062 181.569 593.062C183.572 593.062 185.145 594.348 185.145 595.983C185.145 597.619 183.572 598.904 181.569 598.904C179.566 598.904 177.992 597.619 177.992 595.983Z" stroke="#1B6C86" stroke-opacity="0.7" stroke-miterlimit="10"/>
<path d="M163.836 473.772C163.836 472.137 165.41 470.852 167.413 470.852C169.415 470.852 170.989 472.137 170.989 473.772C170.989 475.408 169.415 476.693 167.413 476.693C165.553 476.693 163.836 475.408 163.836 473.772Z" stroke="#1B6C86" stroke-opacity="0.7" stroke-miterlimit="10"/>
<path d="M181.575 593.065L181.575 565.959L167.555 554.392L167.555 476.695" stroke="#1B6C86" stroke-opacity="0.7" stroke-miterlimit="10"/>
<path d="M549.966 171.046C549.966 172.682 548.392 173.967 546.389 173.967C544.386 173.967 542.813 172.682 542.813 171.046C542.813 169.41 544.386 168.125 546.389 168.125C548.392 168.125 549.966 169.41 549.966 171.046Z" stroke="#1B6C86" stroke-opacity="0.7" stroke-miterlimit="10"/>
<path d="M563.981 293.257C563.981 294.893 562.408 296.178 560.405 296.178C558.402 296.178 556.828 294.893 556.828 293.257C556.828 291.621 558.402 290.336 560.405 290.336C562.408 290.336 563.981 291.621 563.981 293.257Z" stroke="#1B6C86" stroke-opacity="0.7" stroke-miterlimit="10"/>
<path d="M546.391 173.969L546.391 201.075L560.411 212.642L560.411 290.339" stroke="#1B6C86" stroke-opacity="0.7" stroke-miterlimit="10"/>
<path d="M552.827 134.826C554.802 134.826 556.403 133.518 556.403 131.905C556.403 130.292 554.802 128.984 552.827 128.984C550.851 128.984 549.25 130.292 549.25 131.905C549.25 133.518 550.851 134.826 552.827 134.826Z" stroke="#1B6C86" stroke-opacity="0.7" stroke-miterlimit="10"/>
<path d="M570.559 254.232C570.559 255.868 568.986 257.153 566.983 257.153C564.98 257.153 563.406 255.868 563.406 254.232C563.406 252.597 564.98 251.312 566.983 251.312C568.986 251.195 570.559 252.597 570.559 254.232Z" stroke="#1B6C86" stroke-opacity="0.7" stroke-miterlimit="10"/>
<path d="M552.828 134.828L552.828 162.051L566.991 173.501L566.991 251.198" stroke="#1B6C86" stroke-opacity="0.7" stroke-miterlimit="10"/>
<path d="M403.898 494.688L403.898 526.935" stroke="#1B6C86" stroke-opacity="0.7" stroke-miterlimit="10"/>
<path d="M374.992 387.547L394.878 403.67L394.878 469.8" stroke="#1B6C86" stroke-opacity="0.7" stroke-miterlimit="10"/>
<path d="M382.719 445.031L382.719 456.248L375.852 461.856L375.852 497.258" stroke="#1B6C86" stroke-opacity="0.7" stroke-miterlimit="10"/>
<path d="M113.614 569.108C113.614 570.744 112.04 572.029 110.038 572.029C108.035 572.029 106.461 570.744 106.461 569.108C106.461 567.473 108.035 566.187 110.038 566.187C112.04 566.187 113.614 567.473 113.614 569.108Z" stroke="#1B6C86" stroke-opacity="0.7" stroke-miterlimit="10"/>
<path d="M96.0203 596.562C96.0203 598.197 94.4466 599.482 92.4438 599.482C90.4409 599.482 88.8672 598.197 88.8672 596.562C88.8672 594.926 90.4409 593.641 92.4438 593.641C94.4466 593.641 96.0203 594.926 96.0203 596.562Z" stroke="#1B6C86" stroke-opacity="0.7" stroke-miterlimit="10"/>
<path d="M88.5781 584.296C88.5781 582.66 90.1518 581.375 92.1547 581.375C94.1576 581.375 95.7313 582.66 95.7313 584.296C95.7313 585.932 94.1576 587.217 92.1547 587.217C90.1518 587.217 88.5781 585.932 88.5781 584.296Z" fill="#1B6C86" fill-opacity="0.7" stroke="#1B6C86" stroke-opacity="0.7" stroke-miterlimit="10"/>
<path d="M110.039 572.031L110.039 599.254L124.202 610.704L124.202 688.401" stroke="#1B6C86" stroke-opacity="0.7" stroke-miterlimit="10"/>
<path d="M95.1641 598.789L115.05 615.029L115.05 681.159" stroke="#1B6C86" stroke-opacity="0.7" stroke-miterlimit="10"/>
<path d="M262.114 525.414C255.82 530.555 246.234 538.383 246.234 538.383L246.234 576.939L251.957 581.613L251.957 594.114" stroke="#1B6C86" stroke-opacity="0.7" stroke-miterlimit="10"/>
<path d="M538.656 357.867L550.244 367.214L550.244 396.423L556.253 401.331L556.253 409.509" stroke="#1B6C86" stroke-opacity="0.7" stroke-miterlimit="10"/>
<path d="M235.652 597.969L235.652 614.793L227.211 621.804L227.211 712.937" stroke="#1B6C86" stroke-opacity="0.7" stroke-miterlimit="10"/>
<path d="M221.635 573.195L221.635 594.81L185.727 624.02L185.727 680.218" stroke="#1B6C86" stroke-opacity="0.7" stroke-miterlimit="10"/>
<path d="M185.718 606.734L177.992 613.16L177.992 690.624" stroke="#1B6C86" stroke-opacity="0.7" stroke-miterlimit="10"/>
<path d="M148.523 579.039L161.542 589.788L161.542 681.155" stroke="#1B6C86" stroke-opacity="0.7" stroke-miterlimit="10"/>
<path d="M129.781 599.484L149.381 615.491L149.381 651.126L139.366 659.305L139.366 678.35" stroke="#1B6C86" stroke-opacity="0.7" stroke-miterlimit="10"/>
<path d="M504.898 410.562L488.445 410.562L488.445 413.6L504.898 413.6L504.898 410.562Z" fill="#1B6C86" fill-opacity="0.7"/>
<path d="M504.898 416.875L488.445 416.875L488.445 419.913L504.898 419.913L504.898 416.875Z" fill="#1B6C86" fill-opacity="0.7"/>
<path d="M504.898 423.297L488.445 423.297L488.445 426.335L504.898 426.335L504.898 423.297Z" fill="#1B6C86" fill-opacity="0.7"/>
<path d="M504.898 429.727L488.445 429.727L488.445 432.764L504.898 432.764L504.898 429.727Z" fill="#1B6C86" fill-opacity="0.7"/>
<path d="M504.898 436.148L488.445 436.148L488.445 439.186L504.898 439.186L504.898 436.148Z" fill="#1B6C86" fill-opacity="0.7"/>
</g>
<defs>
<clipPath id="clip0_1994_5950">
<rect width="587" height="609" fill="white"/>
</clipPath>
</defs>
</svg>
