<svg width="408" height="502" viewBox="0 0 408 502" fill="none" xmlns="http://www.w3.org/2000/svg">
<path d="M50.0067 495.879L382.434 281.296C404.278 267.195 404.219 232.061 382.322 218.056L49.1493 4.91051C27.2571 -9.09516 -0.0477295 8.53123 0.000488281 36.638L0.745422 464.36C0.79364 492.467 28.1628 509.974 50.0067 495.879Z" fill="#1B6C86" fill-opacity="0.1"/>
<path d="M405.555 207.172V105.539C405.555 100.357 400.513 97.1186 396.479 99.7078L317.37 150.524C313.337 153.117 313.337 159.594 317.37 162.183L396.479 213C400.513 215.593 405.555 212.355 405.555 207.172Z" fill="#F8BC26"/>
<path d="M174.118 438.217L400.022 293.048C401.743 291.945 402.332 289.499 401.335 287.585L401.239 287.4C400.247 285.485 398.05 284.829 396.33 285.938L170.426 431.107C168.706 432.21 168.116 434.656 169.113 436.571L169.209 436.756C170.201 438.664 172.398 439.321 174.118 438.217Z" fill="#1B6C86" fill-opacity="0.1"/>
<path d="M244.587 413.85L403.228 311.903C404.482 311.098 404.911 309.314 404.187 307.918L404.118 307.787C403.394 306.391 401.792 305.914 400.538 306.719L241.896 408.666C240.642 409.471 240.214 411.255 240.937 412.651L241.007 412.782C241.73 414.178 243.333 414.655 244.587 413.85Z" fill="#1B6C86" fill-opacity="0.1"/>
<path d="M295.784 399.327L405.352 328.917C406.392 328.249 406.746 326.769 406.145 325.612L406.086 325.505C405.486 324.348 404.157 323.954 403.117 324.622L293.55 395.032C292.51 395.7 292.156 397.18 292.756 398.337L292.815 398.444C293.416 399.601 294.745 399.995 295.784 399.327Z" fill="#1B6C86" fill-opacity="0.1"/>
<path d="M334.399 391.609L406.399 345.339C407.439 344.671 407.792 343.191 407.192 342.034L407.133 341.927C406.533 340.77 405.204 340.376 404.164 341.044L332.164 387.314C331.124 387.982 330.771 389.461 331.371 390.619L331.43 390.726C332.03 391.877 333.359 392.277 334.399 391.609Z" fill="#1B6C86" fill-opacity="0.1"/>
<path d="M362.268 391.311L406.915 362.62C407.954 361.952 408.308 360.473 407.708 359.315L407.649 359.208C407.049 358.051 405.72 357.657 404.68 358.325L360.033 387.017C358.993 387.685 358.639 389.164 359.24 390.321L359.299 390.428C359.899 391.58 361.228 391.979 362.268 391.311Z" fill="#1B6C86" fill-opacity="0.1"/>
<path d="M75.7355 407.239V496.236C75.7355 500.089 79.4869 502.499 82.488 500.572L151.734 456.074C154.735 454.147 154.735 449.328 151.734 447.395L82.488 402.897C79.4869 400.97 75.7355 403.38 75.7355 407.239Z" fill="#1B6C86"/>
</svg>
