<svg width="190" height="53" viewBox="0 0 190 53" fill="none" xmlns="http://www.w3.org/2000/svg">
<path d="M14.478 22.2766C12.9176 22.2766 11.5781 22.8537 10.4595 24.0008C9.33731 25.1515 8.778 26.5373 8.778 28.1618C8.778 29.8077 9.33731 31.2078 10.4595 32.3656C11.5781 33.5163 12.9176 34.0898 14.478 34.0898C15.2261 34.0898 15.9351 34.0007 16.6013 33.8191C17.2746 33.6303 17.7698 33.4414 18.0833 33.2491L18.4965 32.9641L21.3038 38.7068C21.0829 38.8707 20.7801 39.0702 20.3918 39.3053C19.9999 39.5333 19.1128 39.8468 17.727 40.2458C16.3376 40.6519 14.8521 40.8586 13.2668 40.8586C9.75056 40.8586 6.65831 39.6259 3.99 37.1536C1.32881 34.6741 0 31.7065 0 28.2473C0 24.7632 1.32881 21.7707 3.99 19.2698C6.65831 16.7618 9.75056 15.5078 13.2668 15.5078C14.8521 15.5078 16.3163 15.6931 17.6558 16.0636C18.9953 16.4341 19.9429 16.8117 20.5058 17.1893L21.3038 17.7451L18.4965 23.4023C17.4705 22.6542 16.131 22.2766 14.478 22.2766Z" fill="#5764BD"/>
<path d="M22.5213 37.3103C19.8601 34.9448 18.5312 31.9096 18.5312 28.2046C18.5312 24.4996 19.9171 21.4608 22.6922 19.0846C25.4639 16.7013 28.891 15.5078 32.9665 15.5078C36.985 15.5078 40.3694 16.7048 43.1268 19.0988C45.8806 21.4928 47.2593 24.5281 47.2593 28.2046C47.2593 31.8811 45.9091 34.9128 43.2122 37.2961C40.5226 39.6723 37.1061 40.8586 32.9665 40.8586C28.6701 40.8586 25.1896 39.6758 22.5213 37.3103ZM28.9195 24.1433C27.8436 25.1978 27.3092 26.5516 27.3092 28.2046C27.3092 29.8576 27.8223 31.2078 28.8483 32.2516C29.8814 33.2882 31.2423 33.8048 32.9237 33.8048C34.5376 33.8048 35.8664 33.2776 36.9137 32.2231C37.9576 31.1614 38.4813 29.8219 38.4813 28.2046C38.4813 26.5516 37.9433 25.1978 36.871 24.1433C35.7951 23.0888 34.4806 22.5616 32.9237 22.5616C31.3349 22.5616 30.0025 23.0888 28.9195 24.1433Z" fill="#5764BD"/>
<path d="M59.4858 22.2766C57.9254 22.2766 56.5859 22.8537 55.4673 24.0008C54.3451 25.1515 53.7858 26.5373 53.7858 28.1618C53.7858 29.8077 54.3451 31.2078 55.4673 32.3656C56.5859 33.5163 57.9254 34.0898 59.4858 34.0898C60.2339 34.0898 60.9429 34.0007 61.6091 33.8191C62.2824 33.6303 62.7776 33.4414 63.0911 33.2491L63.5043 32.9641L66.3116 38.7068C66.0907 38.8707 65.7879 39.0702 65.3996 39.3053C65.0077 39.5333 64.1206 39.8468 62.7348 40.2458C61.3454 40.6519 59.8599 40.8586 58.2746 40.8586C54.7584 40.8586 51.6661 39.6259 48.9978 37.1536C46.3366 34.6741 45.0078 31.7065 45.0078 28.2473C45.0078 24.7632 46.3366 21.7707 48.9978 19.2698C51.6661 16.7618 54.7584 15.5078 58.2746 15.5078C59.8599 15.5078 61.3241 15.6931 62.6636 16.0636C64.0031 16.4341 64.9507 16.8117 65.5136 17.1893L66.3116 17.7451L63.5043 23.4023C62.4783 22.6542 61.1388 22.2766 59.4858 22.2766Z" fill="#5764BD"/>
<path d="M67.5369 37.3103C64.8757 34.9448 63.5469 31.9096 63.5469 28.2046C63.5469 24.4996 64.9327 21.4608 67.7079 19.0846C70.4795 16.7013 73.9066 15.5078 77.9821 15.5078C82.0006 15.5078 85.385 16.7048 88.1424 19.0988C90.8962 21.4928 92.2749 24.5281 92.2749 28.2046C92.2749 31.8811 90.9247 34.9128 88.2279 37.2961C85.5382 39.6723 82.1217 40.8586 77.9821 40.8586C73.6858 40.8586 70.2052 39.6758 67.5369 37.3103ZM73.9351 24.1433C72.8592 25.1978 72.3249 26.5516 72.3249 28.2046C72.3249 29.8576 72.8379 31.2078 73.8639 32.2516C74.897 33.2882 76.2579 33.8048 77.9394 33.8048C79.5532 33.8048 80.882 33.2776 81.9294 32.2231C82.9732 31.1614 83.4969 29.8219 83.4969 28.2046C83.4969 26.5516 82.9589 25.1978 81.8866 24.1433C80.8107 23.0888 79.4962 22.5616 77.9394 22.5616C76.3505 22.5616 75.0181 23.0888 73.9351 24.1433Z" fill="#5764BD"/>
<path d="M93.3786 37.1925C91.1343 34.7522 90.0156 31.7597 90.0156 28.215C90.0156 24.6632 91.1343 21.6564 93.3786 19.1948C95.6194 16.7366 98.4694 15.504 101.929 15.504C105.099 15.504 107.718 16.4979 109.78 18.4823V0H118.045V40.1565H109.866V37.449H109.78C107.718 39.7219 105.099 40.8548 101.929 40.8548C98.4694 40.8548 95.6194 39.6364 93.3786 37.1925ZM100.404 24.1395C99.328 25.194 98.7936 26.5478 98.7936 28.2008C98.7936 29.8538 99.3066 31.2039 100.333 32.2478C101.366 33.2844 102.727 33.801 104.408 33.801C106.022 33.801 107.351 33.2738 108.398 32.2193C109.442 31.1576 109.966 29.8181 109.966 28.2008C109.966 26.5478 109.428 25.194 108.355 24.1395C107.279 23.085 105.965 22.5578 104.408 22.5578C102.819 22.5578 101.487 23.085 100.404 24.1395Z" fill="#5764BD"/>
<path d="M121.506 37.3103C118.844 34.9448 117.516 31.9096 117.516 28.2046C117.516 24.4996 118.901 21.4608 121.677 19.0846C124.448 16.7013 127.875 15.5078 131.951 15.5078C135.969 15.5078 139.354 16.7048 142.111 19.0988C144.865 21.4928 146.244 24.5281 146.244 28.2046C146.244 31.8811 144.893 34.9128 142.197 37.2961C139.507 39.6723 136.09 40.8586 131.951 40.8586C127.655 40.8586 124.174 39.6758 121.506 37.3103ZM127.904 24.1433C126.828 25.1978 126.294 26.5516 126.294 28.2046C126.294 29.8576 126.807 31.2078 127.833 32.2516C128.866 33.2882 130.227 33.8048 131.908 33.8048C133.522 33.8048 134.851 33.2776 135.898 32.2231C136.942 31.1614 137.466 29.8219 137.466 28.2046C137.466 26.5516 136.928 25.1978 135.855 24.1433C134.779 23.0888 133.465 22.5616 131.908 22.5616C130.319 22.5616 128.987 23.0888 127.904 24.1433Z" fill="#5764BD"/>
<path d="M147.135 16.2096V7.28906H155.4V16.2096H160.444V22.5081H155.4V30.1176C155.4 32.3334 156.019 33.4378 157.266 33.4378C157.58 33.4378 157.908 33.3773 158.25 33.2526C158.592 33.1314 158.855 33.0068 159.048 32.8821L159.318 32.6968L161.37 39.3658C159.603 40.3633 157.58 40.8621 155.3 40.8621C153.75 40.8621 152.414 40.5913 151.296 40.0498C150.173 39.5012 149.322 38.7673 148.745 37.8553C148.164 36.9362 147.751 35.9708 147.505 34.9626C147.256 33.9473 147.135 32.8643 147.135 31.7136V22.5081H143.672V16.2096H147.135Z" fill="#5764BD"/>
<path d="M170.188 15.5078C171.563 15.5078 172.917 15.6646 174.249 15.9781C175.589 16.2844 176.586 16.5908 177.242 16.9043L178.225 17.3746L175.517 22.7896C173.643 21.7921 171.869 21.2933 170.188 21.2933C169.254 21.2933 168.595 21.4002 168.207 21.6068C167.815 21.8063 167.623 22.1875 167.623 22.7468C167.623 22.8715 167.637 22.9962 167.666 23.1173C167.701 23.242 167.765 23.3596 167.851 23.4736C167.943 23.5804 168.029 23.6695 168.107 23.7443C168.193 23.8227 168.325 23.9082 168.506 24.0008C168.695 24.097 168.841 24.1683 168.948 24.2146C169.062 24.2644 169.24 24.3357 169.49 24.4283C169.735 24.5138 169.921 24.5815 170.045 24.6278C170.177 24.6777 170.391 24.7489 170.687 24.8416C170.979 24.9377 171.203 24.9983 171.356 25.0268C172.325 25.3118 173.166 25.6253 173.879 25.9673C174.598 26.3093 175.353 26.776 176.144 27.3638C176.942 27.9552 177.559 28.6997 177.997 29.6011C178.431 30.5059 178.652 31.5355 178.652 32.6933C178.652 38.1368 174.865 40.8586 167.295 40.8586C165.585 40.8586 163.961 40.5949 162.422 40.0748C160.883 39.544 159.764 39.0132 159.073 38.4788L158.047 37.6381L161.41 31.9951C161.666 32.2052 161.994 32.4618 162.393 32.7646C162.799 33.0602 163.533 33.4628 164.588 33.9758C165.649 34.4888 166.568 34.7453 167.338 34.7453C169.055 34.7453 169.917 34.1718 169.917 33.0211C169.917 32.4902 169.696 32.077 169.262 31.7813C168.823 31.4892 168.082 31.1543 167.039 30.7838C165.991 30.4062 165.175 30.0571 164.588 29.7436C163.095 28.9669 161.912 28.087 161.039 27.1073C160.163 26.1312 159.728 24.8273 159.728 23.2028C159.728 20.7803 160.669 18.8958 162.55 17.5456C164.438 16.1883 166.985 15.5078 170.188 15.5078Z" fill="#5764BD"/>
<path d="M183.69 30.1719C185.179 30.1719 186.448 30.6956 187.495 31.7394C188.539 32.7761 189.062 34.0443 189.062 35.5441C189.062 37.0083 188.539 38.2623 187.495 39.3061C186.448 40.3392 185.179 40.8594 183.69 40.8594C182.226 40.8594 180.972 40.3392 179.928 39.3061C178.892 38.2623 178.375 37.0083 178.375 35.5441C178.375 34.0443 178.892 32.7761 179.928 31.7394C180.972 30.6956 182.226 30.1719 183.69 30.1719Z" fill="#5764BD"/>
<path d="M47.8247 52.3619C47.8247 52.4973 47.7748 52.6041 47.6822 52.6896C47.586 52.7751 47.4756 52.8179 47.3544 52.8179C47.2191 52.8179 47.1122 52.7751 47.0267 52.6896C46.9412 52.6041 46.8984 52.4973 46.8984 52.3619V46.6904C46.8984 46.5586 46.9412 46.4481 47.0267 46.3626C47.1122 46.2771 47.2262 46.2344 47.3687 46.2344C47.4898 46.2344 47.5967 46.2771 47.6822 46.3626C47.7748 46.4481 47.8247 46.5586 47.8247 46.6904V52.3619Z" fill="#5764BD"/>
<path d="M59.7765 46.2344C59.9083 46.2344 60.0188 46.2736 60.1042 46.3484C60.1898 46.4268 60.2325 46.5301 60.2325 46.6619C60.2325 46.7973 60.1898 46.9006 60.1042 46.9754C60.0188 47.0538 59.9083 47.0894 59.7765 47.0894H58.1093V52.3619C58.1093 52.4973 58.0594 52.6041 57.9667 52.6896C57.8812 52.7751 57.7673 52.8179 57.6247 52.8179C57.4894 52.8179 57.3754 52.7751 57.2827 52.6896C57.1972 52.6041 57.1545 52.4973 57.1545 52.3619V47.0894H55.4873C55.3519 47.0894 55.245 47.0538 55.1595 46.9754C55.074 46.9006 55.0312 46.7973 55.0312 46.6619C55.0312 46.5301 55.074 46.4268 55.1595 46.3484C55.245 46.2736 55.3519 46.2344 55.4873 46.2344H59.7765Z" fill="#5764BD"/>
<path d="M78.1647 52.9158C77.7087 52.9158 77.3026 52.8517 76.9534 52.7306C76.6007 52.5988 76.2623 52.385 75.9417 52.0893C75.8063 51.9753 75.7422 51.8471 75.7422 51.7046C75.7422 51.5906 75.7849 51.4908 75.8704 51.4053C75.9631 51.3127 76.0699 51.2628 76.1839 51.2628C76.2872 51.2628 76.3763 51.2984 76.4547 51.3626C76.7112 51.6013 76.9712 51.7758 77.2384 51.8898C77.5021 51.9967 77.8013 52.0466 78.1362 52.0466C78.5352 52.0466 78.8665 51.9575 79.1337 51.7758C79.408 51.5977 79.5469 51.3697 79.5469 51.0918C79.5469 50.7605 79.4116 50.5076 79.1479 50.3366C78.8807 50.1584 78.4711 50.0053 77.9224 49.8806C77.2741 49.7488 76.7753 49.535 76.4262 49.2393C76.0842 48.9365 75.9132 48.5197 75.9132 47.9853C75.9132 47.6148 76.0058 47.2942 76.1982 47.0163C76.3977 46.7313 76.6684 46.514 77.0104 46.3608C77.3524 46.2112 77.7407 46.1328 78.1789 46.1328C78.5672 46.1328 78.9342 46.2005 79.2762 46.3323C79.6253 46.457 79.9067 46.6244 80.1169 46.8311C80.2594 46.9558 80.3307 47.0876 80.3307 47.2301C80.3307 47.3441 80.2879 47.4438 80.2024 47.5293C80.1169 47.6148 80.0172 47.6576 79.9032 47.6576C79.8177 47.6576 79.7464 47.6362 79.6894 47.5863C79.5184 47.426 79.2904 47.2871 79.0054 47.1731C78.7204 47.0591 78.4426 47.0021 78.1789 47.0021C77.7586 47.0021 77.4272 47.0876 77.1814 47.2586C76.9321 47.4296 76.8109 47.6576 76.8109 47.9426C76.8109 48.2489 76.9321 48.4841 77.1814 48.6551C77.4272 48.8189 77.7942 48.9543 78.2787 49.0683C78.7703 49.1752 79.1693 49.2963 79.4757 49.4388C79.7892 49.5813 80.0314 49.7808 80.2024 50.0373C80.3734 50.2938 80.4589 50.6323 80.4589 51.0491C80.4589 51.4124 80.3521 51.7331 80.1454 52.0181C79.9459 52.3031 79.6681 52.5275 79.3189 52.6878C78.9662 52.8374 78.5815 52.9158 78.1647 52.9158Z" fill="#5764BD"/>
<path d="M92.3184 50.3527C92.3184 50.8479 92.2079 51.2896 91.9906 51.6779C91.7698 52.0591 91.4705 52.3619 91.0929 52.5899C90.7117 52.8108 90.2949 52.9177 89.8389 52.9177C89.3829 52.9177 88.9625 52.8108 88.5849 52.5899C88.2037 52.3619 87.9044 52.0591 87.6871 51.6779C87.4663 51.2896 87.3594 50.8479 87.3594 50.3527C87.3594 49.8682 87.4663 49.4264 87.6871 49.0274C87.9044 48.6284 88.2037 48.3221 88.5849 48.1012C88.9625 47.8839 89.3829 47.7734 89.8389 47.7734C90.2949 47.7734 90.7117 47.8839 91.0929 48.1012C91.4705 48.3221 91.7698 48.6284 91.9906 49.0274C92.2079 49.4264 92.3184 49.8682 92.3184 50.3527ZM91.4349 50.3527C91.4349 50.0107 91.3636 49.7079 91.2211 49.4407C91.0786 49.1771 90.8827 48.9704 90.6369 48.8279C90.3982 48.6783 90.131 48.5999 89.8389 48.5999C89.5432 48.5999 89.2724 48.6783 89.0266 48.8279C88.7879 48.9704 88.5991 49.1771 88.4566 49.4407C88.3141 49.7079 88.2429 50.0107 88.2429 50.3527C88.2429 50.6876 88.3141 50.9868 88.4566 51.2504C88.5991 51.5069 88.7879 51.7136 89.0266 51.8632C89.2724 52.0164 89.5432 52.0912 89.8389 52.0912C90.131 52.0912 90.3982 52.0164 90.6369 51.8632C90.8827 51.7136 91.0786 51.5069 91.2211 51.2504C91.3636 50.9868 91.4349 50.6876 91.4349 50.3527Z" fill="#5764BD"/>
<path d="M100.445 52.3574C100.445 52.4928 100.395 52.5996 100.302 52.6851C100.217 52.7706 100.11 52.8134 99.9886 52.8134C99.8639 52.8134 99.7606 52.7706 99.6751 52.6851C99.5896 52.5996 99.5469 52.4928 99.5469 52.3574V46.3011C99.5469 46.18 99.5896 46.0731 99.6751 45.9876C99.7678 45.9021 99.8782 45.8594 100.003 45.8594C100.124 45.8594 100.231 45.9021 100.316 45.9876C100.402 46.0731 100.445 46.18 100.445 46.3011V52.3574Z" fill="#5764BD"/>
<path d="M111.647 47.8828C111.778 47.8828 111.889 47.9327 111.974 48.0253C112.06 48.1108 112.103 48.2177 112.103 48.3388V50.8326C112.103 51.4881 111.921 51.9975 111.561 52.3573C111.198 52.7207 110.692 52.8988 110.036 52.8988C109.381 52.8988 108.871 52.7207 108.512 52.3573C108.159 51.9975 107.984 51.4881 107.984 50.8326V48.3388C107.984 48.2177 108.027 48.1108 108.113 48.0253C108.198 47.9327 108.301 47.8828 108.426 47.8828C108.558 47.8828 108.668 47.9327 108.754 48.0253C108.839 48.1108 108.882 48.2177 108.882 48.3388V50.8326C108.882 51.6591 109.267 52.0723 110.036 52.0723C110.414 52.0723 110.706 51.969 110.906 51.7588C111.105 51.5522 111.205 51.2423 111.205 50.8326V48.3388C111.205 48.2177 111.248 48.1108 111.333 48.0253C111.419 47.9327 111.522 47.8828 111.647 47.8828Z" fill="#5764BD"/>
<path d="M120.899 48.7694V51.5624C120.899 51.8759 121.035 52.0326 121.313 52.0326C121.359 52.0326 121.42 52.0255 121.498 52.0041C121.573 51.9863 121.63 51.9756 121.669 51.9756C121.754 51.9756 121.826 52.0113 121.883 52.0754C121.94 52.1431 121.968 52.2286 121.968 52.3319C121.968 52.4672 121.89 52.5813 121.74 52.6739C121.587 52.7701 121.416 52.8164 121.227 52.8164C121.028 52.8164 120.835 52.7986 120.657 52.7594C120.486 52.7131 120.333 52.5991 120.201 52.4174C120.066 52.2393 120.002 51.9685 120.002 51.6051V48.7694H119.46C119.335 48.7694 119.236 48.7338 119.161 48.6554C119.083 48.5699 119.047 48.4666 119.047 48.3419C119.047 48.2279 119.083 48.1353 119.161 48.0569C119.236 47.9821 119.335 47.9429 119.46 47.9429H120.002V47.1591C120.002 47.0273 120.044 46.9169 120.13 46.8314C120.215 46.7459 120.322 46.7031 120.458 46.7031C120.579 46.7031 120.686 46.7459 120.771 46.8314C120.857 46.9169 120.899 47.0273 120.899 47.1591V47.9429H121.669C121.79 47.9429 121.89 47.9856 121.968 48.0711C122.043 48.1495 122.082 48.2421 122.082 48.3561C122.082 48.4808 122.043 48.5806 121.968 48.6554C121.89 48.7338 121.79 48.7694 121.669 48.7694H120.899Z" fill="#5764BD"/>
<path d="M130.095 52.3554C130.095 52.4908 130.053 52.5977 129.967 52.6832C129.882 52.7687 129.775 52.8114 129.654 52.8114C129.518 52.8114 129.411 52.7687 129.326 52.6832C129.247 52.5977 129.212 52.4908 129.212 52.3554V48.2942C129.212 48.1624 129.247 48.0519 129.326 47.9664C129.411 47.8809 129.518 47.8382 129.654 47.8382C129.775 47.8382 129.882 47.8809 129.967 47.9664C130.053 48.0519 130.095 48.1624 130.095 48.2942V52.3554ZM129.639 47.2112C129.458 47.2112 129.329 47.1791 129.255 47.1114C129.176 47.0473 129.141 46.9404 129.141 46.7979V46.6554C129.141 46.5058 129.183 46.3989 129.269 46.3419C129.354 46.2778 129.483 46.2422 129.654 46.2422C129.825 46.2422 129.946 46.2778 130.024 46.3419C130.11 46.4096 130.152 46.5129 130.152 46.6554V46.7979C130.152 46.9511 130.11 47.0616 130.024 47.1257C129.946 47.1827 129.817 47.2112 129.639 47.2112Z" fill="#5764BD"/>
<path d="M142.178 50.3527C142.178 50.8479 142.067 51.2896 141.85 51.6779C141.629 52.0591 141.33 52.3619 140.952 52.5899C140.571 52.8108 140.154 52.9177 139.698 52.9177C139.242 52.9177 138.822 52.8108 138.444 52.5899C138.063 52.3619 137.764 52.0591 137.546 51.6779C137.326 51.2896 137.219 50.8479 137.219 50.3527C137.219 49.8682 137.326 49.4264 137.546 49.0274C137.764 48.6284 138.063 48.3221 138.444 48.1012C138.822 47.8839 139.242 47.7734 139.698 47.7734C140.154 47.7734 140.571 47.8839 140.952 48.1012C141.33 48.3221 141.629 48.6284 141.85 49.0274C142.067 49.4264 142.178 49.8682 142.178 50.3527ZM141.294 50.3527C141.294 50.0107 141.223 49.7079 141.08 49.4407C140.938 49.1771 140.742 48.9704 140.496 48.8279C140.258 48.6783 139.99 48.5999 139.698 48.5999C139.403 48.5999 139.132 48.6783 138.886 48.8279C138.647 48.9704 138.459 49.1771 138.316 49.4407C138.174 49.7079 138.102 50.0107 138.102 50.3527C138.102 50.6876 138.174 50.9868 138.316 51.2504C138.459 51.5069 138.647 51.7136 138.886 51.8632C139.132 52.0164 139.403 52.0912 139.698 52.0912C139.99 52.0912 140.258 52.0164 140.496 51.8632C140.742 51.7136 140.938 51.5069 141.08 51.2504C141.223 50.9868 141.294 50.6876 141.294 50.3527Z" fill="#5764BD"/>
<path d="M151.852 47.7734C152.981 47.7734 153.548 48.4539 153.548 49.8112V52.3619C153.548 52.4973 153.505 52.6042 153.419 52.6897C153.334 52.7752 153.223 52.8179 153.092 52.8179C152.967 52.8179 152.864 52.7752 152.778 52.6897C152.693 52.6042 152.65 52.4973 152.65 52.3619V49.8112C152.65 49.4514 152.564 49.1628 152.393 48.9419C152.229 48.7139 151.955 48.5999 151.567 48.5999C151.317 48.5999 151.089 48.6569 150.883 48.7709C150.683 48.8778 150.526 49.0239 150.413 49.2127C150.299 49.3944 150.242 49.5939 150.242 49.8112V52.3619C150.242 52.4973 150.199 52.6042 150.113 52.6897C150.028 52.7752 149.917 52.8179 149.785 52.8179C149.65 52.8179 149.543 52.7752 149.458 52.6897C149.379 52.6042 149.344 52.4973 149.344 52.3619V48.3434C149.344 48.2223 149.387 48.1154 149.472 48.0299C149.558 47.9373 149.661 47.8874 149.785 47.8874C149.917 47.8874 150.028 47.9373 150.113 48.0299C150.199 48.1154 150.242 48.2223 150.242 48.3434V48.6712C150.402 48.4254 150.626 48.2152 150.911 48.0442C151.203 47.8661 151.517 47.7734 151.852 47.7734Z" fill="#5764BD"/>
</svg>
