<svg width="242" height="45" viewBox="0 0 242 45" fill="none" xmlns="http://www.w3.org/2000/svg">
<path d="M62.895 33.4827C62.895 33.7482 63.0761 33.9399 63.3186 33.9399H69.8171C70.0597 33.9399 70.2408 34.1317 70.2408 34.3972V34.9245C70.2408 35.19 70.4185 35.3818 70.6611 35.3818H71.1531C71.3956 35.3818 71.5733 35.5735 71.5733 35.8353V36.3663C71.5733 36.6281 71.751 36.8236 71.997 36.8236H74.4877C74.7337 36.8236 74.9114 36.6281 74.9114 36.3663V35.8353C74.9114 35.5735 74.7337 35.3818 74.4877 35.3818H73.9991C73.7566 35.3818 73.5755 35.19 73.5755 34.9245V34.3972C73.5755 34.1317 73.3978 33.9399 73.1552 33.9399H72.6632C72.4206 33.9399 72.243 33.7482 72.243 33.4827V32.9554C72.243 32.6899 72.4206 32.4981 72.6632 32.4981H73.1552C73.3978 32.4981 73.5755 32.3064 73.5755 32.0446V31.5136C73.5755 31.2517 73.7566 31.0563 73.9991 31.0563H74.4877C74.7337 31.0563 74.9114 30.8646 74.9114 30.6028V14.7981C74.9114 14.5363 74.7337 14.3446 74.4877 14.3446H73.9991C73.7566 14.3446 73.5755 14.1528 73.5755 13.8873V13.36C73.5755 13.0945 73.3978 12.9028 73.1552 12.9028H72.6632C72.4206 12.9028 72.243 12.711 72.243 12.4455V11.9182C72.243 11.6527 72.0653 11.4609 71.8193 11.4609H63.3186C63.0761 11.4609 62.895 11.6527 62.895 11.9182V12.4455C62.895 12.711 62.7173 12.9028 62.4747 12.9028H61.9827C61.7401 12.9028 61.5625 13.0945 61.5625 13.36V13.8873C61.5625 14.1528 61.3848 14.3446 61.1388 14.3446H60.6502C60.4042 14.3446 60.2266 14.5363 60.2266 14.7981V30.6028C60.2266 30.8646 60.4042 31.0563 60.6502 31.0563H61.1388C61.3848 31.0563 61.5625 31.2517 61.5625 31.5136V32.0446C61.5625 32.3064 61.7401 32.4981 61.9827 32.4981H62.4747C62.7173 32.4981 62.895 32.6899 62.895 32.9554V33.4827ZM66.2331 13.36C66.2331 13.0945 66.4107 12.9028 66.6567 12.9028H67.1453C67.3913 12.9028 67.569 13.0945 67.569 13.36V13.8873C67.569 14.1528 67.7466 14.3446 67.9926 14.3446H68.4812C68.7272 14.3446 68.9049 14.5363 68.9049 14.7981V30.6028C68.9049 30.8646 68.7272 31.0563 68.4812 31.0563H67.9926C67.7466 31.0563 67.569 31.2517 67.569 31.5136V32.0446C67.569 32.3064 67.3913 32.4981 67.1453 32.4981H66.6567C66.4107 32.4981 66.2331 32.3064 66.2331 32.0446V13.36Z" fill="url(#paint0_linear_1994_5544)"/>
<path d="M84.9653 33.4827C84.9653 33.7482 85.1464 33.9399 85.389 33.9399H93.8896C94.1356 33.9399 94.3133 33.7482 94.3133 33.4827V32.9554C94.3133 32.6899 94.491 32.4981 94.7335 32.4981H95.2255C95.4681 32.4981 95.6458 32.3064 95.6458 32.0446V31.5136C95.6458 31.2517 95.8269 31.0563 96.0695 31.0563H96.558C96.804 31.0563 96.9817 30.8646 96.9817 30.6028V11.9182C96.9817 11.6527 96.804 11.4609 96.558 11.4609H91.3989C91.129 11.4609 90.9752 11.6306 90.9752 11.9182V30.6028C90.9752 30.8904 90.818 31.0563 90.5515 31.0563H90.063C89.7965 31.0563 89.6393 31.2259 89.6393 31.5136V32.0446C89.6393 32.3322 89.4821 32.4981 89.2156 32.4981H88.727C88.4605 32.4981 88.3034 32.3322 88.3034 32.0446V11.9182C88.3034 11.6527 88.1257 11.4609 87.8831 11.4609H82.7205C82.4745 11.4609 82.2969 11.6527 82.2969 11.9182V30.6028C82.2969 30.8646 82.4745 31.0563 82.7205 31.0563H83.2091C83.4551 31.0563 83.6328 31.2517 83.6328 31.5136V32.0446C83.6328 32.3064 83.8105 32.4981 84.053 32.4981H84.545C84.7876 32.4981 84.9653 32.6899 84.9653 32.9554V33.4827Z" fill="url(#paint1_linear_1994_5544)"/>
<path d="M108.833 33.4827C108.833 33.7482 109.011 33.9399 109.257 33.9399H114.419C114.662 33.9399 114.839 33.7482 114.839 33.4827V13.3342C114.839 13.0724 115.017 12.8769 115.263 12.8769H115.776C116.022 12.8769 116.199 13.0724 116.199 13.3342V16.0482C116.199 16.3137 116.377 16.5054 116.62 16.5054H117.112C117.354 16.5054 117.532 16.6972 117.532 16.9627V17.49C117.532 17.7518 117.709 17.9472 117.955 17.9472H119.78C120.026 17.9472 120.204 17.7518 120.204 17.49V11.9182C120.204 11.6527 120.026 11.4609 119.78 11.4609H103.892C103.646 11.4609 103.469 11.6527 103.469 11.9182V17.49C103.469 17.7518 103.646 17.9472 103.892 17.9472H105.717C105.963 17.9472 106.141 17.7518 106.141 17.49V16.9627C106.141 16.6972 106.318 16.5054 106.564 16.5054H107.053C107.299 16.5054 107.477 16.3137 107.477 16.0482V13.3342C107.477 13.0724 107.654 12.8769 107.897 12.8769H108.409C108.655 12.8769 108.833 13.0724 108.833 13.3342V33.4827Z" fill="url(#paint2_linear_1994_5544)"/>
<path d="M126.695 33.4827C126.695 33.7482 126.873 33.9399 127.119 33.9399H132.282C132.524 33.9399 132.702 33.7482 132.702 33.4827V11.9182C132.702 11.6527 132.524 11.4609 132.282 11.4609H127.119C126.873 11.4609 126.695 11.6527 126.695 11.9182V33.4827Z" fill="url(#paint3_linear_1994_5544)"/>
<path d="M146.092 13.36C146.092 13.0724 146.25 12.9028 146.516 12.9028H147.005C147.271 12.9028 147.428 13.0724 147.428 13.36V13.8873C147.428 14.1749 147.586 14.3446 147.852 14.3446H148.341C148.607 14.3446 148.764 14.5105 148.764 14.7981V20.9009C148.764 21.1886 148.607 21.3545 148.341 21.3545H147.852C147.586 21.3545 147.428 21.5241 147.428 21.8118V22.3391C147.428 22.6304 147.271 22.7963 147.005 22.7963H146.516C146.25 22.7963 146.092 22.6304 146.092 22.3391V13.36ZM140.086 33.4827C140.086 33.7482 140.264 33.9399 140.51 33.9399H145.672C145.915 33.9399 146.092 33.7482 146.092 33.4827V24.6954C146.092 24.4299 146.27 24.2381 146.516 24.2381H147.005C147.251 24.2381 147.428 24.4299 147.428 24.6954V25.2227C147.428 25.4882 147.606 25.6799 147.852 25.6799H148.341C148.587 25.6799 148.764 25.8717 148.764 26.1335V33.4827C148.764 33.7482 148.942 33.9399 149.188 33.9399H154.347C154.593 33.9399 154.771 33.7482 154.771 33.4827V26.1335C154.771 25.8717 154.593 25.6799 154.347 25.6799H153.859C153.616 25.6799 153.435 25.4882 153.435 25.2227V24.6954C153.435 24.4299 153.257 24.2381 153.015 24.2381H150.52C150.278 24.2381 150.1 24.0464 150.1 23.7809V23.2536C150.1 22.9881 150.278 22.7963 150.52 22.7963H153.015C153.257 22.7963 153.435 22.6046 153.435 22.3391V21.8118C153.435 21.5463 153.616 21.3545 153.859 21.3545H154.347C154.593 21.3545 154.771 21.1628 154.771 20.9009V14.7981C154.771 14.5363 154.593 14.3446 154.347 14.3446H153.859C153.616 14.3446 153.435 14.1528 153.435 13.8873V13.36C153.435 13.0945 153.257 12.9028 153.015 12.9028H152.523C152.28 12.9028 152.102 12.711 152.102 12.4455V11.9182C152.102 11.6527 151.925 11.4609 151.679 11.4609H140.51C140.264 11.4609 140.086 11.6527 140.086 11.9182V33.4827Z" fill="url(#paint4_linear_1994_5544)"/>
<path d="M162.156 33.4827C162.156 33.7482 162.334 33.9399 162.58 33.9399H167.743C167.985 33.9399 168.163 33.7482 168.163 33.4827V27.2877C168.163 27.0222 168.34 26.8304 168.586 26.8304H169.075C169.321 26.8304 169.499 26.6387 169.499 26.3769V25.8459C169.499 25.5841 169.676 25.3923 169.922 25.3923H170.411C170.657 25.3923 170.835 25.5841 170.835 25.8459V33.4827C170.835 33.7482 171.012 33.9399 171.258 33.9399H176.417C176.663 33.9399 176.841 33.7482 176.841 33.4827V13.36C176.841 13.0945 176.663 12.9028 176.417 12.9028H175.929C175.686 12.9028 175.505 12.711 175.505 12.4455V11.9182C175.505 11.6527 175.328 11.4609 175.085 11.4609H167.896C167.654 11.4609 167.473 11.6527 167.473 11.9182V12.4455C167.473 12.711 167.295 12.9028 167.052 12.9028H166.83C166.584 12.9028 166.407 13.0945 166.407 13.36V13.8873C166.407 14.1528 166.229 14.3446 165.983 14.3446H165.494C165.248 14.3446 165.071 14.5363 165.071 14.7981V15.3291C165.071 15.5909 164.893 15.7827 164.647 15.7827H164.158C163.912 15.7827 163.735 15.9781 163.735 16.2399V16.7673C163.735 17.0328 163.557 17.2245 163.315 17.2245H162.58C162.334 17.2245 162.156 17.4163 162.156 17.6817V33.4827ZM168.586 24.0943C168.34 24.0943 168.163 23.9026 168.163 23.6371V14.7981C168.163 14.5363 168.34 14.3446 168.586 14.3446H169.075C169.321 14.3446 169.499 14.1528 169.499 13.8873V13.36C169.499 13.0945 169.676 12.9028 169.922 12.9028H170.411C170.657 12.9028 170.835 13.0945 170.835 13.36V22.1953C170.835 22.4607 170.657 22.6525 170.411 22.6525H169.922C169.676 22.6525 169.499 22.8442 169.499 23.1097V23.6371C169.499 23.9026 169.321 24.0943 169.075 24.0943H168.586Z" fill="url(#paint5_linear_1994_5544)"/>
<path d="M184.219 33.4827C184.219 33.7482 184.396 33.9399 184.642 33.9399H196.478C196.724 33.9399 196.901 33.7482 196.901 33.4827V32.9554C196.901 32.6899 197.079 32.4981 197.325 32.4981H197.814C198.06 32.4981 198.237 32.3064 198.237 32.0446V31.5136C198.237 31.2517 198.415 31.0563 198.661 31.0563H199.15C199.396 31.0563 199.573 30.8646 199.573 30.6028V23.1097C199.573 22.8442 199.396 22.6525 199.15 22.6525H198.661C198.415 22.6525 198.237 22.4607 198.237 22.1953V21.6679C198.237 21.4024 198.06 21.2107 197.814 21.2107H196.034C195.788 21.2107 195.61 21.0189 195.61 20.7571V20.2261C195.61 19.9643 195.788 19.7726 196.034 19.7726H197.147C197.414 19.7726 197.568 19.6029 197.568 19.3153V18.788C197.568 18.5225 197.749 18.3307 197.991 18.3307H198.48C198.75 18.3307 198.904 18.1611 198.904 17.8735V13.36C198.904 13.0945 198.726 12.9028 198.48 12.9028H198.015C197.769 12.9028 197.592 12.711 197.592 12.4455L197.568 11.9182C197.568 11.6527 197.39 11.4609 197.147 11.4609H184.642C184.396 11.4609 184.219 11.6527 184.219 11.9182V33.4827ZM190.225 13.36C190.225 13.0945 190.403 12.9028 190.649 12.9028H191.137C191.383 12.9028 191.561 13.0945 191.561 13.36V13.8873C191.561 14.1528 191.739 14.3446 191.985 14.3446H192.473C192.719 14.3446 192.897 14.5363 192.897 14.7981V17.7776C192.897 18.0431 192.719 18.2349 192.473 18.2349H191.985C191.739 18.2349 191.561 18.4266 191.561 18.6884V19.2194C191.561 19.4812 191.383 19.673 191.137 19.673H190.649C190.403 19.673 190.225 19.4812 190.225 19.2194V13.36ZM190.225 21.7417C190.225 21.4762 190.403 21.2844 190.649 21.2844H191.137C191.383 21.2844 191.561 21.4762 191.561 21.7417V22.269C191.561 22.5308 191.739 22.7262 191.985 22.7262H192.473C192.719 22.7262 192.897 22.918 192.897 23.1798V30.5769C192.897 30.8424 192.719 31.0342 192.473 31.0342H191.985C191.739 31.0342 191.561 31.2259 191.561 31.4914V32.0187C191.561 32.2843 191.383 32.476 191.137 32.476H190.649C190.403 32.476 190.225 32.2843 190.225 32.0187V21.7417Z" fill="url(#paint6_linear_1994_5544)"/>
<path d="M206.953 33.4827C206.953 33.7703 207.107 33.9399 207.377 33.9399H219.882C220.148 33.9399 220.302 33.7703 220.302 33.4827V27.9109C220.302 27.6233 220.148 27.4573 219.882 27.4573H216.055C215.785 27.4573 215.631 27.6233 215.631 27.9109V28.4419C215.631 28.7295 215.474 28.8954 215.208 28.8954H214.719C214.453 28.8954 214.296 29.0651 214.296 29.3527V32.0446C214.296 32.3322 214.138 32.4981 213.872 32.4981H213.383C213.117 32.4981 212.96 32.3322 212.96 32.0446V24.5995C212.96 24.3082 213.117 24.1423 213.383 24.1423H217.699C217.968 24.1423 218.122 23.9726 218.122 23.685V21.7159C218.122 21.4283 217.968 21.2586 217.699 21.2586H213.383C213.117 21.2586 212.96 21.0927 212.96 20.8051V13.36C212.96 13.0724 213.117 12.9028 213.383 12.9028H213.872C214.138 12.9028 214.296 13.0724 214.296 13.36V16.0482C214.296 16.3358 214.453 16.5054 214.719 16.5054H215.208C215.474 16.5054 215.631 16.6714 215.631 16.9627V17.49C215.631 17.7776 215.785 17.9472 216.055 17.9472H219.882C220.148 17.9472 220.302 17.7776 220.302 17.49V11.9182C220.302 11.6306 220.148 11.4609 219.882 11.4609H207.377C207.107 11.4609 206.953 11.6306 206.953 11.9182V33.4827Z" fill="url(#paint7_linear_1994_5544)"/>
<path d="M228.023 33.4827C228.023 33.7482 228.177 33.9399 228.423 33.9399H238.547C238.793 33.9399 238.95 33.7482 238.95 33.4827V32.9554C238.95 32.6899 239.128 32.4981 239.37 32.4981H239.862C240.105 32.4981 240.282 32.3064 240.282 32.0446V31.5394C240.282 31.2518 240.46 31.0563 240.73 31.0563H241.174C241.441 31.0563 241.618 30.8646 241.618 30.5769V24.9093C241.618 24.6216 241.441 24.4299 241.174 24.4299H240.73C240.46 24.4299 240.282 24.2381 240.282 23.9505V23.4453C240.282 23.1798 240.105 22.9881 239.862 22.9881H239.37C239.128 22.9881 238.95 22.7963 238.95 22.5308V22.0035C238.95 21.7417 238.769 21.5463 238.526 21.5463H234.922C234.676 21.5463 234.498 21.3545 234.498 21.0927V20.5617C234.498 20.2999 234.32 20.1081 234.074 20.1081H233.364C233.118 20.1081 232.94 19.9164 232.94 19.6509V14.7981C232.94 14.5363 233.118 14.3446 233.364 14.3446H233.852C234.098 14.3446 234.276 14.1528 234.276 13.8873V13.36C234.276 13.0945 234.454 12.9028 234.7 12.9028H235.188C235.434 12.9028 235.612 13.0945 235.612 13.36V16.0482C235.612 16.3137 235.789 16.5054 236.032 16.5054H236.524C236.767 16.5054 236.944 16.6972 236.944 16.9627V17.49C236.944 17.7518 237.122 17.9472 237.368 17.9472H240.75C240.996 17.9472 241.174 17.7518 241.174 17.49V13.36C241.174 13.0945 240.996 12.9028 240.75 12.9028H239.148C238.905 12.9028 238.724 12.711 238.724 12.4455V11.9182C238.724 11.6527 238.547 11.4609 238.304 11.4609H230.026C229.78 11.4609 229.602 11.6527 229.602 11.9182V12.4455C229.602 12.711 229.424 12.9028 229.178 12.9028H228.69C228.447 12.9028 228.266 13.0945 228.266 13.36V13.8615C228.266 14.1528 228.088 14.3446 227.822 14.3446H227.378C227.111 14.3446 226.933 14.5363 226.933 14.8239V19.6251C226.933 19.9164 227.111 20.1081 227.378 20.1081H227.822C228.088 20.1081 228.266 20.2999 228.266 20.5875V21.0927C228.266 21.3545 228.447 21.5463 228.69 21.5463H229.178C229.424 21.5463 229.602 21.7417 229.602 22.0035V22.5308C229.602 22.7963 229.78 22.9881 230.026 22.9881H233.852C234.098 22.9881 234.276 23.1798 234.276 23.4453V23.9726C234.276 24.2381 234.454 24.4299 234.7 24.4299H235.188C235.434 24.4299 235.612 24.6216 235.612 24.8871V30.6028C235.612 30.8646 235.434 31.0563 235.188 31.0563H234.454C234.208 31.0563 234.03 31.2517 234.03 31.5136V32.0446C234.03 32.3064 233.852 32.4981 233.606 32.4981H233.118C232.875 32.4981 232.694 32.3064 232.694 32.0446V27.9109C232.694 27.6491 232.516 27.4573 232.274 27.4573H227.111C226.865 27.4573 226.688 27.6491 226.688 27.9109V32.0446C226.688 32.3064 226.865 32.4981 227.111 32.4981H227.6C227.846 32.4981 228.023 32.6899 228.023 32.9554V33.4827Z" fill="url(#paint8_linear_1994_5544)"/>
<mask id="mask0_1994_5544" style="mask-type:luminance" maskUnits="userSpaceOnUse" x="0" y="0" width="58" height="45">
<path d="M0 0H57.072V44.5819H0V0Z" fill="white"/>
</mask>
<g mask="url(#mask0_1994_5544)">
<path fill-rule="evenodd" clip-rule="evenodd" d="M36.1893 35.8535C36.8522 35.8535 37.4877 35.8204 38.0924 35.7208C38.786 35.6249 39.3293 35.1013 39.5103 34.3859C39.6914 33.6705 39.5103 32.922 38.9671 32.4315L36.2816 29.9572C35.9194 29.629 35.7076 29.1755 35.6768 28.6519C35.6461 28.1319 35.7964 27.6747 36.1005 27.2838L39.36 23.3419C39.6914 22.951 40.0843 22.7555 40.5661 22.7224C41.0478 22.6929 41.4715 22.8551 41.8337 23.2128L45.0932 26.373C45.5783 26.8302 46.2104 26.9925 46.8152 26.7639C47.4165 26.5352 47.8402 26.0153 47.9597 25.3294C48.4142 22.5933 48.2023 19.5659 47.2969 17.0879C43.3746 6.20973 29.0656 5.75248 24.9929 16.992C23.2094 21.8779 24.0875 27.9697 27.4973 31.8452C29.7592 34.4523 32.7795 35.8535 36.1893 35.8535ZM0.966917 25.429H10.3832C10.9265 25.429 11.3502 25.8825 11.3502 26.4689C11.3502 27.0552 10.9265 27.5124 10.3832 27.5124H0.966917C0.423667 27.5124 0 27.0552 0 26.4689C0 25.8825 0.423667 25.429 0.966917 25.429ZM6.85042 29.5995H8.44942C8.99267 29.5995 9.41633 30.0531 9.41633 30.6394C9.41633 31.2257 8.99267 31.683 8.44942 31.683H6.85042C6.30717 31.683 5.88692 31.2257 5.88692 30.6394C5.88692 30.0863 6.30717 29.5995 6.85042 29.5995ZM15.1529 42.1407H20.131C20.6742 42.1407 21.0979 42.5943 21.0979 43.1806C21.0979 43.7669 20.6742 44.2242 20.131 44.2242H15.1529C14.6097 44.2242 14.186 43.7669 14.186 43.1806C14.1552 42.6275 14.6097 42.1407 15.1529 42.1407ZM11.1383 33.7996H14.9718C15.5151 33.7996 15.9353 34.2569 15.9353 34.8432C15.9353 35.4295 15.5151 35.8867 14.9718 35.8867H11.1383C10.5951 35.8867 10.1714 35.4295 10.1714 34.8432C10.1714 34.2569 10.5951 33.7996 11.1383 33.7996ZM10.0518 17.0547H12.4059C12.9492 17.0547 13.3694 17.5119 13.3694 18.0982C13.3694 18.6845 12.9492 19.1418 12.4059 19.1418H10.0518C9.50858 19.1418 9.08492 18.6845 9.08492 18.0982C9.08492 17.5119 9.53933 17.0547 10.0518 17.0547ZM6.70008 21.2252H11.1964C11.7397 21.2252 12.1633 21.6825 12.1633 22.2688C12.1633 22.8551 11.7397 23.3087 11.1964 23.3087H6.70008C6.15683 23.3087 5.73317 22.8551 5.73317 22.2688C5.73317 21.7157 6.18758 21.2252 6.70008 21.2252ZM17.9272 37.9702H21.4908C22.0341 37.9702 22.4577 37.5129 22.4577 36.9266C22.4577 36.3403 22.0341 35.8867 21.4908 35.8867H17.7769C17.2337 35.8867 16.8134 35.4295 16.8134 34.8432C16.8134 34.2569 17.2337 33.7996 17.7769 33.7996H20.0422C20.5854 33.7996 21.0091 33.3424 21.0091 32.756C21.0091 32.1697 20.5854 31.7162 20.0422 31.7162H15.6962C15.1529 31.7162 14.7292 31.2589 14.7292 30.6726C14.7292 30.0863 15.1529 29.629 15.6962 29.629H23.5442C24.0875 29.629 24.5077 29.1755 24.5077 28.5892C24.5077 28.0029 24.0875 27.5456 23.5442 27.5456H14.0937C13.5505 27.5456 13.1302 27.0884 13.1302 26.502C13.1302 25.9157 13.5505 25.4622 14.0937 25.4622H17.0833C17.6266 25.4622 18.0502 25.0049 18.0502 24.4186C18.0502 23.8323 17.6266 23.375 17.0833 23.375H13.9434C13.4002 23.375 12.9799 22.9178 12.9799 22.3315C12.9799 21.7452 13.4002 21.2916 13.9434 21.2916H17.1756C17.7188 21.2916 18.1391 20.8344 18.1391 20.248C18.1391 19.6617 17.7188 19.2045 17.1756 19.2045H15.1222C14.6097 19.175 14.186 18.7177 14.186 18.1646C14.186 17.5783 14.6097 17.121 15.1529 17.121H21.0364C21.5797 17.121 22.0033 16.6638 22.0033 16.0775C22.0033 15.4912 21.5797 15.0376 21.0364 15.0376H13.7931C13.2498 15.0376 12.8262 14.5804 12.8262 13.994C12.8262 13.4077 13.2498 12.9505 13.7931 12.9505H19.7381C20.2813 12.9505 20.705 12.4969 20.705 11.9106C20.705 11.387 20.3428 10.9629 19.8918 10.867H17.1756C16.6323 10.867 16.2087 10.4098 16.2087 9.82348C16.2087 9.23717 16.6323 8.77992 17.1756 8.77992H23.6023C23.6946 8.77992 23.7527 8.77991 23.8449 8.8131C24.3574 8.77991 24.7503 8.32635 24.7503 7.77323C24.7503 7.2496 24.3882 6.82554 23.9337 6.72967H20.7665C20.2232 6.72967 19.7996 6.27242 19.7996 5.6861C19.7996 5.09979 20.2232 4.64623 20.7665 4.64623H26.1682C26.7115 4.64623 27.1352 4.18898 27.1352 3.60267C27.1352 3.07904 26.773 2.65867 26.3186 2.5591H23.6638C23.1206 2.5591 22.6969 2.10185 22.6969 1.51554C22.6969 0.929228 23.1206 0.475665 23.6638 0.475665C27.8902 0.475665 32.0859 0.117978 36.1893 0.117978C47.9905 0.018415 57.3487 9.33673 57.3487 22.302C57.3487 26.2439 56.3818 30.0199 54.571 33.3424C54.1473 34.1241 54.3011 35.1345 54.9332 35.7208L56.5322 37.1884C56.8943 37.5129 57.1062 37.9702 57.1369 38.4901C57.1677 39.0137 57.0173 39.4673 56.6859 39.8582L53.4537 43.7374C52.8217 44.486 51.7044 44.5487 51.0108 43.8665L48.8652 41.7794C48.2946 41.2262 47.5087 41.1304 46.8459 41.5544C39.6607 45.9167 31.4812 44.2242 23.452 44.2242C22.9087 44.2242 22.4851 43.7669 22.4851 43.1806C22.4851 42.5943 22.9087 42.1407 23.452 42.1407H26.199C26.6807 42.0744 27.0737 41.6503 27.0737 41.0972C27.0737 40.5109 26.65 40.0536 26.1067 40.0536H17.9272C17.384 40.0536 16.9637 39.6 16.9637 39.0137C16.9637 38.4274 17.4147 37.9702 17.9272 37.9702ZM17.1756 4.54667H18.0502C18.5935 4.54667 19.0138 5.00392 19.0138 5.59023C19.0138 6.17654 18.5935 6.6301 18.0502 6.6301H17.1756C16.6323 6.6301 16.2087 6.17654 16.2087 5.59023C16.2087 5.00392 16.6323 4.54667 17.1756 4.54667ZM17.7188 0.376103H21.2482C21.7915 0.376103 22.2152 0.833353 22.2152 1.41967C22.2152 2.00598 21.7915 2.46323 21.2482 2.46323H17.7188C17.1756 2.46323 16.7519 2.00598 16.7519 1.41967C16.7519 0.833353 17.2029 0.376103 17.7188 0.376103ZM9.95958 8.68404H14.4867C15.0299 8.68404 15.4536 9.14129 15.4536 9.7276C15.4536 10.3139 15.0299 10.7675 14.4867 10.7675H9.95958C9.41633 10.7675 8.99267 10.3139 8.99267 9.7276C8.99267 9.17079 9.41633 8.68404 9.95958 8.68404ZM11.7704 29.5995H13.0072C13.5505 29.5995 13.9742 30.0531 13.9742 30.6394C13.9742 31.2257 13.5505 31.683 13.0072 31.683H11.7704C11.2272 31.683 10.8069 31.2257 10.8069 30.6394C10.8069 30.0863 11.2579 29.5995 11.7704 29.5995Z" fill="url(#paint9_linear_1994_5544)"/>
</g>
<defs>
<linearGradient id="paint0_linear_1994_5544" x1="67.569" y1="11.4609" x2="67.569" y2="36.8236" gradientUnits="userSpaceOnUse">
<stop stop-color="#FF5B22"/>
<stop offset="1" stop-color="#F6B17A"/>
</linearGradient>
<linearGradient id="paint1_linear_1994_5544" x1="89.6393" y1="11.4609" x2="89.6393" y2="33.9399" gradientUnits="userSpaceOnUse">
<stop stop-color="#FF5B22"/>
<stop offset="1" stop-color="#F6B17A"/>
</linearGradient>
<linearGradient id="paint2_linear_1994_5544" x1="111.836" y1="11.4609" x2="111.836" y2="33.9399" gradientUnits="userSpaceOnUse">
<stop stop-color="#FF5B22"/>
<stop offset="1" stop-color="#F6B17A"/>
</linearGradient>
<linearGradient id="paint3_linear_1994_5544" x1="129.699" y1="11.4609" x2="129.699" y2="33.9399" gradientUnits="userSpaceOnUse">
<stop stop-color="#FF5B22"/>
<stop offset="1" stop-color="#F6B17A"/>
</linearGradient>
<linearGradient id="paint4_linear_1994_5544" x1="147.428" y1="11.4609" x2="147.428" y2="33.9399" gradientUnits="userSpaceOnUse">
<stop stop-color="#FF5B22"/>
<stop offset="1" stop-color="#F6B17A"/>
</linearGradient>
<linearGradient id="paint5_linear_1994_5544" x1="169.499" y1="11.4609" x2="169.499" y2="33.9399" gradientUnits="userSpaceOnUse">
<stop stop-color="#FF5B22"/>
<stop offset="1" stop-color="#F6B17A"/>
</linearGradient>
<linearGradient id="paint6_linear_1994_5544" x1="191.896" y1="11.4609" x2="191.896" y2="33.9399" gradientUnits="userSpaceOnUse">
<stop stop-color="#FF5B22"/>
<stop offset="1" stop-color="#F6B17A"/>
</linearGradient>
<linearGradient id="paint7_linear_1994_5544" x1="213.628" y1="11.4609" x2="213.628" y2="33.9399" gradientUnits="userSpaceOnUse">
<stop stop-color="#FF5B22"/>
<stop offset="1" stop-color="#F6B17A"/>
</linearGradient>
<linearGradient id="paint8_linear_1994_5544" x1="234.153" y1="11.4609" x2="234.153" y2="33.9399" gradientUnits="userSpaceOnUse">
<stop stop-color="#FF5B22"/>
<stop offset="1" stop-color="#F6B17A"/>
</linearGradient>
<linearGradient id="paint9_linear_1994_5544" x1="28.6744" y1="0.117187" x2="28.6744" y2="44.5473" gradientUnits="userSpaceOnUse">
<stop stop-color="#FF5B22"/>
<stop offset="1" stop-color="#F6B17A"/>
</linearGradient>
</defs>
</svg>
