<svg width="217" height="72" viewBox="0 0 217 72" fill="none" xmlns="http://www.w3.org/2000/svg">
<mask id="mask0_1994_5341" style="mask-type:luminance" maskUnits="userSpaceOnUse" x="0" y="0" width="64" height="72">
<path d="M0 0H63.984V71.552H0V0Z" fill="white"/>
</mask>
<g mask="url(#mask0_1994_5341)">
<path d="M35.8369 71.4927C16.0784 71.4927 0 55.4716 0 35.7776C0 16.0836 16.0784 0.0625 35.8369 0.0625C45.7986 0.0625 55.3876 4.24425 62.1529 11.5363L63.984 13.5108L50.1093 26.2997L48.2747 24.3253C45.0318 20.8279 40.6135 18.9001 35.8369 18.9001C26.4988 18.9001 18.9021 26.4717 18.9021 35.7776C18.9021 40.8122 21.1417 45.5493 25.0511 48.7779L21.6039 52.9202C16.4547 48.6668 13.502 42.4175 13.502 35.7776C13.502 23.5047 23.521 13.5179 35.8369 13.5179C41.2262 13.5179 46.268 15.3777 50.2921 18.7998L56.2655 13.2958C50.697 8.27908 43.3942 5.44467 35.8369 5.44467C19.0562 5.44467 5.40367 19.0506 5.40367 35.7776C5.40367 52.501 19.0562 66.1105 35.8369 66.1105C42.2439 66.1105 48.375 64.1468 53.5673 60.4309C54.9612 59.4383 56.2763 58.3132 57.491 57.0913L61.3323 60.8753C59.9062 62.3122 58.3546 63.6344 56.717 64.8062C50.6003 69.1814 43.3834 71.4927 35.8369 71.4927Z" fill="url(#paint0_linear_1994_5341)"/>
</g>
<path d="M67.026 40.4471C67.6638 40.4471 68.2873 40.3539 68.8893 40.1604C69.4913 39.9597 69.9356 39.7734 70.2223 39.6014L70.6523 39.3004L72.4296 42.8837C72.3723 42.9339 72.2899 42.9948 72.186 43.0701C72.0785 43.1382 71.8348 43.2708 71.455 43.4714C71.0823 43.6721 70.6738 43.8512 70.2366 44.0017C69.8066 44.1451 69.2405 44.2741 68.5453 44.3888C67.8465 44.5106 67.1263 44.5751 66.381 44.5751C64.661 44.5751 63.0305 44.1558 61.4933 43.3137C59.9632 42.4752 58.7305 41.3178 57.7953 39.8451C56.8565 38.3759 56.3906 36.7778 56.3906 35.0577C56.3906 33.7677 56.663 32.5279 57.2076 31.3311C57.7595 30.1378 58.4976 29.1166 59.415 28.2637C60.3323 27.4145 61.4001 26.7372 62.6256 26.2284C63.8475 25.7232 65.0981 25.4688 66.381 25.4688C67.5635 25.4688 68.66 25.6121 69.6633 25.8987C70.6738 26.1854 71.3905 26.4685 71.8133 26.7444L72.4296 27.1744L70.6523 30.7434C70.5448 30.6574 70.3871 30.5535 70.1793 30.4281C69.9679 30.3063 69.5486 30.1378 68.918 29.9264C68.2945 29.7186 67.6638 29.6111 67.026 29.6111C66.0119 29.6111 65.1053 29.7759 64.3026 30.0984C63.5 30.4245 62.8585 30.8581 62.382 31.4028C61.9125 31.9403 61.5542 32.5172 61.307 33.1371C61.0669 33.7498 60.9486 34.3769 60.9486 35.0147C60.9486 36.4194 61.4718 37.6772 62.5253 38.7844C63.5752 39.8952 65.0766 40.4471 67.026 40.4471Z" fill="url(#paint1_linear_1994_5341)"/>
<path d="M78.2465 25.8125V40.5615H84.5819V44.2452H74.0469V25.8125H78.2465Z" fill="url(#paint2_linear_1994_5341)"/>
<path d="M97.2069 25.8125V29.4962H90.8715V33.1655H96.9489V36.8492H90.8715V40.5615H97.2069V44.2452H86.6719V25.8125H97.2069Z" fill="url(#paint3_linear_1994_5341)"/>
<path d="M105.388 44.2452L97.6484 25.8125H102.393L107.037 37.9242L111.681 25.8125H116.425L108.685 44.2452H105.388Z" fill="url(#paint4_linear_1994_5341)"/>
<path d="M127.676 25.8125V29.4962H121.34V33.1655H127.418V36.8492H121.34V40.5615H127.676V44.2452H117.141V25.8125H127.676Z" fill="url(#paint5_linear_1994_5341)"/>
<path d="M130.094 25.8125H136.673C138.45 25.8125 139.898 26.2855 141.016 27.2315C142.134 28.1775 142.693 29.532 142.693 31.2878C142.693 32.6459 142.352 33.7818 141.675 34.6992C140.994 35.6093 140.073 36.2472 138.909 36.6198L145.258 44.2452H139.926L134.293 36.9638V44.2452H130.094V25.8125ZM134.293 33.9825H134.781C135.161 33.9825 135.487 33.9789 135.755 33.9682C136.031 33.9503 136.336 33.8965 136.673 33.8105C137.017 33.7245 137.293 33.6027 137.504 33.4378C137.712 33.2658 137.891 33.0293 138.034 32.7212C138.185 32.4058 138.264 32.026 138.264 31.5745C138.264 31.1266 138.185 30.7503 138.034 30.4422C137.891 30.1268 137.712 29.8903 137.504 29.7255C137.293 29.5535 137.017 29.4245 136.673 29.3385C136.336 29.2525 136.031 29.2059 135.755 29.1952C135.487 29.1773 135.161 29.1665 134.781 29.1665H134.293V33.9825Z" fill="url(#paint6_linear_1994_5341)"/>
<path d="M166.325 44.2452L163.387 33.8965L160.434 44.2452H155.762L150.516 25.8125H155.174L158.327 38.4545H158.442L161.796 25.8125H164.964L168.318 38.4545H168.432L171.586 25.8125H176.23L170.984 44.2452H166.325Z" fill="url(#paint7_linear_1994_5341)"/>
<path d="M186.595 25.8125L194.034 44.2452H189.519L188.158 40.5615H181.134L179.773 44.2452H175.258L182.697 25.8125H186.595ZM186.724 36.8778L184.675 31.5028H184.632L182.568 36.8778H186.724Z" fill="url(#paint8_linear_1994_5341)"/>
<path d="M192.734 25.8125H197.794L201.635 31.7035L205.477 25.8125H210.522L203.728 35.9748V44.2452H199.528V35.9748L192.734 25.8125Z" fill="url(#paint9_linear_1994_5341)"/>
<path d="M141.431 59.266H140.141V51.5547H141.431V59.266Z" fill="url(#paint10_linear_1994_5341)"/>
<path d="M148.191 53.3594C148.879 53.3594 149.413 53.56 149.797 53.9614C150.176 54.3627 150.37 54.9181 150.37 55.624V59.2647H149.109V55.968C149.109 55.5309 148.983 55.1869 148.736 54.936C148.485 54.678 148.141 54.549 147.704 54.549C147.224 54.5598 146.837 54.7139 146.543 55.0077C146.246 55.3051 146.077 55.6885 146.041 56.1544V59.2647H144.766V53.4024H146.041V54.5347C146.432 53.7535 147.149 53.3594 148.191 53.3594Z" fill="url(#paint11_linear_1994_5341)"/>
<path d="M156.879 53.3594C157.567 53.3594 158.101 53.56 158.484 53.9614C158.864 54.3627 159.057 54.9181 159.057 55.624V59.2647H157.796V55.968C157.796 55.5309 157.671 55.1869 157.423 54.936C157.173 54.678 156.829 54.549 156.391 54.549C155.911 54.5598 155.524 54.7139 155.23 55.0077C154.933 55.3051 154.765 55.6885 154.729 56.1544V59.2647H153.453V53.4024H154.729V54.5347C155.119 53.7535 155.836 53.3594 156.879 53.3594Z" fill="url(#paint12_linear_1994_5341)"/>
<path d="M164.647 53.3594C165.553 53.3594 166.288 53.6389 166.854 54.1907C167.417 54.7354 167.7 55.452 167.7 56.3407C167.7 57.2222 167.417 57.9389 166.854 58.4907C166.288 59.0354 165.553 59.3077 164.647 59.3077C163.737 59.3077 163.002 59.0354 162.439 58.4907C161.873 57.9389 161.594 57.2222 161.594 56.3407C161.594 55.452 161.873 54.7354 162.439 54.1907C163.002 53.6389 163.737 53.3594 164.647 53.3594ZM164.647 54.4487C164.12 54.4487 163.69 54.6279 163.357 54.979C163.02 55.3338 162.855 55.7889 162.855 56.3407C162.855 56.914 163.02 57.3799 163.357 57.731C163.69 58.075 164.12 58.247 164.647 58.247C165.181 58.247 165.611 58.075 165.937 57.731C166.27 57.3799 166.438 56.914 166.438 56.3407C166.438 55.7889 166.27 55.3338 165.937 54.979C165.6 54.6279 165.17 54.4487 164.647 54.4487Z" fill="url(#paint13_linear_1994_5341)"/>
<path d="M173.053 59.2686H171.749L169.484 53.4062H170.803L172.437 58.0216L174.042 53.4062H175.304L173.053 59.2686Z" fill="url(#paint14_linear_1994_5341)"/>
<path d="M181.077 59.2647V58.548C180.654 59.064 180.009 59.322 179.142 59.322C178.519 59.322 178.017 59.15 177.637 58.806C177.264 58.462 177.078 58.0285 177.078 57.5017C177.078 56.9678 177.272 56.5414 177.666 56.226C178.056 55.9107 178.601 55.7495 179.3 55.7387H181.077V55.5667C181.077 55.194 180.955 54.9074 180.719 54.7067C180.479 54.4989 180.131 54.3914 179.672 54.3914C179.106 54.3914 178.529 54.5885 177.938 54.979L177.422 54.1047C177.87 53.8395 178.271 53.646 178.626 53.5314C178.988 53.4167 179.429 53.3594 179.945 53.3594C180.697 53.3594 181.281 53.5421 181.693 53.904C182.102 54.2695 182.31 54.7748 182.31 55.4234L182.324 59.2647H181.077ZM179.414 58.3187C179.852 58.3187 180.231 58.2148 180.547 58.0034C180.862 57.7955 181.038 57.5268 181.077 57.2007V56.6704H179.486C179.063 56.6704 178.755 56.7349 178.554 56.8567C178.361 56.9714 178.268 57.1685 178.268 57.4444C178.268 57.7131 178.368 57.9281 178.569 58.0894C178.777 58.2435 179.06 58.3187 179.414 58.3187Z" fill="url(#paint15_linear_1994_5341)"/>
<path d="M188.404 57.9144L188.719 58.8891C188.239 59.1758 187.762 59.3191 187.286 59.3191C186.805 59.3191 186.411 59.1758 186.096 58.8891C185.788 58.6024 185.637 58.1796 185.637 57.6134V54.5748H184.82V53.6288H185.637V52.0234H186.899V53.6288H188.633V54.5748H186.899V57.3841C186.899 57.6708 186.945 57.8786 187.042 58.0004C187.146 58.1151 187.307 58.1724 187.529 58.1724C187.759 58.1724 188.049 58.0864 188.404 57.9144Z" fill="url(#paint16_linear_1994_5341)"/>
<path d="M191.373 51.1837C191.516 51.0404 191.691 50.9688 191.903 50.9688C192.111 50.9688 192.29 51.0404 192.433 51.1837C192.577 51.3271 192.648 51.5134 192.648 51.7427C192.648 51.9649 192.577 52.1441 192.433 52.2874C192.29 52.4308 192.111 52.5024 191.903 52.5024C191.691 52.5024 191.516 52.4308 191.373 52.2874C191.236 52.1441 191.172 51.9649 191.172 51.7427C191.172 51.5134 191.236 51.3271 191.373 51.1837ZM192.534 59.2677H191.272V53.4054H192.534V59.2677Z" fill="url(#paint17_linear_1994_5341)"/>
<path d="M198.303 53.3594C199.21 53.3594 199.944 53.6389 200.51 54.1907C201.073 54.7354 201.356 55.452 201.356 56.3407C201.356 57.2222 201.073 57.9389 200.51 58.4907C199.944 59.0354 199.21 59.3077 198.303 59.3077C197.393 59.3077 196.658 59.0354 196.096 58.4907C195.529 57.9389 195.25 57.2222 195.25 56.3407C195.25 55.452 195.529 54.7354 196.096 54.1907C196.658 53.6389 197.393 53.3594 198.303 53.3594ZM198.303 54.4487C197.776 54.4487 197.346 54.6279 197.013 54.979C196.676 55.3338 196.511 55.7889 196.511 56.3407C196.511 56.914 196.676 57.3799 197.013 57.731C197.346 58.075 197.776 58.247 198.303 58.247C198.837 58.247 199.267 58.075 199.593 57.731C199.926 57.3799 200.095 56.914 200.095 56.3407C200.095 55.7889 199.926 55.3338 199.593 54.979C199.256 54.6279 198.826 54.4487 198.303 54.4487Z" fill="url(#paint18_linear_1994_5341)"/>
<path d="M207.48 53.3594C208.168 53.3594 208.702 53.56 209.086 53.9614C209.466 54.3627 209.659 54.9181 209.659 55.624V59.2647H208.398V55.968C208.398 55.5309 208.272 55.1869 208.025 54.936C207.774 54.678 207.43 54.549 206.993 54.549C206.513 54.5598 206.126 54.7139 205.832 55.0077C205.535 55.3051 205.366 55.6885 205.33 56.1544V59.2647H204.055V53.4024H205.33V54.5347C205.721 53.7535 206.438 53.3594 207.48 53.3594Z" fill="url(#paint19_linear_1994_5341)"/>
<path d="M214.49 53.3594C215.3 53.3594 215.984 53.5565 216.54 53.947L216.081 54.8787C215.526 54.5347 214.963 54.3627 214.39 54.3627C213.824 54.3627 213.544 54.5598 213.544 54.9504C213.544 55.1439 213.648 55.3015 213.859 55.4234C214.067 55.5488 214.325 55.6527 214.633 55.7387C214.938 55.8247 215.243 55.925 215.551 56.0397C215.855 56.1472 216.113 56.3264 216.325 56.5844C216.533 56.8424 216.64 57.172 216.64 57.5734C216.64 58.1395 216.425 58.5695 215.995 58.8634C215.565 59.1608 215.028 59.3077 214.39 59.3077C213.949 59.3077 213.519 59.236 213.1 59.0927C212.677 58.9494 212.326 58.7487 212.039 58.4907L212.498 57.5877C212.745 57.8099 213.05 57.9855 213.415 58.118C213.777 58.2542 214.121 58.3187 214.447 58.3187C214.734 58.3187 214.963 58.2685 215.135 58.161C215.314 58.0571 215.407 57.8995 215.407 57.688C215.407 57.4695 215.3 57.2939 215.092 57.1577C214.881 57.0251 214.623 56.9212 214.318 56.8424C214.021 56.7671 213.72 56.6775 213.415 56.57C213.118 56.4554 212.863 56.2762 212.655 56.0254C212.444 55.7674 212.34 55.4449 212.34 55.0507C212.34 54.4881 212.544 54.0689 212.956 53.7894C213.376 53.5027 213.888 53.3594 214.49 53.3594Z" fill="url(#paint20_linear_1994_5341)"/>
<mask id="mask1_1994_5341" style="mask-type:luminance" maskUnits="userSpaceOnUse" x="33" y="40" width="6" height="9">
<path d="M33.0156 40.875H38.5196V48.443H33.0156V40.875Z" fill="white"/>
</mask>
<g mask="url(#mask1_1994_5341)">
<path d="M34.2322 48.671C34.0925 48.671 33.9563 48.6316 33.838 48.542C33.537 48.3234 33.4725 47.9006 33.6947 47.6031C35.0313 45.7936 36.006 43.769 36.6044 41.5939C36.7011 41.2356 37.0738 41.0241 37.4321 41.1281C37.794 41.2248 38.0019 41.5939 37.9015 41.9558C37.2565 44.285 36.2066 46.4565 34.7733 48.4058C34.6443 48.5742 34.4436 48.671 34.2322 48.671Z" fill="url(#paint21_linear_1994_5341)"/>
</g>
<path d="M30.179 47.4365C30.032 47.4365 29.8887 47.39 29.7669 47.3004C29.473 47.071 29.4229 46.6518 29.6486 46.358C31.7915 43.5916 32.9704 40.1373 32.9704 36.64V35.9197C32.9704 34.3574 34.2102 33.0602 35.7367 33.0315C36.4928 33.0208 37.2202 33.3039 37.7649 33.8378C38.3095 34.3717 38.607 35.0884 38.607 35.848V36.751C38.607 37.5465 38.5568 38.3492 38.4636 39.1411C38.417 39.5102 38.0838 39.7754 37.7147 39.7288C37.342 39.6822 37.0805 39.3454 37.127 38.9763C37.2202 38.2417 37.2596 37.4892 37.2596 36.751V35.8445C37.2596 35.4431 37.1055 35.074 36.8189 34.7945C36.5358 34.5186 36.1595 34.3574 35.7582 34.3717C34.9627 34.3896 34.3141 35.0812 34.3141 35.9161V36.6364C34.3141 40.4311 33.0313 44.1757 30.7093 47.175C30.5731 47.3434 30.3796 47.4365 30.179 47.4365Z" fill="url(#paint22_linear_1994_5341)"/>
<mask id="mask2_1994_5341" style="mask-type:luminance" maskUnits="userSpaceOnUse" x="34" y="30" width="8" height="19">
<path d="M34.8516 30.7812H41.2729V48.4399H34.8516V30.7812Z" fill="white"/>
</mask>
<g mask="url(#mask2_1994_5341)">
<path d="M36.7335 48.6635C36.6224 48.6635 36.5042 48.6349 36.3967 48.574C36.0777 48.3876 35.9631 47.9755 36.153 47.653L36.325 47.3592C38.2564 44.0339 39.2741 40.2463 39.2741 36.4014V35.8424C39.2741 33.9611 37.744 32.3952 35.8592 32.3594C35.4901 32.3558 35.1927 32.0476 35.2034 31.675C35.207 31.3095 35.5116 31.0156 35.8771 31.0156C35.8807 31.0156 35.8878 31.0156 35.8914 31.0156C38.5037 31.0694 40.625 33.2337 40.625 35.8424V36.4014C40.625 40.4828 39.5392 44.5033 37.4896 48.0329L37.3212 48.3267C37.1922 48.5417 36.9664 48.6635 36.7335 48.6635Z" fill="url(#paint23_linear_1994_5341)"/>
</g>
<path d="M28.4376 46.3155C28.2979 46.3155 28.1617 46.2725 28.0363 46.1829C27.7389 45.9607 27.6779 45.5379 27.8965 45.2405L28.4018 44.5596C30.0537 42.3451 30.9639 39.5967 30.9639 36.8304V35.9417C30.9639 34.3579 31.7343 32.8529 33.0243 31.9248C33.3289 31.7062 33.7445 31.7743 33.9667 32.0789C34.1817 32.3799 34.1172 32.7991 33.8126 33.0177C32.8702 33.6986 32.3112 34.7951 32.3112 35.9453V36.834C32.3112 39.887 31.3079 42.9221 29.4875 45.3695L28.9823 46.0467C28.8497 46.2223 28.6419 46.3155 28.4376 46.3155Z" fill="url(#paint24_linear_1994_5341)"/>
<mask id="mask3_1994_5341" style="mask-type:luminance" maskUnits="userSpaceOnUse" x="28" y="28" width="16" height="21">
<path d="M28.4375 28.9453H43.1148V48.4386H28.4375V28.9453Z" fill="white"/>
</mask>
<g mask="url(#mask3_1994_5341)">
<path d="M39.2684 48.3591C39.1716 48.3591 39.0677 48.3376 38.9745 48.2946C38.6413 48.1298 38.5015 47.7285 38.6628 47.3916L38.9745 46.7502C40.4939 43.622 41.2894 40.1318 41.2894 36.6595V35.8461C41.2894 32.8791 38.8778 30.4138 35.9036 30.3565C34.4559 30.3206 33.0728 30.8868 32.0121 31.926C30.9299 32.9902 30.31 34.463 30.31 35.968V36.6703C30.31 37.3941 30.2419 38.1251 30.1201 38.8382C30.052 39.2037 29.7009 39.4474 29.3354 39.3829C28.9699 39.3184 28.7298 38.9672 28.7907 38.6017C28.9054 37.9639 28.9627 37.3117 28.9627 36.6631V35.9644C28.9627 34.0975 29.7259 32.2771 31.0697 30.9656C32.3919 29.6685 34.1155 28.9733 35.9323 29.0091C39.6231 29.0808 42.6331 32.1481 42.6331 35.8461V36.6595C42.6331 40.336 41.7839 44.0305 40.1785 47.3379L39.8668 47.9793C39.7593 48.2194 39.5156 48.3591 39.2684 48.3591Z" fill="url(#paint25_linear_1994_5341)"/>
</g>
<path d="M27.001 44.8109C26.872 44.8109 26.7394 44.775 26.6248 44.6962C26.3166 44.4919 26.2342 44.0691 26.4456 43.7609L27.0691 42.8364C27.5349 42.1413 27.9255 41.3888 28.2265 40.604C28.3591 40.2529 28.7461 40.0844 29.0937 40.217C29.4377 40.3496 29.6133 40.7366 29.4807 41.0878C29.1474 41.9657 28.7103 42.8078 28.1799 43.5854L27.5564 44.5134C27.4274 44.7069 27.216 44.8109 27.001 44.8109Z" fill="url(#paint26_linear_1994_5341)"/>
<path d="M41.9559 47.2315C41.8627 47.2315 41.7731 47.21 41.68 47.1706C41.3396 47.0165 41.1891 46.6187 41.3396 46.2783L41.4184 46.1135C42.6618 43.3472 43.2889 40.4017 43.2889 37.3666V35.8437C43.2889 34.181 42.7586 32.6079 41.7516 31.2928C41.5259 30.999 41.5832 30.5762 41.8735 30.3504C42.1673 30.1247 42.5901 30.1784 42.8159 30.4722C44.0056 32.0274 44.6326 33.8836 44.6326 35.8365V37.3666C44.6326 40.5916 43.9626 43.7234 42.6403 46.6653L42.5651 46.8302C42.4611 47.081 42.2139 47.2315 41.9559 47.2315Z" fill="url(#paint27_linear_1994_5341)"/>
<path d="M25.6072 43.2407C25.4782 43.2407 25.3457 43.2048 25.231 43.126C24.9228 42.9218 24.8476 42.4989 25.0518 42.1908L25.4424 41.6103C26.4242 40.159 26.9438 38.4677 26.9438 36.7118V35.9773C26.9438 31.1075 30.8425 27.0798 35.637 27.001C37.5863 26.9723 39.4389 27.5564 41.0012 28.7067C41.2987 28.9253 41.3667 29.3445 41.1446 29.6455C40.926 29.9429 40.5067 30.011 40.2057 29.7888C38.8763 28.8178 37.3032 28.3125 35.6513 28.3483C31.5878 28.4164 28.2804 31.8421 28.2804 35.9844V36.719C28.2804 38.74 27.6856 40.6929 26.5532 42.3663L26.1627 42.9433C26.0337 43.1332 25.8222 43.2407 25.6072 43.2407Z" fill="url(#paint28_linear_1994_5341)"/>
<path d="M44.9612 44.9457C44.8895 44.9457 44.8143 44.9349 44.7426 44.9098C44.395 44.7916 44.2051 44.4046 44.3233 44.057C44.9683 42.1578 45.298 40.1727 45.298 38.166V35.8476C45.298 33.2855 44.2947 30.8847 42.4708 29.0823C40.6791 27.3157 38.3105 26.341 35.795 26.341C35.752 26.341 35.7126 26.341 35.666 26.341C34.8633 26.3518 34.0714 26.4664 33.3046 26.6778C32.9427 26.7746 32.5736 26.5632 32.4768 26.2084C32.3801 25.8465 32.5879 25.4774 32.9427 25.3807C33.8206 25.137 34.7308 25.008 35.6445 25.0008C38.5721 24.965 41.3277 26.0758 43.4132 28.1255C45.4951 30.1823 46.6418 32.9272 46.6418 35.8476V38.166C46.6418 40.3232 46.287 42.4517 45.5918 44.487C45.4987 44.7701 45.2371 44.9457 44.9612 44.9457Z" fill="url(#paint29_linear_1994_5341)"/>
<path d="M24.5172 41.0941C24.4133 41.0941 24.3094 41.0726 24.2126 41.0224C23.8794 40.8576 23.7504 40.4527 23.9152 40.1158L24.2592 39.4278C24.7071 38.5428 24.9436 37.5502 24.9436 36.5576V35.995C24.9436 31.9781 27.108 28.2801 30.5981 26.3415C30.9206 26.1623 31.3327 26.2806 31.5119 26.6031C31.6911 26.9292 31.5728 27.3413 31.2503 27.5204C28.1901 29.2225 26.2874 32.4726 26.2874 36.0022V36.5612C26.2874 37.7652 25.9971 38.9656 25.4596 40.0406L25.112 40.7286C25.001 40.9543 24.7645 41.0941 24.5172 41.0941Z" fill="url(#paint30_linear_1994_5341)"/>
<mask id="mask4_1994_5341" style="mask-type:luminance" maskUnits="userSpaceOnUse" x="42" y="25" width="7" height="15">
<path d="M42.1875 25.2812H48.3759V39.0413H42.1875V25.2812Z" fill="white"/>
</mask>
<g mask="url(#mask4_1994_5341)">
<path d="M47.8541 38.9665C47.8398 38.9665 47.8183 38.9665 47.8039 38.9665C47.4313 38.9342 47.1554 38.6153 47.1876 38.2462C47.2736 37.0924 47.3059 35.849 47.3059 35.8382C47.3059 32.2943 45.6934 28.9905 42.8912 26.7903C42.5974 26.561 42.5472 26.1381 42.7765 25.8443C43.0094 25.5505 43.4323 25.5003 43.7261 25.7296C46.8508 28.1842 48.646 31.8715 48.646 35.849C48.646 35.9171 48.6174 37.1533 48.5242 38.343C48.4991 38.6977 48.2053 38.9665 47.8541 38.9665Z" fill="url(#paint31_linear_1994_5341)"/>
</g>
<mask id="mask5_1994_5341" style="mask-type:luminance" maskUnits="userSpaceOnUse" x="24" y="22" width="19" height="8">
<path d="M24.7656 22.9844H42.195V29.8644H24.7656V22.9844Z" fill="white"/>
</mask>
<g mask="url(#mask5_1994_5341)">
<path d="M25.8111 29.524C25.6785 29.524 25.5423 29.481 25.4241 29.3985C25.1231 29.1835 25.0514 28.7679 25.2592 28.4633C27.6672 25.034 31.6017 22.9844 35.7907 22.9844C37.8367 22.9844 39.7968 23.4538 41.6064 24.3747C41.9361 24.5431 42.0687 24.9445 41.9002 25.2813C41.7318 25.6074 41.3305 25.7435 40.9937 25.5715C39.374 24.751 37.6217 24.3281 35.7835 24.3281C32.0353 24.3281 28.5129 26.1592 26.3557 29.2337C26.2267 29.42 26.0225 29.524 25.8111 29.524Z" fill="url(#paint32_linear_1994_5341)"/>
</g>
<path d="M23.804 38.3063C23.5102 38.3063 23.2379 38.1092 23.1554 37.819C22.9297 37.0055 22.9297 35.8947 22.9297 35.8481C22.9297 33.9561 23.331 32.1286 24.1229 30.4265C24.2842 30.0933 24.6784 29.9428 25.0188 30.104C25.352 30.2581 25.5025 30.6595 25.3413 30.9963C24.6318 32.5192 24.2734 34.1496 24.2734 35.8481C24.2734 36.1169 24.3021 36.9267 24.4526 37.4535C24.5565 37.8118 24.3451 38.1845 23.9904 38.2812C23.9294 38.2956 23.8649 38.3063 23.804 38.3063Z" fill="url(#paint33_linear_1994_5341)"/>
<mask id="mask6_1994_5341" style="mask-type:luminance" maskUnits="userSpaceOnUse" x="31" y="44" width="3" height="5">
<path d="M31.1875 44.5391H33.9395V48.4377H31.1875V44.5391Z" fill="white"/>
</mask>
<g mask="url(#mask6_1994_5341)">
<path d="M32.0685 48.3537C31.9359 48.3537 31.7961 48.3143 31.6779 48.2319C31.3769 48.0133 31.3088 47.594 31.5238 47.2966C31.8893 46.7842 32.2333 46.2503 32.5486 45.7092C32.735 45.3903 33.1435 45.2792 33.4696 45.4655C33.7885 45.6483 33.8996 46.0604 33.7168 46.3829C33.3836 46.9598 33.0109 47.5331 32.6275 48.0778C32.4877 48.2569 32.2799 48.3537 32.0685 48.3537Z" fill="url(#paint34_linear_1994_5341)"/>
</g>
<path d="M34.2441 44.4837C34.1546 44.4837 34.0686 44.4693 33.979 44.4335C33.6421 44.2902 33.4773 43.8924 33.6242 43.5556C35.4016 39.3774 35.1292 35.941 35.1221 35.9052C35.0934 35.5361 35.3657 35.21 35.7348 35.1813C36.1039 35.1562 36.43 35.4214 36.4586 35.7941C36.4766 35.9482 36.7596 39.5996 34.8605 44.0787C34.753 44.3296 34.4986 44.4837 34.2441 44.4837Z" fill="url(#paint35_linear_1994_5341)"/>
<defs>
<linearGradient id="paint0_linear_1994_5341" x1="31.992" y1="0.0625" x2="31.992" y2="71.4927" gradientUnits="userSpaceOnUse">
<stop stop-color="#F6B17A"/>
<stop offset="1" stop-color="#D6466A"/>
</linearGradient>
<linearGradient id="paint1_linear_1994_5341" x1="64.4101" y1="25.4688" x2="64.4101" y2="44.5751" gradientUnits="userSpaceOnUse">
<stop stop-color="#F6B17A"/>
<stop offset="1" stop-color="#D6466A"/>
</linearGradient>
<linearGradient id="paint2_linear_1994_5341" x1="79.3144" y1="25.8125" x2="79.3144" y2="44.2452" gradientUnits="userSpaceOnUse">
<stop stop-color="#F6B17A"/>
<stop offset="1" stop-color="#D6466A"/>
</linearGradient>
<linearGradient id="paint3_linear_1994_5341" x1="91.9394" y1="25.8125" x2="91.9394" y2="44.2452" gradientUnits="userSpaceOnUse">
<stop stop-color="#F6B17A"/>
<stop offset="1" stop-color="#D6466A"/>
</linearGradient>
<linearGradient id="paint4_linear_1994_5341" x1="107.037" y1="25.8125" x2="107.037" y2="44.2452" gradientUnits="userSpaceOnUse">
<stop stop-color="#F6B17A"/>
<stop offset="1" stop-color="#D6466A"/>
</linearGradient>
<linearGradient id="paint5_linear_1994_5341" x1="122.408" y1="25.8125" x2="122.408" y2="44.2452" gradientUnits="userSpaceOnUse">
<stop stop-color="#F6B17A"/>
<stop offset="1" stop-color="#D6466A"/>
</linearGradient>
<linearGradient id="paint6_linear_1994_5341" x1="137.676" y1="25.8125" x2="137.676" y2="44.2452" gradientUnits="userSpaceOnUse">
<stop stop-color="#F6B17A"/>
<stop offset="1" stop-color="#D6466A"/>
</linearGradient>
<linearGradient id="paint7_linear_1994_5341" x1="163.373" y1="25.8125" x2="163.373" y2="44.2452" gradientUnits="userSpaceOnUse">
<stop stop-color="#F6B17A"/>
<stop offset="1" stop-color="#D6466A"/>
</linearGradient>
<linearGradient id="paint8_linear_1994_5341" x1="184.646" y1="25.8125" x2="184.646" y2="44.2452" gradientUnits="userSpaceOnUse">
<stop stop-color="#F6B17A"/>
<stop offset="1" stop-color="#D6466A"/>
</linearGradient>
<linearGradient id="paint9_linear_1994_5341" x1="201.628" y1="25.8125" x2="201.628" y2="44.2452" gradientUnits="userSpaceOnUse">
<stop stop-color="#F6B17A"/>
<stop offset="1" stop-color="#D6466A"/>
</linearGradient>
<linearGradient id="paint10_linear_1994_5341" x1="140.786" y1="51.5547" x2="140.786" y2="59.266" gradientUnits="userSpaceOnUse">
<stop stop-color="#F6B17A"/>
<stop offset="1" stop-color="#D6466A"/>
</linearGradient>
<linearGradient id="paint11_linear_1994_5341" x1="147.568" y1="53.3594" x2="147.568" y2="59.2647" gradientUnits="userSpaceOnUse">
<stop stop-color="#F6B17A"/>
<stop offset="1" stop-color="#D6466A"/>
</linearGradient>
<linearGradient id="paint12_linear_1994_5341" x1="156.255" y1="53.3594" x2="156.255" y2="59.2647" gradientUnits="userSpaceOnUse">
<stop stop-color="#F6B17A"/>
<stop offset="1" stop-color="#D6466A"/>
</linearGradient>
<linearGradient id="paint13_linear_1994_5341" x1="164.647" y1="53.3594" x2="164.647" y2="59.3077" gradientUnits="userSpaceOnUse">
<stop stop-color="#F6B17A"/>
<stop offset="1" stop-color="#D6466A"/>
</linearGradient>
<linearGradient id="paint14_linear_1994_5341" x1="172.394" y1="53.4062" x2="172.394" y2="59.2686" gradientUnits="userSpaceOnUse">
<stop stop-color="#F6B17A"/>
<stop offset="1" stop-color="#D6466A"/>
</linearGradient>
<linearGradient id="paint15_linear_1994_5341" x1="179.701" y1="53.3594" x2="179.701" y2="59.322" gradientUnits="userSpaceOnUse">
<stop stop-color="#F6B17A"/>
<stop offset="1" stop-color="#D6466A"/>
</linearGradient>
<linearGradient id="paint16_linear_1994_5341" x1="186.77" y1="52.0234" x2="186.77" y2="59.3191" gradientUnits="userSpaceOnUse">
<stop stop-color="#F6B17A"/>
<stop offset="1" stop-color="#D6466A"/>
</linearGradient>
<linearGradient id="paint17_linear_1994_5341" x1="191.91" y1="50.9688" x2="191.91" y2="59.2677" gradientUnits="userSpaceOnUse">
<stop stop-color="#F6B17A"/>
<stop offset="1" stop-color="#D6466A"/>
</linearGradient>
<linearGradient id="paint18_linear_1994_5341" x1="198.303" y1="53.3594" x2="198.303" y2="59.3077" gradientUnits="userSpaceOnUse">
<stop stop-color="#F6B17A"/>
<stop offset="1" stop-color="#D6466A"/>
</linearGradient>
<linearGradient id="paint19_linear_1994_5341" x1="206.857" y1="53.3594" x2="206.857" y2="59.2647" gradientUnits="userSpaceOnUse">
<stop stop-color="#F6B17A"/>
<stop offset="1" stop-color="#D6466A"/>
</linearGradient>
<linearGradient id="paint20_linear_1994_5341" x1="214.34" y1="53.3594" x2="214.34" y2="59.3077" gradientUnits="userSpaceOnUse">
<stop stop-color="#F6B17A"/>
<stop offset="1" stop-color="#D6466A"/>
</linearGradient>
<linearGradient id="paint21_linear_1994_5341" x1="35.7446" y1="41.1016" x2="35.7446" y2="48.671" gradientUnits="userSpaceOnUse">
<stop stop-color="#F6B17A"/>
<stop offset="1" stop-color="#D6466A"/>
</linearGradient>
<linearGradient id="paint22_linear_1994_5341" x1="34.0574" y1="33.0312" x2="34.0574" y2="47.4365" gradientUnits="userSpaceOnUse">
<stop stop-color="#F6B17A"/>
<stop offset="1" stop-color="#D6466A"/>
</linearGradient>
<linearGradient id="paint23_linear_1994_5341" x1="37.9141" y1="31.0156" x2="37.9141" y2="48.6635" gradientUnits="userSpaceOnUse">
<stop stop-color="#F6B17A"/>
<stop offset="1" stop-color="#D6466A"/>
</linearGradient>
<linearGradient id="paint24_linear_1994_5341" x1="30.9293" y1="31.7969" x2="30.9293" y2="46.3155" gradientUnits="userSpaceOnUse">
<stop stop-color="#F6B17A"/>
<stop offset="1" stop-color="#D6466A"/>
</linearGradient>
<linearGradient id="paint25_linear_1994_5341" x1="35.7072" y1="29.0078" x2="35.7072" y2="48.3591" gradientUnits="userSpaceOnUse">
<stop stop-color="#F6B17A"/>
<stop offset="1" stop-color="#D6466A"/>
</linearGradient>
<linearGradient id="paint26_linear_1994_5341" x1="27.9265" y1="40.1719" x2="27.9265" y2="44.8109" gradientUnits="userSpaceOnUse">
<stop stop-color="#F6B17A"/>
<stop offset="1" stop-color="#D6466A"/>
</linearGradient>
<linearGradient id="paint27_linear_1994_5341" x1="42.9569" y1="30.2109" x2="42.9569" y2="47.2315" gradientUnits="userSpaceOnUse">
<stop stop-color="#F6B17A"/>
<stop offset="1" stop-color="#D6466A"/>
</linearGradient>
<linearGradient id="paint28_linear_1994_5341" x1="33.1066" y1="27" x2="33.1066" y2="43.2407" gradientUnits="userSpaceOnUse">
<stop stop-color="#F6B17A"/>
<stop offset="1" stop-color="#D6466A"/>
</linearGradient>
<linearGradient id="paint29_linear_1994_5341" x1="39.5474" y1="25" x2="39.5474" y2="44.9457" gradientUnits="userSpaceOnUse">
<stop stop-color="#F6B17A"/>
<stop offset="1" stop-color="#D6466A"/>
</linearGradient>
<linearGradient id="paint30_linear_1994_5341" x1="27.7197" y1="26.2578" x2="27.7197" y2="41.0941" gradientUnits="userSpaceOnUse">
<stop stop-color="#F6B17A"/>
<stop offset="1" stop-color="#D6466A"/>
</linearGradient>
<linearGradient id="paint31_linear_1994_5341" x1="45.6394" y1="25.5859" x2="45.6394" y2="38.9665" gradientUnits="userSpaceOnUse">
<stop stop-color="#F6B17A"/>
<stop offset="1" stop-color="#D6466A"/>
</linearGradient>
<linearGradient id="paint32_linear_1994_5341" x1="33.557" y1="22.9844" x2="33.557" y2="29.524" gradientUnits="userSpaceOnUse">
<stop stop-color="#F6B17A"/>
<stop offset="1" stop-color="#D6466A"/>
</linearGradient>
<linearGradient id="paint33_linear_1994_5341" x1="24.168" y1="30.0391" x2="24.168" y2="38.3063" gradientUnits="userSpaceOnUse">
<stop stop-color="#F6B17A"/>
<stop offset="1" stop-color="#D6466A"/>
</linearGradient>
<linearGradient id="paint34_linear_1994_5341" x1="32.6016" y1="45.375" x2="32.6016" y2="48.3537" gradientUnits="userSpaceOnUse">
<stop stop-color="#F6B17A"/>
<stop offset="1" stop-color="#D6466A"/>
</linearGradient>
<linearGradient id="paint35_linear_1994_5341" x1="35.0269" y1="35.1797" x2="35.0269" y2="44.4837" gradientUnits="userSpaceOnUse">
<stop stop-color="#F6B17A"/>
<stop offset="1" stop-color="#D6466A"/>
</linearGradient>
</defs>
</svg>
