<svg width="230" height="55" viewBox="0 0 230 55" fill="none" xmlns="http://www.w3.org/2000/svg">
<mask id="mask0_1994_5295" style="mask-type:luminance" maskUnits="userSpaceOnUse" x="0" y="0" width="144" height="55">
<path d="M0 0H143.705V54.6292H0V0Z" fill="white"/>
</mask>
<g mask="url(#mask0_1994_5295)">
<mask id="mask1_1994_5295" style="mask-type:luminance" maskUnits="userSpaceOnUse" x="0" y="0" width="144" height="55">
<path d="M40.4193 0H135.797C138.489 0 140.971 1.43812 142.3 3.77325C143.634 6.1035 143.609 8.96512 142.241 11.2759L123.203 43.3534C119.055 50.3441 111.517 54.6292 103.378 54.6292H7.99971C5.31273 54.6292 2.83094 53.1911 1.49722 50.856C0.168389 48.5258 0.18793 45.6641 1.56073 43.3534L20.5943 11.2759C24.742 4.28512 32.2802 0 40.4193 0Z" fill="white"/>
</mask>
<g mask="url(#mask1_1994_5295)">
<path d="M-5.13281 0H148.836V54.6292H-5.13281V0Z" fill="#6B6B6B"/>
</g>
</g>
<path d="M27.5824 20.3527C31.0853 20.3527 33.9041 21.5324 36.044 23.8822C38.1789 26.2222 39.2488 29.3129 39.2488 33.1447C39.2488 36.9179 38.1984 39.9502 36.1026 42.2512C34.0165 44.5522 31.2416 45.7027 27.7778 45.7027C24.5193 45.7027 21.9837 44.5083 20.1761 42.1147V45.4297H12.2031V11.3047H20.1761V23.9017C22.013 21.5373 24.4802 20.3527 27.5824 20.3527ZM25.6478 39.4042C27.3137 39.4042 28.6621 38.7997 29.6929 37.5907C30.7189 36.3817 31.2367 34.8314 31.2367 32.9302C31.2367 31.0192 30.7189 29.4689 29.6929 28.2697C28.6621 27.0753 27.3137 26.4757 25.6478 26.4757C24.0551 26.4757 22.7459 27.0753 21.7199 28.2697C20.6891 29.4689 20.1761 31.0143 20.1761 32.9107C20.1761 34.8509 20.6744 36.4158 21.6808 37.6102C22.697 38.8094 24.0161 39.4042 25.6478 39.4042Z" fill="white"/>
<path d="M49.1292 45.4297H41.1562V11.3047H49.1292V45.4297Z" fill="white"/>
<path d="M64.2492 20.2734C67.6494 20.2734 70.2924 21.0681 72.1831 22.6524C74.0835 24.2271 75.0459 26.4257 75.0753 29.2434V45.4284H67.2781V42.5814C65.6464 44.7264 63.1158 45.7989 59.6764 45.7989C57.0676 45.7989 54.9962 45.0774 53.4622 43.6344C51.9233 42.1914 51.1562 40.3194 51.1562 38.0184C51.1562 35.6687 51.977 33.8406 53.6185 32.5389C55.26 31.2276 57.6148 30.5597 60.6926 30.5304H67.239V30.1599C67.239 28.9266 66.8287 27.9662 66.0079 27.2739C65.1969 26.5866 63.9951 26.2404 62.3927 26.2404C60.1503 26.2404 57.6734 26.9327 54.9669 28.3074L52.7196 23.0814C56.7452 21.2094 60.5851 20.2734 64.2492 20.2734ZM62.1191 40.4169C63.3796 40.4169 64.4886 40.1049 65.4412 39.4809C66.389 38.8472 66.9899 38.0184 67.239 37.0044V34.8009H62.2168C59.8181 34.8009 58.6212 35.6931 58.6212 37.4724C58.6212 38.3987 58.9241 39.1202 59.5396 39.6369C60.1503 40.1586 61.0101 40.4169 62.1191 40.4169Z" fill="white"/>
<path d="M88.9522 20.3516C91.4144 20.3516 93.6031 20.8391 95.5182 21.8141C97.443 22.7793 98.9429 24.1492 100.013 25.9286L94.3066 29.3801C93.0657 27.6641 91.3949 26.8061 89.2844 26.8061C87.7455 26.8061 86.4899 27.3862 85.5129 28.5416C84.5455 29.6872 84.0668 31.1887 84.0668 33.0461C84.0668 34.9571 84.5407 36.4927 85.4933 37.6481C86.4411 38.7937 87.7064 39.3641 89.2844 39.3641C91.6147 39.3641 93.3002 38.4281 94.3457 36.5561L100.15 39.9491C99.1432 41.7967 97.6678 43.2202 95.7136 44.2196C93.7594 45.2092 91.4731 45.7016 88.8545 45.7016C85.0243 45.7016 81.927 44.5462 79.5722 42.2306C77.2272 39.9198 76.0547 36.8778 76.0547 33.1046C76.0547 29.2972 77.237 26.2211 79.6113 23.8811C81.9954 21.5313 85.1074 20.3516 88.9522 20.3516Z" fill="white"/>
<path d="M112.271 35.8552L109.614 38.6632V45.4297H101.641V11.3047H109.614V29.3227L117.821 20.6452H126.849L117.723 30.1612L127.123 45.4297H117.665L112.271 35.8552Z" fill="white"/>
<path d="M152.689 38.5909L154.271 44.1094C152.327 45.2404 150.114 45.8059 147.627 45.8059C145.165 45.8059 143.172 45.1234 141.648 43.7584C140.133 42.3934 139.381 40.4532 139.381 37.9279V26.9884H135.922V21.7819H139.381V14.8984H147.295V21.7429H153.802V26.9884H147.295V36.6994C147.295 37.6501 147.481 38.3472 147.862 38.7859C148.253 39.2296 148.829 39.4392 149.601 39.4099C150.344 39.4099 151.37 39.1369 152.689 38.5909Z" fill="#6B6B6B"/>
<path d="M166.515 20.3516C170.824 20.3516 174.063 21.6727 176.227 24.3101C178.386 26.9523 179.334 30.5696 179.06 35.1716H161.59C161.991 36.6438 162.694 37.7797 163.701 38.5841C164.717 39.3787 165.968 39.7736 167.453 39.7736C169.72 39.7736 171.698 38.9302 173.393 37.2386L177.595 41.3336C174.908 44.2488 171.293 45.7016 166.749 45.7016C162.724 45.7016 159.519 44.5511 157.135 42.2501C154.76 39.9491 153.578 36.9022 153.578 33.1046C153.578 29.2728 154.76 26.1918 157.135 23.8616C159.519 21.5216 162.645 20.3516 166.515 20.3516ZM161.453 30.9011H171.42C171.42 29.3947 170.975 28.1808 170.091 27.2546C169.216 26.3332 168.059 25.8701 166.612 25.8701C165.254 25.8701 164.116 26.3283 163.193 27.2351C162.279 28.1467 161.698 29.3703 161.453 30.9011Z" fill="#6B6B6B"/>
<path d="M191.601 20.3516C194.063 20.3516 196.252 20.8391 198.167 21.8141C200.091 22.7793 201.591 24.1492 202.661 25.9286L196.955 29.3801C195.714 27.6641 194.043 26.8061 191.933 26.8061C190.394 26.8061 189.138 27.3862 188.161 28.5416C187.194 29.6872 186.715 31.1887 186.715 33.0461C186.715 34.9571 187.189 36.4927 188.142 37.6481C189.09 38.7937 190.355 39.3641 191.933 39.3641C194.263 39.3641 195.949 38.4281 196.994 36.5561L202.798 39.9491C201.792 41.7967 200.316 43.2202 198.362 44.2196C196.408 45.2092 194.122 45.7016 191.503 45.7016C187.673 45.7016 184.575 44.5462 182.221 42.2306C179.876 39.9198 178.703 36.8778 178.703 33.1046C178.703 29.2972 179.885 26.2211 182.26 23.8811C184.644 21.5313 187.756 20.3516 191.601 20.3516Z" fill="#6B6B6B"/>
<path d="M220.614 20.2747C223.35 20.2747 225.544 21.1424 227.2 22.8682C228.851 24.5988 229.681 26.9047 229.681 29.7907V45.4297H221.708V31.9942C221.708 30.5512 221.318 29.4153 220.536 28.5817C219.754 27.7383 218.684 27.3142 217.331 27.3142C215.792 27.3142 214.561 27.8699 213.638 28.9717C212.724 30.0637 212.27 31.4774 212.27 33.2032V45.4297H204.297V11.3047H212.27V24.7207C214.014 21.8103 216.794 20.3283 220.614 20.2747Z" fill="#6B6B6B"/>
</svg>
