<svg width="141" height="113" viewBox="0 0 141 113" fill="none" xmlns="http://www.w3.org/2000/svg">
<path d="M12.2751 99.5228C9.95511 99.5228 7.67048 99.2397 5.42417 98.6797C3.17491 98.1198 1.36783 97.3805 0 96.4651L2.91254 89.3681C4.1772 90.208 5.67769 90.8749 7.41696 91.3688C9.16213 91.8564 10.8837 92.0986 12.5817 92.0986C14.1529 92.0986 15.2702 91.9288 15.9305 91.5827C16.5968 91.2398 16.9328 90.7365 16.9328 90.0727C16.9328 89.4184 16.5319 88.9591 15.7301 88.6886C14.9283 88.4117 13.6577 88.1475 11.9214 87.8958C9.70454 87.6033 7.81788 87.2226 6.26137 86.7507C4.71077 86.2726 3.37536 85.4012 2.25221 84.1334C1.1261 82.8593 0.566 81.0725 0.566 78.7729C0.566 76.8854 1.09073 75.2055 2.14608 73.727C3.20733 72.2516 4.75204 71.0845 6.78021 70.2288C8.80838 69.3731 11.2375 68.9453 14.0675 68.9453C16.0779 68.9453 18.0766 69.1655 20.0576 69.5996C22.0386 70.0369 23.6924 70.6566 25.0219 71.462L22.1094 78.5086C19.6479 77.049 16.9859 76.3191 14.1264 76.3191C12.5847 76.3191 11.4556 76.5142 10.7422 76.898C10.0259 77.2755 9.66917 77.7757 9.66917 78.3954C9.66917 79.0843 10.0612 79.5656 10.8483 79.8425C11.6325 80.113 12.9296 80.393 14.7396 80.6856C17.0183 81.0473 18.9079 81.4657 20.4114 81.9439C21.9119 82.4158 23.2178 83.2777 24.3262 84.5361C25.4346 85.7944 25.9888 87.5529 25.9888 89.8085C25.9888 91.6645 25.4582 93.3287 24.397 94.8041C23.3416 96.2732 21.7822 97.4277 19.7157 98.2645C17.6551 99.1013 15.1759 99.5228 12.2751 99.5228Z" fill="#449EBB"/>
<path d="M62.1179 68.9453C65.5286 68.9453 68.2495 70.0401 70.2777 72.2296C72.3059 74.4128 73.32 77.7033 73.32 82.1075V99.0321H63.6036V83.7936C63.6036 81.7237 63.2322 80.1948 62.4952 79.2133C61.7641 78.2318 60.7324 77.7411 59.4058 77.7411C57.9348 77.7411 56.7556 78.2884 55.8683 79.3769C54.9869 80.4685 54.5476 82.1264 54.5476 84.3473V99.0321H44.8195V83.7936C44.8195 79.7607 43.4222 77.7411 40.6335 77.7411C39.13 77.7411 37.9361 78.2884 37.0488 79.3769C36.1585 80.4685 35.7163 82.1264 35.7163 84.3473V99.0321H26V69.4361H35.2565V72.5567C36.2764 71.3487 37.4969 70.449 38.9119 69.8513C40.3269 69.2473 41.8716 68.9453 43.546 68.9453C45.4857 68.9453 47.225 69.3291 48.7579 70.0904C50.2967 70.8548 51.5437 72.0219 52.4959 73.5886C53.5866 72.0974 54.9662 70.9524 56.6348 70.1533C58.3092 69.348 60.1369 68.9453 62.1179 68.9453Z" fill="#449EBB"/>
<path d="M87.079 68.9453C91.6836 68.9453 95.1976 70.0652 97.6207 72.3051C100.041 74.5449 101.253 77.977 101.253 82.5982V99.0321H92.1966V95.2067C90.7963 98.0852 88.0695 99.5228 84.0132 99.5228C81.8582 99.5228 79.9952 99.1233 78.4239 98.3274C76.8586 97.5221 75.6765 96.4399 74.8746 95.0809C74.0728 93.7156 73.6719 92.1553 73.6719 90.3999C73.6719 87.6001 74.6771 85.4263 76.6905 83.8817C78.701 82.3403 81.8081 81.5664 86.006 81.5664H91.5245C91.3594 78.43 89.3961 76.8602 85.6404 76.8602C84.3109 76.8602 82.9637 77.093 81.5959 77.5523C80.2339 78.0053 79.0784 78.6313 78.1291 79.4272L74.851 72.3931C76.384 71.2953 78.25 70.449 80.4521 69.8513C82.6512 69.2473 84.8622 68.9453 87.079 68.9453ZM86.7252 92.9669C87.8484 92.9669 88.836 92.6775 89.685 92.0986C90.5399 91.5198 91.153 90.6641 91.5245 89.5316V86.9646H87.3384C84.5084 86.9646 83.0934 87.9682 83.0934 89.9721C83.0934 90.8781 83.4147 91.6048 84.0603 92.149C84.703 92.6964 85.5932 92.9669 86.7252 92.9669Z" fill="#449EBB"/>
<path d="M112.452 72.9846C113.442 71.6444 114.728 70.6378 116.308 69.9646C117.894 69.2851 119.715 68.9453 121.767 68.9453V78.2821C120.877 78.1752 120.143 78.1186 119.562 78.1186C117.478 78.1186 115.848 78.7226 114.669 79.9306C113.495 81.1323 112.912 82.9694 112.912 85.4421V99.0321H103.195V69.4361H112.452V72.9846Z" fill="#449EBB"/>
<path d="M140.785 97.835C139.965 98.3823 138.969 98.7976 137.79 99.0807C136.616 99.3733 135.367 99.5211 134.04 99.5211C130.423 99.5211 127.64 98.5774 125.691 96.6899C123.749 94.7961 122.779 91.9711 122.779 88.2213V78.2805H118.734V70.5291H122.779V62.8281H132.507V70.5291H138.851V78.2805H132.507V88.108C132.507 89.165 132.769 89.9955 133.297 90.5995C133.822 91.1973 134.529 91.493 135.42 91.493C136.543 91.493 137.533 91.1847 138.391 90.5618L140.785 97.835Z" fill="#449EBB"/>
<mask id="mask0_1994_5219" style="mask-type:luminance" maskUnits="userSpaceOnUse" x="40" y="0" width="61" height="66">
<path d="M40.4531 0H100.072V65.836H40.4531V0Z" fill="white"/>
</mask>
<g mask="url(#mask0_1994_5219)">
<path fill-rule="evenodd" clip-rule="evenodd" d="M86.5659 65.8297H53.7704C46.545 65.8297 40.6875 59.5821 40.6875 51.9283V29.2563C40.6875 21.5553 46.545 15.3076 53.7704 15.3076H68.7605L68.8047 9.97858C66.8503 9.34942 65.3969 7.41158 65.3969 5.08681C65.3969 2.27758 67.5784 0 70.2138 0C72.8463 0 75.0278 2.27758 75.0278 5.08681C75.0278 7.41158 73.5302 9.3966 71.5316 10.0258L71.4844 15.3076H86.5659C93.7441 15.3076 99.6046 21.5553 99.6046 29.2563V51.9755C99.6046 59.6293 93.7441 65.8297 86.5659 65.8297ZM57.8562 43.8372C53.9973 43.8372 50.9521 40.5938 50.9521 36.5231C50.9521 32.4052 53.9973 29.1619 57.8562 29.1619C61.7179 29.1619 64.716 32.4052 64.716 36.5231C64.716 40.5938 61.7179 43.8372 57.8562 43.8372ZM57.8562 32.0686C55.4949 32.0686 53.679 34.0033 53.679 36.5231C53.679 38.9926 55.4949 40.9304 57.8562 40.9304C60.1732 40.9304 62.0363 38.9926 62.0363 36.5231C62.0363 34.0033 60.1732 32.0686 57.8562 32.0686ZM82.5243 43.5478C78.6626 43.5478 75.5731 40.2541 75.5731 36.1834C75.5731 32.1158 78.6626 28.8221 82.5243 28.8221C86.2947 28.8221 89.3841 32.1158 89.3841 36.1834C89.3841 40.2541 86.2947 43.5478 82.5243 43.5478ZM82.5243 31.7289C80.1601 31.7289 78.3 33.7611 78.3 36.1834C78.3 38.656 80.1601 40.6882 82.5243 40.6882C84.8414 40.6882 86.6573 38.656 86.6573 36.1834C86.6573 33.6667 84.7942 31.7289 82.5243 31.7289ZM69.6685 52.3624C67.0773 52.3624 64.8074 51.0569 63.5368 49.8929C62.9443 49.3613 62.9001 48.3924 63.3983 47.8576C63.8994 47.2787 64.716 47.1812 65.3085 47.7632C65.7153 48.1501 69.6685 51.491 73.4389 47.8104C73.9842 47.2787 74.8008 47.2787 75.3904 47.8576C75.8915 48.4899 75.8915 49.3613 75.3462 49.9433C73.4389 51.686 71.4844 52.3624 69.6685 52.3624Z" fill="#449EBB"/>
</g>
<mask id="mask1_1994_5219" style="mask-type:luminance" maskUnits="userSpaceOnUse" x="31" y="26" width="8" height="25">
<path d="M31.4219 26.9922H38.1873V50.3469H31.4219V26.9922Z" fill="white"/>
</mask>
<g mask="url(#mask1_1994_5219)">
<path fill-rule="evenodd" clip-rule="evenodd" d="M37.9633 50.2895H37.4179C34.1487 50.2895 31.4219 47.4331 31.4219 43.8972V34.013C31.4219 30.4771 34.1487 27.5703 37.4179 27.5703H38.0547C38.0075 28.1051 37.9633 28.6871 37.9633 29.2659V50.2895Z" fill="#449EBB"/>
</g>
<mask id="mask2_1994_5219" style="mask-type:luminance" maskUnits="userSpaceOnUse" x="101" y="26" width="8" height="25">
<path d="M101.578 26.9922H108.963V50.3469H101.578V26.9922Z" fill="white"/>
</mask>
<g mask="url(#mask2_1994_5219)">
<path fill-rule="evenodd" clip-rule="evenodd" d="M102.871 50.2898H102.326V29.2662C102.326 28.6371 102.282 28.0551 102.234 27.5234H102.871C106.232 27.5234 108.959 30.383 108.959 33.9661V43.8975C108.959 47.4806 106.232 50.2898 102.871 50.2898Z" fill="#449EBB"/>
</g>
<path d="M20.8574 107.802H19.2891V106.82H23.5576V107.802H21.9894V112.042H20.8574V107.802Z" fill="#EF0A33"/>
<path d="M33.5625 111.073V112.042H29.7656V106.82H33.4682V107.789H30.8976V108.922H33.1616V109.865H30.8976V111.073H33.5625Z" fill="#EF0A33"/>
<path d="M42.4031 112.133C41.899 112.133 41.448 112.019 41.0471 111.793C40.6462 111.56 40.3278 111.236 40.092 110.824C39.862 110.415 39.75 109.949 39.75 109.427C39.75 108.918 39.862 108.455 40.092 108.043C40.3278 107.634 40.6462 107.313 41.0471 107.087C41.448 106.854 41.899 106.734 42.4031 106.734C42.8276 106.734 43.2109 106.816 43.5587 106.973C43.9036 107.134 44.1896 107.36 44.4195 107.653L43.7002 108.37C43.3612 107.968 42.9485 107.766 42.4621 107.766C42.1614 107.766 41.8902 107.839 41.6485 107.98C41.4126 108.115 41.2269 108.314 41.0943 108.572C40.9586 108.823 40.8938 109.109 40.8938 109.427C40.8938 109.754 40.9586 110.044 41.0943 110.295C41.2269 110.547 41.4126 110.745 41.6485 110.887C41.8902 111.032 42.1614 111.101 42.4621 111.101C42.9485 111.101 43.3612 110.896 43.7002 110.484L44.4195 111.201C44.1896 111.503 43.9036 111.736 43.5587 111.894C43.2109 112.051 42.8276 112.133 42.4031 112.133Z" fill="#EF0A33"/>
<path d="M55.2739 106.82V112.042H54.1419V109.903H51.9132V112.042H50.7812V106.82H51.9132V108.884H54.1419V106.82H55.2739Z" fill="#EF0A33"/>
<path d="M66.5239 106.82V112.042H65.5923L63.1515 108.871V112.042H62.0312V106.82H62.9746L65.4037 109.991V106.82H66.5239Z" fill="#EF0A33"/>
<path d="M75.6455 112.133C75.1414 112.133 74.6844 112.016 74.2776 111.78C73.8679 111.547 73.5465 111.227 73.3107 110.824C73.0808 110.415 72.9688 109.949 72.9688 109.427C72.9688 108.918 73.0808 108.458 73.3107 108.056C73.5465 107.647 73.8679 107.323 74.2776 107.087C74.6844 106.854 75.1414 106.734 75.6455 106.734C76.1554 106.734 76.6124 106.854 77.0133 107.087C77.4201 107.323 77.7385 107.647 77.9684 108.056C78.2043 108.458 78.3222 108.918 78.3222 109.427C78.3222 109.949 78.2043 110.415 77.9684 110.824C77.7385 111.227 77.4201 111.547 77.0133 111.78C76.6124 112.016 76.1554 112.133 75.6455 112.133ZM75.6455 111.101C75.9344 111.101 76.1938 111.032 76.4237 110.887C76.6595 110.745 76.8423 110.547 76.9779 110.295C77.1106 110.044 77.1784 109.754 77.1784 109.427C77.1784 109.109 77.1106 108.823 76.9779 108.572C76.8423 108.314 76.6595 108.115 76.4237 107.98C76.1938 107.839 75.9344 107.766 75.6455 107.766C75.3536 107.766 75.0913 107.839 74.8554 107.98C74.6255 108.115 74.4457 108.314 74.313 108.572C74.1774 108.823 74.1125 109.109 74.1125 109.427C74.1125 109.754 74.1774 110.044 74.313 110.295C74.4457 110.547 74.6255 110.745 74.8554 110.887C75.0913 111.032 75.3536 111.101 75.6455 111.101Z" fill="#EF0A33"/>
<path d="M84.7812 106.82H85.9132V111.061H88.3659V112.042H84.7812V106.82Z" fill="#EF0A33"/>
<path d="M96.9736 112.133C96.4695 112.133 96.0126 112.016 95.6058 111.78C95.196 111.547 94.8747 111.227 94.6388 110.824C94.4089 110.415 94.2969 109.949 94.2969 109.427C94.2969 108.918 94.4089 108.458 94.6388 108.056C94.8747 107.647 95.196 107.323 95.6058 107.087C96.0126 106.854 96.4695 106.734 96.9736 106.734C97.4836 106.734 97.9405 106.854 98.3414 107.087C98.7482 107.323 99.0666 107.647 99.2965 108.056C99.5324 108.458 99.6503 108.918 99.6503 109.427C99.6503 109.949 99.5324 110.415 99.2965 110.824C99.0666 111.227 98.7482 111.547 98.3414 111.78C97.9405 112.016 97.4836 112.133 96.9736 112.133ZM96.9736 111.101C97.2625 111.101 97.5219 111.032 97.7518 110.887C97.9877 110.745 98.1704 110.547 98.306 110.295C98.4387 110.044 98.5065 109.754 98.5065 109.427C98.5065 109.109 98.4387 108.823 98.306 108.572C98.1704 108.314 97.9877 108.115 97.7518 107.98C97.5219 107.839 97.2625 107.766 96.9736 107.766C96.6817 107.766 96.4194 107.839 96.1835 107.98C95.9536 108.115 95.7738 108.314 95.6411 108.572C95.5055 108.823 95.4407 109.109 95.4407 109.427C95.4407 109.754 95.5055 110.044 95.6411 110.295C95.7738 110.547 95.9536 110.745 96.1835 110.887C96.4194 111.032 96.6817 111.101 96.9736 111.101Z" fill="#EF0A33"/>
<path d="M109.417 109.352H110.443V111.466C110.183 111.686 109.877 111.853 109.523 111.969C109.175 112.076 108.827 112.133 108.474 112.133C107.961 112.133 107.501 112.019 107.094 111.793C106.693 111.56 106.375 111.236 106.139 110.824C105.909 110.415 105.797 109.949 105.797 109.427C105.797 108.918 105.909 108.455 106.139 108.043C106.375 107.634 106.696 107.313 107.106 107.087C107.513 106.854 107.972 106.734 108.485 106.734C108.916 106.734 109.305 106.816 109.653 106.973C110.006 107.124 110.301 107.348 110.537 107.64L109.818 108.345C109.464 107.961 109.04 107.766 108.544 107.766C108.229 107.766 107.949 107.839 107.707 107.98C107.471 108.115 107.283 108.307 107.141 108.559C107.006 108.811 106.941 109.1 106.941 109.427C106.941 109.754 107.006 110.044 107.141 110.295C107.283 110.547 107.471 110.745 107.707 110.887C107.949 111.032 108.226 111.101 108.533 111.101C108.863 111.101 109.157 111.025 109.417 110.874V109.352Z" fill="#EF0A33"/>
<path d="M119.441 110.193V112.042H118.309V110.18L116.422 106.82H117.625L118.934 109.136L120.231 106.82H121.351L119.441 110.193Z" fill="#EF0A33"/>
</svg>
