<svg width="90" height="91" viewBox="0 0 90 91" fill="none" xmlns="http://www.w3.org/2000/svg">
<rect y="0.5" width="90" height="90" rx="30" fill="white"/>
<path d="M44.125 20.5C34.958 20.5 27.5 27.958 27.5 37.125C27.5 41.4761 29.9336 44.7266 32.2886 47.8711C34.1685 50.3833 35.939 52.7759 36.25 55.5V61.625C36.25 64.7046 38.5366 67.2544 41.5 67.6816V68.625C41.5 69.5889 42.2861 70.375 43.25 70.375H45C45.9639 70.375 46.75 69.5889 46.75 68.625V67.6816C49.7134 67.2544 52 64.7046 52 61.625V56.2861C52.0137 53.2271 53.9448 50.626 55.9922 47.8711C58.3335 44.7266 60.75 41.4761 60.75 37.125C60.75 27.958 53.292 20.5 44.125 20.5ZM44.125 22.25C52.3281 22.25 59 28.9219 59 37.125C59 40.8984 56.7578 43.9131 54.5908 46.8286C52.6289 49.4673 50.6055 52.1846 50.291 55.4453H45V52.875C45 52.3931 44.6069 52 44.125 52C43.6431 52 43.25 52.3931 43.25 52.875V55.4487H38.0239C37.7061 52.188 35.6655 49.4639 33.6899 46.8218C31.5059 43.9062 29.25 40.895 29.25 37.125C29.25 28.9219 35.9219 22.25 44.125 22.25ZM44.0054 24.8716C41.6675 24.8921 39.3843 25.5791 37.3984 26.8848C36.9951 27.1479 36.8857 27.6914 37.1523 28.0947C37.3198 28.3511 37.5967 28.4878 37.8804 28.4878C38.0479 28.4878 38.2119 28.4434 38.3623 28.3442C40.6284 26.854 43.3525 26.3071 46.0356 26.7993C46.5142 26.8848 46.9688 26.5703 47.0542 26.0952C47.1431 25.6201 46.8286 25.1655 46.3535 25.0801C45.5708 24.9331 44.7881 24.8647 44.0054 24.8716ZM50.127 26.5156C49.792 26.4678 49.4399 26.6216 49.252 26.9292C49.0024 27.3462 49.1357 27.8828 49.5527 28.1323C50.2739 28.5698 50.9473 29.0962 51.5488 29.7012C51.7197 29.8721 51.9453 29.9575 52.1675 29.9575C52.3931 29.9575 52.6187 29.8721 52.7896 29.7012C53.1313 29.3594 53.1313 28.8057 52.7896 28.4639C52.082 27.7598 51.2993 27.1445 50.4551 26.6353C50.3525 26.5737 50.2397 26.5327 50.127 26.5156ZM21.3955 27.0728C21.0537 27.0796 20.7324 27.2847 20.5957 27.6196C20.418 28.0674 20.6333 28.5801 21.0811 28.7578L24.3281 30.0703C24.4341 30.1147 24.5435 30.1353 24.6528 30.1353C24.998 30.1353 25.3296 29.9268 25.4663 29.5884C25.6475 29.1372 25.4287 28.6279 24.981 28.4468L21.7373 27.1343C21.6245 27.0898 21.5083 27.0693 21.3955 27.0728ZM66.8545 27.0728C66.7417 27.0693 66.6255 27.0898 66.5127 27.1343L63.269 28.4468C62.8213 28.6279 62.6025 29.1372 62.7837 29.5884C62.9204 29.9268 63.252 30.1353 63.5972 30.1353C63.7065 30.1353 63.8159 30.1147 63.9219 30.0703L67.1689 28.7578C67.6167 28.5801 67.832 28.0674 67.6543 27.6196C67.5176 27.2847 67.1963 27.0796 66.8545 27.0728ZM17.875 36.25C17.3931 36.25 17 36.6431 17 37.125C17 37.6069 17.3931 38 17.875 38H23.125C23.6069 38 24 37.6069 24 37.125C24 36.6431 23.6069 36.25 23.125 36.25H17.875ZM65.125 36.25C64.6431 36.25 64.25 36.6431 64.25 37.125C64.25 37.6069 64.6431 38 65.125 38H70.375C70.8569 38 71.25 37.6069 71.25 37.125C71.25 36.6431 70.8569 36.25 70.375 36.25H65.125ZM40.625 39.75C40.4028 39.75 40.1772 39.8354 40.0063 40.0063C39.6646 40.3481 39.6646 40.9019 40.0063 41.2437L41.7563 42.9937C41.9272 43.1646 42.1494 43.25 42.375 43.25C42.6006 43.25 42.8228 43.1646 42.9937 42.9937C43.3354 42.6519 43.3354 42.0981 42.9937 41.7563L41.2437 40.0063C41.0728 39.8354 40.8472 39.75 40.625 39.75ZM47.625 39.75C47.4028 39.75 47.1772 39.8354 47.0063 40.0063L43.5063 43.5063C43.3423 43.6704 43.25 43.8926 43.25 44.125V49.375C43.25 49.8569 43.6431 50.25 44.125 50.25C44.6069 50.25 45 49.8569 45 49.375V44.4873L48.2437 41.2437C48.5854 40.9019 48.5854 40.3481 48.2437 40.0063C48.0728 39.8354 47.8472 39.75 47.625 39.75ZM24.6699 44.1147C24.5537 44.1147 24.4375 44.1353 24.3281 44.1797L21.0811 45.4922C20.6333 45.6699 20.418 46.1826 20.5957 46.6304C20.7358 46.9722 21.064 47.1772 21.4092 47.1772C21.5186 47.1772 21.6313 47.1567 21.7373 47.1157L24.981 45.8032C25.4287 45.6221 25.6475 45.1128 25.4663 44.6616C25.3296 44.3267 25.0083 44.1216 24.6699 44.1147ZM63.5801 44.1182C63.2417 44.125 62.9204 44.3301 62.7837 44.665C62.6025 45.1128 62.8213 45.6255 63.269 45.8066L66.5127 47.1157C66.6187 47.1602 66.7314 47.1772 66.8408 47.1772C67.186 47.1772 67.5142 46.9722 67.6543 46.6304C67.832 46.1826 67.6167 45.6733 67.1689 45.4922L63.9219 44.1797C63.8125 44.1353 63.6963 44.1147 63.5801 44.1182ZM38 57.25H50.25V58.2275L38 59.7588V57.25ZM50.25 59.9912V61.625C50.25 61.6592 50.2397 61.6934 50.2397 61.731L41.353 62.8418C40.8745 62.8999 40.5361 63.3374 40.5977 63.8159C40.6523 64.2603 41.0283 64.5815 41.4624 64.5815C41.5 64.5815 41.5342 64.5815 41.5718 64.5747L49.7852 63.5493C49.0708 64.9951 47.5942 66 45.875 66H42.375C39.9619 66 38 64.0381 38 61.625V61.5225L50.25 59.9912ZM43.25 67.75H45V68.625H43.25V67.75Z" fill="#FFA500"/>
</svg>
