<svg width="50" height="50" viewBox="0 0 50 50" fill="none" xmlns="http://www.w3.org/2000/svg">
<rect width="50" height="50" rx="5" fill="#FFA500"/>
<path d="M30.7121 34.6406C30.3966 34.6406 30.1406 34.9031 30.1406 35.2266C30.1406 35.55 30.3966 35.8125 30.7121 35.8125C31.0275 35.8125 31.2835 35.55 31.2835 35.2266C31.2835 34.9031 31.0275 34.6406 30.7121 34.6406Z" fill="white"/>
<path d="M19.2902 34.6406C18.9748 34.6406 18.7188 34.9031 18.7188 35.2266C18.7188 35.55 18.9748 35.8125 19.2902 35.8125C19.6056 35.8125 19.8616 35.55 19.8616 35.2266C19.8616 34.9031 19.6056 34.6406 19.2902 34.6406Z" fill="white"/>
<path d="M35.9511 31.6108C35.3079 30.5901 34.4239 29.7792 33.3885 29.2554C33.3011 29.1723 33.1889 29.1166 33.064 29.1024C32.315 28.7765 31.5255 28.6111 30.7143 28.6111H29V27.0657C29.9921 26.1932 30.7053 25.0375 31.0511 23.7494H31.2857C32.5461 23.7494 33.5714 22.6983 33.5714 21.4064C33.5714 20.7941 33.3409 20.2363 32.9645 19.8184C33.0004 19.7871 33.0355 19.7546 33.0692 19.7201C33.3931 19.3881 33.5714 18.9468 33.5714 18.4776C33.5714 17.7066 33.0842 17.0504 32.409 16.8143C32.2071 14.1208 30.3629 11.819 27.8238 11.0976C27.6733 10.2921 27.0248 9.51562 26.1429 9.51562H23.8571C22.9752 9.51562 22.3267 10.2921 22.1762 11.0976C19.6373 11.819 17.7933 14.1203 17.5911 16.8135C17.3453 16.899 17.1198 17.0415 16.9308 17.2352C16.6069 17.5672 16.4286 18.0084 16.4286 18.4776C16.4286 19.0143 16.6648 19.4954 17.036 19.8179C16.6593 20.2358 16.4286 20.7939 16.4286 21.4064C16.4286 22.6983 17.4539 23.7494 18.7143 23.7494H18.9473C19.236 24.8246 19.7834 25.8118 20.547 26.6272C20.6905 26.7806 20.8426 26.9267 21 27.0653V28.6111H19.2857C18.4744 28.6111 17.6849 28.7765 16.936 29.1023C16.8112 29.1166 16.6989 29.1723 16.6116 29.2554C15.576 29.7792 14.6921 30.5901 14.0489 31.6107C13.3627 32.6994 13 33.951 13 35.2301V38.9203C13 39.2438 13.2558 39.5061 13.5714 39.5061H36.4286C36.7442 39.5061 37 39.2438 37 38.9203V35.2301C37 33.951 36.6373 32.6994 35.9511 31.6108ZM16.4286 38.3346H14.1429V35.2301C14.1429 33.4484 15.0333 31.7407 16.4286 30.727V38.3346ZM31.2857 22.5779H31.2597C31.2767 22.383 31.2857 22.1874 31.2857 21.9921V20.2349C31.9159 20.2349 32.4286 20.7604 32.4286 21.4064C32.4286 22.0523 31.9159 22.5779 31.2857 22.5779ZM22.1429 12.3354V14.9631C22.1429 15.2866 22.3987 15.5489 22.7143 15.5489C23.0299 15.5489 23.2857 15.2866 23.2857 14.9631V11.5694C23.2857 11.5679 23.2857 11.5664 23.2857 11.5649V11.4486C23.2857 11.0857 23.5848 10.6871 23.8571 10.6871H26.1429C26.4152 10.6871 26.7143 11.0857 26.7143 11.4486V11.5649C26.7143 11.5664 26.7143 11.5679 26.7143 11.5694V14.9631C26.7143 15.2866 26.9701 15.5489 27.2857 15.5489C27.6013 15.5489 27.8571 15.2866 27.8571 14.9631V12.3354C29.7023 13.0047 31.0343 14.7163 31.2538 16.7204H18.7462C18.9657 14.7163 20.2977 13.0047 22.1429 12.3354ZM18.7143 22.5779C18.0841 22.5779 17.5714 22.0523 17.5714 21.4064C17.5714 20.7604 18.0841 20.2349 18.7143 20.2349V21.9921C18.7143 22.1874 18.7233 22.3831 18.7403 22.5779H18.7143ZM18.7143 19.0634H18.1429C17.8278 19.0634 17.5714 18.8006 17.5714 18.4776C17.5714 18.3213 17.6309 18.1743 17.7389 18.0636C17.847 17.9528 17.9904 17.8919 18.1429 17.8919H31.8571C32.1722 17.8919 32.4286 18.1546 32.4286 18.4776C32.4286 18.6339 32.3691 18.781 32.2611 18.8916C32.1531 19.0024 32.0096 19.0634 31.8571 19.0634H31.2857H30.7143H19.2857H18.7143ZM19.961 23.0572C19.9598 23.0508 19.9587 23.0445 19.9574 23.0382C19.891 22.6944 19.8571 22.3426 19.8571 21.9921V20.2349H30.1429V21.9921C30.1429 22.3423 30.109 22.6939 30.0426 23.038C30.0413 23.0443 30.0402 23.0507 30.039 23.0571C29.7837 24.3637 29.0769 25.5333 28.0478 26.3514C27.1537 27.0633 26.0998 27.4396 25 27.4396C23.9002 27.4396 22.8463 27.0633 21.9514 26.3508C21.7465 26.1883 21.5515 26.0085 21.3717 25.8162C20.6508 25.0464 20.1633 24.0927 19.961 23.0572ZM24.4286 38.3346H19.8571V36.9874C19.8571 36.6639 19.6013 36.4016 19.2857 36.4016C18.9701 36.4016 18.7143 36.6639 18.7143 36.9874V38.3346H17.5714V30.1033C17.9423 29.9599 18.3243 29.8644 18.7143 29.8173V33.4729C18.7143 33.7964 18.9701 34.0586 19.2857 34.0586C19.6013 34.0586 19.8571 33.7964 19.8571 33.4729V29.7826H21.3266L24.4286 33.1214V38.3346ZM22.1429 28.9626V27.8715C23.0246 28.3574 23.9958 28.6111 25 28.6111C26.0042 28.6111 26.9755 28.3574 27.8571 27.8716V28.9626L25 32.0378L22.1429 28.9626ZM32.4286 38.3346H31.2857V36.9874C31.2857 36.6639 31.0299 36.4016 30.7143 36.4016C30.3987 36.4016 30.1429 36.6639 30.1429 36.9874V38.3346H25.5714V33.1214L28.6734 29.7826H30.1429V33.4729C30.1429 33.7964 30.3987 34.0586 30.7143 34.0586C31.0299 34.0586 31.2857 33.7964 31.2857 33.4729V29.8173C31.6757 29.8644 32.0577 29.96 32.4286 30.1033V38.3346ZM35.8571 38.3346H33.5714V30.7269C34.9667 31.7407 35.8571 33.4484 35.8571 35.2301V38.3346Z" fill="white"/>
</svg>
