<svg width="50" height="50" viewBox="0 0 50 50" fill="none" xmlns="http://www.w3.org/2000/svg">
<rect width="50" height="50" rx="5" fill="#FFA500"/>
<path d="M30.3306 37.1351H11.4464C11.2232 37.1351 11 36.9565 11 36.6886C11 36.4208 11.1786 36.2422 11.4464 36.2422H30.3306C30.5538 36.2422 30.7771 36.4208 30.7771 36.6886C30.7771 36.9565 30.5538 37.1351 30.3306 37.1351Z" fill="white"/>
<path d="M30.3339 37.1324H14.173C13.9498 37.1324 13.7266 36.9539 13.7266 36.6861V25.3057C13.7266 25.0825 13.9051 24.8594 14.173 24.8594C14.4409 24.8594 14.6194 25.0379 14.6194 25.3057V36.2398H30.3339C30.5571 36.2398 30.7804 36.4184 30.7804 36.6861C30.7804 36.9539 30.5571 37.1324 30.3339 37.1324Z" fill="white"/>
<path d="M13.009 26.1987C12.4732 26.1987 11.9822 26.0201 11.5804 25.6185C11.2232 25.2614 11 24.7259 11 24.1903C11 23.6994 11.2232 23.2085 11.5357 22.8068L21.7591 12.5867C23.1877 11.1586 25.4645 11.1586 26.8931 12.5867L31.2681 16.9604C31.4467 17.1389 31.4467 17.4067 31.2681 17.5852C31.0896 17.7637 30.8217 17.7637 30.6431 17.5852L26.2681 13.2115C25.1966 12.1404 23.4555 12.1404 22.3841 13.2115L12.2054 23.387C12.0268 23.6102 11.8929 23.9226 11.8929 24.1903C11.8929 24.4135 11.9375 24.7259 12.2054 24.9937C12.6518 25.44 13.4107 25.44 13.8572 24.9937L24.0359 14.8182C24.2145 14.6397 24.4823 14.6397 24.6609 14.8182L28.3663 18.5224C28.5449 18.7009 28.5449 18.9687 28.3663 19.1472C28.1877 19.3257 27.9199 19.3257 27.7413 19.1472L24.3484 15.7554L14.4822 25.6185C14.0804 26.0201 13.5447 26.1987 13.009 26.1987Z" fill="white"/>
<path d="M25.6921 37.1343H19.3527C19.1295 37.1343 18.9062 36.9557 18.9062 36.688V28.5654C18.9062 27.8514 19.4866 27.2266 20.2456 27.2266H24.8438C25.5581 27.2266 26.1385 27.8514 26.1385 28.5654V36.688C26.1385 36.9111 25.9153 37.1343 25.6921 37.1343ZM19.7991 36.2417H25.2456V28.5654C25.2456 28.2977 25.0224 28.1191 24.8438 28.1191H20.2456C19.9777 28.1191 19.7991 28.3423 19.7991 28.5654V36.2417Z" fill="white"/>
<path d="M33.0961 37.0858C32.5157 37.0858 31.98 36.7734 31.6675 36.2825C30.105 33.694 26.5781 27.4459 26.5781 24.7681C26.5781 21.1978 29.48 18.2969 33.0514 18.2969C36.6229 18.2969 39.5694 21.1978 39.5694 24.7681C39.5694 26.6426 37.8729 30.4807 34.5693 36.2825C34.2122 36.7734 33.6764 37.0858 33.0961 37.0858ZM33.0514 19.1895C29.971 19.1895 27.471 21.6887 27.471 24.7681C27.471 27.2674 31.2657 33.8725 32.4264 35.8362C32.5603 36.0593 32.8282 36.2378 33.1407 36.2378C33.4532 36.2378 33.6764 36.104 33.855 35.8362C37.8283 28.8294 38.6765 25.9285 38.6765 24.7681C38.6765 21.6887 36.1765 19.1895 33.0514 19.1895Z" fill="white"/>
<path d="M33.105 28.9182C30.8282 28.9182 28.9531 27.0438 28.9531 24.7677C28.9531 22.4916 30.8282 20.6172 33.105 20.6172C35.3818 20.6172 37.2568 22.4916 37.2568 24.7677C37.2568 27.0438 35.3818 28.9182 33.105 28.9182ZM33.105 21.5098C31.3192 21.5098 29.846 22.9825 29.846 24.7677C29.846 26.5529 31.3192 28.0256 33.105 28.0256C34.8907 28.0256 36.3639 26.5529 36.3639 24.7677C36.3639 22.9825 34.8907 21.5098 33.105 21.5098Z" fill="white"/>
<path d="M20.6886 32.981C20.4654 32.981 20.2422 32.8025 20.2422 32.5346V31.9542C20.2422 31.731 20.4208 31.5078 20.6886 31.5078C20.9565 31.5078 21.1351 31.6864 21.1351 31.9542V32.5346C21.1351 32.7578 20.9118 32.981 20.6886 32.981Z" fill="white"/>
</svg>
