<svg width="605" height="605" viewBox="0 0 605 605" fill="none" xmlns="http://www.w3.org/2000/svg">
<g clip-path="url(#clip0_1996_7474)">
<g clip-path="url(#clip1_1996_7474)">
<path d="M482.03 226.977H289.339C284.612 226.977 280.781 230.807 280.781 235.533C280.781 240.258 284.612 244.089 289.339 244.089H482.03C486.756 244.089 490.587 240.258 490.587 235.533C490.587 230.807 486.756 226.977 482.03 226.977Z" fill="#F7E5C6"/>
<path d="M482.033 245.711H289.341C283.73 245.711 279.164 241.146 279.164 235.535C279.164 229.924 283.73 225.359 289.341 225.359H482.033C487.645 225.359 492.21 229.924 492.21 235.535C492.21 241.146 487.645 245.711 482.033 245.711ZM289.341 228.599C285.516 228.599 282.404 231.711 282.404 235.535C282.404 239.36 285.516 242.471 289.341 242.471H482.033C485.858 242.471 488.97 239.36 488.97 235.535C488.97 231.711 485.858 228.599 482.033 228.599H289.341Z" fill="#1B6C86"/>
<path d="M473.913 535.749L463.563 280.478C463.016 266.968 454.095 255.235 441.222 251.093L419.469 244.094H482.033V535.749H473.913Z" fill="#948781"/>
<path d="M482.037 537.364H473.916C473.498 537.364 473.096 537.202 472.794 536.913C472.492 536.623 472.314 536.228 472.297 535.81L461.948 280.539C461.43 267.763 452.903 256.547 440.729 252.63L418.976 245.631C418.608 245.513 418.295 245.267 418.092 244.938C417.89 244.609 417.811 244.219 417.871 243.837C417.931 243.456 418.125 243.108 418.419 242.857C418.712 242.606 419.086 242.469 419.472 242.469H482.037C482.466 242.469 482.878 242.639 483.182 242.943C483.486 243.247 483.657 243.659 483.657 244.089V535.744C483.657 536.174 483.486 536.586 483.182 536.89C482.878 537.193 482.466 537.364 482.037 537.364ZM475.472 534.124H480.416V245.709H429.795L441.722 249.546C448.356 251.681 454.091 255.741 458.308 261.288C462.525 266.834 464.904 273.446 465.186 280.408L475.472 534.124Z" fill="#1B6C86"/>
</g>
<g clip-path="url(#clip2_1996_7474)">
<path d="M307.239 216.414H409.509V226.547H307.239C304.442 226.547 302.172 224.277 302.172 221.481C302.172 218.684 304.442 216.414 307.239 216.414V216.414Z" fill="#5550BC"/>
<path d="M409.511 228.167H307.24C303.554 228.167 300.555 225.169 300.555 221.482C300.555 217.796 303.554 214.797 307.24 214.797H409.511C409.94 214.797 410.352 214.967 410.656 215.271C410.959 215.575 411.13 215.986 411.13 216.416V226.548C411.13 226.978 410.959 227.39 410.656 227.693C410.352 227.997 409.94 228.167 409.511 228.167V228.167ZM307.24 218.035C305.339 218.035 303.793 219.581 303.793 221.482C303.793 223.383 305.339 224.93 307.24 224.93H407.892V218.035H307.24V218.035Z" fill="#1B6C86"/>
<path d="M440.198 216.414H409.512C406.714 216.414 404.445 218.682 404.445 221.48C404.445 224.279 406.714 226.547 409.512 226.547H440.198C442.996 226.547 445.264 224.279 445.264 221.48C445.264 218.682 442.996 216.414 440.198 216.414Z" fill="#5550BC"/>
<path d="M440.2 228.167H409.514C405.827 228.167 402.828 225.169 402.828 221.482C402.828 217.796 405.827 214.797 409.514 214.797H440.2C443.886 214.797 446.885 217.796 446.885 221.482C446.885 225.169 443.886 228.167 440.2 228.167ZM409.514 218.035C407.613 218.035 406.066 219.581 406.066 221.482C406.066 223.383 407.613 224.93 409.514 224.93H440.2C442.101 224.93 443.647 223.383 443.647 221.482C443.647 219.581 442.101 218.035 440.2 218.035H409.514Z" fill="#1B6C86"/>
<path d="M330.477 216.415H440.196L461.156 151.491C462.281 148.007 459.682 144.438 456.021 144.438H357.642C356.501 144.438 355.389 144.799 354.466 145.471C353.543 146.143 352.857 147.09 352.507 148.176L330.477 216.415Z" fill="#1B6C86"/>
<path d="M440.198 218.036H330.478C330.223 218.036 329.971 217.976 329.744 217.86C329.516 217.744 329.32 217.576 329.169 217.37C329.019 217.163 328.92 216.925 328.88 216.673C328.839 216.421 328.859 216.163 328.938 215.92L350.968 147.68C351.421 146.267 352.312 145.034 353.512 144.16C354.712 143.287 356.159 142.817 357.644 142.82H456.022C458.291 142.82 460.359 143.872 461.694 145.707C463.03 147.541 463.396 149.831 462.699 151.99L441.739 216.914C441.634 217.24 441.428 217.524 441.151 217.726C440.874 217.927 440.541 218.036 440.198 218.036H440.198ZM332.702 214.798H439.02L459.617 150.996C459.993 149.833 459.795 148.6 459.076 147.612C458.357 146.624 457.244 146.058 456.022 146.058H357.644C356.844 146.056 356.065 146.309 355.419 146.779C354.773 147.25 354.293 147.914 354.049 148.675L332.702 214.798Z" fill="#1B6C86"/>
<path d="M414.692 189.253H403.799C403.369 189.253 402.957 189.083 402.654 188.779C402.35 188.476 402.18 188.064 402.18 187.634C402.18 187.205 402.35 186.793 402.654 186.49C402.957 186.186 403.369 186.016 403.799 186.016H414.692C415.121 186.016 415.533 186.186 415.837 186.49C416.14 186.793 416.311 187.205 416.311 187.634C416.311 188.064 416.14 188.476 415.837 188.779C415.533 189.083 415.121 189.253 414.692 189.253Z" fill="#F4BF42"/>
<path d="M392.849 189.253H363.322C362.893 189.253 362.481 189.083 362.177 188.779C361.874 188.476 361.703 188.064 361.703 187.634C361.703 187.205 361.874 186.793 362.177 186.49C362.481 186.186 362.893 186.016 363.322 186.016H392.849C393.278 186.016 393.69 186.186 393.993 186.49C394.297 186.793 394.467 187.205 394.467 187.634C394.467 188.064 394.297 188.476 393.993 188.779C393.69 189.083 393.278 189.253 392.849 189.253Z" fill="#A1D7F1"/>
<path d="M436.528 189.253H425.635C425.205 189.253 424.793 189.083 424.49 188.779C424.186 188.476 424.016 188.064 424.016 187.634C424.016 187.205 424.186 186.793 424.49 186.49C424.793 186.186 425.205 186.016 425.635 186.016H436.528C436.957 186.016 437.369 186.186 437.673 186.49C437.976 186.793 438.147 187.205 438.147 187.634C438.147 188.064 437.976 188.476 437.673 188.779C437.369 189.083 436.957 189.253 436.528 189.253Z" fill="#FF8D61"/>
<path d="M352.685 190.448C354.237 190.448 355.495 189.19 355.495 187.638C355.495 186.086 354.237 184.828 352.685 184.828C351.133 184.828 349.875 186.086 349.875 187.638C349.875 189.19 351.133 190.448 352.685 190.448Z" fill="#A1D7F1"/>
<path d="M431.46 175.238H413.228C412.799 175.238 412.387 175.067 412.084 174.763C411.78 174.46 411.609 174.048 411.609 173.619C411.609 173.189 411.78 172.778 412.084 172.474C412.387 172.171 412.799 172 413.228 172H431.46C431.889 172 432.301 172.171 432.605 172.474C432.908 172.778 433.079 173.189 433.079 173.619C433.079 174.048 432.908 174.46 432.605 174.763C432.301 175.067 431.889 175.238 431.46 175.238Z" fill="#A1D7F1"/>
<path d="M402.287 175.238H367.845C367.416 175.238 367.004 175.067 366.701 174.763C366.397 174.46 366.227 174.048 366.227 173.619C366.227 173.189 366.397 172.778 366.701 172.474C367.004 172.171 367.416 172 367.845 172H402.287C402.716 172 403.128 172.171 403.432 172.474C403.735 172.778 403.906 173.189 403.906 173.619C403.906 174.048 403.735 174.46 403.432 174.763C403.128 175.067 402.716 175.238 402.287 175.238Z" fill="#F4BF42"/>
<path d="M357.209 176.425C358.761 176.425 360.019 175.167 360.019 173.615C360.019 172.063 358.761 170.805 357.209 170.805C355.657 170.805 354.398 172.063 354.398 173.615C354.398 175.167 355.657 176.425 357.209 176.425Z" fill="#F4BF42"/>
<path d="M413.812 161.214H372.283C371.854 161.214 371.442 161.044 371.138 160.74C370.835 160.436 370.664 160.025 370.664 159.595C370.664 159.166 370.835 158.754 371.138 158.451C371.442 158.147 371.854 157.977 372.283 157.977H413.812C414.242 157.977 414.654 158.147 414.957 158.451C415.261 158.754 415.431 159.166 415.431 159.595C415.431 160.025 415.261 160.436 414.957 160.74C414.654 161.044 414.242 161.214 413.812 161.214Z" fill="#FF8D61"/>
<path d="M442.991 161.214H424.76C424.33 161.214 423.918 161.044 423.615 160.74C423.311 160.436 423.141 160.025 423.141 159.595C423.141 159.166 423.311 158.754 423.615 158.451C423.918 158.147 424.33 157.977 424.76 157.977H442.991C443.42 157.977 443.832 158.147 444.136 158.451C444.439 158.754 444.61 159.166 444.61 159.595C444.61 160.025 444.439 160.436 444.136 160.74C443.832 161.044 443.42 161.214 442.991 161.214Z" fill="#F4BF42"/>
<path d="M361.654 156.789C360.104 156.789 358.844 158.05 358.844 159.599C358.844 161.149 360.104 162.409 361.654 162.409C363.204 162.409 364.464 161.149 364.464 159.599C364.464 158.05 363.204 156.789 361.654 156.789Z" fill="#FF8D61"/>
</g>
<g clip-path="url(#clip3_1996_7474)">
<path d="M166.141 336.344H185.616V491.669H166.141V336.344Z" fill="#948781"/>
<path d="M185.617 493.292H166.141C165.712 493.292 165.301 493.121 164.997 492.817C164.694 492.514 164.523 492.102 164.523 491.672V336.346C164.523 335.917 164.694 335.505 164.997 335.201C165.301 334.897 165.712 334.727 166.141 334.727H185.617C186.046 334.727 186.457 334.897 186.761 335.201C187.064 335.505 187.234 335.917 187.234 336.346V491.672C187.234 492.102 187.064 492.514 186.761 492.817C186.457 493.121 186.046 493.292 185.617 493.292ZM167.759 490.052H183.999V337.966H167.759V490.052Z" fill="#1B6C86"/>
<path d="M202.47 336.344C197.984 351.093 185.463 363.403 185.463 363.403H165.687C165.687 363.403 153.166 351.094 148.68 336.344H202.47Z" fill="#948781"/>
<path d="M185.464 365.025H165.687C165.263 365.025 164.856 364.858 164.554 364.561C164.03 364.047 151.687 351.791 147.133 336.818C147.059 336.576 147.043 336.32 147.086 336.071C147.129 335.822 147.23 335.586 147.38 335.382C147.531 335.179 147.727 335.014 147.952 334.9C148.178 334.786 148.427 334.727 148.68 334.727H202.47C202.723 334.726 202.973 334.786 203.198 334.9C203.424 335.013 203.62 335.179 203.771 335.382C203.921 335.585 204.022 335.821 204.065 336.071C204.108 336.32 204.092 336.576 204.018 336.818C199.464 351.791 187.12 364.047 186.597 364.561C186.294 364.858 185.887 365.025 185.464 365.025H185.464ZM166.367 361.785H184.784C186.916 359.566 195.993 349.673 200.226 337.966H150.925C155.158 349.673 164.235 359.566 166.367 361.785Z" fill="#1B6C86"/>
<path d="M217.823 349.599H133.93C133.501 349.599 133.09 349.429 132.786 349.125C132.483 348.821 132.312 348.409 132.312 347.979C132.312 347.55 132.483 347.138 132.786 346.834C133.09 346.53 133.501 346.359 133.93 346.359H217.822C218.251 346.359 218.663 346.53 218.966 346.834C219.27 347.138 219.44 347.55 219.44 347.979C219.44 348.409 219.27 348.821 218.966 349.125C218.663 349.429 218.251 349.599 217.822 349.599H217.823Z" fill="#1B6C86"/>
<path d="M223.787 357.064C222.915 357.064 222.03 356.945 221.149 356.697L125.351 329.678C120.191 328.223 117.186 322.855 118.64 317.687C120.094 312.522 125.451 309.514 130.616 310.967L226.414 337.986C231.574 339.442 234.579 344.81 233.125 349.977C231.919 354.263 228.025 357.064 223.787 357.064H223.787Z" fill="#FFF4E2"/>
<path d="M223.786 358.685C222.752 358.685 221.717 358.541 220.711 358.258L124.912 331.239C118.901 329.543 115.389 323.267 117.082 317.249C118.775 311.234 125.043 307.717 131.052 309.409L226.851 336.428C232.862 338.123 236.375 344.399 234.682 350.417C233.312 355.285 228.831 358.685 223.786 358.685ZM127.989 312.224C124.456 312.224 121.2 314.561 120.196 318.128C118.987 322.426 121.496 326.909 125.789 328.12L221.587 355.139C222.303 355.341 223.042 355.444 223.786 355.445C227.389 355.445 230.589 353.016 231.567 349.539C232.776 345.24 230.268 340.758 225.974 339.547L130.176 312.527C129.464 312.327 128.729 312.225 127.989 312.224Z" fill="#1B6C86"/>
<path d="M237.57 535.322L185.616 491.672H166.141L114.188 535.322H123.382L166.509 510.394L172.354 535.322H179.403L185.212 510.374L228.375 535.322H237.57Z" fill="#948781"/>
<path d="M237.57 536.937H228.375C228.091 536.937 227.813 536.862 227.566 536.72L186.293 512.864L180.979 535.685C180.896 536.041 180.695 536.358 180.409 536.586C180.123 536.813 179.769 536.937 179.404 536.937H172.355C171.99 536.937 171.636 536.813 171.35 536.586C171.064 536.36 170.863 536.043 170.78 535.687L165.432 512.882L124.192 536.72C123.946 536.862 123.667 536.937 123.383 536.937H114.188C113.856 536.937 113.532 536.834 113.26 536.644C112.988 536.453 112.781 536.183 112.668 535.871C112.554 535.558 112.54 535.219 112.625 534.897C112.711 534.576 112.894 534.289 113.148 534.076L165.101 490.426C165.393 490.181 165.761 490.047 166.141 490.047H185.617C185.997 490.047 186.365 490.181 186.657 490.426L238.61 534.076C238.865 534.289 239.047 534.576 239.133 534.897C239.219 535.219 239.204 535.558 239.091 535.871C238.977 536.183 238.77 536.453 238.498 536.644C238.226 536.834 237.902 536.937 237.57 536.937ZM228.809 533.697H233.125L185.028 493.287H166.73L118.633 533.697H122.95L165.7 508.986C165.919 508.86 166.164 508.786 166.416 508.772C166.668 508.757 166.92 508.802 167.152 508.902C167.384 509.002 167.589 509.156 167.751 509.35C167.912 509.543 168.027 509.773 168.084 510.019L173.637 533.697H178.12L183.637 510.001C183.694 509.755 183.808 509.525 183.97 509.331C184.132 509.137 184.337 508.983 184.569 508.883C184.801 508.782 185.053 508.737 185.305 508.751C185.557 508.766 185.803 508.839 186.021 508.966L228.809 533.697Z" fill="#1B6C86"/>
</g>
<g clip-path="url(#clip4_1996_7474)">
<path d="M169.2 246.905L197.322 191.108C202.851 180.136 199.58 150.844 199.58 150.844L193.017 153.26C183.34 156.823 174.509 162.36 167.087 169.518C159.665 176.677 153.813 185.301 149.903 194.843L132.007 238.519C127.059 250.594 130.426 264.48 140.354 272.948L205.745 328.721L215.057 310.537L169.2 246.905L169.2 246.905Z" fill="#F6B17A"/>
<path d="M205.749 330.333C205.364 330.333 204.992 330.195 204.699 329.946L139.308 274.173C128.822 265.229 125.288 250.652 130.513 237.899L148.409 194.223C156.465 174.562 172.522 159.076 192.461 151.735L199.025 149.318C199.255 149.234 199.502 149.202 199.746 149.227C199.99 149.251 200.226 149.331 200.435 149.46C200.643 149.589 200.82 149.764 200.951 149.971C201.083 150.179 201.165 150.413 201.192 150.657C201.328 151.873 204.451 180.557 198.77 191.829L171.091 246.749L216.373 309.584C216.547 309.826 216.651 310.111 216.674 310.408C216.696 310.705 216.636 311.003 216.5 311.268L207.189 329.452C207.053 329.717 206.847 329.94 206.593 330.095C206.339 330.251 206.047 330.333 205.749 330.333L205.749 330.333ZM198.176 153.079L193.579 154.771C174.489 161.8 159.117 176.627 151.404 195.45L133.507 239.126C128.813 250.582 131.988 263.676 141.408 271.71L205.242 326.155L213.169 310.673L167.891 247.843C167.718 247.603 167.614 247.32 167.591 247.025C167.568 246.73 167.626 246.434 167.759 246.169L195.881 190.372C200.304 181.596 198.784 159.873 198.176 153.079V153.079Z" fill="#1B6C86"/>
<path d="M239.438 485.837C239.438 485.837 243.239 495.916 241.857 504.812C240.475 513.709 250.957 519.651 265.111 517.972C267.647 517.671 269.918 517.131 271.937 516.448C279.925 513.744 283.197 504.216 278.564 497.169C276.353 493.408 274.952 489.225 274.454 484.89L273.838 479.539L239.438 485.837H239.438Z" fill="#F7E5C6"/>
<path d="M260.411 519.867C253.127 519.867 246.94 517.809 243.328 514.065C240.766 511.409 239.705 508.121 240.258 504.557C241.557 496.2 237.96 486.497 237.924 486.4C237.84 486.178 237.807 485.941 237.825 485.705C237.844 485.469 237.914 485.24 238.03 485.034C238.147 484.828 238.307 484.649 238.5 484.512C238.693 484.375 238.914 484.281 239.147 484.238L273.547 477.94C273.765 477.901 273.989 477.906 274.205 477.956C274.42 478.006 274.624 478.1 274.802 478.232C274.98 478.364 275.129 478.531 275.24 478.723C275.35 478.914 275.421 479.127 275.446 479.347L276.062 484.698C276.536 488.822 277.841 492.728 279.94 496.309C282.407 500.085 282.98 504.695 281.511 508.962C280.039 513.239 276.739 516.523 272.456 517.973C270.194 518.739 267.787 519.276 265.302 519.571C263.63 519.769 261.994 519.867 260.411 519.867ZM241.566 487.085C242.619 490.484 244.545 498.042 243.456 505.053C243.058 507.616 243.799 509.892 245.657 511.818C249.301 515.596 256.682 517.335 264.921 516.358C267.183 516.089 269.369 515.602 271.418 514.908C274.745 513.782 277.308 511.231 278.452 507.909C279.596 504.583 279.145 500.99 277.213 498.051C277.198 498.029 277.184 498.006 277.17 497.983C274.829 494.001 273.375 489.656 272.847 485.068L272.429 481.435L241.566 487.085V487.085Z" fill="#1B6C86"/>
<path d="M282.92 491.607C277.527 478.523 274.787 510.798 255.42 505.809C243.739 502.8 241.856 504.809 241.856 504.809C241.856 504.809 237.715 525.041 240.133 542.882H344.69V531.348C344.69 524.755 341.151 518.071 334.904 515.959C321.308 511.363 288.482 505.101 282.92 491.607Z" fill="#FF8D61"/>
<path d="M344.69 544.502H240.133C239.742 544.502 239.364 544.36 239.069 544.102C238.774 543.845 238.582 543.489 238.53 543.101C236.103 525.193 240.1 505.323 240.271 504.486C240.331 504.193 240.471 503.922 240.675 503.704C241.439 502.889 244.443 501.312 255.824 504.243C265.575 506.755 270.665 498.631 274.382 492.699C276.581 489.19 278.169 486.656 280.531 486.855C282.532 487.024 283.658 489.155 284.416 490.992C288.558 501.042 310.592 507.263 325.173 511.379C329.183 512.512 332.646 513.489 335.423 514.428C338.753 515.554 341.554 517.874 343.525 521.138C345.32 524.112 346.308 527.738 346.308 531.35V542.884C346.308 543.313 346.137 543.724 345.834 544.028C345.531 544.331 345.119 544.502 344.69 544.502ZM241.561 541.266H343.072V531.35C343.072 524.92 339.5 519.222 334.386 517.494C331.688 516.581 328.261 515.614 324.294 514.494C308.204 509.951 286.168 503.728 281.424 492.225C280.844 490.818 280.429 490.306 280.248 490.133C279.531 490.577 278.15 492.782 277.125 494.418C275.164 497.547 272.723 501.442 269.271 504.265C265.086 507.689 260.291 508.736 255.016 507.377C247.45 505.428 244.333 505.706 243.287 505.944C242.588 509.748 239.828 526.254 241.561 541.266Z" fill="#1B6C86"/>
<path d="M239.383 531.352H344.691V542.885H240.134L239.383 531.352Z" fill="#FFF4E2"/>
<path d="M344.691 544.5H240.135C239.724 544.5 239.328 544.344 239.029 544.063C238.729 543.782 238.547 543.397 238.52 542.987L237.769 531.453C237.755 531.232 237.786 531.011 237.86 530.802C237.935 530.594 238.052 530.403 238.203 530.242C238.354 530.08 238.537 529.951 238.74 529.863C238.943 529.775 239.162 529.73 239.384 529.73H344.691C345.121 529.73 345.532 529.901 345.836 530.204C346.139 530.507 346.31 530.919 346.31 531.348V542.882C346.31 543.311 346.139 543.723 345.836 544.026C345.532 544.329 345.121 544.5 344.691 544.5ZM241.651 541.264H343.073V532.966H241.11L241.651 541.264ZM306.208 520.512C305.844 520.512 305.491 520.389 305.206 520.164C304.92 519.939 304.719 519.624 304.634 519.271L302.029 508.403L290.108 514.058C289.856 514.178 289.576 514.231 289.297 514.21C289.018 514.19 288.749 514.098 288.516 513.942C288.283 513.787 288.095 513.573 287.969 513.323C287.843 513.073 287.785 512.795 287.799 512.515L288.303 502.484L279.153 507.986C278.971 508.097 278.769 508.171 278.558 508.203C278.347 508.236 278.132 508.226 277.925 508.175C277.718 508.124 277.523 508.033 277.352 507.906C277.18 507.78 277.035 507.621 276.925 507.438C276.815 507.255 276.743 507.053 276.711 506.842C276.68 506.631 276.691 506.416 276.743 506.209C276.795 506.002 276.887 505.808 277.015 505.637C277.142 505.466 277.302 505.322 277.485 505.213L289.237 498.146C289.489 497.995 289.776 497.914 290.07 497.914C290.363 497.914 290.651 497.993 290.903 498.144C291.155 498.295 291.361 498.511 291.499 498.77C291.637 499.029 291.702 499.321 291.687 499.614L291.166 509.975L302.444 504.624C302.661 504.521 302.899 504.468 303.14 504.468C303.381 504.469 303.618 504.523 303.836 504.627C304.053 504.731 304.244 504.882 304.396 505.069C304.547 505.256 304.655 505.475 304.711 505.709L307.188 516.045L315.616 509.336C315.782 509.202 315.973 509.102 316.178 509.041C316.383 508.981 316.598 508.962 316.81 508.985C317.023 509.008 317.228 509.073 317.416 509.176C317.603 509.279 317.768 509.419 317.901 509.586C318.034 509.753 318.132 509.945 318.191 510.15C318.249 510.356 318.267 510.571 318.242 510.783C318.217 510.995 318.15 511.2 318.045 511.386C317.94 511.573 317.8 511.736 317.632 511.868L307.215 520.16C306.929 520.388 306.573 520.512 306.207 520.512L306.208 520.512Z" fill="#1B6C86"/>
<path d="M318.859 490.411C318.859 490.411 324.624 497.829 325.961 504.811C327.297 511.794 336.837 523.968 356.629 520.01C356.777 519.98 356.925 519.949 357.073 519.916C369.217 517.199 372.837 501.605 363.284 493.632C360.078 490.957 356.808 487.991 354.959 485.642C349.911 479.229 348.689 473.93 348.689 473.93L318.859 490.411Z" fill="#F7E5C6"/>
<path d="M349.206 522.392C341.991 522.392 336.866 520.132 333.577 517.92C327.863 514.077 325.075 508.782 324.372 505.109C323.127 498.6 317.637 491.467 317.582 491.396C317.439 491.212 317.337 490.998 317.284 490.771C317.231 490.543 317.228 490.307 317.275 490.078C317.322 489.849 317.419 489.633 317.557 489.445C317.695 489.257 317.873 489.101 318.077 488.988L347.907 472.507C348.127 472.386 348.371 472.317 348.621 472.306C348.871 472.295 349.121 472.343 349.349 472.445C349.578 472.547 349.78 472.701 349.939 472.894C350.098 473.088 350.21 473.315 350.267 473.559C350.277 473.605 351.5 478.625 356.231 484.635C357.748 486.563 360.47 489.17 364.321 492.384C369.258 496.504 371.381 502.958 369.862 509.227C368.364 515.409 363.599 520.107 357.427 521.488C357.269 521.523 357.109 521.557 356.947 521.589C354.139 522.151 351.561 522.392 349.206 522.392ZM321.243 490.936C323.048 493.542 326.513 499.08 327.551 504.501C328.105 507.395 330.488 511.943 335.383 515.235C339.234 517.826 345.991 520.48 356.312 518.416C356.448 518.389 356.585 518.36 356.721 518.33C361.756 517.203 365.493 513.516 366.717 508.465C367.944 503.403 366.231 498.192 362.248 494.868C358.224 491.51 355.344 488.741 353.688 486.636C350.304 482.336 348.564 478.51 347.747 476.293L321.243 490.936Z" fill="#1B6C86"/>
<path d="M428.799 531.349V542.882H324.242C323.726 539.074 323.508 535.154 323.486 531.349C323.402 517.324 325.963 504.808 325.963 504.808C325.963 504.808 327.847 502.799 339.529 505.809C358.896 510.798 361.634 478.523 367.028 491.607C372.589 505.101 405.417 511.364 419.013 515.959C425.259 518.071 428.799 524.754 428.799 531.349Z" fill="#FF8D61"/>
<path d="M428.8 544.501H324.242C323.851 544.501 323.473 544.359 323.178 544.102C322.883 543.844 322.692 543.488 322.639 543.1C322.152 539.505 321.893 535.554 321.869 531.359C321.785 517.328 324.273 505.003 324.379 504.485C324.439 504.192 324.579 503.921 324.784 503.702C325.547 502.888 328.551 501.311 339.934 504.243C349.685 506.756 354.775 498.631 358.491 492.7C360.69 489.191 362.279 486.655 364.64 486.855C366.641 487.024 367.767 489.155 368.524 490.992C372.667 501.044 394.704 507.265 409.287 511.381C413.295 512.513 416.756 513.49 419.532 514.428C422.862 515.554 425.663 517.874 427.634 521.138C429.429 524.111 430.418 527.738 430.418 531.35V542.883C430.418 543.312 430.247 543.724 429.944 544.027C429.64 544.331 429.229 544.501 428.8 544.501H428.8ZM325.67 541.265H427.182V531.35C427.182 524.921 423.61 519.222 418.495 517.493C415.798 516.581 412.374 515.615 408.408 514.495C392.315 509.952 370.275 503.731 365.533 492.225C364.953 490.818 364.538 490.306 364.356 490.133C363.64 490.578 362.258 492.782 361.233 494.418C359.272 497.547 356.832 501.443 353.381 504.266C349.196 507.689 344.4 508.736 339.126 507.377C331.558 505.428 328.441 505.705 327.395 505.944C326.847 508.918 325.035 519.664 325.105 531.341C325.125 534.857 325.315 538.188 325.67 541.265Z" fill="#1B6C86"/>
<path d="M428.797 531.352V542.884H324.239C323.724 539.077 323.506 535.157 323.484 531.352H428.797Z" fill="#FFF4E2"/>
<path d="M428.798 544.499H324.24C323.849 544.499 323.471 544.357 323.176 544.099C322.881 543.842 322.689 543.486 322.637 543.098C322.15 539.502 321.891 535.552 321.867 531.357C321.866 531.144 321.907 530.933 321.988 530.735C322.068 530.538 322.187 530.358 322.338 530.207C322.488 530.056 322.667 529.936 322.864 529.854C323.061 529.772 323.272 529.73 323.485 529.73H428.798C429.227 529.73 429.638 529.9 429.942 530.204C430.245 530.507 430.416 530.919 430.416 531.348V542.881C430.416 543.31 430.245 543.721 429.942 544.025C429.638 544.328 429.227 544.499 428.798 544.499L428.798 544.499ZM325.668 541.263H427.18V532.966H325.125C325.186 535.885 325.368 538.664 325.668 541.263ZM390.313 520.511C389.949 520.511 389.597 520.389 389.311 520.164C389.026 519.939 388.824 519.624 388.74 519.271L386.135 508.402L374.214 514.058C373.961 514.178 373.681 514.23 373.402 514.21C373.123 514.189 372.854 514.097 372.621 513.941C372.389 513.786 372.2 513.573 372.075 513.323C371.949 513.073 371.89 512.794 371.904 512.515L372.408 502.483L363.259 507.986C363.077 508.098 362.874 508.173 362.663 508.206C362.452 508.239 362.236 508.23 362.028 508.179C361.82 508.129 361.625 508.038 361.452 507.911C361.28 507.784 361.135 507.625 361.025 507.441C360.914 507.258 360.842 507.055 360.81 506.843C360.779 506.632 360.79 506.416 360.843 506.209C360.896 506.002 360.989 505.807 361.117 505.636C361.246 505.465 361.407 505.321 361.591 505.213L373.343 498.146C373.594 497.994 373.882 497.914 374.176 497.914C374.469 497.914 374.757 497.993 375.009 498.144C375.26 498.295 375.466 498.511 375.604 498.77C375.742 499.029 375.808 499.32 375.793 499.613L375.272 509.975L386.55 504.624C386.767 504.521 387.005 504.467 387.246 504.468C387.487 504.468 387.724 504.522 387.942 504.626C388.159 504.73 388.35 504.881 388.502 505.069C388.653 505.256 388.761 505.475 388.817 505.709L391.294 516.045L399.722 509.336C400.058 509.069 400.486 508.946 400.912 508.994C401.339 509.043 401.728 509.258 401.996 509.594C402.263 509.93 402.386 510.358 402.338 510.784C402.289 511.211 402.073 511.6 401.738 511.868L391.321 520.16C391.035 520.388 390.679 520.512 390.313 520.512L390.313 520.511Z" fill="#1B6C86"/>
<path d="M256.15 114.796C254.696 98.1077 243.086 85.4876 230.218 86.6083C217.349 87.729 202.019 100.812 206.882 119.696C209.032 128.041 212.892 133.034 212.892 133.034C209.069 145.424 196.141 153.306 196.141 153.306C196.141 153.306 197.793 165.205 212.095 170.068C222.531 173.617 232.266 168.794 232.266 168.794C232.266 168.794 229.842 156.112 233.332 147.102C250.121 147.982 257.604 131.484 256.15 114.796H256.15Z" fill="#F6B17A"/>
<path d="M220.216 172.999C217.525 172.999 214.584 172.625 211.575 171.602C203.731 168.934 199.524 164.207 197.377 160.712C195.026 156.885 194.558 153.665 194.539 153.53C194.495 153.218 194.544 152.9 194.679 152.615C194.814 152.33 195.03 152.09 195.299 151.926C195.42 151.853 207.227 144.526 211.101 133.31C209.938 131.604 207.079 126.946 205.316 120.101C202.622 109.642 205.97 101.918 209.253 97.2799C214.124 90.3985 222.104 85.6924 230.078 84.998C236.813 84.4116 243.411 87.2284 248.656 92.9299C253.795 98.5155 257.029 106.232 257.763 114.657C258.742 125.897 255.771 136.287 249.816 142.45C245.817 146.59 240.572 148.754 234.582 148.754H234.464C231.748 157.138 233.834 168.375 233.856 168.493C233.922 168.84 233.873 169.199 233.715 169.516C233.558 169.832 233.301 170.089 232.985 170.246C232.679 170.397 227.315 172.999 220.216 172.999L220.216 172.999ZM197.962 154.053C198.255 155.144 198.899 157.041 200.215 159.148C202.937 163.506 207.11 166.665 212.617 168.538C220.322 171.158 227.745 168.858 230.463 167.804C229.934 164.259 228.835 154.236 231.825 146.519C231.948 146.201 232.168 145.931 232.455 145.746C232.741 145.56 233.078 145.47 233.418 145.488C239.08 145.784 243.814 144.006 247.489 140.202C252.803 134.702 255.438 125.258 254.539 114.938C253.867 107.221 250.932 100.183 246.275 95.1208C241.724 90.1744 236.072 87.7246 230.359 88.2218C223.413 88.8267 216.165 93.1161 211.895 99.1496C209.007 103.229 206.066 110.035 208.45 119.294C210.481 127.179 214.138 132 214.175 132.048C214.332 132.253 214.439 132.493 214.485 132.748C214.531 133.003 214.515 133.265 214.439 133.512C211.063 144.455 201.145 151.895 197.962 154.053L197.962 154.053Z" fill="#1B6C86"/>
<path d="M233.336 148.718C233.318 148.718 233.3 148.718 233.283 148.717C233.123 148.712 229.319 148.562 225.166 145.996C224.801 145.771 224.54 145.41 224.442 144.992C224.343 144.574 224.414 144.135 224.64 143.769C224.866 143.404 225.227 143.144 225.645 143.045C226.062 142.947 226.502 143.018 226.867 143.244C230.25 145.334 233.362 145.482 233.393 145.483C234.284 145.519 234.981 146.269 234.948 147.159C234.916 148.032 234.202 148.719 233.336 148.719V148.718ZM234.591 122.605C234.237 122.606 233.893 122.49 233.611 122.276C233.329 122.062 233.125 121.762 233.03 121.421C232.935 121.08 232.955 120.717 233.086 120.389C233.217 120.06 233.452 119.783 233.755 119.601L234.702 119.03C234.464 118.74 234.138 118.535 233.773 118.446C233.566 118.395 233.372 118.304 233.2 118.177C233.029 118.051 232.884 117.891 232.775 117.709C232.665 117.526 232.592 117.324 232.561 117.113C232.53 116.902 232.541 116.687 232.593 116.481C232.645 116.274 232.737 116.08 232.864 115.909C232.992 115.738 233.151 115.594 233.334 115.485C233.517 115.376 233.72 115.305 233.931 115.274C234.142 115.244 234.357 115.256 234.563 115.308C237.154 115.961 238.154 118.223 238.337 119.457C238.384 119.773 238.336 120.096 238.2 120.385C238.063 120.674 237.844 120.916 237.571 121.081L235.424 122.373C235.172 122.525 234.884 122.605 234.591 122.605H234.591Z" fill="#1B6C86"/>
<path d="M254.56 107.275C259.724 107.275 263.909 103.09 263.909 97.9267C263.909 92.7636 259.724 88.5781 254.56 88.5781C249.397 88.5781 245.211 92.7636 245.211 97.9267C245.211 103.09 249.397 107.275 254.56 107.275Z" fill="#1B6C86"/>
<path d="M254.568 108.895C254.352 108.895 254.134 108.889 253.915 108.876C247.878 108.519 243.257 103.318 243.613 97.2819C243.786 94.3577 245.087 91.6757 247.277 89.7301C249.467 87.7844 252.284 86.808 255.207 86.9804C258.132 87.153 260.814 88.4538 262.76 90.6435C264.706 92.8331 265.682 95.6497 265.51 98.5739C265.166 104.391 260.323 108.895 254.568 108.895ZM254.551 90.1969C252.658 90.1969 250.853 90.8808 249.426 92.1488C247.882 93.5204 246.965 95.4111 246.844 97.4724C246.592 101.728 249.85 105.394 254.106 105.645C254.26 105.654 254.414 105.659 254.566 105.659C258.623 105.659 262.037 102.484 262.279 98.383C262.401 96.3217 261.712 94.3363 260.341 92.7926C258.969 91.2488 257.078 90.332 255.017 90.2103C254.862 90.2013 254.706 90.1969 254.551 90.1969Z" fill="#1B6C86"/>
<path d="M224.835 94.2705C229.538 94.2705 233.35 90.4586 233.35 85.7564C233.35 81.0541 229.538 77.2422 224.835 77.2422C220.132 77.2422 216.32 81.0541 216.32 85.7564C216.32 90.4586 220.132 94.2705 224.835 94.2705Z" fill="#1B6C86"/>
<path d="M224.85 95.8905C224.647 95.8905 224.444 95.8844 224.24 95.8723C221.538 95.7129 219.06 94.5109 217.262 92.4878C215.464 90.4647 214.562 87.8625 214.721 85.161C214.881 82.4594 216.083 79.9813 218.106 78.1837C220.129 76.386 222.731 75.4827 225.433 75.6432C228.135 75.8027 230.613 77.0047 232.411 79.0276C234.209 81.0507 235.111 83.6528 234.952 86.3546C234.792 89.0562 233.59 91.5343 231.567 93.3319C229.697 94.9937 227.331 95.8905 224.85 95.8905H224.85ZM224.827 78.8613C223.138 78.8613 221.528 79.4716 220.255 80.6026C218.878 81.8262 218.06 83.5128 217.952 85.3517C217.843 87.1906 218.457 88.9615 219.681 90.3385C220.905 91.7155 222.591 92.5335 224.43 92.6422C226.27 92.7497 228.04 92.1366 229.417 90.9132C230.794 89.6896 231.613 88.003 231.721 86.1641C231.83 84.3252 231.215 82.5543 229.992 81.1771C228.768 79.8001 227.081 78.9821 225.243 78.8736C225.104 78.8654 224.966 78.8613 224.827 78.8613Z" fill="#1B6C86"/>
<path d="M247.624 109.481C252.327 109.481 256.139 105.67 256.139 100.967C256.139 96.265 252.327 92.4531 247.624 92.4531C242.922 92.4531 239.109 96.265 239.109 100.967C239.109 105.67 242.922 109.481 247.624 109.481Z" fill="#1B6C86"/>
<path d="M247.639 111.101C247.436 111.101 247.232 111.095 247.028 111.083C241.451 110.754 237.181 105.949 237.51 100.372C237.669 97.6703 238.872 95.1922 240.895 93.3945C242.918 91.5968 245.52 90.694 248.222 90.8541C250.924 91.0135 253.402 92.2156 255.2 94.2384C256.998 96.2615 257.9 98.8637 257.741 101.565C257.581 104.267 256.379 106.745 254.356 108.543C252.486 110.205 250.12 111.101 247.639 111.101H247.639ZM247.621 94.0721C244.002 94.0721 240.957 96.9038 240.741 100.562C240.517 104.358 243.423 107.629 247.219 107.853C249.058 107.959 250.829 107.347 252.206 106.124C253.583 104.9 254.401 103.214 254.51 101.375C254.618 99.5359 254.004 97.765 252.781 96.3878C251.557 95.0108 249.87 94.1927 248.032 94.0842C247.895 94.0761 247.758 94.0721 247.621 94.0721Z" fill="#1B6C86"/>
<path d="M202.804 108.499C205.156 108.499 207.062 106.593 207.062 104.242C207.062 101.89 205.156 99.9844 202.804 99.9844C200.453 99.9844 198.547 101.89 198.547 104.242C198.547 106.593 200.453 108.499 202.804 108.499Z" fill="#1B6C86"/>
<path d="M202.813 110.118C202.696 110.118 202.578 110.115 202.459 110.108C200.893 110.015 199.456 109.318 198.413 108.145C197.371 106.972 196.848 105.463 196.94 103.897C197.131 100.663 199.918 98.1864 203.152 98.3775C204.718 98.4699 206.155 99.1669 207.198 100.34C208.24 101.513 208.763 103.022 208.671 104.589C208.579 106.155 207.882 107.592 206.709 108.634C205.624 109.598 204.252 110.118 202.814 110.118L202.813 110.118ZM202.804 101.603C201.419 101.603 200.253 102.687 200.171 104.087C200.129 104.791 200.364 105.469 200.832 105.996C201.3 106.523 201.946 106.836 202.65 106.877C202.996 106.899 203.343 106.851 203.67 106.737C203.998 106.624 204.3 106.447 204.559 106.216C204.818 105.986 205.03 105.707 205.182 105.395C205.333 105.083 205.421 104.745 205.44 104.398C205.462 104.052 205.414 103.705 205.301 103.378C205.187 103.05 205.01 102.748 204.779 102.49C204.532 102.21 204.228 101.986 203.887 101.833C203.547 101.681 203.177 101.602 202.804 101.604V101.603Z" fill="#1B6C86"/>
<path d="M201.672 115.772C204.023 115.772 205.929 113.866 205.929 111.515C205.929 109.164 204.023 107.258 201.672 107.258C199.32 107.258 197.414 109.164 197.414 111.515C197.414 113.866 199.32 115.772 201.672 115.772Z" fill="#1B6C86"/>
<path d="M201.676 117.391C201.56 117.391 201.444 117.388 201.326 117.381C199.76 117.289 198.323 116.592 197.28 115.419C196.238 114.245 195.715 112.736 195.807 111.17C195.998 107.936 198.784 105.46 202.019 105.651C205.253 105.842 207.729 108.628 207.538 111.862C207.354 114.979 204.759 117.391 201.677 117.391H201.676ZM201.671 108.877C200.286 108.877 199.121 109.96 199.038 111.36C198.996 112.064 199.231 112.742 199.7 113.269C200.168 113.796 200.813 114.109 201.517 114.151C202.971 114.236 204.222 113.124 204.308 111.671C204.393 110.218 203.281 108.967 201.828 108.881C201.776 108.878 201.723 108.877 201.671 108.877Z" fill="#1B6C86"/>
<path d="M203.242 123.194C205.593 123.194 207.499 121.288 207.499 118.937C207.499 116.586 205.593 114.68 203.242 114.68C200.891 114.68 198.984 116.586 198.984 118.937C198.984 121.288 200.891 123.194 203.242 123.194Z" fill="#1B6C86"/>
<path d="M203.251 124.813C203.133 124.813 203.015 124.81 202.897 124.803C201.33 124.711 199.893 124.014 198.851 122.84C197.808 121.667 197.285 120.158 197.378 118.592C197.47 117.025 198.167 115.588 199.34 114.546C200.513 113.504 202.022 112.98 203.589 113.073C205.156 113.165 206.593 113.862 207.635 115.036C208.678 116.209 209.201 117.718 209.108 119.284C209.016 120.851 208.319 122.287 207.146 123.33C206.061 124.294 204.69 124.813 203.251 124.813ZM203.24 116.299C202.594 116.298 201.971 116.535 201.49 116.965C201.23 117.195 201.019 117.473 200.867 117.785C200.716 118.097 200.628 118.436 200.609 118.783C200.567 119.486 200.802 120.164 201.27 120.691C201.738 121.218 202.384 121.531 203.088 121.573C203.434 121.594 203.781 121.546 204.108 121.433C204.436 121.319 204.738 121.142 204.997 120.911C205.256 120.682 205.468 120.403 205.619 120.091C205.771 119.779 205.859 119.44 205.878 119.094C205.9 118.748 205.852 118.401 205.739 118.073C205.625 117.745 205.448 117.444 205.217 117.185C204.969 116.905 204.665 116.681 204.324 116.528C203.983 116.376 203.614 116.297 203.24 116.299L203.24 116.299Z" fill="#1B6C86"/>
<path d="M206.648 129.796C208.999 129.796 210.906 127.89 210.906 125.538C210.906 123.187 208.999 121.281 206.648 121.281C204.297 121.281 202.391 123.187 202.391 125.538C202.391 127.89 204.297 129.796 206.648 129.796Z" fill="#1B6C86"/>
<path d="M206.65 131.416C204.004 131.416 201.594 129.613 200.941 126.931C200.174 123.783 202.111 120.599 205.259 119.832C208.407 119.064 211.591 121.002 212.358 124.15C213.125 127.297 211.188 130.482 208.04 131.249C207.585 131.36 207.118 131.416 206.65 131.416ZM206.65 122.9C206.443 122.9 206.234 122.925 206.025 122.976C204.611 123.32 203.741 124.751 204.085 126.165C204.252 126.85 204.676 127.429 205.278 127.795C205.88 128.161 206.589 128.271 207.274 128.104C208.688 127.76 209.559 126.329 209.214 124.915C208.92 123.711 207.838 122.9 206.65 122.9Z" fill="#1B6C86"/>
<path d="M211.242 133.796C213.593 133.796 215.499 131.89 215.499 129.538C215.499 127.187 213.593 125.281 211.242 125.281C208.891 125.281 206.984 127.187 206.984 129.538C206.984 131.89 208.891 133.796 211.242 133.796Z" fill="#1B6C86"/>
<path d="M211.236 135.416C208.59 135.416 206.18 133.613 205.527 130.931C204.76 127.783 206.697 124.599 209.845 123.832C212.993 123.065 216.178 125.002 216.944 128.149C217.711 131.297 215.774 134.481 212.626 135.248C212.171 135.359 211.704 135.416 211.236 135.416V135.416ZM211.24 126.9C211.031 126.9 210.82 126.925 210.611 126.976C209.197 127.32 208.327 128.751 208.671 130.165C209.016 131.579 210.446 132.449 211.861 132.105C213.275 131.76 214.145 130.33 213.8 128.915C213.719 128.578 213.572 128.261 213.367 127.981C213.162 127.701 212.904 127.465 212.607 127.285C212.196 127.034 211.723 126.9 211.241 126.9L211.24 126.9Z" fill="#1B6C86"/>
<path d="M240.83 97.8145C246.25 97.8145 250.644 93.4209 250.644 88.001C250.644 82.5812 246.25 78.1875 240.83 78.1875C235.41 78.1875 231.016 82.5812 231.016 88.001C231.016 93.4209 235.41 97.8145 240.83 97.8145Z" fill="#1B6C86"/>
<path d="M240.831 99.434C240.605 99.434 240.378 99.4273 240.15 99.414C237.101 99.2343 234.306 97.878 232.277 95.5953C230.249 93.3127 229.231 90.3771 229.411 87.3288C229.782 81.0365 235.204 76.2184 241.497 76.5905C244.545 76.7702 247.341 78.1265 249.369 80.4091C251.398 82.6917 252.416 85.6274 252.236 88.6756C251.878 94.7398 246.829 99.434 240.831 99.434ZM240.818 79.8066C236.517 79.8066 232.898 83.1717 232.642 87.5195C232.375 92.0306 235.829 95.9174 240.341 96.1836C240.504 96.1931 240.667 96.1979 240.829 96.1981C245.13 96.1983 248.749 92.8329 249.005 88.4851C249.134 86.2998 248.405 84.1952 246.95 82.5586C245.496 80.9223 243.492 79.95 241.306 79.821C241.144 79.8116 240.981 79.8068 240.818 79.8068L240.818 79.8066Z" fill="#1B6C86"/>
<path d="M212.486 104.674C217.906 104.674 222.3 100.28 222.3 94.8604C222.3 89.4405 217.906 85.0469 212.486 85.0469C207.066 85.0469 202.672 89.4405 202.672 94.8604C202.672 100.28 207.066 104.674 212.486 104.674Z" fill="#1B6C86"/>
<path d="M212.495 106.293C212.269 106.293 212.042 106.287 211.814 106.273C205.521 105.902 200.703 100.48 201.075 94.1881C201.255 91.1401 202.611 88.3442 204.894 86.3162C207.176 84.2879 210.112 83.2703 213.161 83.45C216.209 83.6297 219.005 84.986 221.033 87.2686C223.062 89.5512 224.079 92.4869 223.899 95.5351C223.542 101.599 218.493 106.294 212.494 106.294L212.495 106.293ZM212.477 86.6656C210.47 86.6656 208.556 87.3907 207.043 88.7351C205.407 90.1891 204.434 92.1935 204.306 94.3788C204.039 98.8901 207.493 102.777 212.005 103.043C212.168 103.053 212.331 103.057 212.493 103.058C216.794 103.058 220.413 99.6924 220.669 95.3444C220.798 93.1591 220.069 91.0544 218.614 89.4179C217.16 87.7814 215.156 86.8093 212.97 86.6803C212.806 86.6707 212.641 86.6659 212.477 86.6659L212.477 86.6656Z" fill="#1B6C86"/>
<path d="M226.92 83.4989C213.252 86.3655 203.559 94.8684 202.509 109.295C201.434 124.048 212.895 133.034 212.895 133.034C218.994 134.514 227.531 130.518 231.182 127.927C231.634 127.605 232.082 127.217 232.525 126.782C229.026 125.769 226.467 122.543 226.467 118.719C226.467 114.081 230.227 110.323 234.864 110.323C237.481 110.323 239.818 111.52 241.357 113.397C241.716 112.833 242.06 112.322 242.389 111.886C244.692 108.834 250.301 102.373 258.026 99.5856C250.277 86.45 237.167 81.35 226.92 83.4989Z" fill="#1B6C86"/>
<path d="M215.719 134.964C214.61 134.964 213.532 134.853 212.512 134.606C212.288 134.552 212.077 134.45 211.895 134.307C211.77 134.208 208.794 131.852 205.952 127.594C202.178 121.94 200.428 115.571 200.894 109.177C201.429 101.823 204.101 95.6808 208.835 90.9203C213.238 86.4914 219.211 83.4615 226.587 81.9145C232.166 80.7446 238.388 81.6099 244.108 84.3507C250.318 87.3263 255.612 92.3098 259.418 98.7629C259.539 98.9678 259.613 99.1969 259.636 99.4338C259.658 99.6706 259.628 99.9095 259.547 100.133C259.466 100.357 259.337 100.56 259.169 100.729C259.001 100.897 258.798 101.026 258.574 101.107C251.102 103.803 245.669 110.224 243.68 112.86C243.4 113.23 243.087 113.689 242.722 114.264C242.585 114.48 242.398 114.66 242.178 114.79C241.958 114.92 241.71 114.995 241.454 115.011C241.199 115.026 240.944 114.981 240.709 114.879C240.475 114.776 240.268 114.62 240.106 114.422C238.811 112.844 236.9 111.94 234.863 111.94C231.125 111.94 228.085 114.98 228.085 118.718C228.085 121.717 230.095 124.393 232.974 125.227C233.245 125.305 233.491 125.454 233.687 125.657C233.883 125.86 234.023 126.11 234.092 126.384C234.161 126.658 234.158 126.945 234.082 127.216C234.006 127.488 233.86 127.736 233.659 127.934C233.129 128.456 232.624 128.885 232.118 129.245C228.651 131.706 221.73 134.964 215.719 134.964L215.719 134.964ZM213.63 131.54C218.497 132.509 225.447 129.725 229.454 127.141C226.649 125.328 224.848 122.167 224.848 118.718C224.848 113.196 229.341 108.704 234.863 108.704C237.163 108.704 239.353 109.484 241.112 110.891C243.122 108.231 248.329 102.08 255.635 98.8073C247.8 86.876 235.887 83.2712 227.252 85.0818C213.265 88.0153 205.05 96.6559 204.121 109.412C203.214 121.874 211.98 130.108 213.63 131.54Z" fill="#1B6C86"/>
<path d="M228.866 407.969C228.866 407.969 211.243 386.345 194.479 371.171C173.928 352.57 159.013 337.728 157.619 310.046C157.406 305.822 160.774 302.281 165.002 302.281H208.496C217.981 302.281 226.762 307.285 231.594 315.446C243.294 335.208 264.541 371.862 270.49 387.258C278.119 407 276.229 425.49 275.854 446.786C275.418 471.543 273.836 479.532 273.836 479.532L239.435 485.83C239.435 485.83 235.059 483.824 231.111 472.318C225.503 455.974 228.866 407.969 228.866 407.969Z" fill="#00B6F0"/>
<path d="M239.436 487.449C239.204 487.449 238.973 487.399 238.762 487.302C238.25 487.067 233.638 484.665 229.582 472.844C224.222 457.223 226.812 414.524 227.209 408.501C224.486 405.203 208.484 386.03 193.394 372.371C183.169 363.117 174.166 354.664 167.529 344.926C160.33 334.362 156.668 323.305 156.004 310.128C155.879 307.638 156.756 305.272 158.474 303.466C160.192 301.659 162.511 300.664 165.004 300.664H208.497C218.506 300.664 227.89 306.013 232.988 314.623C244.999 334.911 266.04 371.249 272.001 386.676C278.656 403.899 278.189 420.394 277.694 437.858C277.612 440.769 277.527 443.779 277.473 446.815C277.039 471.434 275.49 479.516 275.424 479.847C275.361 480.166 275.204 480.458 274.973 480.685C274.742 480.913 274.448 481.066 274.128 481.125L239.728 487.423C239.631 487.44 239.534 487.449 239.436 487.449ZM165.004 303.9C163.406 303.9 161.92 304.538 160.819 305.696C159.718 306.853 159.156 308.37 159.236 309.965C160.568 336.407 174.485 350.892 195.566 369.973C212.228 385.055 229.944 406.731 230.121 406.948C230.381 407.267 230.51 407.673 230.481 408.083C230.448 408.56 227.205 455.948 232.643 471.794C235.582 480.36 238.715 483.323 239.773 484.125L272.42 478.148C272.836 475.255 273.896 466.159 274.237 446.758C274.291 443.705 274.377 440.686 274.459 437.767C274.965 419.894 275.403 404.459 268.982 387.843C263.106 372.634 242.164 336.473 230.203 316.272C225.685 308.641 217.368 303.9 208.497 303.9L165.004 303.9Z" fill="#1B6C86"/>
<path d="M244.231 413.002C243.87 413.002 243.52 412.881 243.236 412.659C243.149 412.593 238.108 408.821 229.002 409.58C228.111 409.655 227.33 408.993 227.256 408.102C227.22 407.675 227.356 407.25 227.633 406.923C227.91 406.595 228.306 406.391 228.734 406.356C239.223 405.483 244.993 409.923 245.233 410.113C245.497 410.321 245.69 410.606 245.785 410.929C245.879 411.252 245.871 411.596 245.761 411.914C245.65 412.232 245.444 412.508 245.169 412.702C244.895 412.897 244.567 413.002 244.231 413.002Z" fill="#1B6C86"/>
<path d="M274.454 484.89L273.838 479.539L239.438 485.837H239.438C239.438 485.837 241.45 491.175 242.014 497.51L275.777 490.964C275.135 488.988 274.692 486.953 274.454 484.89L274.454 484.89Z" fill="#00B6F0"/>
<path d="M242.015 499.121C241.611 499.121 241.221 498.97 240.923 498.697C240.624 498.424 240.439 498.049 240.403 497.646C239.867 491.623 237.944 486.451 237.924 486.4C237.841 486.178 237.807 485.941 237.825 485.705C237.843 485.468 237.913 485.239 238.03 485.033C238.147 484.827 238.307 484.649 238.5 484.511C238.693 484.374 238.914 484.281 239.147 484.238L273.548 477.94C273.766 477.901 273.989 477.906 274.205 477.956C274.421 478.006 274.624 478.1 274.802 478.232C274.98 478.364 275.129 478.531 275.24 478.723C275.351 478.914 275.421 479.127 275.447 479.347L276.062 484.698C276.289 486.655 276.709 488.584 277.317 490.458C277.388 490.676 277.411 490.907 277.386 491.134C277.361 491.362 277.288 491.582 277.172 491.779C277.055 491.977 276.898 492.147 276.711 492.279C276.524 492.411 276.311 492.502 276.086 492.546L242.323 499.092C242.222 499.111 242.118 499.121 242.015 499.121ZM241.565 487.085C242.136 488.934 242.966 492.019 243.431 495.58L273.725 489.707C273.321 488.184 273.028 486.633 272.847 485.067L272.429 481.435L241.565 487.085Z" fill="#1B6C86"/>
<path d="M265.234 481.109L267.333 492.597L265.234 481.109Z" fill="#FF8D61"/>
<path d="M267.335 494.216C266.957 494.215 266.591 494.082 266.3 493.839C266.01 493.597 265.813 493.26 265.745 492.888L263.647 481.4C263.577 480.981 263.675 480.551 263.919 480.204C264.163 479.856 264.534 479.618 264.952 479.542C265.37 479.466 265.802 479.557 266.153 479.796C266.505 480.035 266.748 480.402 266.831 480.819L268.929 492.306C268.972 492.54 268.962 492.78 268.902 493.009C268.842 493.239 268.731 493.452 268.579 493.634C268.427 493.817 268.237 493.963 268.022 494.063C267.807 494.164 267.573 494.216 267.335 494.216Z" fill="#1B6C86"/>
<path d="M256.641 482.688L258.898 494.237L256.641 482.688Z" fill="#FF8D61"/>
<path d="M258.895 495.854C258.52 495.853 258.157 495.723 257.868 495.484C257.579 495.245 257.381 494.914 257.309 494.546L255.052 482.996C254.972 482.576 255.062 482.142 255.302 481.788C255.542 481.435 255.912 481.19 256.331 481.108C256.75 481.026 257.185 481.113 257.541 481.351C257.896 481.588 258.143 481.957 258.227 482.375L260.485 493.925C260.531 494.159 260.524 494.401 260.466 494.633C260.407 494.865 260.298 495.08 260.146 495.265C259.994 495.449 259.803 495.598 259.587 495.7C259.37 495.801 259.134 495.854 258.895 495.854Z" fill="#1B6C86"/>
<path d="M248.039 484.258L250.456 495.869L248.039 484.258Z" fill="#FF8D61"/>
<path d="M250.454 497.488C250.082 497.488 249.722 497.359 249.434 497.125C249.146 496.89 248.947 496.563 248.871 496.2L246.454 484.588C246.369 484.169 246.453 483.733 246.689 483.376C246.924 483.019 247.291 482.77 247.71 482.682C248.129 482.595 248.565 482.677 248.924 482.911C249.282 483.145 249.533 483.511 249.622 483.929L252.039 495.54C252.088 495.776 252.084 496.019 252.027 496.253C251.971 496.487 251.862 496.705 251.71 496.892C251.558 497.078 251.367 497.229 251.149 497.332C250.932 497.435 250.694 497.488 250.454 497.488Z" fill="#1B6C86"/>
<path d="M213.605 349.177C228.909 371.364 267.026 410.151 267.026 410.151C267.026 410.151 285.704 457.08 304.703 477.76C308.361 481.741 318.864 490.406 318.864 490.406L348.694 473.925C348.026 468.795 346.403 465.029 336.279 441.378C324.641 414.189 291.106 348.119 268.298 304.222L267.896 303.45C255.561 279.728 226.901 269.693 202.461 280.542L192.062 285.158" fill="#00B6F0"/>
<path d="M318.865 492.029C318.497 492.029 318.132 491.903 317.835 491.659C317.403 491.302 307.203 482.877 303.513 478.86C295.529 470.169 286.706 456.059 277.289 436.92C270.92 423.976 266.431 413.001 265.646 411.059C262.452 407.793 226.867 371.256 212.274 350.101C212.151 349.927 212.063 349.729 212.016 349.52C211.97 349.311 211.965 349.095 212.002 348.884C212.04 348.674 212.119 348.473 212.235 348.293C212.35 348.113 212.501 347.957 212.677 347.836C212.853 347.714 213.052 347.629 213.261 347.585C213.47 347.54 213.687 347.538 213.897 347.578C214.107 347.618 214.307 347.699 214.486 347.817C214.665 347.935 214.818 348.087 214.938 348.264C229.988 370.083 267.8 408.636 268.181 409.023C268.332 409.176 268.45 409.358 268.53 409.558C268.716 410.025 287.318 456.449 305.896 476.671C308.839 479.874 316.492 486.326 319.049 488.46L346.93 473.057C346.181 468.625 344.19 463.973 335.018 442.547L334.793 442.02C323.479 415.59 291.128 351.676 266.863 304.974L266.462 304.202C254.547 281.288 226.724 271.547 203.119 282.026L192.72 286.642C192.526 286.729 192.316 286.776 192.104 286.781C191.892 286.786 191.68 286.75 191.482 286.673C191.284 286.597 191.102 286.482 190.948 286.336C190.794 286.19 190.671 286.014 190.584 285.82C190.498 285.626 190.451 285.417 190.446 285.204C190.44 284.992 190.477 284.78 190.553 284.582C190.63 284.384 190.744 284.202 190.891 284.049C191.037 283.895 191.213 283.771 191.407 283.685L201.806 279.069C214.004 273.654 227.658 273.1 240.254 277.51C252.849 281.92 263.176 290.869 269.333 302.709L269.734 303.482C294.026 350.233 326.419 414.235 337.768 440.747L337.994 441.274C348.061 464.793 349.608 468.407 350.3 473.721C350.342 474.043 350.286 474.37 350.139 474.66C349.992 474.95 349.762 475.189 349.478 475.346L319.648 491.827C319.408 491.959 319.139 492.029 318.865 492.029Z" fill="#1B6C86"/>
<path d="M289.227 406.083C288.906 406.083 288.592 405.988 288.326 405.809C288.06 405.631 287.852 405.377 287.73 405.081C287.608 404.784 287.577 404.458 287.641 404.144C287.705 403.829 287.86 403.541 288.088 403.315C289.794 401.625 293.72 397.15 295.493 393.041C290.32 395.164 283.184 397.042 279.328 396.308C278.998 396.245 278.696 396.081 278.463 395.839C278.231 395.597 278.079 395.288 278.03 394.956C277.981 394.624 278.036 394.285 278.188 393.986C278.34 393.686 278.581 393.442 278.879 393.286C287.024 389.011 289.097 383.117 289.549 381.361C280.32 364.784 246.841 314.761 246.5 314.253C246.382 314.076 246.3 313.878 246.258 313.67C246.216 313.461 246.216 313.247 246.257 313.038C246.299 312.83 246.38 312.632 246.498 312.455C246.616 312.278 246.768 312.126 246.944 312.008C247.121 311.89 247.319 311.807 247.527 311.766C247.736 311.724 247.95 311.724 248.159 311.765C248.367 311.806 248.565 311.888 248.742 312.006C248.919 312.124 249.071 312.276 249.189 312.452C249.534 312.968 283.816 364.191 292.677 380.33C292.848 380.641 292.912 381 292.858 381.351C292.813 381.649 291.859 387.458 285.558 392.72C289.484 391.919 294.166 390.303 297.214 388.684C297.472 388.547 297.762 388.482 298.054 388.497C298.346 388.512 298.629 388.605 298.872 388.767C299.115 388.93 299.309 389.155 299.435 389.419C299.56 389.683 299.612 389.975 299.584 390.266C298.936 397.061 290.715 405.269 290.365 405.615C290.062 405.915 289.653 406.084 289.227 406.083L289.227 406.083ZM329.196 476.301C328.956 476.301 328.72 476.248 328.503 476.146C328.286 476.043 328.095 475.894 327.943 475.708C319.094 464.901 316.552 454.429 314.695 446.782C314.081 444.252 313.55 442.066 312.888 440.172C305.973 420.369 295.436 412.566 295.331 412.49C294.965 412.225 294.726 411.819 294.672 411.371C294.618 410.923 294.753 410.472 295.045 410.128C299.414 405.001 302.63 399.717 302.662 399.664C302.772 399.483 302.917 399.324 303.088 399.199C303.26 399.073 303.454 398.982 303.66 398.931C303.867 398.881 304.081 398.871 304.291 398.903C304.501 398.935 304.703 399.008 304.884 399.118C305.066 399.229 305.225 399.373 305.35 399.545C305.476 399.716 305.567 399.91 305.618 400.117C305.668 400.323 305.678 400.537 305.646 400.747C305.614 400.957 305.541 401.159 305.43 401.341C305.306 401.547 302.549 406.079 298.566 410.959C301.791 413.79 310.07 422.285 315.944 439.105C316.657 441.149 317.232 443.515 317.84 446.019C319.723 453.772 322.065 463.421 330.447 473.658C330.642 473.895 330.764 474.182 330.802 474.486C330.839 474.79 330.789 475.098 330.658 475.375C330.527 475.652 330.32 475.886 330.061 476.05C329.803 476.214 329.503 476.301 329.196 476.301H329.196Z" fill="#1B6C86"/>
<path d="M354.482 485.024C349.834 478.893 348.689 473.93 348.689 473.93L318.859 490.411C318.859 490.411 322.616 495.246 324.767 500.783L354.481 485.024H354.482Z" fill="#00B6F0"/>
<path d="M324.768 502.402C324.442 502.402 324.123 502.303 323.854 502.119C323.585 501.935 323.378 501.674 323.26 501.37C321.224 496.13 317.618 491.45 317.582 491.403C317.439 491.218 317.337 491.005 317.284 490.778C317.231 490.55 317.228 490.314 317.275 490.085C317.323 489.856 317.419 489.64 317.557 489.452C317.696 489.264 317.873 489.108 318.078 488.995L347.908 472.514C348.127 472.393 348.371 472.325 348.621 472.314C348.872 472.303 349.121 472.351 349.349 472.453C349.578 472.555 349.78 472.709 349.939 472.902C350.098 473.095 350.211 473.323 350.267 473.567C350.277 473.61 351.42 478.307 355.772 484.047C355.914 484.234 356.013 484.45 356.063 484.678C356.113 484.907 356.113 485.145 356.062 485.373C356.012 485.602 355.912 485.817 355.77 486.004C355.628 486.191 355.448 486.344 355.241 486.454L325.526 502.213C325.293 502.337 325.032 502.402 324.768 502.402L324.768 502.402ZM321.243 490.943C322.369 492.573 324.146 495.349 325.574 498.525L352.081 484.467C349.732 481.072 348.424 478.135 347.747 476.3L321.243 490.943Z" fill="#1B6C86"/>
<path d="M341.633 477.828L347.47 488.742L341.633 477.828Z" fill="#FF8D61"/>
<path d="M347.472 490.362C347.178 490.362 346.891 490.282 346.639 490.132C346.388 489.981 346.182 489.765 346.043 489.506L340.207 478.592C340.004 478.213 339.961 477.77 340.085 477.36C340.21 476.949 340.492 476.605 340.871 476.402C341.058 476.302 341.263 476.24 341.475 476.219C341.686 476.198 341.9 476.219 342.103 476.281C342.306 476.342 342.496 476.443 342.66 476.578C342.824 476.713 342.96 476.879 343.06 477.066L348.897 487.98C349.029 488.227 349.095 488.503 349.088 488.783C349.081 489.062 349.002 489.335 348.859 489.575C348.715 489.814 348.512 490.013 348.269 490.151C348.026 490.289 347.751 490.361 347.472 490.362Z" fill="#1B6C86"/>
<path d="M334.25 481.906L340.019 492.693L334.25 481.906Z" fill="#FF8D61"/>
<path d="M340.021 494.312C339.728 494.312 339.44 494.233 339.188 494.082C338.937 493.932 338.731 493.715 338.593 493.457L332.824 482.67C332.622 482.291 332.578 481.848 332.702 481.438C332.827 481.027 333.109 480.683 333.488 480.48C333.866 480.278 334.31 480.234 334.72 480.359C335.131 480.483 335.475 480.766 335.678 481.144L341.446 491.931C341.578 492.177 341.644 492.454 341.637 492.733C341.631 493.012 341.552 493.285 341.408 493.525C341.264 493.765 341.061 493.963 340.818 494.101C340.575 494.239 340.3 494.312 340.021 494.312Z" fill="#1B6C86"/>
<path d="M326.797 486.023L332.497 496.682L326.797 486.023Z" fill="#FF8D61"/>
<path d="M332.491 498.301C332.198 498.301 331.91 498.222 331.659 498.071C331.407 497.921 331.201 497.704 331.063 497.446L325.363 486.787C325.161 486.409 325.117 485.966 325.241 485.555C325.366 485.144 325.648 484.8 326.027 484.598C326.214 484.497 326.42 484.435 326.631 484.414C326.842 484.393 327.056 484.414 327.259 484.476C327.463 484.537 327.652 484.639 327.816 484.773C327.98 484.908 328.117 485.074 328.217 485.261L333.917 495.92C334.048 496.166 334.114 496.443 334.107 496.722C334.101 497.001 334.022 497.274 333.878 497.514C333.735 497.754 333.531 497.952 333.288 498.09C333.045 498.228 332.771 498.301 332.491 498.301Z" fill="#1B6C86"/>
<path d="M402.711 220.036L410.54 224.12C411.134 224.388 411.806 224.425 412.427 224.226C413.047 224.026 413.571 223.602 413.897 223.038C414.223 222.473 414.327 221.808 414.19 221.171C414.053 220.533 413.684 219.97 413.154 219.59L404.214 213.284C403.644 212.867 403.039 212.5 402.407 212.186L394.569 208.293C393.139 207.583 391.585 207.155 389.992 207.034L375.689 205.944C372.69 205.716 369.709 206.585 367.302 208.389L357.233 217.608L309.46 234.481L279.845 192.106C269.983 177.994 255.673 167.596 239.204 162.574L231.455 160.211L204 179.787L281.923 262.138C294.052 274.957 313.899 276.563 327.932 265.86L373.349 231.218C386.015 228.463 394.536 218.607 394.536 218.607L402.711 220.036L402.711 220.036Z" fill="#F6B17A"/>
<path d="M307.011 274.551C306.038 274.551 305.062 274.512 304.084 274.433C295.177 273.713 286.89 269.741 280.748 263.251L202.826 180.9C202.667 180.732 202.546 180.532 202.47 180.313C202.395 180.094 202.368 179.862 202.39 179.632C202.413 179.401 202.484 179.179 202.6 178.978C202.716 178.778 202.873 178.605 203.062 178.471L230.516 158.894C230.718 158.75 230.95 158.655 231.195 158.615C231.44 158.575 231.69 158.592 231.928 158.664L239.677 161.027C256.413 166.13 271.15 176.839 281.173 191.18L310.083 232.547L356.385 216.193L366.211 207.197C366.25 207.161 366.29 207.127 366.333 207.096C369.053 205.056 372.422 204.073 375.813 204.332L390.116 205.422C391.917 205.557 393.674 206.041 395.29 206.845L403.127 210.737C403.838 211.091 404.518 211.504 405.159 211.972L414.087 218.269C415.977 219.624 416.437 222.182 415.144 224.1C414.585 224.933 413.748 225.541 412.783 225.814C411.818 226.088 410.787 226.011 409.873 225.595C409.846 225.583 409.819 225.57 409.792 225.555L402.186 221.588L395.131 220.354C392.909 222.691 385.077 230.199 374.049 232.721L328.913 267.147C322.589 271.971 314.905 274.551 307.011 274.552L307.011 274.551ZM206.454 180.026L283.099 261.027C294.69 273.276 313.542 274.801 326.951 264.574L372.369 229.932C372.557 229.789 372.775 229.688 373.006 229.638C385.006 227.028 393.232 217.644 393.313 217.55C393.496 217.338 393.731 217.177 393.994 217.084C394.257 216.99 394.541 216.966 394.816 217.014L402.991 218.443C403.155 218.472 403.313 218.526 403.461 218.602L411.24 222.66C411.454 222.749 411.694 222.761 411.916 222.694C412.139 222.626 412.331 222.484 412.461 222.291C412.609 222.073 412.666 221.806 412.62 221.547C412.573 221.288 412.427 221.058 412.212 220.905L403.282 214.608C402.78 214.238 402.246 213.913 401.688 213.636L393.851 209.743C392.607 209.125 391.256 208.753 389.871 208.648L375.568 207.559C372.986 207.361 370.418 208.1 368.336 209.639L358.327 218.803C358.167 218.95 357.978 219.063 357.773 219.135L310.001 236.008C309.667 236.126 309.304 236.131 308.967 236.023C308.63 235.915 308.338 235.699 308.136 235.409L278.521 193.034C268.911 179.284 254.78 169.016 238.733 164.123L231.746 161.992L206.455 180.027L206.454 180.026Z" fill="#1B6C86"/>
<path d="M310.593 252.399C310.593 252.399 314.799 243.438 309.461 234.477L310.593 252.399Z" fill="#F6B17A"/>
<path d="M310.593 254.018C310.321 254.018 310.054 253.949 309.815 253.819C309.577 253.688 309.375 253.499 309.229 253.269C309.083 253.04 308.997 252.777 308.98 252.506C308.962 252.234 309.013 251.963 309.128 251.716C309.166 251.634 312.885 243.385 308.072 235.306C307.615 234.538 307.866 233.545 308.634 233.088C309.402 232.63 310.395 232.882 310.852 233.65C316.565 243.239 312.246 252.69 312.059 253.087C311.929 253.366 311.722 253.601 311.462 253.766C311.202 253.931 310.901 254.018 310.593 254.018Z" fill="#1B6C86"/>
<path d="M199.583 150.84L193.99 152.423C172.947 158.381 155.789 173.644 147.419 193.849L137.578 217.607C137.578 217.607 153.944 229.984 174.915 235.566C219.291 247.379 243.52 238.743 243.52 238.743C243.52 238.743 245.066 210.477 245.219 187.046C245.32 171.696 235.387 160.039 235.387 160.039L231.646 158.622C220.21 152.385 204.58 149.425 199.583 150.84H199.583Z" fill="#FFA500"/>
<path d="M218.878 243.403C208.134 243.403 193.101 242.083 174.5 237.132C153.464 231.532 137.282 219.413 136.603 218.899C136.317 218.683 136.111 218.379 136.018 218.033C135.924 217.688 135.947 217.321 136.084 216.99L145.925 193.231C150.125 183.093 156.678 173.88 164.877 166.586C173.077 159.293 182.992 153.858 193.55 150.869L199.143 149.285C204.721 147.707 220.737 150.862 232.323 157.15L235.961 158.528C236.216 158.625 236.443 158.784 236.619 158.992C237.041 159.486 246.941 171.288 246.838 187.059C246.686 210.26 245.152 238.55 245.137 238.833C245.12 239.152 245.009 239.458 244.818 239.713C244.627 239.969 244.365 240.162 244.065 240.269C243.808 240.36 237.655 242.514 225.954 243.202C223.858 243.325 221.494 243.403 218.877 243.403H218.878ZM139.564 217.045C143.413 219.756 157.833 229.346 175.333 234.005C197.951 240.026 215.143 240.578 225.581 239.982C234.238 239.487 239.806 238.142 241.965 237.531C242.251 232.04 243.468 207.538 243.602 187.037C243.689 173.839 235.91 163.311 234.405 161.399L231.073 160.137C231.004 160.111 230.937 160.08 230.872 160.044C219.593 153.893 204.384 151.166 200.025 152.399L194.432 153.982C173.736 159.842 157.146 174.599 148.915 194.47L139.564 217.045Z" fill="#1B6C86"/>
<path d="M254.253 201.409C251.353 251.93 264.509 270.021 260.985 275.843C260.426 276.768 259.661 277.393 258.07 278.051C256.929 278.524 257.373 280.214 258.455 281.271C261.297 284.046 265.381 284.719 265.164 293.265C265.07 296.958 265.715 298.773 268.295 304.225C271.191 310.343 256.571 320.843 213.558 312.597C198.572 309.725 175.712 302.352 157.619 310.049C154.28 307.178 153.402 299.594 156.529 293.46C162.377 281.99 154.467 278.294 156.829 270.221C161.562 254.043 160.839 247.739 160.102 232.093C159.49 219.11 153.43 213.555 158.528 194.258" fill="#FFA500"/>
<path d="M241.689 317.261C233.446 317.261 223.927 316.234 213.252 314.188C210.769 313.712 208.085 313.116 205.244 312.486C190.832 309.289 172.896 305.309 158.252 311.539C157.974 311.657 157.669 311.695 157.371 311.649C157.072 311.602 156.793 311.474 156.564 311.277C152.443 307.734 151.766 299.239 155.087 292.726C158.189 286.641 157.103 283.136 155.952 279.425C155.066 276.567 154.15 273.613 155.275 269.768C159.603 254.975 159.3 248.811 158.637 235.306C158.588 234.301 158.536 233.258 158.485 232.17C158.288 227.989 157.487 224.522 156.712 221.169C155.114 214.251 153.462 207.099 156.963 193.845C157.073 193.431 157.343 193.076 157.713 192.86C158.084 192.644 158.526 192.585 158.941 192.694C159.356 192.804 159.71 193.074 159.926 193.445C160.142 193.816 160.201 194.257 160.092 194.672C156.795 207.151 158.287 213.606 159.866 220.44C160.672 223.933 161.507 227.545 161.718 232.017C161.769 233.104 161.82 234.145 161.869 235.147C162.53 248.605 162.861 255.36 158.381 270.676C157.53 273.586 158.231 275.847 159.043 278.466C160.275 282.437 161.67 286.938 157.97 294.196C155.369 299.297 155.873 305.372 158.025 308.136C173.401 302.107 191.411 306.102 205.945 309.326C208.763 309.952 211.424 310.542 213.862 311.009C248.099 317.573 262.905 312.003 266.256 307.677C267.032 306.676 267.225 305.748 266.832 304.917C264.261 299.487 263.439 297.382 263.545 293.224C263.695 287.349 261.72 285.873 259.433 284.163C258.733 283.64 258.01 283.099 257.324 282.429C256.179 281.311 255.596 279.782 255.836 278.534C256.011 277.63 256.599 276.909 257.45 276.557C258.802 275.997 259.262 275.564 259.6 275.006C260.53 273.469 259.565 269.538 258.228 264.098C255.44 252.753 250.774 233.764 252.636 201.317C252.664 200.891 252.859 200.493 253.179 200.21C253.498 199.927 253.917 199.781 254.344 199.806C254.77 199.83 255.17 200.022 255.455 200.34C255.74 200.658 255.889 201.076 255.867 201.502C254.032 233.464 258.626 252.157 261.37 263.326C263.061 270.207 263.993 273.998 262.368 276.682C261.655 277.859 260.688 278.659 259.082 279.377C259.164 279.582 259.325 279.86 259.585 280.114C260.119 280.635 260.726 281.09 261.37 281.571C263.996 283.534 266.972 285.759 266.78 293.306C266.693 296.699 267.267 298.273 269.757 303.533C270.673 305.469 270.33 307.702 268.814 309.658C266.126 313.129 260.066 315.619 251.751 316.671C248.648 317.064 245.289 317.26 241.688 317.26L241.689 317.261Z" fill="#1B6C86"/>
<path d="M247.388 225.546L262.605 248.409C284.123 240.539 300.883 222.216 300.883 222.216C300.883 222.216 289.863 206.341 279.201 191.205C270.69 179.124 264.949 175.098 258.589 170.939C249.113 164.742 233.128 159.278 231.641 158.625" fill="#FFA500"/>
<path d="M262.607 250.026C262.341 250.026 262.078 249.96 261.843 249.834C261.608 249.708 261.408 249.526 261.26 249.304L246.043 226.441C245.807 226.084 245.722 225.648 245.807 225.228C245.892 224.808 246.14 224.439 246.496 224.202C246.853 223.965 247.289 223.878 247.709 223.962C248.129 224.046 248.499 224.293 248.737 224.648L263.241 246.44C280.854 239.621 295.173 225.761 298.802 222.052C296.134 218.214 286.83 204.841 277.88 192.136C269.817 180.69 264.432 176.691 257.706 172.292C249.904 167.19 237.5 162.555 232.831 160.811C231.779 160.418 231.261 160.223 230.992 160.105C230.606 159.929 230.304 159.607 230.153 159.21C230.002 158.813 230.013 158.372 230.183 157.983C230.354 157.594 230.671 157.288 231.066 157.131C231.461 156.973 231.902 156.978 232.293 157.142C232.491 157.229 233.173 157.484 233.963 157.78C238.725 159.559 251.374 164.285 259.477 169.584C266.507 174.181 272.132 178.356 280.526 190.273C291.07 205.24 302.105 221.133 302.215 221.292C302.424 221.593 302.525 221.957 302.5 222.323C302.475 222.689 302.327 223.036 302.079 223.307C301.905 223.497 297.728 228.041 290.833 233.618C284.46 238.772 274.487 245.785 263.163 249.927C262.985 249.992 262.797 250.026 262.607 250.026L262.607 250.026ZM238.845 230.133C238.516 230.133 238.195 230.033 237.924 229.845C237.654 229.658 237.446 229.393 237.33 229.085C229.421 208.089 233.739 198.325 233.927 197.92C234.107 197.531 234.435 197.229 234.838 197.081C235.241 196.933 235.686 196.951 236.075 197.132C236.463 197.311 236.764 197.637 236.912 198.037C237.061 198.437 237.045 198.88 236.868 199.269C236.807 199.41 233.019 208.46 240.359 227.944C240.451 228.189 240.483 228.453 240.451 228.712C240.419 228.972 240.324 229.22 240.175 229.435C240.027 229.651 239.828 229.826 239.596 229.948C239.364 230.07 239.107 230.133 238.845 230.133Z" fill="#1B6C86"/>
<path d="M272.516 184.261C272.111 184.261 271.72 184.109 271.422 183.835C259.699 173.083 249.794 178.298 249.695 178.351C249.319 178.557 248.876 178.605 248.464 178.484C248.052 178.363 247.705 178.084 247.499 177.708C247.294 177.331 247.246 176.888 247.367 176.476C247.487 176.065 247.767 175.718 248.143 175.512C248.269 175.443 251.275 173.829 255.939 173.797C260.17 173.773 266.656 175.073 273.61 181.451C273.85 181.671 274.018 181.959 274.091 182.276C274.165 182.594 274.141 182.926 274.023 183.23C273.905 183.533 273.698 183.794 273.429 183.978C273.16 184.162 272.842 184.261 272.516 184.261ZM252.716 280.459C247.522 280.459 242.858 278.693 242.576 278.584C242.182 278.425 241.866 278.118 241.697 277.728C241.527 277.339 241.518 276.898 241.671 276.502C241.823 276.105 242.126 275.785 242.513 275.609C242.9 275.434 243.34 275.418 243.739 275.564C243.827 275.598 252.582 278.898 258.415 276.101C258.802 275.918 259.246 275.896 259.649 276.039C260.052 276.182 260.382 276.478 260.567 276.864C260.752 277.25 260.777 277.693 260.636 278.097C260.494 278.501 260.199 278.832 259.814 279.019C257.584 280.088 255.095 280.458 252.717 280.458L252.716 280.459Z" fill="#1B6C86"/>
</g>
<g clip-path="url(#clip5_1996_7474)">
<path d="M463.578 158.065C473.328 149.221 475.401 135.574 468.208 127.583C461.015 119.592 447.28 120.283 437.53 129.127C427.779 137.971 425.706 151.619 432.899 159.61C440.092 167.601 453.827 166.909 463.578 158.065Z" fill="#F7E5C6"/>
<path d="M446.187 166.835C440.02 166.835 434.665 164.428 431.107 160.059C427.455 155.572 426.151 149.608 427.435 143.263C428.676 137.129 432.209 131.373 437.384 127.056C442.566 122.733 448.795 120.352 454.922 120.352C461.089 120.352 466.444 122.758 470.002 127.128C473.654 131.614 474.958 137.579 473.674 143.924C472.433 150.058 468.9 155.813 463.725 160.13C458.543 164.454 452.314 166.835 446.187 166.835ZM454.922 123.671C443.812 123.671 432.935 132.756 430.675 143.924C429.592 149.274 430.655 154.258 433.668 157.958C436.585 161.542 441.031 163.516 446.187 163.516C457.297 163.516 468.174 154.43 470.434 143.263C471.517 137.913 470.454 132.929 467.441 129.228C464.524 125.645 460.078 123.671 454.922 123.671Z" fill="#430C61"/>
<path d="M455.787 143.212C458.882 140.405 459.54 136.073 457.256 133.536C454.973 130.999 450.613 131.219 447.518 134.026C444.423 136.834 443.765 141.166 446.048 143.702C448.331 146.239 452.691 146.019 455.787 143.212Z" fill="#F4BF42"/>
<path d="M450.266 147.13C447.963 147.13 445.953 146.218 444.606 144.563C443.228 142.871 442.731 140.643 443.208 138.289C444.136 133.702 448.454 130.109 453.039 130.109C455.341 130.109 457.352 131.021 458.699 132.676C460.077 134.368 460.573 136.597 460.097 138.95C459.169 143.537 454.85 147.13 450.266 147.13L450.266 147.13ZM453.039 133.429C450.072 133.429 447.054 135.957 446.448 138.95C446.173 140.309 446.428 141.556 447.166 142.463C447.874 143.332 448.975 143.811 450.266 143.811C453.232 143.811 456.251 141.282 456.857 138.289C457.132 136.931 456.877 135.683 456.139 134.777C455.431 133.907 454.33 133.429 453.039 133.429Z" fill="#430C61"/>
<path d="M446.192 165.178C451.846 165.178 457.432 162.983 461.996 159.401C463.146 151.643 458.012 145.477 450.179 145.477C442.346 145.477 434.717 151.643 432.727 159.401C435.84 162.983 440.537 165.178 446.192 165.178Z" fill="#F4BF42"/>
<path d="M446.189 166.833C440.258 166.833 435.034 164.58 431.478 160.487C431.301 160.284 431.177 160.041 431.115 159.779C431.053 159.517 431.056 159.243 431.123 158.982C433.305 150.476 441.674 143.812 450.176 143.812C454.403 143.812 458.12 145.43 460.643 148.368C463.203 151.349 464.263 155.352 463.628 159.64C463.566 160.061 463.345 160.441 463.011 160.703C457.977 164.656 452.002 166.833 446.189 166.833ZM434.571 158.956C437.468 161.902 441.558 163.514 446.189 163.514C451.065 163.514 456.101 161.738 460.438 158.499C460.74 155.434 459.935 152.626 458.138 150.535C456.253 148.34 453.426 147.132 450.176 147.132C443.397 147.132 436.711 152.259 434.571 158.956Z" fill="#430C61"/>
<path d="M466.796 145.962L469.329 149.153C469.329 149.153 467.181 152.855 463.841 155.535C460.501 158.216 456.63 159.748 456.63 159.748L454.097 156.557C453.59 155.918 452.7 155.918 451.935 156.557L445.662 161.79C444.897 162.428 444.716 163.322 445.223 163.96L449.393 169.3C450.129 170.066 451.221 170.321 452.443 169.938C455.601 168.789 461.967 166.236 468.24 161.003C474.513 155.769 478.372 149.897 479.984 146.961C480.572 145.94 480.576 144.663 479.841 143.897L475.696 138.43C475.164 137.919 474.273 137.919 473.534 138.43L467.235 143.791C466.496 144.302 466.29 145.323 466.796 145.961L466.796 145.962Z" fill="#A1D7F1"/>
<path d="M451.358 171.775C450.146 171.775 449.026 171.321 448.197 170.457C448.158 170.416 448.121 170.374 448.086 170.329L443.916 164.989C442.858 163.656 443.148 161.73 444.6 160.519L450.873 155.285C451.635 154.649 452.538 154.349 453.412 154.439C454.19 154.519 454.891 154.906 455.384 155.527L457.123 157.718C458.449 157.093 460.75 155.892 462.803 154.244C464.872 152.583 466.472 150.46 467.291 149.26L465.497 147.001C464.982 146.351 464.767 145.523 464.893 144.671C465.022 143.8 465.501 143.009 466.213 142.486L472.459 137.169C472.502 137.133 472.546 137.099 472.591 137.068C473.983 136.106 475.727 136.175 476.832 137.235C476.895 137.295 476.953 137.36 477.006 137.43L481.102 142.833C482.239 144.096 482.372 146.11 481.418 147.78C480.364 149.7 476.406 156.348 469.291 162.284C464.648 166.158 459.167 169.26 453.001 171.504C452.977 171.512 452.954 171.52 452.93 171.527C452.4 171.694 451.871 171.775 451.358 171.775L451.358 171.775ZM450.624 168.199C450.927 168.478 451.36 168.535 451.913 168.369C457.702 166.258 462.838 163.352 467.177 159.731C473.863 154.153 477.557 147.937 478.53 146.165L478.546 146.135C478.797 145.699 478.799 145.216 478.644 145.054C478.599 145.007 478.558 144.959 478.519 144.907L474.596 139.732C474.568 139.743 474.541 139.756 474.515 139.771L468.298 145.062C468.276 145.081 468.253 145.1 468.23 145.118L470.616 148.124C470.824 148.385 470.948 148.704 470.972 149.037C470.996 149.371 470.92 149.704 470.752 149.993C470.658 150.155 468.408 153.995 464.867 156.837C461.373 159.641 457.398 161.231 457.231 161.297C456.901 161.427 456.539 161.448 456.197 161.356C455.855 161.264 455.552 161.065 455.331 160.787L452.988 157.836L452.986 157.838L446.713 163.072C446.694 163.087 446.676 163.104 446.658 163.121L450.624 168.199Z" fill="#430C61"/>
</g>
</g>
<defs>
<clipPath id="clip0_1996_7474">
<rect width="605" height="605" fill="white"/>
</clipPath>
<clipPath id="clip1_1996_7474">
<rect width="213.046" height="312.007" fill="white" transform="translate(279.164 225.359)"/>
</clipPath>
<clipPath id="clip2_1996_7474">
<rect width="162.486" height="85.3482" fill="white" transform="translate(300.555 142.82)"/>
</clipPath>
<clipPath id="clip3_1996_7474">
<rect width="126.618" height="227.955" fill="white" transform="translate(112.57 308.984)"/>
</clipPath>
<clipPath id="clip4_1996_7474">
<rect width="302.284" height="468.875" fill="white" transform="translate(128.133 75.625)"/>
</clipPath>
<clipPath id="clip5_1996_7474">
<rect width="55.0982" height="51.425" fill="white" transform="translate(426.961 120.352)"/>
</clipPath>
</defs>
</svg>
