<svg width="605" height="605" viewBox="0 0 605 605" fill="none" xmlns="http://www.w3.org/2000/svg">
<g clip-path="url(#clip0_1996_7599)">
<path d="M129.346 544.5C141.976 544.5 152.215 542.388 152.215 539.781C152.215 537.175 141.976 535.062 129.346 535.062C116.715 535.062 106.477 537.175 106.477 539.781C106.477 542.388 116.715 544.5 129.346 544.5Z" fill="#232323"/>
</g>
<g clip-path="url(#clip1_1996_7599)">
<path d="M508.018 82.7656H337.536C320.594 82.7656 306.859 96.493 306.859 113.426V509.969C306.859 526.902 320.594 540.63 337.536 540.63H508.018C524.961 540.63 538.695 526.902 538.695 509.969V113.426C538.695 96.493 524.961 82.7656 508.018 82.7656Z" fill="#232323"/>
<path d="M338.234 93.8203H507.306C518.736 93.8203 527.978 102.622 527.978 113.477V509.925C527.978 520.783 518.719 529.582 507.306 529.582H338.234C326.804 529.582 317.562 520.783 317.562 509.925V113.477C317.562 102.622 326.821 93.8203 338.234 93.8203Z" fill="white"/>
<path d="M440.914 100.555H404.641C400.887 100.555 397.844 103.596 397.844 107.348V107.451C397.844 111.203 400.887 114.244 404.641 114.244H440.914C444.668 114.244 447.712 111.203 447.712 107.451V107.348C447.712 103.596 444.668 100.555 440.914 100.555Z" fill="#232323"/>
</g>
<g clip-path="url(#clip2_1996_7599)">
<path d="M491.243 359.18H449.677C442.986 359.18 437.562 364.602 437.562 371.29V412.841C437.562 419.529 442.986 424.951 449.677 424.951H491.243C497.934 424.951 503.358 419.529 503.358 412.841V371.29C503.358 364.602 497.934 359.18 491.243 359.18Z" fill="white"/>
<path d="M491.244 425.668H449.678C446.273 425.665 443.008 424.311 440.601 421.905C438.193 419.498 436.839 416.235 436.836 412.831V371.29C436.84 367.887 438.194 364.624 440.601 362.217C443.009 359.811 446.273 358.457 449.678 358.453H491.244C494.648 358.458 497.912 359.812 500.319 362.218C502.726 364.624 504.081 367.887 504.085 371.29V412.831C504.081 416.234 502.727 419.497 500.32 421.904C497.912 424.31 494.648 425.664 491.244 425.668ZM449.678 359.906C446.658 359.91 443.764 361.11 441.629 363.244C439.494 365.378 438.293 368.272 438.29 371.29V412.831C438.29 415.85 439.49 418.746 441.625 420.88C443.761 423.015 446.657 424.215 449.678 424.215H491.244C494.264 424.215 497.16 423.015 499.296 420.88C501.432 418.746 502.631 415.85 502.631 412.831V371.29C502.628 368.272 501.427 365.378 499.292 363.244C497.158 361.11 494.263 359.91 491.244 359.906H449.678Z" fill="#FFA500" fill-opacity="0.6"/>
<path d="M496.419 399.132L492.237 397.785C492.156 396.599 491.906 395.431 491.493 394.317L494.762 391.374C494.882 391.275 494.961 391.135 494.983 390.98C495.004 390.826 494.967 390.669 494.878 390.541L492.717 387.392C492.628 387.263 492.495 387.173 492.342 387.138C492.19 387.104 492.03 387.128 491.895 387.206L487.982 389.209C487.088 388.424 486.086 387.772 485.007 387.271L485.237 382.885C485.252 382.729 485.208 382.574 485.114 382.449C485.021 382.324 484.884 382.238 484.731 382.209L480.985 381.521C480.829 381.488 480.667 381.517 480.532 381.6C480.397 381.683 480.298 381.816 480.258 381.969L478.911 386.152C477.726 386.239 476.56 386.496 475.448 386.915L472.507 383.65C472.408 383.529 472.268 383.449 472.113 383.427C471.959 383.405 471.801 383.442 471.673 383.531L468.523 385.692C468.395 385.78 468.304 385.914 468.269 386.066C468.235 386.218 468.259 386.378 468.337 386.513L470.36 390.425C469.574 391.318 468.921 392.321 468.422 393.401L464.031 393.171C463.876 393.155 463.72 393.199 463.595 393.292C463.47 393.386 463.385 393.524 463.358 393.677L462.669 397.422C462.637 397.577 462.665 397.739 462.749 397.875C462.832 398.01 462.964 398.108 463.118 398.149L467.3 399.498C467.381 400.683 467.631 401.851 468.044 402.966L464.787 405.894C464.666 405.993 464.586 406.134 464.564 406.289C464.542 406.444 464.58 406.601 464.668 406.73L466.83 409.879C466.918 410.007 467.052 410.097 467.204 410.132C467.356 410.166 467.516 410.142 467.651 410.065L471.564 408.06C472.458 408.845 473.46 409.497 474.54 409.997L474.297 414.386C474.282 414.542 474.326 414.697 474.42 414.822C474.514 414.947 474.652 415.032 474.806 415.059L478.552 415.75C478.706 415.778 478.864 415.748 478.996 415.664C479.129 415.58 479.224 415.45 479.264 415.299L480.614 411.119C481.799 411.038 482.967 410.788 484.081 410.375L487.023 413.642C487.122 413.763 487.263 413.841 487.418 413.863C487.573 413.884 487.73 413.847 487.859 413.759L490.994 411.598C491.123 411.51 491.213 411.376 491.248 411.224C491.283 411.072 491.258 410.912 491.18 410.777L489.177 406.863C489.961 405.969 490.614 404.968 491.115 403.889L495.503 404.131C495.658 404.146 495.813 404.102 495.938 404.008C496.063 403.915 496.148 403.778 496.177 403.625L496.865 399.878C496.893 399.724 496.863 399.566 496.78 399.433C496.697 399.301 496.567 399.204 496.416 399.163L496.419 399.132Z" fill="#FFA500" fill-opacity="0.6"/>
<path d="M469.395 378.772L466.071 378.53C465.799 377.671 465.406 376.855 464.903 376.108L466.778 373.356C466.847 373.261 466.879 373.144 466.868 373.027C466.857 372.909 466.803 372.8 466.717 372.719L464.561 370.782C464.474 370.701 464.36 370.656 464.241 370.656C464.123 370.656 464.008 370.701 463.921 370.782L461.397 372.962C460.597 372.545 459.742 372.245 458.857 372.07L458.249 368.803C458.23 368.689 458.171 368.585 458.082 368.511C457.993 368.437 457.88 368.397 457.765 368.398L454.879 368.558C454.76 368.564 454.648 368.615 454.565 368.701C454.483 368.786 454.435 368.9 454.433 369.019L454.191 372.342C453.331 372.614 452.515 373.008 451.768 373.511L449.015 371.627C448.92 371.558 448.802 371.527 448.685 371.538C448.568 371.55 448.458 371.604 448.378 371.69L446.44 373.846C446.362 373.934 446.319 374.048 446.319 374.165C446.319 374.283 446.362 374.397 446.44 374.485L448.62 377.011C448.204 377.811 447.903 378.665 447.729 379.55L444.438 380.165C444.324 380.183 444.219 380.243 444.145 380.331C444.07 380.42 444.03 380.533 444.031 380.649L444.194 383.534C444.199 383.652 444.25 383.764 444.335 383.847C444.42 383.93 444.533 383.977 444.652 383.98L447.976 384.222C448.248 385.081 448.642 385.897 449.146 386.644L447.261 389.398C447.192 389.493 447.161 389.611 447.172 389.728C447.184 389.845 447.238 389.954 447.324 390.035L449.478 391.972C449.565 392.053 449.679 392.098 449.798 392.098C449.917 392.098 450.031 392.053 450.118 391.972L452.645 389.793C453.444 390.209 454.3 390.509 455.184 390.684L455.8 393.961C455.819 394.075 455.878 394.179 455.967 394.253C456.056 394.327 456.168 394.367 456.284 394.365L459.17 394.206C459.288 394.196 459.398 394.144 459.48 394.06C459.562 393.975 459.61 393.863 459.616 393.745L459.858 390.422C460.718 390.15 461.534 389.756 462.281 389.252L465.034 391.137C465.129 391.206 465.247 391.237 465.364 391.226C465.481 391.214 465.59 391.16 465.671 391.074L467.597 388.921C467.678 388.834 467.723 388.72 467.723 388.601C467.723 388.482 467.678 388.368 467.597 388.281L465.416 385.755C465.833 384.955 466.133 384.099 466.308 383.214L469.584 382.599C469.699 382.58 469.803 382.521 469.877 382.432C469.952 382.344 469.992 382.231 469.991 382.115L469.831 379.23C469.825 379.114 469.778 379.004 469.698 378.92C469.618 378.836 469.51 378.784 469.395 378.772Z" fill="#FFA500" fill-opacity="0.6"/>
<path d="M396.11 359.18H354.544C347.854 359.18 342.43 364.602 342.43 371.29V412.841C342.43 419.529 347.854 424.951 354.544 424.951H396.11C402.801 424.951 408.225 419.529 408.225 412.841V371.29C408.225 364.602 402.801 359.18 396.11 359.18Z" fill="white"/>
<path d="M396.111 425.668H354.545C351.14 425.664 347.876 424.31 345.469 421.904C343.061 419.497 341.707 416.234 341.703 412.831V371.29C341.708 367.887 343.062 364.624 345.469 362.218C347.877 359.812 351.14 358.458 354.545 358.453H396.111C399.515 358.457 402.779 359.811 405.187 362.217C407.594 364.624 408.949 367.887 408.952 371.29V412.831C408.949 416.235 407.595 419.498 405.188 421.905C402.78 424.311 399.516 425.665 396.111 425.668ZM354.545 359.906C351.526 359.91 348.631 361.11 346.496 363.244C344.361 365.378 343.16 368.272 343.157 371.29V412.831C343.157 415.85 344.357 418.746 346.492 420.88C348.628 423.015 351.525 424.215 354.545 424.215H396.111C399.131 424.215 402.028 423.015 404.163 420.88C406.299 418.746 407.499 415.85 407.499 412.831V371.29C407.495 368.272 406.295 365.378 404.16 363.244C402.025 361.11 399.13 359.91 396.111 359.906H354.545Z" fill="#1B6C86"/>
<path d="M375.326 415.863C387.148 415.863 396.731 406.284 396.731 394.467C396.731 382.65 387.148 373.07 375.326 373.07C363.505 373.07 353.922 382.65 353.922 394.467C353.922 406.284 363.505 415.863 375.326 415.863Z" fill="#1B6C86"/>
<path d="M385.403 405.264C385.21 405.264 385.026 405.188 384.889 405.051L374.812 394.98C374.677 394.844 374.601 394.659 374.602 394.467V386.508C374.602 386.315 374.678 386.13 374.814 385.994C374.951 385.858 375.136 385.781 375.328 385.781C375.521 385.781 375.706 385.858 375.842 385.994C375.979 386.13 376.055 386.315 376.055 386.508V394.164L385.917 404.024C386.018 404.126 386.087 404.255 386.115 404.396C386.143 404.537 386.129 404.683 386.074 404.816C386.019 404.948 385.926 405.062 385.807 405.142C385.687 405.222 385.547 405.264 385.403 405.264Z" fill="white"/>
<path d="M367.096 373.112C366.653 371.99 365.95 370.988 365.045 370.19C364.141 369.391 363.06 368.817 361.891 368.516C360.722 368.214 359.499 368.194 358.32 368.455C357.142 368.717 356.042 369.254 355.111 370.022C354.18 370.789 353.444 371.767 352.962 372.873C352.481 373.98 352.269 375.184 352.342 376.389C352.416 377.593 352.774 378.763 353.386 379.803C353.998 380.843 354.848 381.723 355.866 382.372C358.416 378.072 362.388 374.797 367.096 373.112ZM394.796 382.374C395.814 381.726 396.664 380.846 397.277 379.806C397.889 378.766 398.247 377.596 398.321 376.392C398.395 375.188 398.183 373.983 397.702 372.876C397.221 371.769 396.485 370.792 395.554 370.024C394.623 369.256 393.523 368.719 392.345 368.457C391.167 368.195 389.943 368.216 388.774 368.517C387.605 368.818 386.524 369.391 385.619 370.19C384.714 370.989 384.011 371.99 383.568 373.112C388.275 374.798 392.246 378.074 394.796 382.374Z" fill="#1B6C86"/>
<path d="M396.11 256.789H354.544C347.854 256.789 342.43 262.211 342.43 268.899V310.45C342.43 317.138 347.854 322.56 354.544 322.56H396.11C402.801 322.56 408.225 317.138 408.225 310.45V268.899C408.225 262.211 402.801 256.789 396.11 256.789Z" fill="white"/>
<path d="M396.111 323.287H354.545C351.14 323.283 347.877 321.929 345.469 319.522C343.062 317.116 341.708 313.853 341.703 310.45V268.899C341.707 265.496 343.061 262.233 345.469 259.827C347.876 257.42 351.14 256.066 354.545 256.062H396.111C399.516 256.066 402.78 257.419 405.188 259.826C407.595 262.233 408.949 265.496 408.952 268.899V310.45C408.949 313.853 407.594 317.116 405.187 319.523C402.779 321.929 399.515 323.283 396.111 323.287ZM354.545 257.516C351.525 257.516 348.628 258.715 346.492 260.85C344.357 262.985 343.157 265.88 343.157 268.899V310.45C343.16 313.468 344.361 316.362 346.496 318.496C348.631 320.63 351.526 321.831 354.545 321.834H396.111C399.13 321.831 402.025 320.63 404.16 318.496C406.295 316.362 407.495 313.468 407.499 310.45V268.899C407.499 265.88 406.299 262.985 404.163 260.85C402.028 258.715 399.131 257.516 396.111 257.516H354.545Z" fill="#FFA500" fill-opacity="0.6"/>
<path d="M396.799 284.053C396.827 281.992 396.445 279.945 395.675 278.033C394.906 276.12 393.764 274.379 392.317 272.911L392.205 272.8C389.575 270.185 386.105 268.584 382.409 268.28C378.712 267.975 375.027 268.987 372.005 271.137C368.983 273.287 366.818 276.435 365.894 280.026C364.97 283.617 365.346 287.419 366.955 290.76C366.957 290.765 366.957 290.771 366.955 290.777C367.364 291.627 367.851 292.438 368.409 293.199C368.598 293.458 368.799 293.712 369.005 293.959C369.277 294.282 369.562 294.597 369.861 294.904L369.97 295.015C372.16 297.198 374.945 298.686 377.977 299.293C381.01 299.901 384.154 299.6 387.016 298.43C389.878 297.259 392.331 295.27 394.068 292.713C395.805 290.155 396.748 287.142 396.78 284.05L396.799 284.053ZM372.213 292.794L372.126 292.705C369.781 290.338 368.472 287.136 368.487 283.805C368.503 280.473 369.842 277.285 372.21 274.94C374.577 272.595 377.78 271.287 381.113 271.302C384.445 271.318 387.635 272.657 389.981 275.023L390.068 275.111C392.414 277.477 393.722 280.679 393.707 284.01C393.691 287.342 392.352 290.531 389.984 292.875C387.617 295.22 384.414 296.528 381.082 296.513C377.749 296.497 374.559 295.159 372.213 292.792V292.794Z" fill="#FFA500" fill-opacity="0.6"/>
<path d="M372.025 293.719L371.276 292.971C370.407 292.102 368.999 292.102 368.13 292.971L354.174 306.922C353.305 307.79 353.305 309.198 354.174 310.066L354.923 310.815C355.791 311.683 357.2 311.683 358.068 310.815L372.025 296.864C372.893 295.995 372.893 294.587 372.025 293.719Z" fill="#FFA500" fill-opacity="0.6"/>
<path d="M491.243 256.789H449.677C442.986 256.789 437.562 262.211 437.562 268.899V310.45C437.562 317.138 442.986 322.56 449.677 322.56H491.243C497.934 322.56 503.358 317.138 503.358 310.45V268.899C503.358 262.211 497.934 256.789 491.243 256.789Z" fill="white"/>
<path d="M491.244 323.287H449.678C446.273 323.283 443.009 321.929 440.601 319.523C438.194 317.116 436.84 313.853 436.836 310.45V268.899C436.839 265.496 438.193 262.233 440.601 259.826C443.008 257.419 446.273 256.066 449.678 256.062H491.244C494.648 256.066 497.912 257.42 500.32 259.827C502.727 262.233 504.081 265.496 504.085 268.899V310.45C504.081 313.853 502.726 317.116 500.319 319.522C497.912 321.929 494.648 323.283 491.244 323.287ZM449.678 257.516C446.657 257.516 443.761 258.715 441.625 260.85C439.49 262.985 438.29 265.88 438.29 268.899V310.45C438.293 313.468 439.494 316.362 441.629 318.496C443.764 320.63 446.658 321.831 449.678 321.834H491.244C494.263 321.831 497.158 320.63 499.292 318.496C501.427 316.362 502.628 313.468 502.631 310.45V268.899C502.631 265.88 501.432 262.985 499.296 260.85C497.16 258.715 494.264 257.516 491.244 257.516H449.678Z" fill="#1B6C86"/>
<path d="M482.178 277.609H458.75L462.45 271.253C462.695 270.834 463.045 270.487 463.466 270.245C463.886 270.003 464.363 269.876 464.849 269.875H476.077C476.562 269.875 477.039 270.002 477.46 270.244C477.881 270.486 478.231 270.834 478.475 271.253L482.178 277.609Z" fill="#1B6C86"/>
<path d="M490.51 274.469H450.408C448.802 274.469 447.5 275.77 447.5 277.375V306.571C447.5 308.176 448.802 309.477 450.408 309.477H490.51C492.116 309.477 493.418 308.176 493.418 306.571V277.375C493.418 275.77 492.116 274.469 490.51 274.469Z" fill="#1B6C86"/>
<path d="M470.459 301.778C475.877 301.778 480.27 297.387 480.27 291.971C480.27 286.555 475.877 282.164 470.459 282.164C465.041 282.164 460.648 286.555 460.648 291.971C460.648 297.387 465.041 301.778 470.459 301.778Z" fill="#1B6C86"/>
<path d="M470.459 302.505C468.375 302.505 466.338 301.887 464.605 300.729C462.872 299.572 461.521 297.926 460.724 296.002C459.926 294.077 459.718 291.959 460.125 289.915C460.531 287.872 461.535 285.995 463.009 284.522C464.483 283.049 466.361 282.046 468.405 281.64C470.449 281.233 472.568 281.442 474.494 282.24C476.419 283.038 478.065 284.388 479.222 286.121C480.38 287.853 480.997 289.89 480.997 291.974C480.994 294.766 479.882 297.443 477.907 299.417C475.931 301.392 473.253 302.502 470.459 302.505ZM470.459 282.886C468.663 282.886 466.907 283.418 465.413 284.416C463.92 285.413 462.756 286.831 462.068 288.49C461.38 290.148 461.2 291.974 461.55 293.735C461.9 295.496 462.764 297.114 464.034 298.384C465.303 299.655 466.921 300.52 468.683 300.871C470.444 301.222 472.271 301.044 473.93 300.357C475.59 299.671 477.01 298.509 478.009 297.016C479.008 295.524 479.542 293.769 479.543 291.974C479.541 289.566 478.584 287.257 476.88 285.554C475.177 283.851 472.868 282.893 470.459 282.891V282.886Z" fill="white"/>
<path d="M394.678 154.398H355.976C348.495 154.398 342.43 160.461 342.43 167.94V206.628C342.43 214.107 348.495 220.17 355.976 220.17H394.678C402.16 220.17 408.225 214.107 408.225 206.628V167.94C408.225 160.461 402.16 154.398 394.678 154.398Z" fill="#1B6C86"/>
<path d="M367.011 184.722C367.06 184.647 367.128 184.585 367.207 184.542C367.286 184.499 367.375 184.477 367.465 184.477C367.555 184.477 367.644 184.499 367.724 184.542C367.803 184.585 367.87 184.647 367.92 184.722L374.413 194.616L380.812 204.377C380.866 204.459 380.897 204.553 380.902 204.65C380.906 204.748 380.884 204.845 380.838 204.93C380.792 205.016 380.723 205.088 380.639 205.138C380.555 205.187 380.459 205.213 380.362 205.213L367.546 205.264L354.731 205.315C354.634 205.315 354.538 205.289 354.454 205.239C354.37 205.19 354.301 205.118 354.254 205.033C354.207 204.947 354.184 204.851 354.188 204.753C354.191 204.656 354.221 204.561 354.273 204.479L360.602 194.67L367.011 184.722Z" fill="white"/>
<path d="M387.129 190.636C387.178 190.561 387.245 190.499 387.324 190.456C387.403 190.413 387.492 190.391 387.582 190.391C387.672 190.391 387.761 190.413 387.84 190.456C387.919 190.499 387.986 190.561 388.035 190.636L392.568 197.549L397.012 204.331C397.065 204.412 397.095 204.506 397.1 204.604C397.104 204.701 397.082 204.797 397.035 204.883C396.989 204.968 396.921 205.04 396.837 205.09C396.754 205.14 396.659 205.166 396.561 205.166L387.638 205.203L378.714 205.237C378.617 205.237 378.521 205.211 378.437 205.162C378.354 205.112 378.285 205.041 378.238 204.956C378.191 204.87 378.169 204.774 378.172 204.677C378.176 204.58 378.206 204.485 378.258 204.404L382.654 197.585L387.129 190.636Z" fill="white"/>
<path d="M384.296 178.045C386.62 176.349 387.128 173.091 385.432 170.768C383.736 168.445 380.477 167.937 378.153 169.633C375.829 171.328 375.32 174.586 377.017 176.909C378.713 179.232 381.972 179.74 384.296 178.045Z" fill="white"/>
<path d="M491.243 154.398H449.677C442.986 154.398 437.562 159.82 437.562 166.509V208.059C437.562 214.748 442.986 220.17 449.677 220.17H491.243C497.934 220.17 503.358 214.748 503.358 208.059V166.509C503.358 159.82 497.934 154.398 491.243 154.398Z" fill="white"/>
<path d="M491.244 220.896H449.678C446.273 220.893 443.008 219.54 440.601 217.133C438.193 214.726 436.839 211.463 436.836 208.059V166.509C436.84 163.105 438.194 159.843 440.601 157.436C443.009 155.029 446.273 153.676 449.678 153.672H491.244C494.648 153.676 497.912 155.03 500.319 157.437C502.726 159.843 504.081 163.106 504.085 166.509V208.059C504.081 211.463 502.727 214.726 500.32 217.132C497.912 219.539 494.648 220.893 491.244 220.896ZM449.678 155.125C446.657 155.125 443.761 156.324 441.625 158.459C439.49 160.594 438.29 163.49 438.29 166.509V208.059C438.29 211.079 439.49 213.974 441.625 216.109C443.761 218.244 446.657 219.443 449.678 219.443H491.244C494.264 219.443 497.16 218.244 499.296 216.109C501.432 213.974 502.631 211.079 502.631 208.059V166.509C502.631 163.49 501.432 160.594 499.296 158.459C497.16 156.324 494.264 155.125 491.244 155.125H449.678Z" fill="#FFA500" fill-opacity="0.6"/>
<path d="M465.415 170.582V170.461C465.415 169.92 465.2 169.402 464.817 169.019C464.435 168.637 463.916 168.422 463.375 168.422H448.837C448.296 168.422 447.777 168.637 447.394 169.019C447.012 169.402 446.797 169.92 446.797 170.461V204.106C446.797 204.647 447.012 205.166 447.394 205.548C447.777 205.931 448.296 206.146 448.837 206.146H490.543C491.085 206.146 491.603 205.931 491.986 205.548C492.369 205.166 492.584 204.647 492.584 204.106V174.659C492.584 174.118 492.369 173.599 491.986 173.217C491.603 172.834 491.085 172.619 490.543 172.619H467.455C467.187 172.62 466.922 172.568 466.674 172.466C466.426 172.363 466.201 172.214 466.012 172.024C465.822 171.835 465.672 171.61 465.57 171.363C465.467 171.115 465.415 170.85 465.415 170.582Z" fill="#FFA500" fill-opacity="0.6"/>
<path d="M490.496 206.149H448.845C448.54 206.147 448.238 206.078 447.963 205.944C447.688 205.811 447.446 205.618 447.256 205.378C447.065 205.139 446.931 204.86 446.863 204.562C446.796 204.264 446.796 203.954 446.863 203.656L452.785 180.404C452.888 179.954 453.141 179.552 453.503 179.265C453.864 178.977 454.312 178.82 454.774 178.82H496.425C496.731 178.82 497.034 178.889 497.309 179.022C497.585 179.155 497.828 179.348 498.019 179.587C498.21 179.826 498.345 180.105 498.413 180.404C498.482 180.702 498.482 181.012 498.414 181.31L492.49 204.562C492.388 205.014 492.134 205.417 491.772 205.705C491.409 205.994 490.959 206.15 490.496 206.149Z" fill="#FFA500" fill-opacity="0.6"/>
<path d="M454.765 177.305C453.986 177.301 453.23 177.563 452.621 178.048C452.012 178.532 451.587 179.21 451.416 179.969L446.812 197.994V204.868C446.821 204.428 446.879 203.99 446.985 203.562L452.906 180.311C453.001 179.886 453.238 179.507 453.579 179.235C453.919 178.964 454.342 178.817 454.777 178.819H492.585V177.305H454.765Z" fill="white"/>
</g>
<g clip-path="url(#clip3_1996_7599)">
<path d="M177.801 261.081C153.138 253.27 102.046 241.436 99.92 255.107C97.4038 271.244 177.801 261.081 177.801 261.081ZM143.536 456.489C135.449 443.332 125.754 433.164 120.369 412.495C115.439 393.532 106.282 391.541 101.369 395.866C95.4746 401.061 94.0886 425.08 143.536 456.489Z" fill="#232323"/>
<path d="M145.618 455.567C144.972 455.86 110.249 469.311 104.939 471.039L96.4527 455.652C96.4527 455.652 94.0486 441.421 96.0606 437.761C99.8459 435.5 126.659 419.078 126.659 419.078C126.659 419.078 141.995 442.045 145.618 455.567Z" fill="white"/>
<path d="M104.947 471.763C104.817 471.763 104.689 471.728 104.577 471.662C104.464 471.595 104.372 471.5 104.309 471.386L95.8226 455.999C95.7808 455.924 95.7528 455.841 95.7398 455.756C95.4962 454.274 93.3527 441.166 95.428 437.392C95.4905 437.278 95.5822 437.183 95.6935 437.116C99.4325 434.882 126.017 418.599 126.285 418.436C126.446 418.337 126.639 418.305 126.823 418.345C127.008 418.385 127.169 418.496 127.274 418.653C127.313 418.711 131.171 424.5 135.415 431.868C141.131 441.787 144.802 449.689 146.32 455.358C146.365 455.526 146.349 455.704 146.275 455.86C146.201 456.017 146.073 456.142 145.915 456.214C145.743 456.294 110.944 469.834 105.174 471.717C105.101 471.745 105.025 471.76 104.947 471.763ZM97.1526 455.402L105.283 470.146C111.77 467.919 140.286 456.854 144.724 455.122C141.231 443.013 128.794 423.669 126.436 420.063C122.5 422.473 100.587 435.901 96.6143 438.274C95.2259 441.293 96.5095 451.492 97.1623 455.402H97.1526Z" fill="#232323"/>
<path d="M124.499 464.079C117.403 466.759 110.247 469.308 104.949 471.038L96.4625 455.649L96.0703 437.758C99.8556 435.496 103.531 433.335 106.647 431.32L124.499 464.079Z" fill="#D9C6F4"/>
<path d="M119.822 465.822L102.306 434.203C101.692 434.586 101.073 434.971 100.438 435.36L117.732 466.584C118.429 466.333 119.125 466.08 119.822 465.822Z" fill="white"/>
<path d="M104.947 471.763C104.817 471.763 104.689 471.728 104.577 471.662C104.464 471.595 104.372 471.5 104.309 471.386L95.8226 455.999C95.7808 455.924 95.7528 455.841 95.7398 455.756C95.4962 454.274 93.3527 441.166 95.428 437.392C95.4905 437.278 95.5822 437.183 95.6935 437.116C99.4325 434.882 126.017 418.599 126.285 418.436C126.446 418.337 126.639 418.305 126.823 418.345C127.008 418.385 127.169 418.496 127.274 418.653C127.313 418.711 131.171 424.5 135.415 431.868C141.131 441.787 144.802 449.689 146.32 455.358C146.365 455.526 146.349 455.704 146.275 455.86C146.201 456.017 146.073 456.142 145.915 456.214C145.743 456.294 110.944 469.834 105.174 471.717C105.101 471.745 105.025 471.76 104.947 471.763ZM97.1526 455.402L105.283 470.146C111.77 467.919 140.286 456.854 144.724 455.122C141.231 443.013 128.794 423.669 126.436 420.063C122.5 422.473 100.587 435.901 96.6143 438.274C95.2259 441.293 96.5095 451.492 97.1623 455.402H97.1526Z" fill="#232323"/>
<path d="M197.142 475.193C183.745 475.654 170.056 474.798 146.54 456.717C134.524 447.478 123.203 445.863 121.585 454.407C119.008 468.001 145.615 484.893 197.142 475.193Z" fill="#232323"/>
<path d="M197.146 475.423C195.947 480.091 187.461 503.253 186.73 505.058L169.419 505.217L156.711 494.362C156.991 491.004 158.56 458.789 158.56 458.789L197.146 475.423Z" fill="white"/>
<path d="M169.414 505.95C169.24 505.95 169.071 505.888 168.939 505.775L156.231 494.915C156.145 494.839 156.078 494.744 156.036 494.636C155.993 494.529 155.977 494.414 155.988 494.299C156.263 490.993 157.819 459.079 157.834 458.758C157.84 458.64 157.874 458.525 157.934 458.423C157.994 458.321 158.077 458.235 158.177 458.173C158.277 458.111 158.391 458.074 158.509 458.065C158.626 458.056 158.744 458.075 158.852 458.122L197.441 474.756C197.601 474.825 197.731 474.948 197.807 475.105C197.884 475.261 197.903 475.44 197.86 475.609C196.642 480.409 188.06 503.74 187.415 505.334C187.36 505.468 187.267 505.583 187.148 505.664C187.028 505.745 186.887 505.789 186.742 505.79L169.433 505.948L169.414 505.95ZM157.464 494.048L169.672 504.486L186.214 504.335C187.649 500.61 194.71 481.232 196.259 475.847L159.222 459.886C158.954 465.368 157.768 489.704 157.464 494.048Z" fill="#232323"/>
<path d="M194.447 484.319C192.62 490.001 190.016 497.535 187.088 504.243C186.971 504.513 186.845 504.784 186.73 505.056L169.419 505.215L156.711 494.36C156.991 491 157.271 486.417 157.525 481.656L194.447 484.319Z" fill="#D9C6F4"/>
<path d="M192.706 489.556C183.014 488.859 165.218 487.607 157.209 487.156C157.163 487.902 157.117 488.635 157.07 489.349C164.88 489.78 182.159 491.001 191.961 491.705C192.216 490.979 192.465 490.263 192.706 489.556Z" fill="white"/>
<path d="M169.414 505.95C169.24 505.95 169.071 505.888 168.939 505.775L156.231 494.915C156.145 494.839 156.078 494.744 156.036 494.636C155.993 494.529 155.977 494.414 155.988 494.299C156.263 490.993 157.819 459.079 157.834 458.758C157.84 458.64 157.874 458.525 157.934 458.423C157.994 458.321 158.077 458.235 158.177 458.173C158.277 458.111 158.391 458.074 158.509 458.065C158.626 458.056 158.744 458.075 158.852 458.122L197.441 474.756C197.602 474.825 197.733 474.951 197.81 475.109C197.886 475.268 197.903 475.449 197.857 475.618C197.158 478.179 188.455 503.165 187.395 505.378C187.336 505.501 187.243 505.605 187.128 505.678C187.013 505.752 186.879 505.791 186.742 505.792L169.433 505.95H169.414ZM157.464 494.048L169.672 504.486L186.236 504.335C187.675 500.797 194.829 480.443 196.249 475.843L159.225 459.886C158.954 465.368 157.768 489.704 157.464 494.048Z" fill="#232323"/>
<path d="M236.413 533.456C234.267 536.017 229.771 539.572 220.354 540.403C202.998 541.938 150.672 541.134 150.672 541.134C151.675 535.452 152.326 531.748 152.864 528.464L152.798 528.52C153.49 523.14 154.209 517.534 154.857 512.439C155.768 505.315 156.727 494.336 156.727 494.336C162.966 494.796 166.159 500.184 171.24 502.013C171.406 502.072 171.574 502.133 171.747 502.189C176.078 503.607 185.514 504.952 192.269 505.719C200.567 506.662 207.958 509.425 211.687 511.08C212.367 511.374 212.932 511.642 213.392 511.871C214.204 512.271 214.984 512.677 215.733 513.09L216.464 513.501C216.844 513.716 217.217 513.933 217.584 514.152L217.92 514.352C220.284 515.766 222.543 517.348 224.68 519.086C224.857 519.23 225.03 519.373 225.206 519.52L225.391 519.676L225.574 519.829L225.622 519.873C225.654 519.9 225.686 519.924 225.715 519.953L225.749 519.98L226.212 520.385L226.336 520.494C226.421 520.567 226.507 520.645 226.592 520.723C226.626 520.752 226.66 520.784 226.694 520.818L227.025 521.113C227.035 521.123 227.044 521.132 227.055 521.14L227.164 521.245L227.281 521.354C227.357 521.42 227.43 521.493 227.503 521.561C227.576 521.63 227.581 521.632 227.62 521.671L227.671 521.717C227.685 521.734 227.707 521.751 227.724 521.769C227.834 521.876 227.944 521.978 228.048 522.083L228.487 522.514L228.674 522.702C228.752 522.777 228.828 522.858 228.903 522.945C229.04 523.085 229.174 523.224 229.305 523.362L229.549 523.63L229.68 523.771L229.924 524.03C230.004 524.115 230.046 524.161 230.107 524.227C230.297 524.435 230.479 524.64 230.655 524.841L230.898 525.121C231.035 525.28 231.166 525.433 231.295 525.589L231.61 525.964L231.761 526.152C231.812 526.213 231.86 526.274 231.909 526.337C232.009 526.459 232.107 526.581 232.202 526.702C232.401 526.946 232.591 527.19 232.774 527.433L232.954 527.677C233.329 528.181 233.665 528.652 233.97 529.117C234.033 529.21 234.094 529.3 234.153 529.39C234.26 529.546 234.36 529.702 234.455 529.853C234.606 530.096 234.747 530.318 234.878 530.535C234.942 530.635 235 530.735 235.059 530.832C235.509 531.597 235.836 532.221 236.055 532.667C236.084 532.725 236.113 532.784 236.138 532.838C236.25 533.081 236.328 533.249 236.369 533.347C236.381 533.376 236.389 533.398 236.396 533.413C236.404 533.426 236.41 533.441 236.413 533.456Z" fill="white"/>
<path d="M179.627 542.077C164.255 542.077 150.921 541.879 150.658 541.877C150.552 541.876 150.447 541.851 150.352 541.805C150.256 541.759 150.172 541.693 150.104 541.611C150.037 541.529 149.988 541.434 149.961 541.331C149.934 541.229 149.93 541.121 149.949 541.017C150.87 535.796 151.544 531.975 152.071 528.708C152.051 528.622 152.047 528.534 152.058 528.447C152.748 523.067 153.466 517.461 154.117 512.366C155.013 505.337 155.973 494.402 155.983 494.292C155.999 494.101 156.091 493.924 156.237 493.799C156.383 493.675 156.573 493.613 156.764 493.627C160.676 493.917 163.414 495.998 166.06 498.013C167.833 499.36 169.506 500.634 171.472 501.343C171.63 501.402 171.791 501.46 171.959 501.512C176.046 502.852 185.166 504.192 192.34 505.013C201.296 506.029 209.052 509.133 211.97 510.419C212.567 510.68 213.154 510.951 213.704 511.226C214.464 511.604 215.239 512.006 216.07 512.459L216.815 512.873C217.202 513.092 217.58 513.311 217.952 513.536L218.291 513.735C220.682 515.174 222.967 516.781 225.128 518.545C225.304 518.686 225.477 518.83 225.65 518.974C225.723 519.035 225.793 519.093 225.859 519.152L225.944 519.222L226.037 519.3L226.061 519.322L226.086 519.342L226.108 519.364L226.132 519.383L226.183 519.427L226.22 519.459L226.675 519.854L226.819 519.983L227.062 520.212C227.089 520.234 227.131 520.275 227.175 520.316L227.491 520.599L227.533 520.638L227.752 520.845L227.9 520.984L227.971 521.05C228.011 521.084 228.049 521.121 228.086 521.159C228.109 521.178 228.131 521.199 228.151 521.22L228.207 521.272L228.529 521.583L228.972 522.02L229.162 522.21L229.301 522.351L229.389 522.439C229.532 522.585 229.671 522.726 229.805 522.87L230.061 523.135C230.112 523.194 230.151 523.235 230.19 523.277C230.281 523.369 230.362 523.462 230.434 523.555L230.614 523.749C230.801 523.952 230.989 524.164 231.169 524.368L231.255 524.466L231.423 524.658C231.557 524.812 231.693 524.97 231.825 525.129L232.297 525.701C232.346 525.757 232.402 525.828 232.455 525.901C232.548 526.013 232.648 526.145 232.748 526.264C232.945 526.508 233.14 526.766 233.327 527.017L233.366 527.07C233.42 527.139 233.469 527.204 233.517 527.273C233.873 527.76 234.221 528.247 234.545 528.735L234.582 528.786C234.635 528.866 234.689 528.942 234.738 529.029C234.838 529.178 234.94 529.336 235.042 529.495C235.193 529.738 235.337 529.967 235.471 530.189L235.688 530.484C236.073 531.137 236.418 531.77 236.711 532.367L236.801 532.553C236.918 532.796 236.998 532.984 237.045 533.089V533.106C237.045 533.123 237.059 533.137 237.064 533.152C237.12 533.279 237.14 533.418 237.121 533.555C237.103 533.692 237.047 533.822 236.959 533.929C232.662 539.046 225.584 540.676 220.396 541.134C211.882 541.884 194.766 542.077 179.627 542.077ZM151.537 540.427C158.404 540.52 204.395 541.08 220.284 539.674C228.794 538.924 233.264 535.881 235.554 533.34C235.532 533.288 235.505 533.235 235.478 533.176C235.451 533.118 235.43 533.072 235.403 533.018C235.123 532.45 234.796 531.848 234.428 531.227L234.253 530.942C234.124 530.725 233.985 530.501 233.837 530.272C233.744 530.123 233.649 529.975 233.547 529.824C233.493 529.741 233.449 529.675 233.403 529.609L233.364 529.551C233.05 529.083 232.716 528.61 232.365 528.138C232.317 528.069 232.273 528.013 232.229 527.955L232.187 527.899C232.007 527.655 231.825 527.412 231.627 527.168C231.53 527.041 231.435 526.924 231.34 526.807C231.286 526.739 231.245 526.685 231.201 526.634L230.731 526.067C230.607 525.916 230.487 525.764 230.344 525.611L230.193 525.438L230.098 525.331C229.927 525.136 229.747 524.934 229.562 524.734L229.384 524.539C229.299 524.444 229.223 524.363 229.14 524.295C229.057 524.227 229.045 524.195 228.999 524.142L228.755 523.898C228.624 523.759 228.495 523.625 228.361 523.489L228.266 523.394L228.144 523.272L228.127 523.252C228.073 523.196 228.015 523.14 227.956 523.084C227.808 522.936 227.667 522.794 227.518 522.651L227.194 522.336C227.173 522.32 227.154 522.302 227.136 522.283L227.082 522.234C227.053 522.205 227.028 522.178 226.999 522.154L226.907 522.066L226.77 521.939L226.527 521.715L226.507 521.698L226.188 521.41L226.093 521.323L225.83 521.079L225.725 520.986L225.701 520.965L225.253 520.575L225.706 520L225.231 520.558L225.214 520.494L225.192 520.475L225.138 520.429L225.08 520.377L225.019 520.329L224.899 520.229C224.848 520.182 224.792 520.139 224.739 520.092L224.714 520.073C224.549 519.934 224.386 519.797 224.227 519.659C222.115 517.944 219.884 516.382 217.551 514.983L217.222 514.79C216.854 514.569 216.491 514.354 216.109 514.142L215.378 513.733C214.569 513.294 213.812 512.9 213.069 512.529C212.518 512.257 211.96 511.998 211.395 511.755C208.536 510.492 200.943 507.454 192.186 506.46C188.671 506.06 176.792 504.625 171.518 502.898C171.34 502.839 171.165 502.776 170.992 502.715C168.817 501.928 166.973 500.522 165.192 499.17C162.783 497.338 160.496 495.598 157.398 495.157C157.154 497.75 156.355 506.555 155.59 512.546C154.955 517.529 154.253 523.006 153.576 528.279C153.604 528.38 153.609 528.487 153.593 528.591C153.06 531.778 152.414 535.452 151.537 540.427Z" fill="#232323"/>
<path d="M234.508 529.954C219.559 540.609 201.978 535.014 193.311 531.416C185.838 528.314 183.37 532.322 177.274 530.387C172.185 528.777 170.585 525.137 164.103 524.384C160.206 523.933 155.188 526.416 152.847 528.485L152.781 528.541C153.473 523.161 154.192 517.554 154.84 512.46C155.751 505.335 156.888 496.135 156.893 496.106C157.054 494.839 157.154 494.125 157.171 494.125C163.411 494.585 166.142 500.194 171.223 502.031C171.389 502.092 171.557 502.151 171.73 502.207C176.06 503.627 185.497 504.972 192.251 505.737C200.55 506.68 207.941 509.443 211.67 511.098C212.349 511.392 212.915 511.661 213.375 511.89C214.181 512.289 214.961 512.698 215.716 513.108L216.447 513.52C216.826 513.734 217.2 513.951 217.567 514.17L217.903 514.367C220.266 515.782 222.525 517.364 224.663 519.102C224.84 519.245 225.016 519.392 225.189 519.538C225.252 519.586 225.313 519.638 225.374 519.691C225.435 519.745 225.496 519.794 225.557 519.845C225.571 519.862 225.591 519.874 225.605 519.889L225.698 519.969L225.732 519.998L225.854 520.101C225.968 520.2 226.083 520.3 226.195 520.403L226.321 520.51L226.565 520.739L226.67 520.834L226.999 521.131C227.009 521.139 227.019 521.148 227.028 521.158L227.137 521.263L227.254 521.37L227.478 521.579C227.517 521.614 227.554 521.65 227.593 521.689L227.644 521.735L227.7 521.787L228.022 522.101C228.173 522.245 228.319 522.388 228.462 522.532L228.548 522.615L228.648 522.72C228.728 522.795 228.801 522.873 228.877 522.963C228.952 523.054 229.062 523.146 229.147 523.239L229.278 523.378L229.344 523.443L229.537 523.646L229.668 523.787C229.749 523.872 229.829 523.96 229.912 524.045L230.094 524.245C230.284 524.45 230.467 524.654 230.643 524.857L230.886 525.137C231.022 525.295 231.154 525.449 231.283 525.605L231.597 525.98L231.751 526.167L231.897 526.353C231.998 526.474 232.095 526.596 232.189 526.718C232.389 526.962 232.579 527.205 232.762 527.449C232.825 527.532 232.883 527.61 232.942 527.693C233.317 528.197 233.653 528.667 233.958 529.13C234.021 529.223 234.084 529.313 234.14 529.403C234.248 529.559 234.347 529.715 234.445 529.866C234.469 529.895 234.491 529.925 234.508 529.954Z" fill="#232323"/>
<path d="M155.034 517.803C154.759 517.803 154.598 517.788 154.567 517.786C154.399 517.762 154.246 517.675 154.141 517.542C154.036 517.409 153.987 517.24 154.003 517.071C154.019 516.902 154.1 516.746 154.229 516.636C154.358 516.525 154.524 516.468 154.693 516.478C154.732 516.478 158.724 516.797 163.706 513.252C164.807 512.467 165.71 511.765 166.507 511.146C169.596 508.744 171.298 507.421 177.512 506.593C177.685 506.568 177.86 506.613 178 506.717C178.14 506.822 178.233 506.978 178.257 507.151C178.282 507.323 178.237 507.499 178.133 507.639C178.028 507.779 177.872 507.871 177.7 507.896H177.685C171.824 508.676 170.319 509.845 167.316 512.182C166.509 512.811 165.594 513.522 164.468 514.321C160.015 517.494 156.306 517.803 155.034 517.803Z" fill="white"/>
<path d="M214.53 536.68C213.54 536.68 212.534 536.644 211.515 536.572C205.761 536.17 199.564 534.604 193.1 531.921C188.991 530.216 186.328 530.596 183.751 530.961C181.78 531.239 179.742 531.529 177.235 530.798C174.875 530.111 173.374 529 171.923 527.925C170.115 526.588 168.405 525.321 165.058 524.809C159.325 523.934 153.367 528.303 153.306 528.347C153.189 528.434 153.043 528.471 152.899 528.45C152.755 528.429 152.625 528.351 152.538 528.235C152.451 528.118 152.414 527.972 152.435 527.828C152.456 527.684 152.534 527.554 152.65 527.467C152.909 527.275 159.042 522.777 165.224 523.725C168.841 524.278 170.739 525.674 172.575 527.043C174.013 528.108 175.369 529.112 177.542 529.745C179.822 530.411 181.656 530.15 183.598 529.875C186.192 529.507 189.134 529.09 193.521 530.91C199.876 533.546 205.956 535.084 211.593 535.481C220.176 536.083 227.779 534.073 234.19 529.504C234.311 529.428 234.457 529.401 234.596 529.431C234.736 529.461 234.859 529.544 234.939 529.663C235.018 529.782 235.048 529.927 235.022 530.068C234.996 530.208 234.916 530.333 234.799 530.415C228.945 534.579 222.14 536.68 214.53 536.68Z" fill="#232323"/>
<path d="M169.157 530.081C167.769 529.279 165.945 528.836 164.018 528.836H163.955C162.006 528.836 160.159 529.306 158.764 530.132C157.256 531.024 156.43 532.245 156.438 533.565C156.445 534.886 157.283 536.099 158.798 536.976C160.184 537.778 162.011 538.221 163.937 538.221H164.001C165.949 538.221 167.796 537.751 169.192 536.925C170.697 536.033 171.525 534.813 171.518 533.492C171.51 532.172 170.673 530.958 169.157 530.081ZM170.178 533.492C170.178 534.318 169.589 535.127 168.507 535.768C167.316 536.474 165.713 536.867 163.996 536.876H163.937C162.232 536.876 160.654 536.499 159.47 535.812C158.384 535.183 157.782 534.381 157.765 533.555C157.748 532.729 158.355 531.921 159.434 531.28C160.627 530.573 162.23 530.181 163.947 530.171H164.006C165.711 530.171 167.287 530.549 168.473 531.236C169.572 531.869 170.163 532.681 170.178 533.497V533.492Z" fill="#232323"/>
<path d="M187.314 520.382C187.043 520.382 186.777 520.315 186.539 520.187C186.3 520.059 186.097 519.874 185.947 519.649C185.797 519.423 185.705 519.165 185.679 518.895C185.654 518.626 185.695 518.354 185.799 518.104C185.96 517.722 189.857 508.685 200.384 504.984C200.589 504.906 200.807 504.869 201.025 504.876C201.244 504.883 201.459 504.933 201.658 505.025C201.856 505.116 202.035 505.246 202.183 505.407C202.331 505.568 202.445 505.757 202.52 505.963C202.594 506.169 202.626 506.387 202.614 506.606C202.603 506.824 202.548 507.038 202.453 507.235C202.358 507.432 202.224 507.608 202.06 507.753C201.896 507.898 201.705 508.008 201.498 508.078H201.478C192.368 511.28 188.865 519.286 188.831 519.374C188.705 519.672 188.494 519.927 188.225 520.107C187.955 520.286 187.638 520.382 187.314 520.382ZM195.123 522.89C194.85 522.889 194.582 522.82 194.343 522.69C194.103 522.56 193.9 522.372 193.75 522.144C193.601 521.916 193.511 521.654 193.488 521.382C193.465 521.111 193.509 520.837 193.618 520.587C193.788 520.197 197.917 511.038 208.742 507.871C209.158 507.742 209.609 507.783 209.995 507.987C210.381 508.19 210.671 508.538 210.8 508.955C210.929 509.372 210.888 509.823 210.684 510.209C210.481 510.595 210.133 510.885 209.716 511.014H209.67C200.363 513.741 196.67 521.82 196.636 521.9C196.507 522.195 196.296 522.445 196.027 522.621C195.758 522.796 195.444 522.89 195.123 522.89ZM204.075 524.744C203.638 524.743 203.221 524.568 202.913 524.259C202.605 523.95 202.432 523.531 202.433 523.094C202.433 522.856 202.485 522.62 202.586 522.405C202.742 522.069 206.55 514.121 216.429 511.363C216.849 511.246 217.298 511.3 217.677 511.514C218.057 511.728 218.336 512.084 218.454 512.503C218.571 512.923 218.517 513.372 218.304 513.752C218.091 514.132 217.735 514.412 217.316 514.53C208.939 516.874 205.6 523.733 205.565 523.789C205.434 524.073 205.223 524.314 204.959 524.483C204.695 524.652 204.388 524.743 204.075 524.744Z" fill="#D9C6F4"/>
<path d="M106.103 525.194C102.791 524.738 97.3879 522.825 91.6735 515.297C81.1458 501.426 53.9766 456.723 53.9766 456.723C59.3354 454.547 62.8064 453.129 65.861 451.831L65.7806 451.804C70.7034 449.528 75.8357 447.153 80.493 444.994C87.0137 441.973 92.5869 439.351 95.3686 438.062L95.4368 438.028C96.5963 437.492 97.2539 437.195 97.2637 437.212C100.187 442.738 96.8959 448.032 98.0431 453.31C98.0797 453.483 98.1187 453.658 98.1625 453.831C99.2635 458.253 103.146 466.954 106.091 473.079C109.708 480.606 111.299 488.329 111.891 492.359C112 493.09 112.076 493.714 112.134 494.223C112.225 495.12 112.293 495.995 112.346 496.855C112.361 497.14 112.376 497.418 112.39 497.695C112.41 498.131 112.424 498.562 112.434 498.989V499.379C112.493 502.132 112.355 504.886 112.02 507.619C111.993 507.846 111.964 508.07 111.932 508.294C111.932 508.375 111.913 508.455 111.901 508.538C111.888 508.621 111.879 508.696 111.869 508.781C111.867 508.803 111.867 508.825 111.869 508.847C111.869 508.889 111.869 508.928 111.849 508.969V509.01C111.82 509.215 111.786 509.42 111.754 509.62C111.754 509.673 111.737 509.729 111.728 509.783C111.711 509.893 111.692 510.005 111.669 510.119C111.663 510.166 111.655 510.212 111.645 510.258C111.62 510.404 111.596 510.548 111.569 510.692V510.733L111.54 510.882L111.511 511.04C111.494 511.138 111.472 511.237 111.452 511.337C111.452 511.389 111.433 511.44 111.421 511.496C111.409 511.552 111.421 511.54 111.409 511.561C111.396 511.583 111.409 511.61 111.394 511.637C111.362 511.786 111.333 511.932 111.301 512.078C111.258 512.283 111.214 512.48 111.17 512.677C111.15 512.765 111.131 512.853 111.111 512.936C111.092 513.019 111.06 513.148 111.036 513.252C110.992 513.442 110.946 513.63 110.897 513.815C110.868 513.935 110.839 514.059 110.807 514.173L110.758 514.361C110.729 514.473 110.697 514.59 110.666 514.7C110.634 514.809 110.619 514.873 110.595 514.96C110.522 515.228 110.444 515.494 110.368 515.75C110.332 515.869 110.298 515.993 110.261 516.108C110.2 516.308 110.139 516.5 110.076 516.693C110.013 516.885 109.976 517.005 109.925 517.158L109.847 517.387C109.825 517.463 109.796 517.536 109.769 517.611C109.718 517.76 109.669 517.906 109.616 518.052C109.511 518.354 109.401 518.647 109.292 518.932C109.255 519.029 109.219 519.122 109.182 519.215C108.956 519.797 108.727 520.34 108.505 520.84C108.459 520.942 108.417 521.042 108.371 521.139C108.293 521.312 108.215 521.478 108.127 521.641C108.008 521.885 107.884 522.129 107.777 522.372L107.621 522.682C107.301 523.301 106.959 523.908 106.595 524.502L106.495 524.663C106.354 524.884 106.252 525.043 106.186 525.13C106.172 525.157 106.154 525.174 106.147 525.189L106.103 525.194Z" fill="white"/>
<path d="M106.101 525.93C106.067 525.932 106.034 525.932 106.001 525.93C102.347 525.428 96.7861 523.25 91.0887 515.753C80.6536 502.008 53.6135 457.562 53.3334 457.116C53.2783 457.025 53.2435 456.924 53.2314 456.819C53.2193 456.714 53.2301 456.607 53.2633 456.507C53.2964 456.406 53.351 456.314 53.4232 456.236C53.4955 456.159 53.5837 456.098 53.6817 456.058C59.06 453.866 62.3216 452.54 65.2397 451.302C65.3019 451.241 65.3744 451.19 65.4541 451.154C70.3769 448.878 75.5092 446.502 80.1665 444.344C84.132 442.504 87.7175 440.83 90.5991 439.471C92.426 438.615 93.9386 437.911 95.025 437.407L95.1249 437.358C95.7022 437.093 96.1528 436.886 96.4646 436.747C97.0053 436.503 97.5144 436.274 97.8628 436.82C97.8731 436.835 97.8821 436.851 97.8895 436.868C99.7115 440.306 99.2755 443.613 98.8639 446.807C98.5716 449 98.2963 451.088 98.747 453.142C98.7811 453.308 98.82 453.473 98.8614 453.641C99.8991 457.808 103.611 466.243 106.739 472.748C110.636 480.864 112.139 489.073 112.604 492.24C112.704 492.918 112.785 493.556 112.848 494.138C112.933 494.967 113.004 495.844 113.062 496.794V496.833L113.106 497.647C113.126 498.09 113.14 498.527 113.15 498.96V499.353C113.209 502.14 113.069 504.928 112.731 507.695C112.709 507.878 112.685 508.061 112.66 508.246L112.643 508.377C112.643 508.47 112.619 508.555 112.607 508.638C112.607 508.679 112.595 508.718 112.59 508.757V509.06C112.589 509.069 112.589 509.079 112.59 509.089C112.561 509.286 112.529 509.481 112.497 509.674V509.71C112.497 509.754 112.483 509.817 112.47 509.878C112.451 509.998 112.434 510.107 112.412 510.217C112.412 510.266 112.395 510.319 112.385 510.37V510.426L112.319 510.797V510.824C112.32 510.837 112.32 510.851 112.319 510.865L112.263 511.157C112.263 511.209 112.241 511.279 112.227 511.35L112.207 511.45C112.207 511.489 112.188 511.545 112.176 511.606C112.164 511.667 112.176 511.662 112.159 511.689C112.142 511.715 112.159 511.737 112.146 511.764L112.051 512.205L111.92 512.812C111.903 512.895 111.881 512.985 111.859 513.073C111.837 513.16 111.827 513.214 111.81 513.284L111.786 513.392C111.737 513.589 111.691 513.779 111.642 513.969L111.552 514.327C111.53 514.403 111.518 514.459 111.503 514.515C111.472 514.637 111.438 514.759 111.406 514.876V514.895C111.384 514.975 111.365 515.056 111.34 515.139C111.27 515.407 111.189 515.675 111.111 515.938L111.08 516.045C111.053 516.135 111.028 516.22 111.002 516.306C110.941 516.503 110.88 516.7 110.816 516.898L110.573 517.6C110.551 517.665 110.522 517.746 110.493 517.824C110.437 517.989 110.388 518.136 110.334 518.279C110.229 518.584 110.117 518.881 110.005 519.174L109.986 519.225L109.891 519.468C109.674 520.021 109.443 520.579 109.204 521.115L109.165 521.201L109.063 521.444C108.992 521.605 108.909 521.776 108.819 521.946C108.695 522.19 108.576 522.451 108.459 522.677L108.3 522.992C107.952 523.664 107.599 524.29 107.248 524.86L107.143 525.028C106.992 525.272 106.878 525.433 106.812 525.516V525.53L106.79 525.562C106.778 525.579 106.766 525.599 106.751 525.616C106.679 525.72 106.581 525.804 106.467 525.859C106.353 525.914 106.227 525.938 106.101 525.93ZM55.0458 457.082C58.6191 462.929 82.6072 502.157 92.2579 514.861C97.4243 521.664 102.381 523.827 105.765 524.405L105.864 524.251C105.891 524.207 105.925 524.156 105.957 524.103C106.291 523.559 106.627 522.965 106.956 522.326C107.004 522.234 107.056 522.131 107.107 522.029C107.221 521.803 107.336 521.566 107.453 521.32C107.528 521.162 107.604 521.001 107.677 520.833C107.716 520.752 107.742 520.689 107.772 520.626L107.813 520.531C108.042 520.014 108.266 519.478 108.476 518.937C108.51 518.857 108.537 518.786 108.563 518.715L108.585 518.659C108.692 518.379 108.8 518.094 108.902 517.799C108.956 517.653 109.002 517.517 109.048 517.378L109.06 517.349C109.087 517.273 109.109 517.215 109.126 517.156L109.37 516.454C109.431 516.267 109.491 516.077 109.55 515.884C109.574 515.801 109.599 515.723 109.621 515.641L109.655 515.524C109.73 515.28 109.806 515.014 109.879 514.751L109.94 514.527V514.493C109.974 514.376 110.003 514.269 110.032 514.162C110.049 514.096 110.066 514.028 110.086 513.957L110.171 513.616C110.217 513.436 110.261 513.253 110.305 513.068L110.334 512.946C110.349 512.89 110.363 512.831 110.376 512.77C110.377 512.762 110.377 512.752 110.376 512.744C110.395 512.668 110.412 512.59 110.429 512.5C110.475 512.295 110.519 512.098 110.561 511.896L110.656 511.452C110.656 511.425 110.656 511.394 110.673 511.367V511.318C110.683 511.28 110.691 511.241 110.697 511.201L110.724 511.075C110.724 511.014 110.746 510.955 110.758 510.894L110.819 510.578C110.818 510.565 110.818 510.552 110.819 510.539C110.841 510.422 110.86 510.295 110.88 510.19V510.117C110.892 510.066 110.899 510.027 110.904 509.993C110.903 509.985 110.903 509.976 110.904 509.968C110.924 509.864 110.941 509.761 110.958 509.661L110.982 509.503V509.452C111.011 509.267 111.043 509.077 111.07 508.889V508.721C111.072 508.696 111.077 508.67 111.082 508.645V508.587C111.082 508.528 111.097 508.468 111.106 508.409C111.116 508.351 111.126 508.28 111.133 508.214L111.153 508.061C111.177 507.883 111.201 507.707 111.221 507.529C111.552 504.83 111.689 502.11 111.63 499.392V499.004C111.62 498.58 111.606 498.154 111.586 497.725C111.574 497.462 111.559 497.194 111.545 496.921V496.889C111.486 495.956 111.418 495.106 111.335 494.294C111.279 493.734 111.201 493.12 111.092 492.465C110.639 489.37 109.172 481.327 105.358 473.392C103.823 470.202 98.7177 459.382 97.378 454.004C97.3317 453.827 97.2928 453.644 97.2514 453.463C96.7496 451.146 97.0541 448.834 97.3488 446.614C97.7312 443.715 98.0942 440.967 96.8373 438.153C96.5791 438.269 96.2064 438.44 95.6681 438.691L95.6315 438.706L95.5999 438.723C94.5111 439.227 92.996 439.941 91.1618 440.791C88.2802 442.139 84.6922 443.817 80.7243 445.664C76.1668 447.777 71.1515 450.099 66.3236 452.331C66.2564 452.408 66.1733 452.469 66.0801 452.511C63.2789 453.739 60.1488 455.003 55.0458 457.082Z" fill="#232323"/>
<path d="M108.062 521.717C91.0841 514.734 86.4682 496.864 84.902 487.63C83.5526 479.653 78.8441 479.697 77.2389 473.498C75.8967 468.333 78.128 465.044 75.317 459.157C73.629 455.622 68.8523 452.693 65.8538 451.813L65.7734 451.787C70.6962 449.511 75.8285 447.135 80.4858 444.976C87.0066 441.955 97.2468 437.18 97.259 437.18C100.182 442.708 96.8887 448 98.036 453.28C98.0725 453.451 98.1115 453.626 98.1553 453.801C99.2588 458.224 103.141 466.924 106.084 473.05C109.701 480.574 111.292 488.3 111.884 492.33C111.993 493.061 112.069 493.685 112.127 494.194C112.217 495.088 112.286 495.965 112.339 496.823C112.354 497.108 112.371 497.388 112.383 497.666C112.403 498.101 112.417 498.532 112.427 498.96V499.349C112.487 502.103 112.35 504.856 112.015 507.59C111.988 507.816 111.957 508.04 111.928 508.265C111.928 508.345 111.906 508.425 111.893 508.508C111.881 508.591 111.871 508.667 111.862 508.752C111.861 508.774 111.861 508.796 111.862 508.818C111.862 508.857 111.862 508.898 111.842 508.94V508.981L111.82 509.139C111.798 509.29 111.774 509.439 111.747 509.588C111.747 509.644 111.73 509.697 111.723 509.753L111.664 510.09C111.664 510.133 111.647 510.18 111.638 510.228C111.613 510.375 111.589 510.518 111.562 510.662V510.704L111.533 510.852C111.533 510.906 111.516 510.957 111.504 511.008C111.487 511.108 111.465 511.208 111.445 511.308C111.445 511.359 111.426 511.41 111.414 511.464C111.411 511.487 111.407 511.509 111.401 511.532C111.401 511.554 111.401 511.581 111.389 511.605C111.355 511.754 111.326 511.902 111.294 512.046C111.25 512.251 111.207 512.451 111.163 512.648L111.138 512.765L111.104 512.906C111.082 513.013 111.053 513.118 111.029 513.223C111.004 513.328 110.97 513.467 110.939 513.598L110.892 513.783L110.87 513.873C110.846 513.964 110.824 514.056 110.8 514.144C110.775 514.232 110.768 514.268 110.751 514.329C110.722 514.444 110.69 514.558 110.658 514.668C110.627 514.777 110.612 514.843 110.588 514.928C110.515 515.199 110.437 515.462 110.361 515.718C110.325 515.84 110.291 515.962 110.254 516.078C110.193 516.276 110.132 516.471 110.069 516.663C110.006 516.856 109.969 516.975 109.918 517.129L109.84 517.358C109.818 517.433 109.791 517.506 109.762 517.579C109.713 517.73 109.662 517.877 109.609 518.02C109.504 518.325 109.394 518.617 109.285 518.902C109.248 518.997 109.214 519.09 109.175 519.183C108.949 519.767 108.72 520.308 108.498 520.81C108.452 520.91 108.41 521.012 108.364 521.107C108.286 521.283 108.208 521.449 108.12 521.612C108.091 521.663 108.079 521.695 108.062 521.717Z" fill="#232323"/>
<path d="M97.0266 462.136C96.9293 462.136 96.8332 462.114 96.7454 462.072C96.6577 462.03 96.5806 461.968 96.52 461.892C92.7396 457.348 90.9444 456.697 87.371 455.396C86.3967 455.048 85.3201 454.651 84.0437 454.124C77.8956 451.588 75.9202 447.743 75.8374 447.582C75.7927 447.504 75.7644 447.418 75.7542 447.329C75.7441 447.24 75.7522 447.149 75.7782 447.063C75.8042 446.977 75.8475 446.897 75.9053 446.829C75.9632 446.76 76.0345 446.704 76.1149 446.663C76.1953 446.623 76.283 446.6 76.3727 446.595C76.4623 446.59 76.5521 446.603 76.6365 446.634C76.7209 446.665 76.7981 446.712 76.8634 446.774C76.9287 446.836 76.9808 446.91 77.0163 446.993C77.0431 447.049 78.9041 450.582 84.5455 452.909C85.7975 453.425 86.8717 453.815 87.8192 454.161C91.4973 455.496 93.5239 456.232 97.5309 461.051C97.6112 461.147 97.6626 461.264 97.6788 461.388C97.695 461.512 97.6755 461.638 97.6225 461.751C97.5695 461.864 97.4852 461.96 97.3797 462.027C97.2741 462.093 97.1516 462.129 97.0266 462.128V462.136Z" fill="white"/>
<path d="M108.071 522.274C107.987 522.274 107.904 522.255 107.828 522.218C100.321 519.124 94.3991 513.595 90.2241 505.791C87.5033 500.706 85.5327 494.63 84.3781 487.732C83.6474 483.346 81.8984 481.295 80.2177 479.306C78.9316 477.788 77.6041 476.217 76.8879 473.702C76.2157 471.337 76.3569 469.478 76.4958 467.677C76.6663 465.435 76.8295 463.316 75.4825 460.212C73.1782 454.895 66.2263 452.254 66.1532 452.227C66.0169 452.176 65.9065 452.073 65.8462 451.94C65.7859 451.808 65.7807 451.657 65.8317 451.521C65.8828 451.384 65.9858 451.274 66.1183 451.213C66.2508 451.153 66.4018 451.148 66.5381 451.199C66.8402 451.313 73.9991 454.035 76.4885 459.775C77.95 463.13 77.7624 465.484 77.5895 467.76C77.4531 469.543 77.324 471.225 77.9427 473.4C78.593 475.686 79.789 477.099 81.0556 478.595C82.7607 480.595 84.668 482.864 85.4596 487.544C86.6069 494.325 88.5385 500.29 91.2033 505.267C95.259 512.855 101.01 518.22 108.288 521.214C108.405 521.263 108.502 521.35 108.562 521.462C108.622 521.573 108.641 521.702 108.617 521.827C108.593 521.951 108.526 522.063 108.428 522.144C108.331 522.224 108.208 522.269 108.081 522.269L108.071 522.274Z" fill="#232323"/>
<path d="M73.1861 466.487C73.1276 464.867 72.5187 463.076 71.481 461.422C70.4434 459.768 69.0622 458.459 67.6227 457.718C66.0637 456.917 64.5901 456.866 63.4818 457.577C62.3735 458.289 61.7767 459.641 61.8498 461.39C61.9082 463.008 62.5172 464.801 63.5548 466.456C65.2258 469.09 67.6665 470.795 69.7686 470.795H69.8052C70.4198 470.799 71.0232 470.63 71.5468 470.308C72.6697 469.589 73.2494 468.234 73.1861 466.487ZM71.8464 466.536C71.8927 467.791 71.5322 468.729 70.8331 469.17C69.301 470.145 66.4803 468.573 64.6778 465.737C63.757 464.29 63.2163 462.728 63.1724 461.351C63.1261 460.094 63.4866 459.158 64.1833 458.717C64.489 458.528 64.8417 458.427 65.2015 458.428H65.2404C65.8566 458.45 66.459 458.617 66.9991 458.915C68.2316 459.548 69.4179 460.693 70.3411 462.143C71.2642 463.593 71.7952 465.15 71.8464 466.536Z" fill="#232323"/>
<path d="M111.127 483.953C110.727 483.953 110.341 483.807 110.041 483.544C102.799 477.158 94.0933 478.011 94.0056 478.02C93.5722 478.068 93.1373 477.942 92.7968 477.67C92.4562 477.397 92.2379 477.001 92.1897 476.567C92.1416 476.133 92.2676 475.698 92.5401 475.358C92.8126 475.017 93.2092 474.799 93.6427 474.75C94.0544 474.704 103.849 473.695 112.218 481.085C112.469 481.307 112.646 481.599 112.726 481.923C112.806 482.248 112.786 482.589 112.667 482.902C112.549 483.214 112.338 483.483 112.063 483.673C111.788 483.862 111.461 483.964 111.127 483.963V483.953ZM112.62 492.586C112.189 492.586 111.776 492.417 111.468 492.115C104.502 485.293 95.6937 486.044 95.606 486.051C95.3874 486.079 95.1653 486.064 94.9529 486.004C94.7406 485.945 94.5423 485.844 94.3698 485.707C94.1974 485.569 94.0543 485.399 93.9491 485.205C93.844 485.011 93.7788 484.798 93.7576 484.579C93.7363 484.359 93.7594 484.138 93.8255 483.927C93.8916 483.717 93.9993 483.522 94.1422 483.354C94.2851 483.186 94.4603 483.049 94.6573 482.95C94.8544 482.851 95.0693 482.793 95.2893 482.779C95.7107 482.737 105.727 481.872 113.772 489.769C114.005 489.998 114.164 490.291 114.229 490.61C114.295 490.93 114.264 491.262 114.141 491.564C114.017 491.866 113.807 492.124 113.536 492.306C113.265 492.488 112.946 492.585 112.62 492.586ZM113.307 500.984C113.09 500.984 112.875 500.941 112.675 500.857C112.475 500.774 112.293 500.651 112.14 500.497C106.007 494.33 98.3877 494.764 98.3098 494.766C97.8802 494.789 97.4588 494.643 97.1358 494.359C96.8129 494.075 96.6142 493.675 96.5823 493.246C96.5504 492.817 96.688 492.392 96.9654 492.063C97.2428 491.735 97.638 491.528 98.0662 491.487C98.4364 491.458 107.23 490.905 114.464 498.177C114.692 498.408 114.847 498.701 114.909 499.02C114.971 499.338 114.937 499.668 114.813 499.968C114.688 500.267 114.478 500.523 114.208 500.704C113.939 500.884 113.622 500.981 113.297 500.982L113.307 500.984Z" fill="#D9C6F4"/>
<path d="M227.76 373.46C224.012 386.822 216.911 399.458 207.28 410.875C206.386 426.225 203.904 457.369 197.666 476.305C176.64 479.078 160.054 467.034 147.244 457.179C135.228 447.939 123.675 445.629 121.597 454.406C123.215 443.32 124.832 438.703 127.604 431.773C125.063 425.307 123.003 422.592 120.784 414.106C114.429 389.741 104.264 393.206 101.375 395.861C110.271 386.739 131.065 386.047 139.196 386.323C139.959 357.979 126.318 335.353 116.623 309.719C109.267 290.273 107.318 271.875 108.904 257.712C109.307 253.869 110.067 250.072 111.174 246.37C111.593 245.001 112.054 243.708 112.558 242.491C118.47 228.194 190.906 236.156 190.906 236.156C190.906 236.156 192.007 240.089 194.847 247.081C197.688 254.074 203.02 263.788 209.275 276.456C222.791 303.83 237.116 340.088 227.76 373.46Z" fill="#1B6C86"/>
<path d="M207.567 378.13C206.055 360.982 203.183 344.974 199.057 330.55C186.997 288.472 187.752 271.814 187.759 271.65C187.764 271.476 187.701 271.306 187.583 271.177C187.464 271.049 187.301 270.971 187.126 270.962C186.952 270.952 186.781 271.011 186.649 271.126C186.517 271.241 186.436 271.403 186.422 271.577C186.422 271.745 186.203 275.853 187.496 285.244C188.685 293.879 191.432 308.812 197.768 330.921C201.88 345.262 204.727 361.184 206.233 378.25C207.382 391.285 207.655 404.676 206.985 414.987C206.984 415.045 206.989 415.103 207 415.16C207.109 413.633 207.202 412.198 207.28 410.874C207.723 410.351 208.159 409.819 208.593 409.288C208.873 399.937 208.517 388.909 207.567 378.13ZM141.481 353.461C141.476 353.328 141.432 353.2 141.355 353.092C141.277 352.984 141.169 352.902 141.044 352.856C140.92 352.809 140.784 352.801 140.655 352.832C140.526 352.863 140.409 352.932 140.319 353.03C140.258 353.095 140.211 353.171 140.181 353.255C140.15 353.339 140.137 353.428 140.141 353.517C140.577 365.054 140.28 375.611 139.208 385.452C139.208 385.744 139.208 386.037 139.191 386.329H139.108C137.26 402.522 133.284 416.771 126.961 430.22C127.168 430.708 127.38 431.236 127.594 431.782C127.426 432.199 127.265 432.608 127.107 433C138.251 410.365 142.696 385.686 141.481 353.461Z" fill="white"/>
<path d="M260.908 71.6898C251.501 64.8457 241 74.1263 244.491 83.1536C245.769 86.4696 247.226 89.4885 245.986 94.5442C250.583 96.9344 258.967 109.816 258.967 109.816C258.967 109.816 276.261 88.2678 284.684 88.0972C292.033 87.9462 294.408 84.8591 295.28 82.1278C296.649 77.8493 294.939 73.2297 291.349 71.3463C288.021 69.6042 285.015 69.6407 282.455 70.4911C278.18 60.0409 264.839 60.3845 260.908 71.6898Z" fill="#232323"/>
<mask id="mask0_1996_7599" style="mask-type:luminance" maskUnits="userSpaceOnUse" x="243" y="62" width="53" height="48">
<path d="M260.908 71.6898C251.501 64.8457 241 74.1263 244.491 83.1536C245.769 86.4696 247.226 89.4885 245.986 94.5442C250.583 96.9344 258.967 109.816 258.967 109.816C258.967 109.816 276.261 88.2678 284.684 88.0972C292.033 87.9462 294.408 84.8591 295.28 82.1278C296.649 77.8493 294.939 73.2297 291.349 71.3463C288.021 69.6042 285.015 69.6407 282.455 70.4911C278.18 60.0409 264.839 60.3845 260.908 71.6898Z" fill="white"/>
</mask>
<g mask="url(#mask0_1996_7599)">
<path d="M276.809 76.1197C276.675 76.1197 276.547 76.0666 276.452 75.972C276.358 75.8774 276.305 75.7491 276.305 75.6153C276.305 75.5482 276.319 75.4819 276.346 75.4204C279.462 68.011 287.064 68.7761 287.127 68.7834C287.255 68.8037 287.371 68.8727 287.449 68.9759C287.528 69.0791 287.564 69.2087 287.549 69.3376C287.535 69.4666 287.471 69.585 287.372 69.6683C287.272 69.7516 287.144 69.7933 287.015 69.7848C286.732 69.7556 280.092 69.1099 277.272 75.8127C277.233 75.9034 277.168 75.9807 277.086 76.0353C277.004 76.0898 276.908 76.1192 276.809 76.1197Z" fill="white"/>
</g>
<path d="M290.852 127.682C281.353 133.043 268.199 127.417 267.921 127.295C267.831 127.368 266.102 128.871 263.14 132.29L262.913 132.551C259.866 136.091 255.581 141.585 250.491 149.535C250.491 149.535 231.004 144.753 219.719 123.989C219.719 123.989 235.03 118.745 241.269 113.3C237.313 110.885 234.241 106.19 235.437 100.554C236.351 96.2296 241.081 93.4057 245.543 94.2487C250.125 95.1137 253.048 98.9829 256.468 102.925C260.334 107.379 261.639 103.797 263.371 99.2704C264.484 96.3709 265.768 93.0865 268.019 91.3054C273.107 87.273 284.702 88.0722 284.702 88.0722C284.702 88.0722 284.714 89.5877 284.86 91.4833C285.055 94.0002 285.496 97.1969 286.46 98.4736C288.166 100.715 289.91 100.369 289.939 101.819C289.963 103.059 288.546 104.536 287.732 105.172C288.107 113.648 295.132 113.297 295.475 120.12C295.622 123.043 293.929 125.928 290.869 127.658L290.852 127.682Z" fill="white"/>
<path d="M250.472 150.266C250.413 150.266 250.354 150.259 250.297 150.244C250.095 150.193 245.245 148.977 238.941 145.174C230.582 140.116 223.72 132.924 219.057 124.337C219.007 124.244 218.977 124.14 218.97 124.034C218.963 123.928 218.98 123.822 219.018 123.723C219.057 123.624 219.117 123.534 219.194 123.46C219.271 123.387 219.363 123.331 219.464 123.297C219.61 123.245 233.565 118.424 240.027 113.363C236.617 110.926 233.451 106.297 234.703 100.403C235.677 95.7422 240.707 92.6064 245.664 93.5298C250.073 94.3607 252.971 97.7572 256.065 101.351C256.377 101.714 256.689 102.082 257.005 102.445C258.111 103.717 259.027 104.333 259.655 104.221C260.756 104.026 261.701 101.561 262.615 99.1777L262.676 99.0193C263.76 96.1929 265.112 92.6844 267.547 90.7352C272.797 86.5761 284.248 87.3241 284.732 87.3484C284.917 87.3608 285.091 87.4433 285.218 87.579C285.344 87.7148 285.415 87.8937 285.414 88.0794C285.414 88.094 285.426 89.5925 285.57 91.4491C285.828 94.7651 286.357 97.1724 287.032 98.0544C287.588 98.7846 288.301 99.38 289.119 99.7965C289.83 100.203 290.637 100.666 290.659 101.826C290.685 103.222 289.411 104.704 288.466 105.522C288.739 109.452 290.53 111.212 292.42 113.075C294.186 114.81 296.013 116.604 296.19 120.107C296.351 123.348 294.446 126.493 291.214 128.321L290.853 127.685L291.221 128.313C287.183 130.599 281.858 131.274 275.82 130.263C273.172 129.821 270.576 129.109 268.074 128.138C266.531 129.602 265.067 131.147 263.689 132.767L263.616 132.855L263.47 133.023C260.734 136.191 256.369 141.707 251.093 149.93C251.027 150.034 250.935 150.119 250.826 150.178C250.718 150.237 250.596 150.267 250.472 150.266ZM220.755 124.388C225.275 132.399 231.779 139.111 239.643 143.88C244.631 146.897 248.762 148.266 250.146 148.673C254.267 142.292 258.479 136.556 262.349 132.063C262.396 132.005 262.449 131.944 262.503 131.883L262.574 131.8C265.377 128.564 267.092 127.027 267.396 126.761C267.494 126.664 267.618 126.596 267.753 126.566C267.888 126.535 268.029 126.544 268.159 126.591L268.21 126.61C268.342 126.669 281.317 132.214 290.491 127.032C293.238 125.487 294.86 122.856 294.726 120.175C294.58 117.239 293.104 115.79 291.394 114.111C289.426 112.176 287.195 109.986 286.983 105.223C286.978 105.106 287.001 104.991 287.05 104.885C287.098 104.78 287.172 104.687 287.263 104.616C288.074 103.982 289.212 102.706 289.19 101.85C289.19 101.558 289.095 101.47 288.386 101.064C287.399 100.548 286.537 99.8206 285.862 98.934C284.993 97.7864 284.401 95.3061 284.116 91.5587C284.028 90.4087 283.987 89.4073 283.97 88.7811C281.468 88.6909 272.585 88.6179 268.458 91.8876C266.33 93.5713 265.048 96.8825 264.037 99.5431L263.977 99.7015C262.822 102.718 261.823 105.323 259.906 105.661C258.688 105.873 257.422 105.157 255.899 103.403C255.575 103.035 255.26 102.669 254.954 102.304C251.917 98.761 249.296 95.7032 245.391 94.9674C241.27 94.1877 236.946 96.8703 236.135 100.705C234.944 106.334 238.352 110.671 241.635 112.676C241.733 112.736 241.816 112.818 241.876 112.915C241.936 113.013 241.973 113.123 241.982 113.238C241.992 113.352 241.975 113.467 241.932 113.574C241.889 113.68 241.821 113.775 241.735 113.85C239.09 116.16 234.613 118.684 228.428 121.357C225.902 122.445 223.344 123.456 220.758 124.388H220.755Z" fill="#232323"/>
<path d="M253.476 114.086C253.428 113.927 253.319 113.794 253.173 113.715C253.027 113.637 252.856 113.619 252.697 113.667C250.771 114.232 248.752 114.408 246.757 114.188C244.763 113.967 242.831 113.353 241.075 112.381L241.005 112.339L240.941 112.388C240.656 112.602 240.361 112.818 240.057 113.036L239.906 113.143L240.065 113.238C242.596 114.745 245.489 115.536 248.434 115.526C250.002 115.528 251.561 115.3 253.062 114.849C253.221 114.801 253.354 114.692 253.432 114.547C253.506 114.405 253.522 114.24 253.476 114.086ZM268.323 126.678C268.235 126.754 266.503 128.254 263.541 131.673C259.132 127.567 259.98 121.52 261.315 120.684C261.315 120.684 263.195 123.937 268.327 126.673L268.323 126.678ZM269.256 94.2166C269.256 94.0338 269.241 93.9047 269.241 93.7487C269.24 93.6039 269.247 93.4592 269.26 93.315C269.284 93.0333 269.33 92.7539 269.397 92.4793C269.526 91.932 269.726 91.4038 269.991 90.9078C270.545 89.864 271.351 88.9747 272.334 88.3202C272.851 87.9693 273.414 87.6936 274.008 87.5016C274.611 87.3096 275.241 87.2142 275.874 87.2189C276.496 87.222 277.112 87.3376 277.693 87.56C278.271 87.7692 278.794 88.1065 279.223 88.5468C279.493 88.8294 279.64 89.2077 279.632 89.5987C279.624 89.9897 279.461 90.3615 279.179 90.6325C279.114 90.6952 279.043 90.7515 278.967 90.8006L278.677 90.9882C278.56 91.0637 278.453 91.1149 278.346 91.1782C278.239 91.2416 278.141 91.2781 278.044 91.3342C277.852 91.4365 277.669 91.5218 277.501 91.6144L276.604 92.0822C276.066 92.3672 275.591 92.5695 275.041 92.8302C274.49 93.0909 273.903 93.3955 273.226 93.7585L272.137 94.3506C271.947 94.4553 271.747 94.5601 271.54 94.6697L271.221 94.8305C271.116 94.8861 271.007 94.9333 270.895 94.9719L270.371 95.0815C270.132 95.1321 269.882 95.0855 269.677 94.9521C269.472 94.8187 269.328 94.6094 269.277 94.3701C269.268 94.3209 269.26 94.2713 269.256 94.2214V94.2166ZM274.641 98.4073C275.9 97.9371 278.95 96.8772 281.632 94.9597C281.812 94.8312 282.035 94.7792 282.253 94.8153C282.471 94.8514 282.665 94.9726 282.794 95.1522C283.481 96.1268 284.309 97.9005 282.307 98.9726C279.856 100.288 275.555 100.101 274.48 99.109C274.44 99.0702 274.407 99.0238 274.385 98.9724C274.362 98.921 274.35 98.8656 274.349 98.8095C274.348 98.7533 274.358 98.6975 274.378 98.6452C274.399 98.5929 274.429 98.5452 274.468 98.5048C274.518 98.4595 274.577 98.4262 274.641 98.4073ZM285.305 112.931C284.934 113.274 284.494 113.534 284.014 113.694C283.542 113.85 283.049 113.932 282.553 113.938C281.549 113.988 280.552 113.736 279.692 113.215C278.832 112.694 278.148 111.927 277.727 111.014C277.299 110.105 277.206 109.073 277.467 108.102C277.497 107.996 277.564 107.904 277.657 107.845C277.75 107.785 277.862 107.761 277.971 107.779C278.08 107.796 278.179 107.852 278.249 107.937C278.319 108.023 278.355 108.131 278.351 108.241V108.258C278.33 109.017 278.517 109.768 278.892 110.429C279.264 111.078 279.792 111.623 280.429 112.015C281.082 112.391 281.815 112.607 282.567 112.646C283.324 112.712 284.085 112.562 284.76 112.213H284.774C284.871 112.142 284.992 112.114 285.11 112.133C285.228 112.152 285.334 112.217 285.404 112.314C285.474 112.411 285.503 112.531 285.484 112.65C285.465 112.768 285.4 112.873 285.303 112.944L285.305 112.931ZM251.464 107.732C249.116 99.282 241.857 99.5866 241.787 99.5963C241.626 99.6105 241.476 99.6866 241.37 99.8085C241.263 99.9305 241.208 100.089 241.216 100.251C241.224 100.412 241.294 100.565 241.412 100.676C241.53 100.787 241.686 100.848 241.848 100.846C242.106 100.846 248.198 100.649 250.259 108.068C250.296 108.199 250.375 108.315 250.483 108.397C250.592 108.48 250.724 108.525 250.86 108.526C250.917 108.527 250.974 108.518 251.028 108.502C251.188 108.457 251.324 108.351 251.405 108.207C251.487 108.063 251.508 107.892 251.464 107.732Z" fill="#232323"/>
<path d="M251.614 149.536L202.023 260.692L197.339 260.826C185.247 261.177 173.165 259.844 161.44 256.864C139.712 251.329 103.696 244.012 100.617 255.354C118.004 158.415 204.79 129.837 219.7 123.992C222.699 129.257 228.924 138.353 240.161 144.734C243.775 146.783 247.62 148.395 251.614 149.536Z" fill="white"/>
<path d="M193.576 261.611C182.677 261.614 171.821 260.256 161.259 257.569C125.307 248.413 103.457 247.674 101.321 255.542C101.273 255.726 101.156 255.884 100.994 255.983C100.832 256.082 100.638 256.114 100.453 256.072C100.268 256.03 100.106 255.918 100.002 255.759C99.8981 255.6 99.8601 255.407 99.8961 255.22C103.742 233.779 111.31 214.063 122.393 196.605C131.564 182.157 143.254 169.073 157.136 157.724C181.794 137.566 206.459 128.242 216.994 124.241C217.944 123.881 218.762 123.571 219.429 123.308C219.593 123.244 219.774 123.241 219.94 123.3C220.105 123.358 220.244 123.475 220.331 123.627C225.29 132.335 232.266 139.413 240.524 144.094C244.087 146.113 247.877 147.703 251.814 148.83C251.914 148.859 252.008 148.909 252.087 148.978C252.167 149.046 252.231 149.13 252.275 149.225C252.319 149.32 252.342 149.423 252.343 149.528C252.344 149.633 252.322 149.736 252.279 149.832L202.69 260.99C202.634 261.116 202.543 261.223 202.429 261.299C202.314 261.375 202.18 261.418 202.043 261.421L197.361 261.558C196.099 261.593 194.837 261.611 193.576 261.611ZM116.148 248.654C118.545 248.654 121.196 248.786 124.101 249.051C136.497 250.179 151.346 253.537 161.613 256.153C173.274 259.119 185.292 260.446 197.319 260.096L201.543 259.974L250.608 150C246.847 148.861 243.224 147.308 239.805 145.371C231.499 140.656 224.459 133.585 219.381 124.904C218.83 125.117 218.207 125.354 217.51 125.615C207.036 129.577 182.532 138.858 158.061 158.864C128.361 183.141 109.508 214.438 102.008 251.933C103.435 250.715 105.513 249.843 108.222 249.307C110.837 248.836 113.491 248.617 116.148 248.654Z" fill="#232323"/>
<path d="M264.312 212.496C240.999 206.198 187.306 217.464 188.071 227.154C188.835 236.844 244.611 228.165 264.312 212.496Z" fill="#232323"/>
<path d="M288.547 259.886C297.172 254.748 306.102 248.922 315.163 242.463C318.466 240.104 321.669 237.741 324.77 235.373C334.136 239.795 345.813 232.653 343.326 225.627C343.275 225.444 343.214 225.264 343.146 225.083C343.402 224.88 343.646 224.662 343.877 224.43C344.858 223.453 345.507 222.192 345.733 220.826C345.958 219.46 345.749 218.057 345.134 216.816C345.058 216.665 344.98 216.519 344.89 216.383C345.163 216.222 345.421 216.037 345.66 215.829C347.998 214.107 348.919 211.317 347.786 209.039C347.734 208.893 347.671 208.751 347.596 208.615C347.964 208.615 348.327 208.615 348.685 208.595C358.285 208.269 363.159 204.134 355.805 201.286C351.37 199.568 335.225 196.169 313.529 205.696C311.67 206.281 297.925 211.322 297.925 211.322C294.434 212.574 290.902 213.82 287.329 215.06C278.612 218.081 270.04 220.931 261.612 223.609C261.617 223.594 261.621 223.579 261.624 223.563C261.736 223.115 261.843 222.664 261.953 222.216C262.752 218.952 263.549 215.691 264.345 212.431C254.872 210.204 239.916 208.091 222.405 211.626C215.85 212.951 209.452 214.957 203.315 217.613V217.586C203.12 220.945 203.096 224.312 203.244 227.673C203.344 229.939 205.597 268.485 228.404 275.548C244.186 280.421 261.142 274.798 279.357 264.986C282.813 263.127 285.851 261.441 288.547 259.886Z" fill="white"/>
<path d="M240.472 278.062C236.307 278.078 232.164 277.462 228.183 276.235C222.825 274.573 218.136 271.072 214.272 265.831C211.184 261.637 208.607 256.328 206.609 250.023C203.038 238.766 202.532 228.143 202.51 227.697C202.361 224.31 202.386 220.917 202.583 217.532C202.593 217.364 202.661 217.204 202.775 217.08C202.889 216.957 203.042 216.876 203.209 216.852C209.336 214.218 215.718 212.223 222.255 210.9C236.11 208.103 250.325 208.376 264.509 211.709C264.603 211.731 264.692 211.771 264.77 211.828C264.848 211.884 264.914 211.955 264.965 212.038C265.015 212.12 265.049 212.211 265.064 212.307C265.079 212.402 265.075 212.499 265.052 212.593L262.628 222.51C270.803 219.898 279.024 217.149 287.082 214.364C290.616 213.146 294.182 211.879 297.685 210.622C298.238 210.42 311.284 205.637 313.274 205.001C322.703 200.859 332.074 198.688 341.13 198.532C347.917 198.415 353.297 199.507 356.072 200.593C359.726 202.002 360.252 203.634 360.064 204.755C359.64 207.262 355.078 209.094 348.713 209.309C349.571 211.745 348.567 214.576 346.129 216.375C346.041 216.45 345.951 216.523 345.858 216.591C346.509 217.959 346.718 219.496 346.456 220.988C346.194 222.479 345.474 223.853 344.397 224.917C344.27 225.046 344.136 225.173 344 225.295C344 225.324 344.017 225.351 344.024 225.38C345.013 228.196 344.039 231.206 341.345 233.637C337.691 236.941 330.91 238.834 324.861 236.2C321.785 238.539 318.667 240.83 315.586 243.04C306.812 249.331 297.831 255.203 288.923 260.519C286.168 262.103 283.153 263.774 279.709 265.636C264.114 274.017 251.519 278.062 240.472 278.062ZM204.02 218.102C203.85 221.269 203.837 224.473 203.976 227.636C203.996 228.075 204.495 238.513 208.007 249.587C209.956 255.729 212.463 260.904 215.454 264.968C219.127 269.953 223.558 273.277 228.622 274.843C242.185 279.041 257.725 275.801 279.012 264.337C282.442 262.49 285.442 260.826 288.185 259.25C297.057 253.965 305.994 248.115 314.736 241.863C317.922 239.587 321.147 237.204 324.323 234.797C324.43 234.716 324.556 234.665 324.689 234.651C324.823 234.637 324.957 234.659 325.078 234.717C330.649 237.346 336.985 235.63 340.363 232.575C342.599 230.553 343.425 228.109 342.633 225.872V225.821C342.589 225.66 342.536 225.502 342.473 225.334C342.419 225.187 342.413 225.027 342.457 224.877C342.501 224.727 342.592 224.595 342.716 224.5C342.949 224.318 343.17 224.121 343.379 223.911C344.256 223.044 344.837 221.922 345.038 220.705C345.239 219.488 345.051 218.238 344.499 217.135C344.431 216.998 344.363 216.872 344.292 216.757C344.241 216.675 344.207 216.583 344.192 216.488C344.176 216.392 344.18 216.295 344.203 216.201C344.225 216.107 344.266 216.018 344.324 215.94C344.381 215.862 344.453 215.796 344.536 215.746C344.771 215.604 344.994 215.441 345.201 215.259L345.242 215.227C347.322 213.692 348.104 211.275 347.147 209.348C347.135 209.323 347.124 209.298 347.115 209.272C347.076 209.161 347.027 209.053 346.969 208.951C346.908 208.839 346.877 208.714 346.879 208.588C346.882 208.461 346.916 208.337 346.981 208.228C347.045 208.119 347.137 208.029 347.247 207.966C347.356 207.903 347.481 207.869 347.607 207.869C347.997 207.869 348.338 207.869 348.674 207.849C351.49 207.752 354.07 207.306 355.935 206.59C357.506 205.985 358.517 205.208 358.634 204.511C358.771 203.71 357.619 202.755 355.558 201.958C354.868 201.69 338.417 195.557 313.839 206.356L313.764 206.382C311.944 206.955 298.33 211.947 298.194 211.986C294.672 213.251 291.098 214.518 287.569 215.746C279.028 218.707 270.45 221.558 261.837 224.3C261.712 224.34 261.579 224.346 261.451 224.316C261.323 224.287 261.206 224.224 261.111 224.133C261.016 224.043 260.947 223.929 260.912 223.802C260.876 223.676 260.875 223.543 260.909 223.416C260.908 223.404 260.908 223.392 260.909 223.38C260.996 223.026 261.082 222.673 261.167 222.32L263.454 212.971C249.716 209.842 235.954 209.63 222.532 212.337C216.182 213.625 209.979 215.557 204.02 218.102Z" fill="#232323"/>
<path d="M262.586 222.586C254.489 226.109 245.333 231.962 244.3 232.627C244.216 232.682 244.146 232.756 244.096 232.844C244.047 232.932 244.019 233.03 244.016 233.131C244.013 233.231 244.034 233.331 244.077 233.422C244.121 233.513 244.185 233.592 244.266 233.653C244.356 233.722 244.464 233.764 244.578 233.774C244.63 233.782 244.682 233.782 244.734 233.774C244.82 233.759 244.903 233.727 244.977 233.679C245.065 233.621 254.009 227.832 262.218 224.119L262.586 222.586Z" fill="#232323"/>
<path d="M264.349 212.585C241.564 208.524 196.613 216.608 189.681 225.175C189.218 225.703 188.911 226.349 188.794 227.041C188.793 227.057 188.793 227.073 188.794 227.09C188.529 215.604 190.821 203.49 194.884 192.177C194.933 192.038 194.981 191.899 195.032 191.763C195.084 191.626 195.147 191.439 195.208 191.276C204.308 166.53 221.805 145.84 239.223 144.373C241.799 144.15 244.393 144.372 246.894 145.028C261.562 148.895 271.495 177.166 264.349 212.585Z" fill="white"/>
<path d="M188.783 227.832H188.764C188.573 227.827 188.392 227.748 188.259 227.611C188.127 227.475 188.052 227.292 188.052 227.101C187.794 215.983 189.913 203.818 194.178 191.923L194.239 191.757C194.269 191.674 194.298 191.589 194.329 191.514L194.361 191.421L194.507 191.021C199.089 178.576 205.853 167.061 213.551 158.616C221.806 149.545 230.66 144.372 239.156 143.658C241.815 143.426 244.494 143.654 247.075 144.333C254.641 146.329 260.988 154.513 264.494 166.786C268.208 179.789 268.41 196.111 265.059 212.743C265.021 212.931 264.912 213.096 264.754 213.204C264.596 213.312 264.402 213.354 264.213 213.32C253.739 211.452 237.648 212.034 221.187 214.88C205.488 217.592 193.34 221.819 190.252 225.647L190.232 225.669C189.86 226.096 189.613 226.618 189.519 227.177C189.5 227.358 189.414 227.526 189.278 227.647C189.142 227.768 188.965 227.834 188.783 227.832ZM241.173 145.03C240.543 145.03 239.912 145.058 239.28 145.113C231.157 145.795 222.634 150.805 214.63 159.598C207.057 167.919 200.397 179.263 195.874 191.543C195.823 191.674 195.776 191.801 195.732 191.925L195.698 192.023C195.667 192.106 195.64 192.184 195.611 192.267L195.55 192.437C191.701 203.17 189.626 214.122 189.494 224.28C194.025 219.519 208.564 215.577 220.934 213.437C237.19 210.628 253.113 210.012 263.758 211.759C266.924 195.592 266.681 179.789 263.086 167.188C259.724 155.422 253.751 147.608 246.7 145.746C244.896 145.272 243.038 145.031 241.173 145.03ZM344.956 217.126C344.789 217.126 344.627 217.069 344.497 216.963C344.367 216.858 344.277 216.711 344.242 216.547C344.207 216.383 344.23 216.213 344.305 216.064C344.381 215.914 344.506 215.796 344.659 215.728C346.055 215.106 347.297 213.213 347.49 211.413C347.582 210.545 347.47 209.349 346.42 208.584L346.379 208.552C344.657 207.09 341.069 205.694 333.761 207.239L333.591 206.527L333.459 205.809C341.317 204.147 345.322 205.762 347.299 207.417C348.547 208.335 349.129 209.807 348.941 211.559C348.698 213.905 347.141 216.217 345.253 217.055C345.161 217.1 345.059 217.124 344.956 217.126Z" fill="#232323"/>
<path d="M343.244 225.709C343.093 225.712 342.944 225.668 342.819 225.584C342.694 225.499 342.598 225.378 342.545 225.237C342.491 225.095 342.483 224.941 342.521 224.795C342.559 224.648 342.641 224.518 342.756 224.42C343.431 223.845 345.01 222.264 345.073 220.022C345.077 219.321 344.952 218.626 344.703 217.971C343.694 215.6 338.708 214.369 332.58 214.979C332.484 214.988 332.387 214.978 332.294 214.95C332.202 214.922 332.116 214.876 332.042 214.815C331.967 214.754 331.906 214.679 331.86 214.594C331.815 214.509 331.786 214.415 331.777 214.319C331.768 214.223 331.777 214.127 331.805 214.034C331.833 213.942 331.879 213.856 331.94 213.782C332.001 213.707 332.077 213.645 332.162 213.6C332.247 213.554 332.34 213.526 332.436 213.517C339.41 212.825 344.751 214.345 346.047 217.391C346.378 218.24 346.544 219.145 346.534 220.056C346.454 222.885 344.53 224.824 343.704 225.526C343.576 225.639 343.414 225.703 343.244 225.709Z" fill="#232323"/>
<path d="M331.657 237.203C329.607 237.187 327.574 236.842 325.635 236.179C325.458 236.112 325.315 235.979 325.234 235.808C325.154 235.637 325.142 235.441 325.203 235.262C325.263 235.083 325.391 234.934 325.559 234.847C325.727 234.76 325.922 234.742 326.103 234.795C328.473 235.597 333.111 236.613 337.551 234.403C341.777 232.298 342.815 230.064 342.939 228.555C343.085 226.796 342.545 225.388 342.377 225.144C340.752 222.861 336.345 222.22 331.415 223.541C331.323 223.566 331.226 223.572 331.131 223.56C331.035 223.547 330.944 223.516 330.861 223.468C330.777 223.42 330.705 223.356 330.646 223.279C330.588 223.203 330.545 223.116 330.52 223.023C330.495 222.931 330.489 222.834 330.502 222.739C330.514 222.643 330.546 222.552 330.594 222.468C330.642 222.385 330.706 222.312 330.782 222.254C330.858 222.196 330.945 222.153 331.038 222.128C336.64 220.625 341.556 221.475 343.565 224.299C343.899 224.767 344.571 226.523 344.393 228.685C344.238 230.563 343.037 233.314 338.199 235.714C336.164 236.712 333.923 237.222 331.657 237.203ZM228.779 148.197C228.687 148.198 228.596 148.181 228.511 148.146C223.883 146.333 212.51 131.897 211.251 127.153C211.226 127.06 211.22 126.964 211.233 126.868C211.246 126.773 211.277 126.682 211.325 126.598C211.373 126.515 211.438 126.443 211.514 126.384C211.59 126.326 211.677 126.283 211.77 126.259C211.863 126.234 211.959 126.228 212.054 126.241C212.15 126.254 212.241 126.285 212.324 126.333C212.407 126.381 212.48 126.445 212.538 126.522C212.597 126.598 212.639 126.685 212.664 126.778C213.833 131.183 224.797 145.117 229.045 146.786C229.203 146.849 229.334 146.964 229.416 147.113C229.498 147.262 229.526 147.434 229.494 147.601C229.463 147.768 229.374 147.919 229.244 148.028C229.113 148.137 228.949 148.196 228.779 148.197Z" fill="#232323"/>
<path d="M324.772 236.1C324.617 236.1 324.467 236.052 324.342 235.961C324.217 235.871 324.124 235.743 324.076 235.597C324.027 235.45 324.027 235.292 324.074 235.145C324.121 234.998 324.214 234.87 324.338 234.779C326.628 233.1 331.838 230.744 335.282 230.881C335.378 230.885 335.472 230.907 335.56 230.947C335.647 230.988 335.725 231.045 335.79 231.115C335.855 231.186 335.906 231.269 335.939 231.359C335.972 231.449 335.987 231.545 335.984 231.641C335.98 231.737 335.957 231.831 335.917 231.918C335.877 232.006 335.82 232.084 335.749 232.149C335.678 232.214 335.596 232.265 335.506 232.298C335.415 232.331 335.32 232.346 335.224 232.343C332.279 232.223 327.319 234.397 325.203 235.949C325.079 236.044 324.928 236.097 324.772 236.1Z" fill="#232323"/>
</g>
<g clip-path="url(#clip4_1996_7599)">
<path d="M373.843 466.82H347.954C344.636 466.82 341.945 469.517 341.945 472.843V498.792C341.945 502.118 344.636 504.814 347.954 504.814H373.843C377.162 504.814 379.852 502.118 379.852 498.792V472.843C379.852 469.517 377.162 466.82 373.843 466.82Z" fill="#FFA500"/>
<path d="M371.606 490.992L366.544 487.321C366.357 487.182 366.13 487.107 365.897 487.107C365.665 487.107 365.438 487.182 365.251 487.321C364.785 487.678 364.397 488.126 364.109 488.637C363.822 489.149 363.641 489.714 363.578 490.298C363.529 490.754 363.551 491.214 363.643 491.662C361.174 490.477 359.117 488.142 358.925 487.921C358.732 487.699 356.634 485.408 355.73 482.804C356.507 483.061 357.34 483.092 358.133 482.893C358.927 482.695 359.648 482.276 360.213 481.683C360.373 481.514 360.474 481.297 360.501 481.065C360.529 480.834 360.481 480.599 360.364 480.397L357.261 474.952C357.146 474.749 356.968 474.587 356.755 474.492C356.541 474.397 356.302 474.374 356.074 474.425C355.434 474.576 354.837 474.871 354.327 475.287C351.529 477.183 349.089 483.89 355.355 491.081L355.401 491.134C361.852 498.162 368.765 496.461 370.955 493.878C371.424 493.417 371.782 492.854 372 492.233C372.076 492.011 372.078 491.771 372.007 491.547C371.936 491.324 371.796 491.129 371.606 490.992Z" fill="white"/>
<path d="M435.226 466.82H409.337C406.018 466.82 403.328 469.517 403.328 472.843V498.792C403.328 502.118 406.018 504.814 409.337 504.814H435.226C438.545 504.814 441.235 502.118 441.235 498.792V472.843C441.235 469.517 438.545 466.82 435.226 466.82Z" fill="#FFA500"/>
<path d="M416.149 479.679C416.161 478.426 416.543 477.205 417.248 476.17C417.953 475.135 418.948 474.333 420.107 473.865C421.267 473.397 422.539 473.284 423.763 473.541C424.986 473.798 426.107 474.412 426.981 475.308C427.856 476.203 428.447 477.338 428.678 478.569C428.909 479.801 428.77 481.073 428.279 482.226C427.789 483.378 426.968 484.359 425.921 485.044C424.874 485.729 423.648 486.087 422.398 486.073C420.724 486.055 419.125 485.371 417.954 484.172C416.782 482.973 416.133 481.357 416.149 479.679Z" fill="white"/>
<path d="M422.414 486.071C419.589 486.044 416.823 486.88 414.484 488.467C412.146 490.055 410.345 492.319 409.322 494.958C409.233 495.185 409.226 495.436 409.304 495.668C409.381 495.899 409.537 496.095 409.745 496.223C414.249 498.916 430.269 498.873 434.812 496.223C435.02 496.098 435.178 495.905 435.259 495.675C435.339 495.446 435.336 495.196 435.252 494.968C433.329 489.701 428.363 486.141 422.414 486.083V486.071Z" fill="white"/>
<path d="M496.867 466.82H470.978C467.659 466.82 464.969 469.517 464.969 472.843V498.792C464.969 502.118 467.659 504.814 470.978 504.814H496.867C500.185 504.814 502.876 502.118 502.876 498.792V472.843C502.876 469.517 500.185 466.82 496.867 466.82Z" fill="#FFA500"/>
<path d="M491.932 477.992H475.905C475.081 477.993 474.291 478.321 473.708 478.905C473.125 479.489 472.798 480.281 472.797 481.107V490.821C472.798 491.647 473.125 492.439 473.708 493.023C474.291 493.607 475.081 493.935 475.905 493.936H478.171L477.33 497C477.299 497.114 477.305 497.234 477.349 497.344C477.392 497.454 477.47 497.546 477.57 497.607C477.672 497.667 477.791 497.691 477.909 497.675C478.026 497.659 478.134 497.605 478.217 497.52L481.769 493.936H491.932C492.341 493.938 492.747 493.858 493.126 493.703C493.505 493.547 493.849 493.318 494.14 493.029C494.43 492.739 494.66 492.395 494.818 492.016C494.975 491.637 495.056 491.231 495.057 490.821V481.107C495.056 480.697 494.975 480.291 494.818 479.912C494.66 479.533 494.43 479.189 494.14 478.899C493.849 478.61 493.505 478.381 493.126 478.225C492.747 478.069 492.341 477.99 491.932 477.992Z" fill="white"/>
</g>
<defs>
<clipPath id="clip0_1996_7599">
<rect width="45.738" height="9.438" fill="white" transform="translate(106.477 535.062)"/>
</clipPath>
<clipPath id="clip1_1996_7599">
<rect width="231.836" height="457.864" fill="white" transform="translate(306.859 82.7656)"/>
</clipPath>
<clipPath id="clip2_1996_7599">
<rect width="162.382" height="272.008" fill="white" transform="translate(341.703 153.672)"/>
</clipPath>
<clipPath id="clip3_1996_7599">
<rect width="306.856" height="479.16" fill="white" transform="translate(53.2422 62.9219)"/>
</clipPath>
<clipPath id="clip4_1996_7599">
<rect width="160.93" height="37.994" fill="white" transform="translate(341.945 466.82)"/>
</clipPath>
</defs>
</svg>
