<svg width="605" height="515" viewBox="0 0 605 515" fill="none" xmlns="http://www.w3.org/2000/svg">
<g clip-path="url(#clip0_1996_7361)">
<path d="M498.547 101.945H266.166C258.498 101.945 252.281 108.162 252.281 115.83V318.263C252.281 325.931 258.498 332.148 266.166 332.148H498.547C506.215 332.148 512.431 325.931 512.431 318.263V115.83C512.431 108.162 506.215 101.945 498.547 101.945Z" fill="#FFF4E2"/>
<path d="M512.431 129.492H252.281V318.264C252.281 325.932 258.497 332.148 266.166 332.148H498.547C506.215 332.148 512.432 325.932 512.432 318.264L512.431 129.492Z" fill="#F7E5C6"/>
<path d="M463.799 121.575C467.032 121.575 469.653 118.954 469.653 115.721C469.653 112.488 467.032 109.867 463.799 109.867C460.566 109.867 457.945 112.488 457.945 115.721C457.945 118.954 460.566 121.575 463.799 121.575Z" fill="#FF8D61"/>
<path d="M480.745 121.575C483.978 121.575 486.599 118.954 486.599 115.721C486.599 112.488 483.978 109.867 480.745 109.867C477.512 109.867 474.891 112.488 474.891 115.721C474.891 118.954 477.512 121.575 480.745 121.575Z" fill="#F4BF42"/>
<path d="M497.69 121.575C500.923 121.575 503.544 118.954 503.544 115.721C503.544 112.488 500.923 109.867 497.69 109.867C494.457 109.867 491.836 112.488 491.836 115.721C491.836 118.954 494.457 121.575 497.69 121.575Z" fill="#A1D7F1"/>
<path d="M369.397 153.423H280.043C279.491 153.423 278.961 153.204 278.571 152.813C278.18 152.422 277.961 151.893 277.961 151.34C277.961 150.788 278.18 150.258 278.571 149.868C278.961 149.477 279.491 149.258 280.043 149.258H369.397C369.949 149.258 370.479 149.477 370.87 149.868C371.26 150.258 371.48 150.788 371.48 151.34C371.48 151.893 371.26 152.422 370.87 152.813C370.479 153.204 369.949 153.423 369.397 153.423ZM352.028 176.255H280.043C279.491 176.255 278.961 176.036 278.571 175.645C278.18 175.255 277.961 174.725 277.961 174.173C277.961 173.62 278.18 173.091 278.571 172.7C278.961 172.31 279.491 172.09 280.043 172.09H352.028C352.581 172.09 353.11 172.31 353.501 172.7C353.891 173.091 354.111 173.62 354.111 174.173C354.111 174.725 353.891 175.255 353.501 175.645C353.11 176.036 352.581 176.255 352.028 176.255ZM369.397 199.087H337.844C337.291 199.087 336.762 198.868 336.371 198.477C335.981 198.087 335.761 197.557 335.761 197.005C335.761 196.452 335.981 195.923 336.371 195.532C336.762 195.142 337.291 194.922 337.844 194.922H369.397C369.949 194.922 370.479 195.142 370.87 195.532C371.26 195.923 371.48 196.452 371.48 197.005C371.48 197.557 371.26 198.087 370.87 198.477C370.479 198.868 369.949 199.087 369.397 199.087ZM482.876 313.246C482.506 313.246 482.141 313.147 481.822 312.96C481.502 312.772 481.238 312.503 481.057 312.179L391.703 152.357C391.443 151.875 391.382 151.31 391.534 150.784C391.687 150.258 392.04 149.814 392.518 149.547C392.996 149.279 393.56 149.211 394.088 149.357C394.616 149.502 395.065 149.85 395.339 150.324L484.692 310.146C484.87 310.463 484.961 310.821 484.957 311.184C484.953 311.547 484.855 311.902 484.672 312.216C484.488 312.529 484.226 312.789 483.911 312.969C483.596 313.15 483.239 313.245 482.876 313.246Z" fill="white"/>
<path d="M393.518 313.246C393.155 313.246 392.799 313.15 392.484 312.97C392.169 312.789 391.907 312.529 391.723 312.216C391.54 311.903 391.441 311.547 391.438 311.184C391.434 310.821 391.525 310.463 391.703 310.146L481.056 150.324C481.189 150.085 481.369 149.875 481.583 149.706C481.798 149.536 482.044 149.411 482.307 149.336C482.57 149.262 482.845 149.24 483.117 149.272C483.389 149.304 483.651 149.389 483.89 149.523C484.129 149.656 484.339 149.835 484.508 150.05C484.678 150.265 484.803 150.511 484.878 150.774C484.952 151.037 484.974 151.312 484.942 151.584C484.91 151.855 484.825 152.118 484.692 152.357L395.338 312.179C395.157 312.503 394.893 312.772 394.573 312.96C394.254 313.147 393.889 313.246 393.518 313.246Z" fill="white"/>
<path d="M482.875 313.246H393.522C393.248 313.246 392.977 313.192 392.725 313.087C392.472 312.982 392.242 312.829 392.049 312.635C391.855 312.442 391.702 312.212 391.597 311.96C391.493 311.707 391.439 311.436 391.439 311.163V151.341C391.439 150.788 391.658 150.259 392.049 149.868C392.439 149.477 392.969 149.258 393.522 149.258H482.875C483.148 149.258 483.419 149.312 483.672 149.416C483.925 149.521 484.154 149.674 484.348 149.868C484.541 150.061 484.695 150.291 484.799 150.544C484.904 150.796 484.958 151.067 484.958 151.341V311.163C484.958 311.715 484.738 312.245 484.348 312.636C483.957 313.026 483.427 313.246 482.875 313.246V313.246ZM395.604 309.08H480.792V153.423H395.604V309.08ZM369.397 313.248C369.12 313.249 368.845 313.193 368.59 313.086C368.334 312.978 368.102 312.821 367.909 312.622L278.555 221.294C278.364 221.098 278.213 220.867 278.111 220.613C278.009 220.359 277.958 220.088 277.961 219.815C277.964 219.541 278.021 219.271 278.128 219.019C278.236 218.768 278.392 218.54 278.587 218.349C278.783 218.157 279.014 218.006 279.268 217.904C279.521 217.803 279.793 217.752 280.066 217.755C280.34 217.758 280.61 217.814 280.861 217.922C281.113 218.029 281.341 218.185 281.532 218.381L370.886 309.709C371.172 310.002 371.366 310.373 371.442 310.776C371.519 311.179 371.475 311.595 371.316 311.973C371.157 312.35 370.89 312.673 370.549 312.9C370.208 313.127 369.807 313.248 369.397 313.248Z" fill="white"/>
<path d="M280.043 313.252C279.633 313.252 279.233 313.131 278.891 312.904C278.55 312.677 278.283 312.354 278.124 311.976C277.965 311.599 277.921 311.182 277.998 310.779C278.074 310.377 278.268 310.006 278.555 309.713L367.909 218.384C368.1 218.188 368.328 218.033 368.579 217.925C368.831 217.818 369.101 217.761 369.374 217.758C369.648 217.755 369.919 217.806 370.173 217.908C370.427 218.01 370.658 218.161 370.854 218.352C371.049 218.543 371.205 218.771 371.312 219.023C371.42 219.274 371.477 219.544 371.48 219.818C371.483 220.091 371.432 220.363 371.33 220.617C371.228 220.87 371.077 221.102 370.886 221.297L281.532 312.625C281.338 312.824 281.107 312.982 280.851 313.089C280.595 313.197 280.321 313.252 280.043 313.252Z" fill="white"/>
<path d="M369.397 313.252H280.044C279.77 313.252 279.499 313.198 279.247 313.093C278.994 312.989 278.764 312.835 278.571 312.642C278.378 312.448 278.224 312.219 278.119 311.966C278.015 311.713 277.961 311.443 277.961 311.169V219.84C277.961 219.567 278.015 219.296 278.119 219.043C278.224 218.791 278.378 218.561 278.571 218.368C278.764 218.174 278.994 218.021 279.247 217.916C279.499 217.812 279.77 217.758 280.044 217.758H369.397C369.671 217.758 369.942 217.812 370.194 217.916C370.447 218.021 370.677 218.174 370.87 218.368C371.064 218.561 371.217 218.791 371.322 219.043C371.426 219.296 371.48 219.567 371.48 219.84V311.169C371.48 311.443 371.426 311.713 371.322 311.966C371.217 312.219 371.064 312.448 370.87 312.642C370.677 312.835 370.447 312.989 370.194 313.093C369.942 313.198 369.671 313.252 369.397 313.252ZM282.126 309.086H367.315V221.923H282.127L282.126 309.086Z" fill="white"/>
</g>
<g clip-path="url(#clip1_1996_7361)">
<path d="M485.384 391.576L459.564 386.614L484.389 384.986C485.314 384.926 486.181 384.516 486.817 383.84C487.452 383.165 487.807 382.273 487.811 381.345C487.82 379.393 486.298 377.776 484.35 377.67C473.358 377.068 439.495 375.259 429.46 375.258C429.46 375.258 417.371 377.157 418.918 388.349C421.111 404.222 440.105 406.395 440.105 406.395L474.176 409.395C475.09 409.475 476.001 409.212 476.732 408.658C477.463 408.103 477.961 407.297 478.132 406.395C478.302 405.493 478.131 404.56 477.652 403.777C477.173 402.994 476.42 402.417 475.54 402.158L453.355 396.936C462.771 397.627 478.228 398.71 484.101 398.826C485.903 398.861 487.533 397.785 487.97 396.035C488.455 394.093 487.309 392.117 485.384 391.575L485.384 391.576Z" fill="#F6B17A"/>
<path d="M440.102 406.396L474.173 409.396C475.042 409.473 475.911 409.239 476.625 408.736C477.338 408.233 477.851 407.493 478.073 406.648C478.58 404.712 477.456 402.723 475.537 402.16L453.12 396.883" fill="#F6B17A"/>
<path d="M474.508 411.693C474.331 411.693 474.154 411.685 473.975 411.669L439.904 408.669C439.607 408.643 439.317 408.559 439.052 408.42C438.787 408.282 438.552 408.093 438.36 407.864C438.168 407.635 438.023 407.37 437.933 407.084C437.843 406.799 437.811 406.499 437.837 406.201C437.863 405.903 437.948 405.613 438.086 405.348C438.224 405.082 438.413 404.847 438.642 404.655C438.871 404.463 439.136 404.317 439.421 404.228C439.706 404.138 440.006 404.105 440.304 404.131L474.374 407.131C474.708 407.161 475.042 407.071 475.316 406.877C475.591 406.684 475.788 406.4 475.873 406.075C475.966 405.725 475.922 405.352 475.749 405.034C475.576 404.716 475.288 404.476 474.944 404.364L452.6 399.104C452.021 398.957 451.523 398.589 451.213 398.078C450.903 397.567 450.806 396.955 450.943 396.373C451.08 395.792 451.44 395.287 451.945 394.969C452.449 394.65 453.059 394.542 453.643 394.669L476.06 399.947C476.1 399.956 476.14 399.967 476.179 399.978C479.302 400.895 481.101 404.08 480.276 407.23C479.945 408.508 479.198 409.64 478.154 410.448C477.11 411.256 475.827 411.693 474.508 411.693Z" fill="#1B6C86"/>
<path d="M445.695 396.364C445.695 396.364 475.401 398.657 484.096 398.829C485.898 398.864 487.528 397.787 487.965 396.037C488.45 394.096 487.304 392.12 485.379 391.578L450.7 384.914" fill="#F6B17A"/>
<path d="M484.186 401.104C484.142 401.104 484.098 401.104 484.053 401.103C475.393 400.932 446.738 398.726 445.523 398.632C444.921 398.586 444.362 398.302 443.969 397.843C443.577 397.384 443.382 396.788 443.429 396.186C443.451 395.887 443.532 395.596 443.667 395.329C443.802 395.062 443.988 394.824 444.215 394.629C444.443 394.435 444.706 394.287 444.991 394.194C445.275 394.102 445.575 394.066 445.873 394.09C446.17 394.113 475.612 396.38 484.143 396.548C484.82 396.567 485.571 396.237 485.76 395.481C485.848 395.135 485.802 394.768 485.631 394.454C485.459 394.14 485.176 393.902 484.837 393.789L450.273 387.148C449.681 387.034 449.157 386.689 448.819 386.189C448.48 385.689 448.354 385.075 448.467 384.481C448.524 384.187 448.637 383.908 448.801 383.658C448.966 383.408 449.178 383.193 449.425 383.025C449.673 382.857 449.951 382.74 450.243 382.679C450.536 382.619 450.838 382.617 451.132 382.674L485.81 389.338C485.873 389.35 485.935 389.365 485.997 389.382C489.129 390.263 490.964 393.428 490.175 396.587C489.507 399.263 487.055 401.104 484.186 401.104L484.186 401.104Z" fill="#1B6C86"/>
<path d="M450.585 387.202L484.382 384.986C485.307 384.926 486.175 384.516 486.81 383.84C487.445 383.165 487.8 382.273 487.805 381.345C487.813 379.393 486.291 377.776 484.343 377.67C473.351 377.068 439.488 375.259 429.453 375.258" fill="#F6B17A"/>
<path d="M450.586 389.484C449.995 389.484 449.428 389.254 449.004 388.842C448.58 388.431 448.332 387.871 448.313 387.28C448.294 386.689 448.505 386.114 448.902 385.676C449.298 385.239 449.85 384.972 450.439 384.934L484.235 382.718C484.585 382.694 484.913 382.539 485.153 382.283C485.393 382.027 485.528 381.69 485.531 381.339C485.533 380.984 485.398 380.641 485.154 380.382C484.91 380.123 484.576 379.968 484.221 379.948C473.909 379.384 439.483 377.542 429.455 377.54C429.156 377.54 428.861 377.481 428.584 377.367C428.308 377.252 428.057 377.084 427.846 376.873C427.635 376.661 427.467 376.41 427.353 376.134C427.238 375.857 427.18 375.561 427.18 375.262C427.18 374.658 427.42 374.079 427.846 373.651C428.273 373.224 428.852 372.984 429.456 372.984C439.598 372.986 474.128 374.833 484.469 375.399C487.63 375.573 490.096 378.19 490.083 381.359C490.069 384.467 487.631 387.06 484.532 387.264L450.736 389.479C450.686 389.483 450.636 389.484 450.586 389.484Z" fill="#1B6C86"/>
<path d="M432.939 384.437L454.427 371.317C456.301 369.683 456.561 366.863 455.019 364.913C454.393 364.121 453.527 363.555 452.552 363.298C451.577 363.042 450.545 363.109 449.611 363.49L403.772 376.948L291.863 358.431L287.195 334.367L233.812 347.159L240.298 374.662C245.452 396.518 265.75 411.355 288.121 409.618L407.105 400.382C407.105 400.382 414.247 409.885 440.103 406.4" fill="#F6B17A"/>
<path d="M284.61 412.029C274.474 412.029 264.6 408.805 256.414 402.824C247.207 396.091 240.707 386.288 238.085 375.182L231.6 347.679C231.462 347.092 231.561 346.474 231.877 345.961C232.193 345.448 232.7 345.081 233.285 344.94L286.668 332.149C286.966 332.077 287.276 332.067 287.579 332.118C287.882 332.17 288.171 332.282 288.43 332.448C288.688 332.615 288.91 332.832 289.082 333.086C289.254 333.341 289.373 333.628 289.432 333.93L293.799 356.438L403.634 374.612L448.873 361.33C451.684 360.244 454.931 361.123 456.807 363.496C459.108 366.405 458.72 370.594 455.925 373.031C455.828 373.115 455.725 373.191 455.615 373.258L434.127 386.378C433.872 386.534 433.589 386.638 433.294 386.684C432.998 386.731 432.697 386.718 432.406 386.648C432.116 386.577 431.842 386.45 431.6 386.274C431.359 386.098 431.155 385.876 430.999 385.62C430.843 385.365 430.739 385.081 430.693 384.786C430.647 384.49 430.659 384.188 430.73 383.898C430.8 383.607 430.927 383.333 431.103 383.091C431.279 382.85 431.501 382.645 431.756 382.489L453.052 369.486C453.466 369.074 453.714 368.523 453.748 367.94C453.782 367.356 453.6 366.781 453.237 366.323C452.916 365.92 452.474 365.632 451.976 365.501C451.477 365.37 450.951 365.403 450.473 365.596C450.402 365.625 450.328 365.651 450.254 365.672L404.416 379.13C404.087 379.227 403.741 379.248 403.404 379.192L291.495 360.675C291.036 360.599 290.612 360.384 290.279 360.06C289.946 359.736 289.72 359.318 289.632 358.861L285.416 337.133L236.551 348.842L242.515 374.135C247.444 395.039 266.555 409.005 287.948 407.344L406.931 398.107C407.721 398.046 408.452 398.348 408.915 398.994C409.226 399.359 416.348 407.301 439.801 404.14C440.097 404.1 440.398 404.119 440.687 404.195C440.976 404.272 441.247 404.404 441.485 404.586C441.723 404.767 441.922 404.994 442.072 405.252C442.223 405.511 442.32 405.797 442.36 406.093C442.4 406.39 442.381 406.691 442.305 406.98C442.228 407.269 442.096 407.541 441.915 407.778C441.733 408.016 441.507 408.216 441.249 408.366C440.99 408.517 440.705 408.615 440.408 408.655C418.231 411.643 408.956 405.286 406.212 402.732L288.299 411.886C287.068 411.981 285.836 412.029 284.609 412.029L284.61 412.029Z" fill="#1B6C86"/>
<path d="M263.905 176.163C263.708 173.894 263.372 171.638 262.899 169.409C258.63 149.361 242.683 135.058 225.304 136.48C207.195 137.963 189.645 152.693 194.604 183.062C196.285 193.351 203.058 201.84 203.058 201.84C192.624 221.278 184.047 226.037 184.047 226.037C184.047 226.037 186.613 254.238 211.344 257.146C231.81 259.552 235.43 241.054 235.43 241.054C235.43 241.054 229.272 232.492 231.81 221.645C255.426 222.884 265.95 199.658 263.906 176.163H263.905Z" fill="#F6B17A"/>
<path d="M214.899 259.642C213.691 259.642 212.419 259.569 211.081 259.411C200.174 258.129 191.636 251.945 186.391 241.529C182.508 233.817 181.81 226.553 181.783 226.247C181.743 225.807 181.831 225.365 182.038 224.975C182.244 224.584 182.56 224.262 182.946 224.048C183.011 224.011 190.794 219.405 200.366 202.032C198.376 199.224 193.755 191.972 192.361 183.433C189.998 168.964 192.447 156.583 199.444 147.627C205.533 139.834 214.651 135.07 225.121 134.213C234.112 133.478 243.131 136.665 250.526 143.188C257.766 149.575 262.952 158.72 265.128 168.938C265.62 171.258 265.97 173.606 266.175 175.969C267.552 191.793 263.374 206.42 254.998 215.098C249.399 220.897 242.064 223.943 233.689 223.973C232.437 232.779 237.231 239.658 237.283 239.731C237.463 239.984 237.589 240.271 237.655 240.574C237.721 240.877 237.724 241.19 237.666 241.495C237.624 241.706 236.61 246.723 232.84 251.43C229.726 255.318 224.175 259.642 214.899 259.642V259.642ZM186.494 227.134C186.864 229.435 187.908 234.465 190.518 239.602C195.11 248.639 202.207 253.781 211.613 254.887C227.472 256.752 232.023 244.843 232.986 241.465C231.383 238.824 227.319 230.862 229.596 221.13C229.848 220.056 230.839 219.318 231.931 219.374C239.892 219.793 246.554 217.288 251.724 211.933C259.198 204.19 262.905 190.894 261.641 176.365C261.452 174.188 261.129 172.025 260.676 169.887C256.618 150.829 241.499 137.444 225.493 138.754C216.304 139.507 208.327 143.654 203.03 150.434C196.837 158.361 194.701 169.518 196.853 182.698C198.419 192.289 204.775 200.342 204.839 200.422C205.117 200.77 205.286 201.193 205.327 201.637C205.367 202.082 205.276 202.528 205.065 202.921C196.707 218.493 189.411 224.975 186.494 227.134Z" fill="#1B6C86"/>
<path d="M231.813 223.929C231.388 223.929 221.303 223.811 211.725 213.552C211.315 213.11 211.096 212.523 211.117 211.921C211.139 211.318 211.398 210.749 211.838 210.337C212.278 209.925 212.863 209.705 213.466 209.724C214.068 209.744 214.638 210.002 215.05 210.441C223.295 219.271 231.728 219.373 231.813 219.373C233.07 219.373 234.089 220.393 234.089 221.651C234.089 222.909 233.07 223.929 231.813 223.929V223.929ZM208.837 186.271C208.339 186.272 207.855 186.109 207.459 185.808C207.062 185.507 206.775 185.084 206.642 184.604C206.509 184.124 206.536 183.614 206.72 183.151C206.904 182.688 207.235 182.299 207.661 182.042L208.584 181.486C208.347 181.274 208.061 181.124 207.751 181.049C207.462 180.976 207.189 180.846 206.949 180.668C206.709 180.489 206.507 180.265 206.353 180.009C206.2 179.752 206.099 179.467 206.055 179.171C206.012 178.875 206.027 178.574 206.1 178.284C206.248 177.698 206.622 177.195 207.14 176.885C207.658 176.575 208.278 176.484 208.863 176.631C212.235 177.481 213.538 180.43 213.776 182.039C213.842 182.484 213.775 182.938 213.583 183.345C213.391 183.751 213.084 184.092 212.699 184.324L210.009 185.945C209.655 186.158 209.25 186.271 208.837 186.271H208.837Z" fill="#1B6C86"/>
<path d="M259.658 145.578C259.424 145.565 259.191 145.561 258.957 145.565L258.419 144.908C258.846 143.801 259.098 142.634 259.167 141.449C259.54 135.111 254.709 129.669 248.376 129.295C245.833 129.142 243.311 129.843 241.212 131.287C238.815 126.966 234.332 123.925 229.037 123.612C223.794 123.303 219.027 125.743 216.13 129.684C214.212 128.171 211.877 127.284 209.439 127.144C202.836 126.754 197.167 131.795 196.777 138.403C196.753 138.817 196.75 139.231 196.768 139.645C190.369 139.909 185.086 144.99 184.701 151.524C184.54 154.198 185.236 156.853 186.687 159.103C183.667 160.603 181.511 163.635 181.298 167.245C181.047 171.518 183.592 175.306 187.348 176.83C184.693 178.75 183.319 182.15 184.142 185.53C185.227 189.986 189.716 192.719 194.168 191.633L194.203 191.624C194.203 191.624 191.924 194.449 192.997 197.678C195.207 204.329 203.055 201.845 203.055 201.845C204.764 198.31 205.478 194.939 205.749 192.449C200.57 191.196 196.722 186.53 196.722 180.962C196.722 174.434 202.01 169.142 208.533 169.142C212.17 169.142 215.422 170.789 217.589 173.377C217.589 173.377 223.047 159.562 242.091 158.2C253.902 157.356 262.666 163.709 262.666 163.709C265.912 162.378 268.281 159.278 268.502 155.54C268.808 150.345 264.849 145.885 259.658 145.578L259.658 145.578Z" fill="#1B6C86"/>
<path d="M199.848 204.594C196.423 204.594 192.452 203.245 190.84 198.393C190.312 196.803 190.364 195.303 190.65 194.03C186.53 193.411 182.98 190.366 181.933 186.066C181.179 182.966 181.854 179.785 183.667 177.313C182.122 176.118 180.892 174.564 180.083 172.785C179.275 171.007 178.913 169.058 179.029 167.107C179.235 163.614 180.966 160.41 183.682 158.31C182.72 156.148 182.29 153.792 182.432 151.387C182.842 144.43 187.909 138.828 194.563 137.602C194.934 134.057 196.59 130.825 199.269 128.443C202.115 125.912 205.775 124.641 209.576 124.866C211.726 124.99 213.82 125.603 215.699 126.658C219.17 122.997 224.07 121.033 229.174 121.335C234.312 121.638 238.947 124.178 241.962 128.247C243.998 127.305 246.226 126.884 248.513 127.018C256.089 127.465 261.889 133.998 261.442 141.58C261.405 142.214 261.324 142.845 261.2 143.468C263.765 143.93 266.088 145.229 267.846 147.209C269.92 149.545 270.961 152.55 270.777 155.67C270.514 160.135 267.67 164.117 263.532 165.813C263.173 165.96 262.783 166.013 262.399 165.967C262.014 165.921 261.648 165.777 261.334 165.55C261.257 165.494 253.044 159.7 242.256 160.469C224.841 161.714 219.757 174.086 219.708 174.211C219.563 174.578 219.325 174.901 219.018 175.148C218.711 175.396 218.344 175.559 217.955 175.622C217.566 175.685 217.167 175.645 216.797 175.508C216.428 175.37 216.1 175.139 215.847 174.836C214.028 172.663 211.363 171.417 208.536 171.417C203.278 171.417 199.001 175.698 199.001 180.959C199.001 185.381 201.997 189.194 206.287 190.232C206.825 190.362 207.297 190.683 207.615 191.136C207.933 191.589 208.075 192.142 208.015 192.693C207.75 195.123 207.031 198.856 205.106 202.834C204.971 203.113 204.781 203.362 204.547 203.565C204.312 203.768 204.039 203.92 203.744 204.014C202.702 204.343 201.326 204.595 199.848 204.595L199.848 204.594ZM194.205 189.342C194.635 189.342 195.056 189.464 195.419 189.693C195.783 189.922 196.074 190.25 196.259 190.638C196.445 191.026 196.516 191.459 196.466 191.886C196.416 192.313 196.246 192.717 195.976 193.051C195.974 193.055 194.503 194.982 195.159 196.956C196.293 200.368 199.739 200.204 201.449 199.889C202.263 198.007 202.859 196.038 203.225 194.02C197.969 191.893 194.449 186.783 194.449 180.959C194.449 173.185 200.768 166.861 208.536 166.861C211.621 166.861 214.575 167.865 216.991 169.683C219.812 165.213 226.978 156.994 241.932 155.925C251.993 155.207 259.912 159.312 262.817 161.085C264.789 159.877 266.095 157.749 266.233 155.402C266.291 154.466 266.162 153.526 265.855 152.64C265.548 151.753 265.068 150.936 264.443 150.236C263.822 149.532 263.068 148.959 262.225 148.55C261.381 148.14 260.464 147.902 259.528 147.849C259.35 147.839 259.172 147.836 258.994 147.84C258.651 147.846 258.312 147.774 258.001 147.63C257.69 147.485 257.417 147.272 257.2 147.006L256.662 146.349C256.407 146.038 256.239 145.664 256.175 145.266C256.111 144.869 256.154 144.461 256.299 144.086C256.641 143.198 256.843 142.262 256.899 141.312C257.198 136.238 253.316 131.865 248.246 131.566C246.187 131.445 244.202 131.997 242.503 133.163C242.241 133.342 241.945 133.465 241.634 133.523C241.322 133.582 241.002 133.574 240.693 133.501C240.385 133.429 240.095 133.292 239.842 133.101C239.589 132.909 239.379 132.667 239.225 132.39C237.108 128.572 233.251 126.14 228.907 125.883C224.611 125.628 220.523 127.554 217.967 131.031C217.786 131.277 217.558 131.484 217.296 131.64C217.033 131.796 216.742 131.897 216.44 131.938C216.138 131.979 215.83 131.959 215.536 131.879C215.242 131.799 214.967 131.66 214.727 131.471C213.174 130.246 211.283 129.528 209.309 129.415C206.719 129.263 204.23 130.127 202.293 131.849C200.356 133.572 199.206 135.946 199.053 138.535C199.033 138.871 199.031 139.207 199.045 139.543C199.058 139.842 199.012 140.141 198.91 140.423C198.807 140.704 198.65 140.962 198.448 141.183C198.245 141.404 198.001 141.582 197.73 141.708C197.458 141.834 197.164 141.905 196.865 141.918C191.542 142.137 187.291 146.324 186.977 151.656C186.847 153.863 187.409 156.011 188.604 157.866C188.778 158.136 188.892 158.439 188.941 158.756C188.989 159.073 188.97 159.396 188.885 159.705C188.8 160.014 188.651 160.302 188.447 160.549C188.243 160.797 187.99 160.998 187.703 161.141C185.313 162.328 183.731 164.717 183.574 167.376C183.482 168.931 183.879 170.476 184.71 171.792C185.542 173.109 186.764 174.132 188.207 174.716C188.584 174.869 188.913 175.12 189.159 175.444C189.406 175.767 189.562 176.15 189.611 176.554C189.66 176.958 189.599 177.368 189.436 177.74C189.274 178.113 189.014 178.435 188.684 178.674C186.688 180.117 185.775 182.595 186.357 184.988C187.141 188.207 190.388 190.191 193.603 189.424C193.62 189.42 193.636 189.415 193.654 189.411C193.835 189.366 194.02 189.343 194.206 189.343L194.205 189.342Z" fill="#1B6C86"/>
<path d="M205.899 169.435C206.763 169.237 207.647 169.137 208.533 169.137C212.171 169.137 215.422 170.783 217.589 173.371C232.104 161.498 258.564 166.47 262.896 169.41C266.049 166.689 266.499 162.074 262.46 158.816C262.46 158.816 265.15 155.324 260.228 151.464C250.461 143.804 212.226 146.771 205.898 169.432L205.899 169.435H205.899Z" fill="#FF8D61"/>
<path d="M217.592 175.654C217.26 175.655 216.931 175.582 216.629 175.441C216.327 175.301 216.06 175.095 215.847 174.839C214.027 172.666 211.363 171.42 208.535 171.42C207.819 171.421 207.105 171.502 206.407 171.662C206.093 171.733 205.768 171.737 205.452 171.674C205.136 171.61 204.838 171.48 204.576 171.293C204.314 171.105 204.095 170.864 203.933 170.585C203.772 170.306 203.671 169.997 203.637 169.676C203.607 169.39 203.632 169.101 203.709 168.824C206.322 159.465 214.318 152.16 226.223 148.254C239.284 143.968 255.169 144.606 261.634 149.676C265.56 152.756 265.885 156.053 265.218 158.298C266.764 160.01 267.617 162.048 267.652 164.177C267.695 166.773 266.504 169.311 264.385 171.14C264.006 171.467 263.529 171.66 263.03 171.689C262.53 171.718 262.035 171.581 261.621 171.3C258.373 169.096 233.024 163.695 219.031 175.14C218.625 175.473 218.117 175.655 217.592 175.654H217.592ZM209.27 166.883C212.426 167.045 215.435 168.268 217.811 170.353C226 164.59 236.504 163.456 244.095 163.563C251.679 163.67 258.678 165.07 262.376 166.603C262.858 165.874 263.115 165.06 263.101 164.252C263.08 162.933 262.365 161.668 261.035 160.595C260.554 160.207 260.211 159.69 260.156 159.075C260.101 158.468 260.252 157.914 260.644 157.45C260.946 156.983 261.59 155.43 258.827 153.262C254.187 149.623 240.239 148.449 227.641 152.583C222.246 154.353 213.229 158.46 209.27 166.883Z" fill="#1B6C86"/>
<path d="M138.156 301.725L243.777 317.598L235.425 241.055L138.156 301.725Z" fill="#449EBB"/>
<path d="M235.426 241.055C235.426 241.055 238.041 243.976 253.571 251.73L253.79 251.839C265.918 257.877 274.554 269.218 277.136 282.526L287.192 334.362L233.81 347.153L223.32 302.669" fill="#449EBB"/>
<path d="M233.812 349.434C233.3 349.433 232.802 349.26 232.4 348.942C231.998 348.623 231.715 348.178 231.597 347.679L221.108 303.195C220.969 302.607 221.07 301.988 221.387 301.474C221.704 300.96 222.213 300.593 222.8 300.455C224.02 300.166 225.249 300.924 225.538 302.148L235.503 344.408L284.545 332.657L274.904 282.963C272.474 270.44 264.203 259.568 252.778 253.88L252.559 253.771C237.085 246.045 234.03 242.909 233.733 242.577L237.123 239.537L237.082 239.492C237.198 239.61 240.097 242.458 254.589 249.694L254.81 249.803C261.069 252.92 266.619 257.51 270.856 263.078C275.095 268.648 278.04 275.224 279.372 282.094L289.428 333.93C289.54 334.506 289.425 335.104 289.108 335.597C288.79 336.091 288.295 336.443 287.724 336.58L234.342 349.371C234.168 349.413 233.991 349.434 233.812 349.434L233.812 349.434ZM231.388 336.362L285.086 323.493L231.388 336.362Z" fill="#1B6C86"/>
<path d="M231.389 338.637C230.832 338.636 230.295 338.43 229.879 338.059C229.463 337.689 229.198 337.178 229.133 336.624C229.068 336.071 229.208 335.513 229.526 335.055C229.845 334.598 230.32 334.273 230.861 334.143L284.559 321.274C285.78 320.981 287.009 321.736 287.303 322.959C287.443 323.546 287.345 324.166 287.029 324.681C286.713 325.196 286.206 325.564 285.619 325.705L231.921 338.574C231.747 338.615 231.569 338.637 231.389 338.637Z" fill="#1B6C86"/>
<path d="M252.097 308.244L256.104 413.663H102.589C102.589 396.896 99.8586 343.773 132.085 280.609" fill="#449EBB"/>
<path d="M256.106 415.941H102.59C101.987 415.941 101.408 415.701 100.981 415.274C100.554 414.846 100.314 414.267 100.314 413.663C100.314 412.596 100.303 411.38 100.29 410.023C100.202 400.33 100.037 382.286 103.7 359.631C108.159 332.05 117.028 305.114 130.059 279.573C130.338 279.044 130.815 278.646 131.385 278.465C131.955 278.285 132.574 278.336 133.107 278.609C133.639 278.881 134.044 279.352 134.232 279.92C134.42 280.488 134.378 281.108 134.113 281.645C104.204 340.267 104.668 390.915 104.842 409.981L104.855 411.385H253.741L249.824 308.33C249.801 307.726 250.019 307.138 250.429 306.695C250.84 306.252 251.409 305.99 252.012 305.967C252.311 305.955 252.609 306.003 252.89 306.106C253.17 306.21 253.427 306.368 253.647 306.572C253.866 306.775 254.043 307.02 254.168 307.292C254.292 307.564 254.362 307.858 254.373 308.157L258.38 413.576C258.391 413.882 258.341 414.188 258.232 414.474C258.123 414.76 257.958 415.022 257.745 415.242C257.533 415.463 257.278 415.639 256.997 415.759C256.715 415.879 256.412 415.94 256.106 415.94V415.941Z" fill="#1B6C86"/>
<path d="M235.425 241.056C235.425 241.056 227.917 248.029 213.798 247.282C192.812 246.171 184.042 226.039 184.042 226.039C174.64 232.346 132.257 224.811 110.807 257.036L79.1484 310.199L128.631 335.177L155.711 298.111" fill="#449EBB"/>
<path d="M128.633 337.459C128.277 337.459 127.926 337.375 127.609 337.215L78.1259 312.237C77.847 312.096 77.6001 311.899 77.4004 311.659C77.2008 311.418 77.0527 311.139 76.9655 310.839C76.8783 310.539 76.8538 310.224 76.8934 309.914C76.9331 309.603 77.0361 309.305 77.1961 309.036L108.855 255.874C108.875 255.841 108.895 255.809 108.916 255.777C124.619 232.186 150.859 229.141 168.223 227.126C174.789 226.364 180.46 225.706 182.778 224.151C183.054 223.966 183.369 223.843 183.698 223.792C184.027 223.741 184.364 223.764 184.684 223.857C185.004 223.951 185.299 224.114 185.549 224.334C185.799 224.555 185.998 224.827 186.131 225.133C186.151 225.177 188.286 229.973 192.822 234.806C198.778 241.152 205.877 244.586 213.922 245.012C226.927 245.701 233.811 239.454 233.88 239.391C234.098 239.185 234.356 239.025 234.636 238.919C234.917 238.813 235.216 238.764 235.516 238.774C235.816 238.785 236.111 238.854 236.384 238.979C236.657 239.104 236.902 239.281 237.107 239.501C237.311 239.722 237.469 239.98 237.573 240.262C237.677 240.543 237.725 240.843 237.712 241.143C237.7 241.443 237.629 241.738 237.503 242.01C237.376 242.283 237.197 242.527 236.976 242.73C236.641 243.042 228.583 250.347 213.681 249.561C204.499 249.075 196.099 245.009 189.388 237.801C186.262 234.444 184.187 231.151 183.042 229.088C179.709 230.379 174.908 230.937 168.747 231.652C152.23 233.569 127.275 236.465 112.736 258.256L82.3569 309.27L127.936 332.278L153.876 296.771C154.236 296.292 154.769 295.974 155.361 295.886C155.953 295.798 156.556 295.947 157.039 296.301C157.523 296.654 157.847 297.184 157.943 297.775C158.039 298.367 157.898 298.972 157.551 299.46L130.471 336.526C130.26 336.816 129.983 337.051 129.664 337.213C129.344 337.375 128.991 337.46 128.633 337.46V337.459Z" fill="#1B6C86"/>
<path d="M188.438 335.018L219.633 291.273L234.154 336.09L188.438 335.018Z" fill="white"/>
<path d="M234.148 338.365C234.13 338.365 234.113 338.365 234.095 338.364L188.379 337.292C187.965 337.282 187.562 337.16 187.213 336.938C186.864 336.716 186.582 336.404 186.397 336.034C186.212 335.663 186.131 335.25 186.163 334.837C186.195 334.424 186.339 334.028 186.58 333.691L217.775 289.947C218.02 289.603 218.355 289.335 218.743 289.171C219.132 289.007 219.558 288.954 219.975 289.019C220.391 289.083 220.782 289.262 221.103 289.536C221.424 289.809 221.662 290.166 221.792 290.568L236.313 335.384C236.424 335.726 236.452 336.089 236.396 336.444C236.34 336.799 236.2 337.136 235.989 337.426C235.778 337.717 235.501 337.953 235.181 338.117C234.861 338.28 234.507 338.365 234.148 338.365ZM192.781 332.838L230.993 333.734L218.856 296.273L192.781 332.838Z" fill="white"/>
<path d="M85.1819 300.075L135.238 326.139L85.1819 300.075ZM135.237 328.417C134.871 328.418 134.511 328.329 134.188 328.16L84.1316 302.096C83.5961 301.817 83.1933 301.337 83.0117 300.76C82.8301 300.184 82.8846 299.56 83.1632 299.024C83.3011 298.758 83.4899 298.523 83.7188 298.33C83.9477 298.138 84.2123 297.992 84.4973 297.902C84.7824 297.812 85.0824 297.779 85.3802 297.806C85.6779 297.832 85.9677 297.916 86.2328 298.054L136.289 324.118C136.824 324.397 137.227 324.878 137.409 325.454C137.59 326.03 137.536 326.655 137.257 327.19C137.065 327.561 136.775 327.871 136.419 328.087C136.062 328.304 135.653 328.418 135.237 328.417Z" fill="#1B6C86"/>
<path d="M317.787 360.423C317.795 358.471 316.273 356.854 314.325 356.748C303.333 356.146 269.47 354.337 259.435 354.336C247.398 354.334 231.626 356.02 231.626 356.02L229.5 371.851C229.5 371.851 231.714 376.612 234.958 379.454C234.958 379.454 244.225 388.958 270.081 385.473L303.403 393.189C304.253 393.386 305.146 393.275 305.923 392.877C306.7 392.478 307.311 391.817 307.647 391.011C308.418 389.164 307.582 387.038 305.76 386.213L304.785 385.834C306.95 386.257 308.836 386.65 310.241 386.986C311.995 387.404 313.816 386.699 314.615 385.082C315.502 383.288 314.802 381.113 313.036 380.174L280.568 366.28L314.364 364.064C315.289 364.004 316.157 363.594 316.792 362.918C317.427 362.242 317.783 361.351 317.786 360.423L317.787 360.423Z" fill="#F6B17A"/>
<path d="M231.625 356.02L120.357 346.499L128.632 335.174L79.1489 310.195L56.8455 347.513C42.6308 372.265 62.9091 402.595 91.1939 398.887L234.957 379.454" fill="#F6B17A"/>
<path d="M86.5413 401.474C81.0868 401.474 75.763 400.286 70.9148 397.964C64.996 395.13 59.905 390.696 56.1924 385.144C52.4797 379.591 50.3272 373.19 49.9673 366.634C49.5834 359.643 51.2801 352.641 54.8744 346.383L54.8941 346.348L77.1975 309.03C77.4929 308.536 77.9643 308.172 78.5168 308.012C79.0694 307.852 79.6621 307.907 80.1758 308.166L129.658 333.144C129.953 333.293 130.212 333.505 130.418 333.764C130.623 334.023 130.769 334.324 130.846 334.645C130.924 334.967 130.93 335.301 130.865 335.625C130.8 335.949 130.666 336.256 130.471 336.522L124.585 344.579L231.82 353.755C233.072 353.862 234.001 354.965 233.894 356.219C233.787 357.472 232.677 358.402 231.432 358.294L120.166 348.773C119.763 348.738 119.377 348.597 119.047 348.364C118.717 348.131 118.455 347.814 118.288 347.446C118.121 347.079 118.054 346.673 118.095 346.271C118.136 345.869 118.283 345.485 118.522 345.158L125.212 336.002L80.0164 313.187L58.8104 348.669C52.5866 359.522 53.0211 372.209 59.9754 382.609C66.9336 393.016 78.4958 398.258 90.8994 396.632L234.654 377.201C235.252 377.12 235.858 377.28 236.338 377.646C236.818 378.012 237.133 378.554 237.214 379.153C237.295 379.752 237.135 380.358 236.769 380.839C236.403 381.319 235.861 381.635 235.263 381.716L91.5 401.148C89.8558 401.364 88.1993 401.473 86.541 401.473L86.5413 401.474Z" fill="#1B6C86"/>
<path d="M280.567 366.28L314.363 364.064C315.288 364.004 316.156 363.594 316.791 362.918C317.426 362.243 317.782 361.351 317.786 360.423C317.794 358.471 316.272 356.854 314.324 356.748C303.333 356.146 269.469 354.337 259.435 354.336C247.397 354.334 231.625 356.02 231.625 356.02" fill="#F6B17A"/>
<path d="M280.567 368.563C279.977 368.562 279.41 368.332 278.985 367.92C278.561 367.509 278.314 366.949 278.295 366.358C278.276 365.767 278.487 365.192 278.883 364.754C279.28 364.317 279.831 364.05 280.421 364.012L314.217 361.796C314.567 361.772 314.895 361.617 315.135 361.361C315.375 361.106 315.51 360.769 315.513 360.418C315.515 360.062 315.38 359.719 315.136 359.46C314.892 359.201 314.558 359.046 314.203 359.027C303.891 358.462 269.465 356.62 259.437 356.618H259.42C247.648 356.618 232.026 358.273 231.87 358.289C231.572 358.322 231.272 358.295 230.985 358.21C230.698 358.126 230.43 357.986 230.198 357.798C229.965 357.61 229.772 357.378 229.629 357.115C229.486 356.852 229.396 356.564 229.364 356.266C229.3 355.666 229.477 355.064 229.856 354.594C230.235 354.124 230.786 353.824 231.386 353.76C231.545 353.743 247.403 352.062 259.42 352.062H259.438C269.58 352.064 304.11 353.911 314.451 354.478C317.613 354.651 320.079 357.268 320.065 360.438C320.051 363.545 317.614 366.139 314.515 366.342L280.719 368.557C280.668 368.561 280.618 368.562 280.567 368.563Z" fill="#1B6C86"/>
<path d="M276 380.852C276 380.852 301.783 384.969 310.243 386.987C311.996 387.406 313.818 386.701 314.617 385.084C315.504 383.29 314.804 381.115 313.038 380.176L280.569 366.281" fill="#F6B17A"/>
<path d="M311.241 389.385C310.74 389.385 310.229 389.326 309.718 389.204C301.439 387.229 275.901 383.144 275.644 383.103C275.048 383.008 274.514 382.679 274.16 382.19C273.806 381.701 273.66 381.091 273.755 380.495C273.85 379.898 274.178 379.364 274.667 379.009C275.156 378.655 275.765 378.509 276.361 378.604C277.417 378.773 302.327 382.757 310.773 384.773C311.424 384.929 312.234 384.772 312.579 384.075C312.739 383.755 312.773 383.386 312.672 383.043C312.571 382.7 312.344 382.407 312.037 382.225L279.677 368.377C279.401 368.26 279.15 368.09 278.94 367.876C278.729 367.663 278.563 367.409 278.451 367.131C278.338 366.853 278.282 366.555 278.285 366.255C278.288 365.955 278.35 365.658 278.468 365.382C278.586 365.106 278.757 364.856 278.972 364.647C279.187 364.437 279.441 364.272 279.719 364.161C279.998 364.05 280.296 363.996 280.596 364C280.896 364.005 281.192 364.069 281.467 364.188L313.935 378.083C313.994 378.108 314.052 378.135 314.108 378.166C316.982 379.693 318.102 383.176 316.659 386.095C315.641 388.155 313.536 389.385 311.241 389.385H311.241Z" fill="#1B6C86"/>
<path d="M229.5 371.852C229.5 371.852 231.714 376.612 234.958 379.455C234.958 379.455 244.225 388.958 270.081 385.474L303.403 393.19C304.296 393.396 305.235 393.263 306.035 392.815C306.836 392.368 307.442 391.639 307.736 390.77C308.03 389.9 307.99 388.953 307.625 388.111C307.26 387.269 306.595 386.593 305.76 386.214L275.773 374.551" fill="#F6B17A"/>
<path d="M304.249 395.57C303.801 395.57 303.345 395.519 302.891 395.414L269.971 387.791C266.034 388.304 262.463 388.524 259.239 388.524C241.623 388.524 234.292 381.983 233.409 381.128C229.874 378.002 227.536 373.029 227.438 372.818C227.183 372.27 227.156 371.643 227.363 371.076C227.57 370.508 227.994 370.046 228.541 369.791C229.088 369.537 229.713 369.509 230.28 369.716C230.847 369.923 231.309 370.346 231.564 370.893C231.584 370.936 233.628 375.265 236.459 377.746C236.504 377.785 236.547 377.826 236.589 377.869C236.662 377.941 245.618 386.477 269.778 383.221C270.05 383.184 270.327 383.197 270.595 383.259L303.917 390.975C304.244 391.052 304.587 391.009 304.886 390.856C305.185 390.703 305.419 390.449 305.548 390.139C305.69 389.805 305.698 389.43 305.571 389.091C305.444 388.751 305.192 388.474 304.866 388.315L274.95 376.679C274.671 376.571 274.416 376.409 274.2 376.202C273.984 375.995 273.811 375.748 273.691 375.474C273.57 375.2 273.505 374.905 273.499 374.606C273.492 374.307 273.544 374.01 273.653 373.731C273.761 373.452 273.923 373.197 274.13 372.981C274.336 372.765 274.583 372.592 274.857 372.471C275.131 372.351 275.425 372.285 275.724 372.279C276.023 372.272 276.32 372.324 276.599 372.433L306.586 384.096C306.624 384.111 306.662 384.127 306.699 384.144C309.664 385.485 311.003 388.89 309.748 391.895C309.297 392.983 308.534 393.912 307.555 394.566C306.576 395.22 305.426 395.569 304.249 395.57ZM98.9872 358.586C98.685 358.587 98.3857 358.527 98.1069 358.41C97.8282 358.293 97.5756 358.121 97.364 357.905C96.9412 357.475 96.7064 356.895 96.711 356.292C96.7156 355.688 96.9593 355.111 97.3885 354.688C97.7785 354.303 107.087 345.26 120.182 344.234C121.433 344.136 122.531 345.072 122.629 346.327C122.676 346.929 122.482 347.525 122.09 347.985C121.698 348.444 121.139 348.728 120.537 348.776C109.137 349.669 100.665 357.853 100.581 357.935C100.155 358.353 99.5828 358.587 98.9866 358.587L98.9872 358.586Z" fill="#1B6C86"/>
</g>
<g clip-path="url(#clip2_1996_7361)">
<path d="M317.172 360.234C317.18 358.29 315.664 356.68 313.722 356.574C302.768 355.975 269.021 354.173 259.02 354.172C247.024 354.17 231.306 355.849 231.306 355.849L229.188 371.615C229.188 371.615 231.394 376.356 234.627 379.186C234.627 379.186 243.862 388.651 269.629 385.18L302.837 392.864C303.685 393.061 304.575 392.951 305.349 392.554C306.123 392.157 306.732 391.498 307.067 390.696C307.836 388.856 307.002 386.739 305.186 385.918L304.214 385.54C306.372 385.961 308.251 386.353 309.652 386.687C311.4 387.103 313.215 386.401 314.011 384.791C314.895 383.004 314.198 380.838 312.438 379.903L280.08 366.066L313.761 363.86C314.683 363.8 315.547 363.392 316.18 362.719C316.814 362.046 317.168 361.158 317.172 360.234L317.172 360.234Z" fill="#F6B17A"/>
<path d="M231.307 355.847L120.421 346.365L128.667 335.086L79.3538 310.211L57.1265 347.375C42.9604 372.024 63.1693 402.229 91.3572 398.536L234.628 379.184" fill="#F6B17A"/>
<path d="M86.7203 401.11C81.2845 401.11 75.9793 399.927 71.1474 397.615C65.2491 394.792 60.1758 390.378 56.4756 384.848C52.7754 379.318 50.6306 372.944 50.2719 366.414C49.889 359.453 51.5802 352.479 55.1616 346.247L55.1815 346.213L77.4086 309.049C77.7029 308.557 78.1727 308.195 78.7233 308.035C79.274 307.875 79.8647 307.93 80.3766 308.188L129.69 333.063C129.984 333.212 130.242 333.422 130.446 333.68C130.651 333.938 130.797 334.238 130.874 334.558C130.951 334.878 130.957 335.211 130.892 335.534C130.828 335.857 130.694 336.162 130.499 336.428L124.633 344.451L231.502 353.589C232.75 353.695 233.675 354.794 233.569 356.042C233.462 357.291 232.355 358.216 231.116 358.109L120.229 348.627C119.829 348.593 119.444 348.452 119.115 348.22C118.786 347.988 118.525 347.673 118.359 347.307C118.192 346.94 118.125 346.536 118.166 346.136C118.207 345.736 118.354 345.353 118.591 345.028L125.258 335.909L80.2181 313.19L59.0856 348.524C52.8816 359.331 53.3152 371.966 60.246 382.325C67.1801 392.689 78.702 397.909 91.0638 396.289L234.326 376.938C234.922 376.857 235.526 377.017 236.004 377.382C236.483 377.746 236.797 378.286 236.878 378.882C236.958 379.479 236.798 380.083 236.434 380.561C236.069 381.04 235.529 381.354 234.933 381.434L91.6623 400.786C90.0238 401.002 88.373 401.11 86.7203 401.11Z" fill="#1B6C86"/>
<path d="M280.079 366.067L313.76 363.86C314.681 363.8 315.546 363.392 316.179 362.719C316.812 362.046 317.167 361.158 317.171 360.234C317.179 358.29 315.662 356.68 313.721 356.574C302.767 355.975 269.019 354.173 259.019 354.172C247.023 354.17 231.305 355.849 231.305 355.849" fill="#F6B17A"/>
<path d="M280.079 368.338C279.504 368.337 278.95 368.118 278.53 367.724C278.11 367.33 277.856 366.792 277.818 366.218C277.799 365.92 277.838 365.622 277.934 365.34C278.029 365.058 278.18 364.798 278.376 364.574C278.573 364.35 278.811 364.167 279.078 364.035C279.345 363.903 279.636 363.825 279.933 363.806L313.614 361.599C313.962 361.575 314.289 361.421 314.528 361.166C314.768 360.912 314.902 360.576 314.905 360.227C314.907 359.872 314.772 359.531 314.529 359.273C314.286 359.015 313.954 358.861 313.6 358.841C303.323 358.279 269.016 356.445 259.021 356.443H259.003C247.271 356.443 231.704 358.091 231.548 358.107C231.252 358.139 230.953 358.113 230.667 358.029C230.381 357.944 230.114 357.805 229.883 357.618C229.651 357.431 229.458 357.2 229.315 356.938C229.173 356.676 229.083 356.389 229.052 356.093C228.988 355.495 229.164 354.896 229.542 354.427C229.92 353.959 230.468 353.66 231.066 353.596C231.225 353.579 247.027 351.906 259.003 351.906H259.022C269.132 351.908 303.542 353.747 313.848 354.311C316.998 354.484 319.455 357.091 319.441 360.247C319.428 363.341 316.999 365.924 313.91 366.127L280.23 368.333C280.18 368.336 280.129 368.338 280.079 368.338V368.338Z" fill="#1B6C86"/>
<path d="M275.531 380.581C275.531 380.581 301.226 384.681 309.657 386.691C311.404 387.107 313.219 386.405 314.016 384.795C314.9 383.008 314.203 380.843 312.442 379.907L280.085 366.07" fill="#F6B17A"/>
<path d="M310.652 389.077C310.152 389.077 309.643 389.018 309.134 388.897C300.883 386.93 275.432 382.862 275.177 382.821C274.582 382.726 274.05 382.399 273.697 381.912C273.344 381.425 273.199 380.817 273.294 380.223C273.389 379.629 273.716 379.097 274.203 378.744C274.69 378.391 275.297 378.246 275.891 378.341C276.944 378.508 301.768 382.477 310.186 384.484C310.835 384.638 311.642 384.483 311.986 383.788C312.145 383.47 312.178 383.103 312.078 382.761C311.977 382.419 311.751 382.128 311.445 381.946L279.196 368.156C278.92 368.04 278.671 367.87 278.461 367.657C278.251 367.444 278.086 367.192 277.974 366.915C277.862 366.638 277.806 366.341 277.809 366.043C277.812 365.744 277.874 365.448 277.991 365.173C278.109 364.899 278.279 364.65 278.493 364.441C278.707 364.232 278.96 364.068 279.238 363.958C279.516 363.847 279.812 363.793 280.111 363.797C280.41 363.802 280.705 363.865 280.979 363.984L313.337 377.821C313.395 377.846 313.453 377.874 313.509 377.904C316.373 379.425 317.489 382.894 316.052 385.801C315.037 387.852 312.939 389.077 310.652 389.077L310.652 389.077Z" fill="#1B6C86"/>
<path d="M229.188 371.609C229.188 371.609 231.394 376.35 234.627 379.181C234.627 379.181 243.862 388.646 269.629 385.175L302.837 392.859C303.685 393.055 304.574 392.945 305.348 392.548C306.123 392.151 306.731 391.493 307.067 390.69C307.835 388.851 307.002 386.734 305.186 385.913L275.302 374.298" fill="#F6B17A"/>
<path d="M303.682 395.227C303.235 395.227 302.781 395.177 302.329 395.072L269.522 387.481C265.598 387.992 262.039 388.211 258.826 388.211C241.269 388.211 233.963 381.696 233.084 380.845C229.561 377.733 227.232 372.78 227.134 372.57C227.008 372.3 226.937 372.007 226.924 371.71C226.911 371.412 226.957 371.115 227.059 370.835C227.161 370.555 227.317 370.298 227.519 370.079C227.72 369.859 227.963 369.681 228.233 369.556C228.778 369.302 229.401 369.275 229.966 369.481C230.531 369.686 230.991 370.108 231.245 370.653C231.266 370.696 233.302 375.007 236.124 377.477C236.168 377.516 236.212 377.557 236.253 377.599C236.326 377.671 245.251 386.172 269.329 382.929C269.601 382.893 269.876 382.906 270.143 382.968L303.351 390.652C303.677 390.728 304.019 390.686 304.317 390.533C304.615 390.381 304.849 390.127 304.977 389.818C305.118 389.486 305.126 389.112 304.999 388.774C304.872 388.436 304.621 388.16 304.297 388.002L274.483 376.415C274.205 376.307 273.952 376.145 273.736 375.939C273.521 375.733 273.349 375.487 273.229 375.214C273.109 374.941 273.043 374.648 273.037 374.35C273.03 374.052 273.083 373.756 273.19 373.478C273.298 373.201 273.46 372.947 273.666 372.732C273.872 372.516 274.118 372.344 274.391 372.224C274.663 372.104 274.957 372.039 275.255 372.032C275.553 372.025 275.849 372.078 276.126 372.186L306.01 383.8C306.048 383.815 306.086 383.831 306.123 383.848C309.078 385.185 310.413 388.575 309.163 391.567C308.713 392.65 307.952 393.576 306.977 394.227C306.001 394.879 304.855 395.226 303.682 395.227V395.227Z" fill="#1B6C86"/>
<path d="M99.12 358.404C98.6699 358.404 98.2301 358.27 97.8563 358.019C97.4825 357.769 97.1918 357.412 97.0211 356.996C96.8504 356.58 96.8074 356.122 96.8976 355.681C96.9878 355.24 97.2071 354.836 97.5277 354.52C97.9163 354.137 107.193 345.131 120.243 344.109C120.54 344.085 120.839 344.12 121.122 344.212C121.405 344.305 121.668 344.452 121.894 344.645C122.121 344.839 122.307 345.075 122.442 345.341C122.577 345.606 122.658 345.896 122.681 346.193C122.728 346.793 122.535 347.387 122.144 347.844C121.753 348.301 121.197 348.585 120.597 348.632C109.179 349.526 100.795 357.669 100.712 357.752C100.288 358.17 99.7154 358.405 99.1194 358.404L99.12 358.404Z" fill="#1B6C86"/>
</g>
<g clip-path="url(#clip3_1996_7361)">
<path d="M411.551 90.2969H335.623C328.941 90.2969 323.523 95.7079 323.523 102.383V147.489C323.523 154.164 328.941 159.575 335.623 159.575H411.551C418.234 159.575 423.651 154.164 423.651 147.489V102.383C423.651 95.7079 418.234 90.2969 411.551 90.2969Z" fill="#FFF4E2"/>
<path d="M405.986 114.573C409.654 114.573 412.628 111.603 412.628 107.939C412.628 104.275 409.654 101.305 405.986 101.305C402.317 101.305 399.344 104.275 399.344 107.939C399.344 111.603 402.317 114.573 405.986 114.573Z" fill="#FFA500"/>
<path d="M405.989 116.84C401.076 116.84 397.078 112.847 397.078 107.939C397.078 103.032 401.076 99.0391 405.989 99.0391C410.902 99.0391 414.899 103.032 414.899 107.939C414.899 112.847 410.902 116.84 405.989 116.84ZM405.989 103.572C403.577 103.572 401.616 105.531 401.616 107.94C401.616 110.348 403.577 112.308 405.989 112.308C408.4 112.308 410.362 110.348 410.362 107.94C410.362 105.531 408.4 103.572 405.989 103.572Z" fill="#1B6C86"/>
<path d="M323.523 142.273L337.872 125.931C338.993 124.655 340.982 124.655 342.103 125.931L354.361 139.892C355.62 141.326 357.912 141.118 358.892 139.481L375.379 111.931C376.471 110.106 379.117 110.106 380.209 111.931L398.969 143.279C399.878 144.799 401.952 145.11 403.268 143.924L410.304 137.588C410.821 137.123 411.492 136.865 412.188 136.865C412.884 136.865 413.556 137.123 414.073 137.588L423.651 146.214V147.489C423.651 154.163 418.233 159.575 411.551 159.575H335.623C328.941 159.575 323.523 154.163 323.523 147.489V142.273Z" fill="#FFA500"/>
<path d="M411.554 161.842H335.627C327.703 161.842 321.258 155.404 321.258 147.49V142.274C321.258 141.724 321.458 141.193 321.821 140.78L336.17 124.438C336.647 123.895 337.234 123.459 337.893 123.161C338.552 122.863 339.267 122.709 339.991 122.709C340.714 122.709 341.429 122.863 342.088 123.161C342.747 123.459 343.335 123.895 343.812 124.438L356.07 138.399C356.221 138.571 356.404 138.594 356.529 138.582C356.615 138.576 356.698 138.548 356.771 138.503C356.844 138.457 356.905 138.394 356.948 138.319L373.435 110.769C374.361 109.221 375.992 108.297 377.797 108.297C379.603 108.297 381.234 109.221 382.16 110.769L400.92 142.117C401.029 142.299 401.191 142.358 401.307 142.376C401.423 142.394 401.595 142.384 401.753 142.242L408.789 135.906C409.721 135.062 410.934 134.595 412.192 134.595C413.45 134.595 414.663 135.062 415.596 135.906L425.174 144.532C425.41 144.744 425.599 145.004 425.728 145.294C425.857 145.584 425.924 145.897 425.924 146.215V147.489C425.924 155.403 419.478 161.841 411.555 161.841L411.554 161.842ZM325.795 143.127V147.49C325.795 152.904 330.205 157.309 335.627 157.309H411.554C416.975 157.309 421.385 152.904 421.385 147.49V147.223L412.556 139.272C412.456 139.182 412.326 139.132 412.191 139.132C412.056 139.132 411.926 139.182 411.826 139.272L404.791 145.608C404.234 146.112 403.571 146.485 402.852 146.701C402.133 146.917 401.374 146.971 400.631 146.858C399.888 146.748 399.179 146.474 398.555 146.056C397.932 145.638 397.409 145.087 397.024 144.442L378.265 113.095C378.133 112.875 377.938 112.829 377.797 112.829C377.655 112.829 377.46 112.875 377.329 113.094L360.842 140.644C360.43 141.33 359.862 141.91 359.184 142.336C358.506 142.761 357.737 143.022 356.939 143.095C356.141 143.167 355.338 143.049 354.594 142.752C353.85 142.456 353.187 141.988 352.658 141.387L340.4 127.426C340.266 127.273 340.103 127.24 339.99 127.24C339.878 127.24 339.715 127.272 339.581 127.426L325.795 143.127V143.127Z" fill="#1B6C86"/>
<path d="M411.554 161.841H335.627C327.703 161.841 321.258 155.403 321.258 147.489V102.383C321.258 94.4697 327.703 88.0312 335.627 88.0312H411.554C419.477 88.0312 425.923 94.4697 425.923 102.383V147.489C425.923 155.403 419.477 161.841 411.554 161.841ZM335.627 92.5634C330.205 92.5634 325.795 96.9687 325.795 102.383V147.489C325.795 152.904 330.205 157.309 335.627 157.309H411.554C416.975 157.309 421.385 152.904 421.385 147.489V102.383C421.385 96.9687 416.975 92.5634 411.554 92.5634H335.627Z" fill="#1B6C86"/>
</g>
<g clip-path="url(#clip4_1996_7361)">
<path d="M515.641 179.531H421.811C415.141 179.531 409.734 184.937 409.734 191.605V253.68C409.734 260.348 415.141 265.754 421.811 265.754H515.641C522.311 265.754 527.718 260.348 527.718 253.68V191.605C527.718 184.937 522.311 179.531 515.641 179.531Z" fill="#FFF4E2"/>
<path d="M515.64 268.015H421.81C413.902 268.015 407.469 261.584 407.469 253.678V191.603C407.469 183.697 413.902 177.266 421.81 177.266H515.64C523.548 177.266 529.981 183.697 529.981 191.603V253.678C529.981 261.584 523.548 268.015 515.64 268.015ZM421.81 181.793C416.399 181.793 411.998 186.194 411.998 191.603V253.678C411.998 259.087 416.399 263.488 421.81 263.488H515.64C521.051 263.488 525.452 259.087 525.452 253.678V191.603C525.452 186.194 521.051 181.793 515.64 181.793H421.81Z" fill="#430C61"/>
<path d="M514.052 250.371H423.405C422.154 250.371 421.141 249.358 421.141 248.108C421.141 246.857 422.154 245.844 423.405 245.844H514.052C515.303 245.844 516.317 246.857 516.317 248.108C516.317 249.358 515.303 250.371 514.052 250.371H514.052Z" fill="#430C61"/>
<path d="M484.683 214.667L463.379 202.371C460.36 200.628 456.586 202.807 456.586 206.292V230.884C456.586 234.369 460.36 236.548 463.379 234.805L484.683 222.509C487.702 220.766 487.702 216.41 484.683 214.667Z" fill="#FF8D61"/>
<path d="M461.114 237.68C459.947 237.68 458.78 237.373 457.717 236.76C455.59 235.532 454.32 233.333 454.32 230.878V206.286C454.32 203.831 455.59 201.633 457.717 200.405C459.844 199.177 462.383 199.177 464.51 200.405L485.814 212.701C487.941 213.928 489.211 216.127 489.211 218.582C489.211 221.037 487.941 223.236 485.814 224.464L464.51 236.76C463.447 237.373 462.28 237.68 461.114 237.68ZM461.125 204.014C460.603 204.014 460.188 204.206 459.981 204.326C459.641 204.522 458.849 205.106 458.849 206.286V230.878C458.849 232.058 459.641 232.642 459.981 232.838C460.322 233.035 461.224 233.428 462.246 232.838L483.55 220.543C484.572 219.953 484.682 218.975 484.682 218.582C484.682 218.189 484.572 217.211 483.55 216.621L462.246 204.326C461.845 204.094 461.462 204.014 461.125 204.014ZM492.606 256.384C492.005 256.384 491.429 256.146 491.004 255.721C490.58 255.297 490.341 254.721 490.341 254.121V242.082C490.341 240.832 491.355 239.818 492.606 239.818C493.856 239.818 494.87 240.832 494.87 242.082V254.121C494.87 254.721 494.631 255.297 494.207 255.721C493.782 256.146 493.206 256.384 492.606 256.384Z" fill="#430C61"/>
</g>
<g clip-path="url(#clip5_1996_7361)">
<path d="M528.428 167.422C524.78 167.422 521.611 169.523 519.996 172.614C518.38 169.523 515.211 167.422 511.563 167.422C506.278 167.422 501.992 171.834 501.992 177.277C501.992 188.502 519.996 196.49 519.996 196.49C519.996 196.49 537.999 188.502 537.999 177.277C537.999 171.834 533.714 167.422 528.428 167.422L528.428 167.422Z" fill="#FF8D61"/>
<path d="M519.994 198.741C519.677 198.741 519.363 198.675 519.073 198.546C518.283 198.196 499.727 189.818 499.727 177.274C499.727 170.596 505.036 165.164 511.562 165.164C514.783 165.164 517.802 166.495 519.994 168.775C522.187 166.495 525.205 165.164 528.426 165.164C534.952 165.164 540.262 170.596 540.262 177.274C540.262 189.818 521.706 198.196 520.916 198.546C520.626 198.675 520.312 198.741 519.994 198.741ZM511.562 169.674C507.533 169.674 504.255 173.083 504.255 177.274C504.255 184.774 514.865 191.497 519.994 193.996C525.122 191.498 535.733 184.775 535.733 177.274C535.733 173.083 532.456 169.674 528.426 169.674C525.747 169.674 523.285 171.198 522.003 173.652C521.812 174.018 521.523 174.325 521.169 174.539C520.815 174.753 520.409 174.866 519.995 174.866C519.58 174.866 519.174 174.753 518.82 174.539C518.466 174.325 518.177 174.018 517.986 173.652C516.704 171.198 514.242 169.674 511.562 169.674H511.562Z" fill="#430C61"/>
</g>
<g clip-path="url(#clip6_1996_7361)">
<path d="M359.307 247.328C358.813 247.328 358.34 247.524 357.991 247.873C357.641 248.222 357.445 248.695 357.445 249.188V281.741C357.445 282.104 357.551 282.459 357.751 282.763C357.951 283.066 358.235 283.304 358.568 283.449C358.902 283.593 359.271 283.636 359.629 283.573C359.987 283.511 360.319 283.345 360.583 283.096L366.852 277.215L372.124 289.385C372.268 289.718 372.507 290.001 372.811 290.2C373.115 290.4 373.47 290.506 373.833 290.506C374.097 290.506 374.36 290.45 374.604 290.339L378.952 288.366C379.175 288.265 379.376 288.121 379.543 287.942C379.71 287.763 379.841 287.553 379.926 287.323C380.012 287.094 380.051 286.85 380.042 286.606C380.033 286.361 379.976 286.121 379.874 285.898L374.357 273.897L383.183 273.137C383.542 273.106 383.884 272.972 384.168 272.751C384.453 272.53 384.666 272.232 384.784 271.892C384.902 271.552 384.918 271.185 384.831 270.836C384.744 270.487 384.557 270.171 384.294 269.925L360.578 247.828C360.234 247.507 359.779 247.328 359.307 247.328Z" fill="white"/>
<path d="M373.833 292.818C373.318 292.818 372.812 292.725 372.331 292.539C371.814 292.339 371.342 292.038 370.942 291.655C370.542 291.271 370.222 290.812 370.001 290.305L366.037 281.152L362.166 284.782C361.393 285.51 360.37 285.915 359.307 285.913C358.734 285.913 358.176 285.798 357.65 285.57C356.902 285.248 356.265 284.714 355.818 284.034C355.371 283.354 355.132 282.559 355.133 281.745V249.191C355.133 248.379 355.37 247.585 355.816 246.906C356.263 246.226 356.898 245.692 357.644 245.369C358.169 245.14 358.735 245.023 359.307 245.023C360.369 245.023 361.381 245.422 362.157 246.145L385.871 268.242C386.461 268.792 386.879 269.501 387.074 270.283C387.269 271.065 387.232 271.887 386.97 272.649C386.706 273.41 386.226 274.079 385.59 274.575C384.953 275.071 384.186 275.371 383.382 275.441L377.829 275.919L381.976 284.94C382.435 285.948 382.477 287.096 382.092 288.135C381.702 289.171 380.917 290.012 379.909 290.472L375.561 292.445C375.018 292.693 374.429 292.82 373.833 292.819L373.833 292.818ZM366.852 274.91C367.304 274.91 367.745 275.042 368.122 275.289C368.499 275.536 368.796 275.889 368.975 276.302L374.064 288.052L377.584 286.455L372.256 274.863C372.101 274.527 372.03 274.158 372.048 273.788C372.066 273.419 372.172 273.059 372.359 272.739C372.545 272.419 372.806 272.149 373.12 271.95C373.433 271.752 373.789 271.632 374.158 271.601L381.976 270.928L359.758 250.225V280.707L365.269 275.536C365.698 275.134 366.264 274.91 366.852 274.91Z" fill="#430C61"/>
</g>
<g clip-path="url(#clip7_1996_7361)">
<path d="M509.092 385.938H377.669C374.314 385.938 371.594 388.659 371.594 392.015V393.075C371.594 396.431 374.314 399.152 377.669 399.152H509.092C512.448 399.152 515.168 396.431 515.168 393.075V392.015C515.168 388.659 512.448 385.938 509.092 385.938Z" fill="#00B6F0"/>
<path d="M509.094 401.416H377.671C373.071 401.416 369.328 397.672 369.328 393.07V392.01C369.328 387.408 373.071 383.664 377.671 383.664H509.094C513.694 383.664 517.437 387.408 517.437 392.01V393.07C517.437 397.672 513.694 401.416 509.094 401.416ZM377.671 388.201C375.571 388.201 373.863 389.91 373.863 392.01V393.07C373.863 395.17 375.571 396.879 377.671 396.879H509.094C511.194 396.879 512.902 395.17 512.902 393.07V392.01C512.902 389.91 511.194 388.201 509.094 388.201H377.671Z" fill="#1B6C86"/>
<path d="M380.237 385.938H288.755C285.4 385.938 282.68 388.659 282.68 392.015V393.075C282.68 396.431 285.4 399.152 288.755 399.152H380.237C383.593 399.152 386.312 396.431 386.312 393.075V392.015C386.312 388.659 383.593 385.938 380.237 385.938Z" fill="#00B6F0"/>
<path d="M380.239 401.416H288.757C284.157 401.416 280.414 397.672 280.414 393.07V392.01C280.414 387.408 284.157 383.664 288.757 383.664H380.239C384.839 383.664 388.582 387.408 388.582 392.01V393.07C388.582 397.672 384.839 401.416 380.239 401.416ZM288.757 388.201C286.657 388.201 284.949 389.91 284.949 392.01V393.07C284.949 395.17 286.657 396.879 288.757 396.879H380.239C382.338 396.879 384.047 395.17 384.047 393.07V392.01C384.047 389.91 382.339 388.201 380.239 388.201H288.757Z" fill="#1B6C86"/>
<path d="M379.711 385.933H508.565L544.383 301.859C546.36 297.217 542.955 292.063 537.911 292.063H426.211C424.28 292.062 422.392 292.63 420.781 293.695C419.17 294.76 417.908 296.275 417.151 298.052L379.711 385.934L379.711 385.933Z" fill="#00B6F0"/>
<path d="M508.567 388.205H379.713C379.338 388.205 378.969 388.112 378.639 387.934C378.309 387.757 378.028 387.5 377.821 387.187C377.614 386.874 377.488 386.515 377.455 386.142C377.421 385.768 377.48 385.392 377.627 385.047L415.067 297.165C415.996 294.978 417.549 293.113 419.531 291.803C421.513 290.492 423.837 289.795 426.213 289.797H537.913C541.046 289.797 543.947 291.358 545.674 293.972C547.401 296.587 547.699 299.868 546.471 302.751L510.653 386.825C510.478 387.234 510.188 387.583 509.817 387.829C509.446 388.074 509.011 388.204 508.567 388.205ZM383.145 383.668H507.069L542.299 300.972C542.938 299.473 542.789 297.833 541.89 296.473C540.992 295.113 539.542 294.334 537.913 294.334H426.213C424.726 294.332 423.272 294.769 422.032 295.588C420.792 296.408 419.82 297.575 419.239 298.944L383.145 383.668Z" fill="#1B6C86"/>
<path d="M472.494 346.037C477.244 341.61 477.982 334.677 474.141 330.553C470.301 326.429 463.336 326.674 458.586 331.101C453.835 335.528 453.098 342.461 456.938 346.585C460.779 350.709 467.743 350.464 472.494 346.037Z" fill="#1B6C86"/>
</g>
<g clip-path="url(#clip8_1996_7361)">
<path d="M539.754 398.352H89.1344C82.1566 398.352 76.5 403.988 76.5 410.942C76.5 417.895 82.1566 423.532 89.1344 423.532H539.754C546.732 423.532 552.388 417.895 552.388 410.942C552.388 403.988 546.732 398.352 539.754 398.352Z" fill="#F7E5C6"/>
<path d="M539.755 425.916H89.1358C80.8501 425.916 74.1094 419.199 74.1094 410.943C74.1094 402.686 80.8501 395.969 89.1358 395.969H539.755C548.041 395.969 554.782 402.686 554.782 410.943C554.782 419.199 548.041 425.916 539.755 425.916ZM89.1358 400.736C83.488 400.736 78.8934 405.315 78.8934 410.943C78.8934 416.57 83.488 421.149 89.1358 421.149H539.755C545.403 421.149 549.998 416.57 549.998 410.943C549.998 405.315 545.403 400.736 539.755 400.736H89.1358Z" fill="#393536"/>
</g>
<defs>
<clipPath id="clip0_1996_7361">
<rect width="260.15" height="230.202" fill="white" transform="translate(252.281 101.945)"/>
</clipPath>
<clipPath id="clip1_1996_7361">
<rect width="440.44" height="294.635" fill="white" transform="translate(49.9141 121.305)"/>
</clipPath>
<clipPath id="clip2_1996_7361">
<rect width="269.225" height="93.17" fill="white" transform="translate(50.2188 307.945)"/>
</clipPath>
<clipPath id="clip3_1996_7361">
<rect width="104.665" height="73.81" fill="white" transform="translate(321.258 88.0312)"/>
</clipPath>
<clipPath id="clip4_1996_7361">
<rect width="122.512" height="90.75" fill="white" transform="translate(407.469 177.266)"/>
</clipPath>
<clipPath id="clip5_1996_7361">
<rect width="40.535" height="33.5775" fill="white" transform="translate(499.727 165.164)"/>
</clipPath>
<clipPath id="clip6_1996_7361">
<rect width="32.065" height="47.795" fill="white" transform="translate(355.133 245.023)"/>
</clipPath>
<clipPath id="clip7_1996_7361">
<rect width="266.805" height="111.622" fill="white" transform="translate(280.414 289.797)"/>
</clipPath>
<clipPath id="clip8_1996_7361">
<rect width="480.672" height="29.9475" fill="white" transform="translate(74.1094 395.969)"/>
</clipPath>
</defs>
</svg>
